<svg width="62" height="65" viewBox="0 0 62 52" fill="none" xmlns="http://www.w3.org/2000/svg">
<path d="M39.9989 12.0534C39.9989 12.0534 42.1227 7.02123 45.405 5.62197C47.6447 4.65918 49.4596 5.68616 50.1676 7.58607C50.8755 9.49882 50.2062 11.5784 47.9665 12.5284C44.6842 13.9405 39.9989 12.0534 39.9989 12.0534Z" stroke="#00A460" stroke-width="2" stroke-miterlimit="10"/>
<path d="M39.9988 12.0534C39.9988 12.0534 41.2731 6.71309 39.7671 3.5808C38.7374 1.43698 36.7552 1.07754 35.0303 2.10452C33.3055 3.1315 32.4817 5.15978 33.5115 7.3036C35.0303 10.4359 39.9988 12.0534 39.9988 12.0534Z" stroke="#00A460" stroke-width="2" stroke-miterlimit="10"/>
<path d="M16.9071 19.0238L18.7606 13.9146" stroke="#00A460" stroke-width="2" stroke-miterlimit="10"/>
<path d="M14.0881 26.7262L15.9674 21.5913" stroke="#00A460" stroke-width="2" stroke-miterlimit="10"/>
<path d="M11.2821 34.4288L13.1485 29.2939" stroke="#00A460" stroke-width="2" stroke-miterlimit="10"/>
<path d="M55.0588 27.0859L46.6922 50.0004L13.2643 37.8692" stroke="#00A460" stroke-width="2" stroke-miterlimit="10"/>
<path d="M33.2798 19.1778L16.3535 13.0288L19.4299 4.59473L60.5551 19.5244L57.4658 27.9585L40.5395 21.8095" stroke="#00A460" stroke-width="2" stroke-miterlimit="10"/>
<path d="M36.3563 10.731L24.9133 42.1052" stroke="#00A460" stroke-width="2" stroke-miterlimit="10"/>
<path d="M32.1729 44.7369L43.6158 13.3755" stroke="#00A460" stroke-width="2" stroke-miterlimit="10"/>
<path d="M4.25415 19.0239H20.9874" stroke="#00A460" stroke-width="2" stroke-miterlimit="10"/>
<path d="M5.54126 26.7261H24.8489" stroke="#00A460" stroke-width="2" stroke-miterlimit="10"/>
<path d="M0.392578 34.4287H20.9874" stroke="#00A460" stroke-width="2" stroke-miterlimit="10"/>
</svg>
