<svg width="127" height="93" viewBox="0 0 127 93" fill="none" xmlns="http://www.w3.org/2000/svg">
<path d="M117.794 74.6945H111.036H98.5673C96.1657 74.6945 94.0894 72.7218 94.0781 70.3336C94.0894 67.9463 96.1657 66.0162 98.5673 66.0162H111.01C111.019 66.0162 111.027 66.0154 111.036 66.0154C113.426 66.0009 115.385 64.0346 115.396 61.6553C115.385 59.276 113.426 57.3523 111.036 57.3387C111.027 57.3387 111.019 57.3379 111.01 57.3379H107.289C104.887 57.3379 102.811 55.3652 102.8 52.977C102.811 50.5897 104.887 48.6596 107.289 48.6596H111.036H116.179C118.58 48.6596 120.715 46.6868 120.726 44.2987C120.715 41.9114 118.58 39.9812 116.179 39.9812H107.768C106.159 31.458 102.042 23.3116 95.4146 16.7169C79.0584 0.441866 53.2053 -0.623637 35.6046 13.5188L20.8869 13.281C18.4788 13.2528 16.5035 15.1725 16.4744 17.5687C16.468 18.0878 16.5544 18.586 16.7167 19.0488C17.3038 20.725 18.8963 21.9368 20.7836 21.9585L28.3948 22.1216C30.8029 22.1497 32.7322 24.116 32.7039 26.5122C32.6756 28.9083 30.6995 30.828 28.2914 30.7999L16.5786 30.6472L4.41279 30.4889C2.00466 30.4592 0.0293788 32.3789 0.000306766 34.775C-0.0279577 37.1712 1.90049 39.1367 4.30942 39.1656L16.4753 39.3328L19.4672 39.3738C21.8754 39.4019 23.8046 41.3674 23.7764 43.7643C23.7481 46.1605 21.7728 48.0802 19.3639 48.0521L16.3727 47.9854L14.7503 47.9492C12.3422 47.9211 10.3669 49.84 10.3378 52.2369C10.3096 54.6331 12.238 56.5986 14.6469 56.6275L19.7119 56.7047C21.344 65.1612 25.4504 73.2393 32.0312 79.7866C48.2364 95.9114 73.7633 97.1063 91.351 83.3728H117.794C120.196 83.3728 122.17 81.4001 122.18 79.012C122.169 76.6238 120.195 74.6945 117.794 74.6945Z" fill="#EEF0F1"/>
<path d="M122.18 79.0303V78.9917C122.18 78.9981 122.18 79.0046 122.18 79.011C122.18 79.0182 122.18 79.0238 122.18 79.0303Z" fill="#EEF0F1"/>
<path d="M115.397 61.6738V61.6353C115.397 61.6417 115.396 61.6481 115.396 61.6545C115.396 61.6618 115.397 61.6674 115.397 61.6738Z" fill="#EEF0F1"/>
<path d="M120.727 44.3174V44.2788C120.727 44.2852 120.726 44.2917 120.726 44.2981C120.726 44.3053 120.727 44.311 120.727 44.3174Z" fill="#EEF0F1"/>
<path d="M57.2271 87.23H51.4127C51.1454 87.23 50.9282 87.4461 50.9282 87.7121C50.9282 87.9781 51.1454 88.1942 51.4127 88.1942H57.2271C57.4944 88.1942 57.7116 87.9781 57.7116 87.7121C57.7116 87.4461 57.4944 87.23 57.2271 87.23Z" fill="black"/>
<path d="M48.5055 87.23H37.8457C37.5784 87.23 37.3612 87.4461 37.3612 87.7121C37.3612 87.9781 37.5784 88.1942 37.8457 88.1942H48.5055C48.7728 88.1942 48.99 87.9781 48.99 87.7121C48.99 87.4461 48.7728 87.23 48.5055 87.23Z" fill="black"/>
<path d="M23.7943 50.5879H19.9181C19.6508 50.5879 19.4335 50.8041 19.4335 51.07C19.4335 51.336 19.6508 51.5522 19.9181 51.5522H23.7943C24.0616 51.5522 24.2789 51.336 24.2789 51.07C24.2789 50.8032 24.0616 50.5879 23.7943 50.5879Z" fill="black"/>
<path d="M17.0108 50.5879H6.35111C6.08381 50.5879 5.86658 50.8041 5.86658 51.07C5.86658 51.336 6.08381 51.5522 6.35111 51.5522H17.0108C17.2781 51.5522 17.4954 51.336 17.4954 51.07C17.4954 50.8032 17.2781 50.5879 17.0108 50.5879Z" fill="black"/>
<path d="M19.4335 47.6953H11.6809C11.4136 47.6953 11.1964 47.9115 11.1964 48.1775C11.1964 48.4434 11.4136 48.6596 11.6809 48.6596H19.4335C19.7008 48.6596 19.918 48.4434 19.918 48.1775C19.918 47.9107 19.7008 47.6953 19.4335 47.6953Z" fill="black"/>
<path d="M70.3095 90.1226H46.5674C46.3001 90.1226 46.0828 90.3387 46.0828 90.6047C46.0828 90.8707 46.3001 91.0868 46.5674 91.0868H70.3095C70.5768 91.0868 70.794 90.8707 70.794 90.6047C70.794 90.3387 70.5768 90.1226 70.3095 90.1226Z" fill="black"/>
<path d="M42.6911 90.1226H40.753C40.4857 90.1226 40.2684 90.3387 40.2684 90.6047C40.2684 90.8707 40.4857 91.0868 40.753 91.0868H42.6911C42.9584 91.0868 43.1756 90.8707 43.1756 90.6047C43.1756 90.3387 42.9584 90.1226 42.6911 90.1226Z" fill="black"/>
<path d="M61.5879 4.30371H60.1343C59.867 4.30371 59.6498 4.51987 59.6498 4.78584C59.6498 5.05181 59.867 5.26797 60.1343 5.26797H61.5879C61.8552 5.26797 62.0724 5.05181 62.0724 4.78584C62.0724 4.51906 61.8552 4.30371 61.5879 4.30371Z" fill="black"/>
<path d="M54.3199 4.30371H52.8663C52.599 4.30371 52.3818 4.51987 52.3818 4.78584C52.3818 5.05181 52.599 5.26797 52.8663 5.26797H54.3199C54.5872 5.26797 54.8044 5.05181 54.8044 4.78584C54.8044 4.51906 54.5872 4.30371 54.3199 4.30371Z" fill="black"/>
<path d="M59.968 1.41272L58.94 2.43484C58.751 2.62287 58.751 2.92821 58.94 3.11624C59.0345 3.21026 59.1589 3.25767 59.2824 3.25767C59.406 3.25767 59.5303 3.21026 59.6248 3.11624L60.6528 2.09333C60.8418 1.9053 60.8418 1.59995 60.6528 1.41192C60.4639 1.22389 60.157 1.22389 59.968 1.41272Z" fill="black"/>
<path d="M54.8287 6.52579L53.8007 7.54871C53.6118 7.73674 53.6118 8.04208 53.8007 8.23011C53.8952 8.32413 54.0196 8.37154 54.1431 8.37154C54.2675 8.37154 54.391 8.32413 54.4855 8.23011L55.5135 7.2072C55.7025 7.01917 55.7025 6.71382 55.5135 6.52579C55.3246 6.33776 55.0185 6.33776 54.8287 6.52579Z" fill="black"/>
<path d="M57.253 0C56.9857 0 56.7684 0.216154 56.7684 0.482129V1.92852C56.7684 2.19449 56.9857 2.41064 57.253 2.41064C57.5203 2.41064 57.7375 2.19449 57.7375 1.92852V0.482129C57.7375 0.216154 57.5203 0 57.253 0Z" fill="black"/>
<path d="M57.253 7.23193C56.9857 7.23193 56.7684 7.44809 56.7684 7.71406V9.16045C56.7684 9.42643 56.9857 9.64258 57.253 9.64258C57.5203 9.64258 57.7375 9.42643 57.7375 9.16045V7.71406C57.7375 7.44809 57.5203 7.23193 57.253 7.23193Z" fill="black"/>
<path d="M54.4863 1.41251C54.2974 1.22448 53.9905 1.22448 53.8015 1.41251C53.6125 1.60054 53.6125 1.90589 53.8015 2.09392L54.8295 3.11683C54.924 3.21085 55.0484 3.25826 55.1719 3.25826C55.2963 3.25826 55.4199 3.21085 55.5143 3.11683C55.7033 2.9288 55.7033 2.62345 55.5143 2.43542L54.4863 1.41251Z" fill="black"/>
<path d="M59.6256 6.52579C59.4366 6.33776 59.1298 6.33776 58.9408 6.52579C58.7518 6.71382 58.7518 7.01917 58.9408 7.2072L59.9688 8.23011C60.0633 8.32413 60.1877 8.37154 60.3112 8.37154C60.4348 8.37154 60.5591 8.32413 60.6536 8.23011C60.8426 8.04208 60.8426 7.73674 60.6536 7.54871L59.6256 6.52579Z" fill="black"/>
<path d="M115.371 65.0522H113.918C113.649 65.0522 113.433 65.2684 113.433 65.5344C113.433 65.8004 113.649 66.0165 113.918 66.0165H115.371C115.639 66.0165 115.856 65.8004 115.856 65.5344C115.856 65.2676 115.639 65.0522 115.371 65.0522Z" fill="black"/>
<path d="M108.103 65.0522H106.65C106.381 65.0522 106.165 65.2684 106.165 65.5344C106.165 65.8004 106.381 66.0165 106.65 66.0165H108.103C108.371 66.0165 108.588 65.8004 108.588 65.5344C108.588 65.2676 108.371 65.0522 108.103 65.0522Z" fill="black"/>
<path d="M113.751 62.1612L112.723 63.1841C112.534 63.3721 112.534 63.6774 112.723 63.8655C112.818 63.9595 112.942 64.0069 113.065 64.0069C113.19 64.0069 113.313 63.9595 113.408 63.8655L114.436 62.8426C114.625 62.6545 114.625 62.3492 114.436 62.1612C114.247 61.9723 113.941 61.9723 113.751 62.1612Z" fill="black"/>
<path d="M108.612 67.2743L107.584 68.2972C107.395 68.4853 107.395 68.7906 107.584 68.9786C107.678 69.0727 107.803 69.1201 107.926 69.1201C108.051 69.1201 108.174 69.0727 108.269 68.9786L109.297 67.9557C109.486 67.7677 109.486 67.4624 109.297 67.2743C109.108 67.0863 108.802 67.0863 108.612 67.2743Z" fill="black"/>
<path d="M111.036 60.7485C110.768 60.7485 110.552 60.9647 110.552 61.2307V62.6771C110.552 62.943 110.768 63.1592 111.036 63.1592C111.304 63.1592 111.521 62.943 111.521 62.6771V61.2307C111.521 60.9647 111.303 60.7485 111.036 60.7485Z" fill="black"/>
<path d="M111.036 67.9805C110.768 67.9805 110.552 68.1966 110.552 68.4626V69.909C110.552 70.175 110.768 70.3911 111.036 70.3911C111.304 70.3911 111.521 70.175 111.521 69.909V68.4626C111.521 68.1966 111.303 67.9805 111.036 67.9805Z" fill="black"/>
<path d="M108.269 62.161C108.08 61.973 107.774 61.973 107.585 62.161C107.396 62.3491 107.396 62.6544 107.585 62.8424L108.613 63.8654C108.707 63.9594 108.831 64.0068 108.955 64.0068C109.079 64.0068 109.203 63.9594 109.297 63.8654C109.486 63.6773 109.486 63.372 109.297 63.184L108.269 62.161Z" fill="black"/>
<path d="M113.409 67.2743C113.22 67.0863 112.913 67.0863 112.724 67.2743C112.535 67.4624 112.535 67.7677 112.724 67.9557L113.752 68.9786C113.846 69.0727 113.971 69.1201 114.094 69.1201C114.218 69.1201 114.342 69.0727 114.437 68.9786C114.626 68.7906 114.626 68.4853 114.437 68.2972L113.409 67.2743Z" fill="black"/>
<path d="M112.656 21.152L111.572 20.5622C111.083 20.2954 110.682 19.8961 110.414 19.4091L109.821 18.33C109.736 18.1757 109.573 18.0776 109.395 18.0776C109.218 18.0776 109.055 18.17 108.97 18.3251L108.378 19.3971C108.11 19.8848 107.708 20.2954 107.218 20.5365C107.218 20.5365 107.218 20.5365 107.217 20.5365L106.133 21.14C105.978 21.2243 105.882 21.4003 105.882 21.5763C105.882 21.7523 105.978 21.9146 106.133 21.9989L107.217 22.5888C107.707 22.8555 108.108 23.2541 108.377 23.7418L108.97 24.8202C109.054 24.9745 109.218 25.0709 109.394 25.0709C109.572 25.0709 109.734 24.9745 109.82 24.8202L110.412 23.7418C110.681 23.2541 111.081 22.8547 111.572 22.5888L112.655 21.9989C112.811 21.9146 112.907 21.7523 112.907 21.5755C112.908 21.3987 112.812 21.2364 112.656 21.152ZM111.107 21.7426C110.454 22.0978 109.92 22.6289 109.562 23.279L109.395 23.5835L109.227 23.279C108.87 22.6289 108.336 22.0978 107.683 21.7426L107.376 21.5755L107.683 21.4083C108.337 21.0532 108.87 20.522 109.227 19.872L109.395 19.5674L109.562 19.872C109.919 20.522 110.454 21.0532 111.106 21.4083L111.413 21.5755L111.107 21.7426Z" fill="black"/>
<path d="M28.2262 69.4862L27.1424 68.8964C26.6522 68.6297 26.2517 68.2319 25.9836 67.7434L25.3908 66.6658C25.2196 66.3556 24.7101 66.3588 24.5405 66.6674L23.9477 67.749C23.6796 68.2367 23.2791 68.6674 22.7889 68.9085L21.7051 69.4919C21.5501 69.5762 21.4532 69.7321 21.4532 69.9081C21.4532 70.0841 21.5501 70.2464 21.7051 70.3308L22.7897 70.9206C23.2799 71.1874 23.6804 71.5859 23.9485 72.0737L24.5413 73.152C24.6261 73.3063 24.7892 73.4027 24.9661 73.4027C25.1429 73.4027 25.306 73.3063 25.3908 73.152L25.9836 72.0737C26.2517 71.5859 26.6522 71.1866 27.1424 70.9206L28.2262 70.3308C28.3812 70.2464 28.4781 70.0841 28.4781 69.9081C28.4781 69.7329 28.3812 69.5706 28.2262 69.4862ZM26.6773 70.0761C26.024 70.4312 25.4902 70.9624 25.1332 71.6124L24.9652 71.9178L24.7981 71.6124C24.4411 70.9624 23.9065 70.4312 23.254 70.0761L22.9472 69.9089L23.254 69.7418C23.9074 69.3866 24.4411 68.8555 24.7981 68.2054L24.9652 67.9L25.1332 68.2054C25.4902 68.8555 26.0248 69.3866 26.6773 69.7418L26.9841 69.9089L26.6773 70.0761Z" fill="black"/>
<path d="M90.1755 86.2656H89.2064C88.9391 86.2656 88.7219 86.4818 88.7219 86.7478C88.7219 87.0137 88.9391 87.2299 89.2064 87.2299H90.1755C90.4428 87.2299 90.66 87.0137 90.66 86.7478C90.66 86.4818 90.4428 86.2656 90.1755 86.2656Z" fill="black"/>
<path d="M85.3301 86.2656H84.361C84.0937 86.2656 83.8765 86.4818 83.8765 86.7478C83.8765 87.0137 84.0937 87.2299 84.361 87.2299H85.3301C85.5974 87.2299 85.8146 87.0137 85.8146 86.7478C85.8146 86.4818 85.5974 86.2656 85.3301 86.2656Z" fill="black"/>
<path d="M87.294 83.4082C87.0267 83.4082 86.8095 83.6244 86.8095 83.8903V84.8546C86.8095 85.1206 87.0267 85.3367 87.294 85.3367C87.5613 85.3367 87.7786 85.1206 87.7786 84.8546V83.8903C87.7786 83.6244 87.5613 83.4082 87.294 83.4082Z" fill="black"/>
<path d="M87.294 88.2295C87.0267 88.2295 86.8095 88.4456 86.8095 88.7116V89.6759C86.8095 89.9418 87.0267 90.158 87.294 90.158C87.5613 90.158 87.7786 89.9418 87.7786 89.6759V88.7116C87.7786 88.4456 87.5613 88.2295 87.294 88.2295Z" fill="black"/>
<path d="M23.7942 19.25H22.8251C22.5578 19.25 22.3406 19.4662 22.3406 19.7321C22.3406 19.9981 22.5578 20.2143 22.8251 20.2143H23.7942C24.0615 20.2143 24.2787 19.9981 24.2787 19.7321C24.2787 19.4653 24.0615 19.25 23.7942 19.25Z" fill="black"/>
<path d="M18.9488 19.25H17.9797C17.7124 19.25 17.4952 19.4662 17.4952 19.7321C17.4952 19.9981 17.7124 20.2143 17.9797 20.2143H18.9488C19.2161 20.2143 19.4333 19.9981 19.4333 19.7321C19.4333 19.4653 19.2161 19.25 18.9488 19.25Z" fill="black"/>
<path d="M20.9128 16.3926C20.6455 16.3926 20.4282 16.6087 20.4282 16.8747V17.839C20.4282 18.1049 20.6455 18.3211 20.9128 18.3211C21.1801 18.3211 21.3973 18.1049 21.3973 17.839V16.8747C21.3973 16.6087 21.1801 16.3926 20.9128 16.3926Z" fill="black"/>
<path d="M20.9128 21.2139C20.6455 21.2139 20.4282 21.43 20.4282 21.696V22.6603C20.4282 22.9262 20.6455 23.1424 20.9128 23.1424C21.1801 23.1424 21.3973 22.9262 21.3973 22.6603V21.696C21.3973 21.43 21.1801 21.2139 20.9128 21.2139Z" fill="black"/>
<path d="M126.515 42.3921H121.67C121.402 42.3921 121.186 42.6082 121.186 42.8742C121.186 43.1402 121.402 43.3563 121.67 43.3563H126.515C126.784 43.3563 127 43.1402 127 42.8742C127 42.6074 126.784 42.3921 126.515 42.3921Z" fill="black"/>
<path d="M120.216 45.7666H104.711C104.443 45.7666 104.227 45.9828 104.227 46.2487C104.227 46.5147 104.443 46.7309 104.711 46.7309H120.216C120.485 46.7309 120.701 46.5147 120.701 46.2487C120.701 45.982 120.485 45.7666 120.216 45.7666Z" fill="black"/>
<path d="M110.526 49.1416H106.65C106.381 49.1416 106.165 49.3578 106.165 49.6237C106.165 49.8897 106.381 50.1059 106.65 50.1059H110.526C110.794 50.1059 111.01 49.8897 111.01 49.6237C111.01 49.357 110.794 49.1416 110.526 49.1416Z" fill="black"/>
<path d="M123.124 49.1416H114.402C114.134 49.1416 113.918 49.3578 113.918 49.6237C113.918 49.8897 114.134 50.1059 114.402 50.1059H123.124C123.392 50.1059 123.608 49.8897 123.608 49.6237C123.608 49.357 123.392 49.1416 123.124 49.1416Z" fill="black"/>
<path d="M98.4125 12.0181H73.2168C72.9495 12.0181 72.7322 12.2342 72.7322 12.5002C72.7322 12.7662 72.9495 12.9823 73.2168 12.9823H98.4125C98.6806 12.9823 98.897 12.7662 98.897 12.5002C98.897 12.2334 98.6806 12.0181 98.4125 12.0181Z" fill="black"/>
<path d="M93.5671 8.64307H84.8455C84.5782 8.64307 84.361 8.85922 84.361 9.1252C84.361 9.39117 84.5782 9.60732 84.8455 9.60732H93.5671C93.8352 9.60732 94.0516 9.39117 94.0516 9.1252C94.0516 8.85922 93.8352 8.64307 93.5671 8.64307Z" fill="black"/>
<path d="M80.0002 8.64307H77.093C76.8257 8.64307 76.6085 8.85922 76.6085 9.1252C76.6085 9.39117 76.8257 9.60732 77.093 9.60732H80.0002C80.2675 9.60732 80.4847 9.39117 80.4847 9.1252C80.4847 8.85922 80.2675 8.64307 80.0002 8.64307Z" fill="black"/>
<path d="M38.9593 19.6083L39.1224 70.3982C39.128 72.0422 40.4766 73.2082 41.8204 73.2033L41.6371 16.9229C40.2933 16.9285 38.9528 17.9642 38.9593 19.6083Z" fill="#EEF0F1"/>
<path d="M63.0227 16.1768C62.9783 18.1833 63.0825 28.1047 63.0897 30.1377C63.1002 33.0433 66.1851 33.5511 66.1851 33.5511L80.4619 33.4997L65.1546 16.0024C65.1546 16.0024 63.0251 16.0611 63.0227 16.1768Z" fill="#EEF0F1"/>
<path d="M65.8298 16.8359L64.7299 16.84L65.8298 16.8359Z" fill="white"/>
<path d="M81.2977 32.2136L66.1528 16.8345L65.8298 16.8353L65.8645 26.387L65.8775 29.8608C65.8831 31.4984 66.9886 32.8797 68.6344 32.8741L65.678 32.8845C65.678 32.8845 63.8699 32.1364 63.8642 30.4353C63.8578 28.7342 63.815 16.8425 63.815 16.8425L64.7307 16.8393L43.9975 16.914C42.3453 16.9196 40.97 17.9562 40.9757 19.6003L41.138 70.3909C41.1436 72.035 42.527 73.2009 44.1792 73.1953L77.7348 73.074C77.7348 73.074 79.5833 73.4324 80.5766 72.2945C81.5699 71.1567 81.41 62.9798 81.41 62.9798L81.2977 32.2136Z" fill="white"/>
<path d="M66.2619 28.3715C66.2716 30.934 69.0076 31.4178 69.0076 31.4178L81.6733 31.372L66.1973 15.6899C66.1973 15.6899 66.253 25.8098 66.2619 28.3715Z" fill="#00A460"/>
<path d="M65.7322 19.8212L78.4609 32.7439L80.7406 32.7358L65.7935 17.2017L65.7322 19.8212Z" fill="#00A460"/>
<path d="M78.6054 32.0832C78.6054 32.0832 78.59 72.6021 78.7305 73.224C80.2843 73.1107 81.5061 71.8186 81.5004 70.2445L81.3834 32.0728L78.6054 32.0832Z" fill="white"/>
<path d="M78.733 73.2321C78.7322 73.2313 78.7314 73.2273 78.7306 73.2241C78.6612 73.2289 78.5909 73.2329 78.519 73.2329L78.733 73.2321Z" fill="white"/>
<path d="M81.7079 61.195H81.7071C81.1717 61.195 80.7388 61.7398 80.7388 62.2726L80.7461 70.5419C80.7477 71.0763 80.5386 71.5921 80.1566 71.9754C79.7738 72.3587 79.2675 72.5909 78.7305 72.5933L42.254 72.7661C42.2515 72.7661 42.2491 72.7661 42.2467 72.7661C41.1347 72.7661 40.2278 71.781 40.2238 70.6745L40.1616 47.3025C40.16 46.7705 39.7263 46.249 39.1925 46.249C39.1917 46.249 39.1909 46.249 39.1901 46.249C38.6547 46.249 38.2218 46.7954 38.2235 47.3282L38.2856 70.7259C38.2937 72.8947 40.0695 74.6938 42.2467 74.6938C42.2515 74.6938 42.2564 74.6938 42.2612 74.6938L78.7377 74.4937C80.9222 74.4857 82.6923 72.6432 82.6842 70.4728L82.677 62.2645C82.6762 61.7326 82.2425 61.195 81.7079 61.195Z" fill="black"/>
<path d="M81.6951 57.8203C81.6943 57.8203 81.6927 57.8203 81.6918 57.8203C81.1564 57.8203 80.7244 58.1875 80.726 58.7203L80.7268 58.8657C80.7284 59.3969 81.1621 59.7488 81.6959 59.7488C81.6967 59.7488 81.6983 59.7488 81.6991 59.7488C82.2345 59.7488 82.6665 59.4057 82.6649 58.873L82.6641 58.7524C82.6617 58.2213 82.2281 57.8203 81.6951 57.8203Z" fill="black"/>
<path d="M82.2926 31.4308L66.5598 15.2843C66.3773 15.0979 66.127 14.9106 65.8653 14.9106C65.8645 14.9106 65.8637 14.9106 65.8629 14.9106L42.1765 15.0392C41.0895 15.0416 40.0688 15.5398 39.3024 16.3072C38.536 17.0746 38.1161 18.079 38.1201 19.1606L38.209 43.4149C38.2106 43.946 38.6443 44.3205 39.178 44.3205C39.1789 44.3205 39.1805 44.3205 39.1813 44.3205C39.7167 44.3205 40.1487 43.9396 40.1471 43.4069L40.0583 19.1791C40.0559 18.6134 40.2763 18.0774 40.6769 17.6757C41.0782 17.2739 41.612 17.0465 42.1805 17.0449L65.4559 16.9806L80.6291 32.4923L80.7098 54.5384C80.7114 55.0695 81.1451 55.4094 81.6789 55.4094C81.6797 55.4094 81.6813 55.4094 81.6821 55.4094C82.2175 55.4094 82.6496 55.0543 82.648 54.5215L82.5664 32.1202C82.5656 31.8703 82.4679 31.61 82.2926 31.4308Z" fill="black"/>
<path d="M65.6521 16.1046C65.1167 16.1062 64.6847 16.5072 64.6863 17.0399L64.6952 19.3847C64.6968 19.9158 65.1304 20.2139 65.6642 20.2139C65.665 20.2139 65.6667 20.2139 65.6675 20.2139C66.2029 20.2139 66.6349 19.9013 66.6333 19.3694L66.6244 17.0825C66.6228 16.5489 66.1891 16.0853 65.6521 16.1046Z" fill="black"/>
<path d="M65.6771 22.1426C65.6763 22.1426 65.6747 22.1426 65.6739 22.1426C65.1385 22.1426 64.7065 22.5781 64.7081 23.1109L64.7097 23.5367C64.7113 24.0679 65.145 24.5532 65.6788 24.5532C65.6796 24.5532 65.6812 24.5532 65.682 24.5532C66.2174 24.5532 66.6494 24.0767 66.6478 23.544L66.6462 23.0763C66.6446 22.5444 66.2109 22.1426 65.6771 22.1426Z" fill="black"/>
<path d="M81.3123 31.3033C81.3115 31.3033 81.3099 31.3033 81.3091 31.3033H68.6991C68.6966 31.3033 68.6942 31.3033 68.6918 31.3033C67.5798 31.3033 66.6729 30.3181 66.6689 29.21L66.6608 26.9866C66.6592 26.4554 66.2255 25.999 65.6917 25.999C65.6909 25.999 65.6893 25.999 65.6885 25.999C65.1531 25.999 64.721 26.498 64.7227 27.03L64.7307 29.2293C64.7388 31.3981 66.5138 33.2302 68.6918 33.2302C68.6966 33.2302 68.7015 33.2302 68.7063 33.2302L81.3163 33.1594C81.8517 33.1578 82.2838 32.699 82.2822 32.1663C82.2798 31.6359 81.8461 31.3033 81.3123 31.3033Z" fill="black"/>
<path d="M59.0802 60.2639L44.4933 60.231C44.4909 60.231 44.4885 60.231 44.4861 60.231C43.9539 60.231 43.521 60.5942 43.517 61.1245C43.513 61.6572 43.9442 62.0277 44.4788 62.0317L59.0657 62.1595C59.0681 62.1595 59.0705 62.1595 59.0729 62.1595C59.6051 62.1595 60.038 61.7488 60.042 61.2185C60.046 60.6858 59.6148 60.2679 59.0802 60.2639Z" fill="black"/>
<path d="M64.7904 53.9634C64.7896 53.9634 64.788 53.9634 64.7872 53.9634L44.461 54.0212C43.9256 54.0228 43.4936 54.4487 43.4952 54.9807C43.4968 55.5126 43.9305 55.8911 44.4642 55.8911C44.4651 55.8911 44.4667 55.8911 44.4675 55.8911L64.7936 55.867C65.3291 55.8654 65.7611 55.474 65.7595 54.9413C65.7579 54.4102 65.3242 53.9634 64.7904 53.9634Z" fill="black"/>
<path d="M73.8625 53.9634C73.8601 53.9634 73.8585 53.9634 73.856 53.9634L68.338 53.9859C67.8026 53.9891 67.3714 54.4118 67.3746 54.9445C67.3778 55.4749 67.8115 55.8927 68.3437 55.8927C68.3461 55.8927 68.3477 55.8927 68.3501 55.8927L73.8682 55.8726C74.4036 55.8694 74.8348 55.4491 74.8316 54.9164C74.8283 54.3844 74.3955 53.9634 73.8625 53.9634Z" fill="black"/>
<path d="M76.0221 46.731C76.0212 46.731 76.0196 46.731 76.0188 46.731L56.5301 46.7494C55.9946 46.751 55.5626 47.1327 55.5642 47.6655C55.5658 48.1966 55.9995 48.6595 56.5333 48.6595C56.5341 48.6595 56.5357 48.6595 56.5365 48.6595L76.0253 48.5904C76.5607 48.5888 76.9927 48.1564 76.9911 47.6237C76.9895 47.0917 76.5558 46.731 76.0221 46.731Z" fill="black"/>
<path d="M51.8148 46.9595C51.6355 47.1427 51.5338 47.3886 51.5338 47.6441C51.5338 47.8996 51.6355 48.1455 51.8148 48.3239C51.9989 48.5071 52.246 48.6083 52.5028 48.6083C52.7548 48.6083 53.0067 48.5071 53.186 48.3239C53.3653 48.1455 53.4719 47.8996 53.4719 47.6441C53.4719 47.3886 53.3653 47.1427 53.186 46.9595C52.8275 46.6027 52.1782 46.6027 51.8148 46.9595Z" fill="black"/>
<path d="M48.4698 46.731C48.469 46.731 48.4674 46.731 48.4666 46.731L44.4345 46.7326C43.8991 46.7342 43.467 47.1552 43.4686 47.6872C43.4702 48.2183 43.9039 48.6595 44.4377 48.6595C44.4385 48.6595 44.4401 48.6595 44.4409 48.6595L48.473 48.6426C49.0085 48.641 49.4405 48.2055 49.4389 47.6727C49.4365 47.1416 49.0036 46.731 48.4698 46.731Z" fill="black"/>
<path d="M57.8511 39.4994C57.8503 39.4994 57.8487 39.4994 57.8479 39.4994L44.4077 39.4873C43.8723 39.4889 43.4403 39.8618 43.4419 40.3945C43.4435 40.9257 43.8772 41.4279 44.411 41.4279C44.4118 41.4279 44.4134 41.4279 44.4142 41.4279L57.8544 41.3547C58.3898 41.3531 58.8218 40.8951 58.8202 40.3624C58.8178 39.8312 58.3849 39.4994 57.8511 39.4994Z" fill="black"/>
<path d="M75.9952 39.0171C75.9944 39.0171 75.9928 39.0171 75.992 39.0171L74.6482 39.0766C74.1128 39.0782 73.6808 39.5659 73.6824 40.0987C73.684 40.6306 74.1176 40.9464 74.6514 40.9464C74.6522 40.9464 74.6539 40.9464 74.6547 40.9464L75.9984 40.9994C76.5339 40.9978 76.9659 40.6226 76.9643 40.0898C76.9627 39.5571 76.529 39.0171 75.9952 39.0171Z" fill="black"/>
<path d="M70.5419 39.2837C70.3577 39.4621 70.256 39.7128 70.256 39.9683C70.256 40.219 70.3577 40.4697 70.5419 40.6481C70.7211 40.8313 70.9682 40.9326 71.225 40.9326C71.477 40.9326 71.729 40.8313 71.9082 40.6481C72.0924 40.4697 72.1941 40.219 72.1941 39.9683C72.1941 39.7128 72.0924 39.4669 71.9082 39.2837C71.5448 38.9269 70.9004 38.9269 70.5419 39.2837Z" fill="black"/>
<path d="M67.9311 39.0171C67.9302 39.0171 67.9286 39.0171 67.9278 39.0171L61.2082 39.0982C60.6727 39.0999 60.2407 39.59 60.2423 40.1228C60.2439 40.6539 60.6776 40.9456 61.2114 40.9456C61.2122 40.9456 61.2138 40.9456 61.2146 40.9456L67.9343 40.9962C68.4697 40.9946 68.9017 40.6362 68.9001 40.1035C68.8985 39.5715 68.4649 39.0171 67.9311 39.0171Z" fill="black"/>
<path d="M59.1336 31.7852C59.1328 31.7852 59.1312 31.7852 59.1304 31.7852L57.7866 31.7884C57.2512 31.79 56.8191 32.2215 56.8207 32.7542C56.8224 33.2854 57.256 33.7137 57.7898 33.7137C57.7906 33.7137 57.7922 33.7137 57.793 33.7137L59.1368 33.7104C59.6722 33.7088 60.1043 33.2765 60.1027 32.7446C60.101 32.2126 59.6674 31.7852 59.1336 31.7852Z" fill="black"/>
<path d="M53.6753 31.8303C53.496 32.0087 53.3942 32.2594 53.3942 32.5101C53.3942 32.7656 53.496 33.0115 53.6753 33.1947C53.8594 33.3731 54.1065 33.4743 54.3633 33.4743C54.6153 33.4743 54.8672 33.3731 55.0465 33.1947C55.2306 33.0115 55.3324 32.7656 55.3324 32.5101C55.3324 32.2546 55.2306 32.0087 55.0465 31.8303C54.6879 31.4687 54.0387 31.4687 53.6753 31.8303Z" fill="black"/>
<path d="M51.0693 31.7852C51.0685 31.7852 51.0669 31.7852 51.0661 31.7852L44.3456 31.8101C43.8102 31.8117 43.3782 32.2456 43.3798 32.7783C43.3814 33.3095 43.815 33.7137 44.3488 33.7137C44.3496 33.7137 44.3513 33.7137 44.3521 33.7137L51.0725 33.708C51.608 33.7064 52.04 33.2918 52.0384 32.7591C52.0368 32.2271 51.6031 31.7852 51.0693 31.7852Z" fill="black"/>
<path d="M59.1335 24.9551C59.1335 24.9551 59.1327 24.9551 59.1335 24.9551L50.7915 24.9567C50.2561 24.9567 49.8224 25.3858 49.8232 25.9185C49.8232 26.4513 50.2577 26.8844 50.7923 26.8844H50.7931L59.1352 26.8804C59.6706 26.8804 60.1042 26.4481 60.1034 25.9161C60.1026 25.3818 59.6681 24.9551 59.1335 24.9551Z" fill="black"/>
<path d="M47.3142 24.9802L44.3408 25.0091C43.8054 25.0139 43.3758 25.4575 43.3798 25.9902C43.3846 26.5198 43.8175 26.9641 44.3489 26.9641C44.3521 26.9641 44.3545 26.9641 44.3569 26.9641L47.3303 26.9231C47.8657 26.9183 48.2954 26.4675 48.2913 25.9348C48.2873 25.4012 47.8415 24.9697 47.3142 24.9802Z" fill="black"/>
<path d="M97.2711 44.1022L93.2802 48.0732L95.365 50.1477L99.3559 46.1766L97.2711 44.1022Z" fill="#B2B2B2"/>
<path d="M82.0658 59.231C82.1344 59.3137 82.1675 59.427 82.1449 59.5492L81.6701 62.1077C81.6289 62.331 81.809 62.5159 82.0343 62.4813L83.1406 62.3102L95.3662 50.1452L93.2811 48.0713L82.0658 59.231Z" fill="white"/>
<path d="M97.2721 44.1011L99.3572 46.1759L105.432 40.1316C105.155 39.349 104.626 38.4715 103.881 37.5249L97.2721 44.1011Z" fill="white"/>
<path d="M90.6594 37.5221L86.6685 41.4932L88.7539 43.5682L92.7448 39.5971L90.6594 37.5221Z" fill="#EEF0F1"/>
<path d="M90.6598 37.5217L92.7449 39.5965L99.3241 33.05C98.4551 32.3742 97.5991 31.8069 96.8069 31.4043L90.6598 37.5217Z" fill="#FF645A"/>
<path d="M74.3561 53.7434L74.2761 54.9061C74.2592 55.1584 74.449 55.3609 74.7017 55.3601L76.765 54.9045C76.9314 54.9037 77.0687 54.9921 77.1389 55.1239L88.754 43.5665L86.6689 41.4917L74.3561 53.7434Z" fill="#FF645A"/>
<path d="M88.8129 43.626L88.754 43.5674L77.1397 55.124C77.1534 55.1505 77.1647 55.1786 77.1728 55.2084C77.1866 55.2598 77.193 55.3144 77.1874 55.3723L77.1728 58.8581C77.1421 59.1473 77.3715 59.3788 77.6622 59.3515L81.7323 59.0975C81.8373 59.0879 81.9326 59.1176 82.0052 59.1731C82.0278 59.1899 82.048 59.21 82.0658 59.2317L93.2811 48.0721L93.2214 48.0126L88.8129 43.626Z" fill="#FF645A"/>
<path d="M92.8038 39.6549L92.7449 39.5962L88.754 43.5673L88.8129 43.626L93.2214 48.0118L93.2811 48.0712L97.272 44.1009L97.2123 44.0414L92.8038 39.6549Z" fill="#CCCCCC"/>
<path d="M101.937 35.3682C101.111 34.5462 100.245 33.7724 99.3895 33.1022C99.3677 33.0845 99.3451 33.0677 99.3232 33.0508L92.7441 39.5973L92.803 39.6559L97.2115 44.0425L97.2712 44.102L103.88 37.5257C103.863 37.5032 103.846 37.4815 103.828 37.459C103.299 36.7921 102.666 36.0922 101.937 35.3682Z" fill="#FF645A"/>
<path d="M81.6702 62.1086L82.145 59.5501C82.1676 59.428 82.1345 59.3147 82.0659 59.2319L71.6121 65.8267L72.0037 66.2164L83.1391 62.3111L82.0328 62.4823C81.8091 62.5168 81.629 62.3312 81.6702 62.1086Z" fill="#FF645A"/>
<path d="M76.7659 54.9048L74.7026 55.3604C74.4499 55.362 74.2593 55.1587 74.277 54.9064L74.357 53.7437L70.5017 64.7201L70.8974 65.1139L77.1398 55.1241C77.0696 54.9924 76.9323 54.904 76.7659 54.9048Z" fill="white"/>
<path d="M69.6965 67.0334L69.6973 67.0342L69.7046 67.0229L69.6909 67.0278L69.6965 67.0334Z" fill="white"/>
<path d="M81.7323 59.0971L77.6622 59.351C77.3715 59.3783 77.1414 59.1469 77.1729 58.8576L77.1874 55.3718C77.1939 55.314 77.1874 55.2593 77.1729 55.2079C77.1648 55.1782 77.1535 55.1501 77.1397 55.1235L70.8973 65.1132L71.6128 65.8252L82.0666 59.2305C82.0489 59.2088 82.0287 59.1895 82.0061 59.1718C81.9326 59.1172 81.8373 59.0874 81.7323 59.0971Z" fill="white"/>
<path d="M69.6974 67.0346L69.7297 67.0137L69.7047 67.0233L69.6974 67.0346Z" fill="white"/>
<path d="M73.9425 65.2811L74.1105 64.3763C74.1186 64.3329 74.1064 64.2935 74.0822 64.2638C74.0758 64.2557 74.0685 64.2493 74.0604 64.2429C74.0346 64.2228 74.0007 64.2123 73.9635 64.2164L72.5244 64.3064C72.4219 64.316 72.3403 64.234 72.3508 64.132L72.3557 62.8994C72.3581 62.8793 72.3557 62.86 72.3508 62.8415C72.3476 62.8311 72.3444 62.8206 72.3387 62.8118C72.3137 62.7652 72.2652 62.7338 72.2063 62.7338L71.4762 62.8953C71.3866 62.8961 71.3196 62.8238 71.326 62.7346L71.3575 62.3208L69.7125 67.0183L74.4626 65.3518L74.0709 65.4129C73.9942 65.4249 73.928 65.3574 73.9425 65.2811Z" fill="#232323"/>
<path d="M87.3535 40.8105C86.9756 40.4336 86.361 40.4336 85.9831 40.8105L73.6711 53.0622C73.5056 53.2269 73.4054 53.4455 73.3893 53.6777L73.3093 54.8396C73.2827 55.2269 73.4184 55.6094 73.6816 55.8883C73.9425 56.1655 74.3131 56.3238 74.6991 56.3238C74.7686 56.3238 74.8413 56.3165 74.9115 56.3013L76.9748 55.8457C77.4973 55.73 77.8268 55.2149 77.7113 54.6958C77.595 54.1759 77.0782 53.8488 76.5557 53.963L75.2935 54.2418L75.2983 54.1695L86.6687 42.8555L94.6805 50.8275C95.0592 51.2044 95.6721 51.2044 96.0509 50.8275C96.4296 50.4506 96.4296 49.8408 96.0509 49.4639L87.3535 40.8105Z" fill="black"/>
<path d="M89.8117 54.3601C89.6276 54.5385 89.5258 54.7892 89.5258 55.0399C89.5258 55.2954 89.6276 55.5413 89.8117 55.7245C89.991 55.9029 90.2429 56.0041 90.4949 56.0041C90.7517 56.0041 90.9988 55.9029 91.1781 55.7245C91.3622 55.5413 91.464 55.2954 91.464 55.0399C91.464 54.7843 91.3622 54.5385 91.1781 54.3601C90.8195 53.9985 90.1703 53.9985 89.8117 54.3601Z" fill="black"/>
<path d="M88.0779 56.082L82.8094 61.2793L83.0977 59.7245C83.1946 59.2005 82.8473 58.6975 82.3208 58.6011C81.7967 58.5071 81.2896 58.8502 81.1919 59.3741L80.717 61.9326C80.6403 62.3448 80.7679 62.7675 81.0578 63.064C81.3001 63.3123 81.6352 63.4497 81.9816 63.4497C82.0479 63.4497 82.1157 63.4449 82.1819 63.4344L83.2883 63.2641C83.4902 63.2327 83.6767 63.1387 83.8221 62.9957L89.4418 57.4512C89.8222 57.076 89.8246 56.4661 89.4475 56.0876C89.072 55.7099 88.4582 55.7075 88.0779 56.082Z" fill="black"/>
<path d="M104.644 36.9302C104.618 36.8981 104.591 36.8668 104.562 36.8378L100.005 32.3629C99.978 32.3364 99.9505 32.3122 99.9207 32.2897C98.9702 31.5497 98.0705 30.9631 97.2468 30.5444C96.8721 30.354 96.4175 30.4263 96.1211 30.722L89.974 36.8386C89.5953 37.2147 89.5953 37.8254 89.974 38.2023C90.3519 38.5791 90.9665 38.5791 91.3444 38.2023L96.9763 32.5991C97.5109 32.9157 98.0819 33.3094 98.6827 33.7755L103.155 38.1669C103.648 38.8001 104.027 39.3827 104.285 39.9074L98.6746 45.4896L91.5479 52.5054C91.1676 52.8799 91.1643 53.4906 91.5407 53.869C91.7304 54.0595 91.98 54.1551 92.2295 54.1551C92.4758 54.1551 92.7221 54.0627 92.9111 53.8763L100.041 46.8565L106.115 40.8122C106.379 40.5494 106.468 40.1597 106.345 39.8102C106.039 38.9447 105.466 37.9765 104.644 36.9302Z" fill="black"/>
<path d="M91.3445 36.8393C90.9657 36.4624 90.352 36.4624 89.974 36.8393L85.9831 40.8104C85.6043 41.1865 85.6043 41.7972 85.9831 42.174C86.361 42.5509 86.9756 42.5509 87.3535 42.174L90.6588 38.8851L98.6706 46.8571C98.8596 47.0452 99.1075 47.14 99.3554 47.14C99.6033 47.14 99.8513 47.046 100.04 46.8571C100.419 46.4811 100.419 45.8704 100.04 45.4935L91.3445 36.8393Z" fill="black"/>
<path d="M82.9919 61.3581L82.7892 61.3894L83.0985 59.7244C83.1469 59.4633 83.0847 59.1941 82.9273 58.9796C82.7698 58.765 82.5299 58.6252 82.2651 58.5922L78.4784 58.123L78.1013 55.0092C78.0375 54.4805 77.553 54.1012 77.0232 54.1671C76.4919 54.2306 76.1131 54.7111 76.1769 55.2398L76.6445 59.1017C76.6978 59.5412 77.045 59.8884 77.4868 59.943L81.0045 60.3793L80.7162 61.9326C80.7033 62.0033 80.696 62.0748 80.6944 62.1455L72.2554 65.105C71.8751 64.7683 71.2912 64.7804 70.9262 65.1436C70.5475 65.5196 70.5475 66.1303 70.9262 66.5072L71.3179 66.8969C71.5028 67.0809 71.7507 67.1798 72.0035 67.1798C72.1117 67.1798 72.2199 67.1621 72.3249 67.1251L83.4602 63.2207C83.9327 63.0552 84.2 62.5594 84.078 62.0764C83.9577 61.5927 83.4861 61.2849 82.9919 61.3581Z" fill="black"/>
<path d="M76.5557 53.963L75.2935 54.2418L75.3233 53.8095C75.3564 53.3282 75.027 52.8958 74.5513 52.7994C74.0732 52.7014 73.6016 52.9698 73.4417 53.4262L69.5865 64.4027C69.4096 64.9049 69.6761 65.4553 70.1816 65.6313C70.2874 65.6683 70.3956 65.6851 70.5014 65.6851C70.902 65.6851 71.2767 65.436 71.4164 65.0391L74.4827 56.3085C74.5545 56.3198 74.6272 56.3254 74.7007 56.3254C74.7702 56.3254 74.8428 56.3182 74.9131 56.3029L76.9764 55.8473C77.4989 55.7316 77.8284 55.2165 77.7129 54.6974C77.5958 54.1759 77.0782 53.8489 76.5557 53.963Z" fill="black"/>
<path d="M69.3878 66.111L69.3741 66.1158C69.0583 66.2243 68.8241 66.4902 68.749 66.8141C68.6739 67.1379 68.7749 67.481 69.0115 67.7157C69.1932 67.8965 69.4411 67.9929 69.6955 67.9929C69.7335 67.9929 69.7714 67.9905 69.8094 67.9865C70.1033 67.9527 70.369 67.7832 70.5249 67.5341C70.7429 67.1877 70.7171 66.7426 70.4611 66.4227C70.2067 66.1021 69.7763 65.9776 69.3878 66.111Z" fill="black"/>
<path d="M69.3822 66.1123C69.1747 66.1847 68.9986 66.3253 68.8823 66.5109L68.8751 66.5222C68.6352 66.9038 68.7095 67.39 69.0301 67.7074C69.2142 67.889 69.4622 67.9814 69.7117 67.9814C69.8982 67.9814 70.0856 67.93 70.2487 67.8271C70.6646 67.5644 70.8035 67.0372 70.5879 66.5961C70.3739 66.1557 69.8457 65.95 69.3822 66.1123Z" fill="black"/>
<path d="M75.0561 64.5892L75.0626 64.5522C75.1231 64.2292 75.0367 63.899 74.8316 63.6531C74.7848 63.596 74.7105 63.5237 74.6515 63.4795C74.4294 63.3092 74.1516 63.2296 73.9029 63.2537L73.3231 63.2899L73.3247 62.9283C73.3295 62.8134 73.315 62.6969 73.2811 62.5731C73.2625 62.5096 73.2246 62.418 73.1931 62.3594C72.9984 61.9946 72.6189 61.7696 72.203 61.7696C72.1828 61.7704 72.1626 61.7704 72.1449 61.7712C72.0076 61.5743 71.7887 61.4281 71.5376 61.3766C71.0603 61.2754 70.5693 61.5462 70.4086 62.0034L68.8799 66.2742V66.2751C68.8799 66.7074 68.8702 67.1774 69.1965 67.5005C69.4242 67.7263 69.7561 67.846 70.0638 67.846C70.197 67.846 70.3311 67.8235 70.4627 67.7777L74.7848 66.2614C75.2572 66.0959 75.5245 65.5993 75.4017 65.1155C75.3476 64.8986 75.2224 64.717 75.0561 64.5892ZM71.2913 65.4426L71.5416 64.7282C71.5876 64.8038 71.6426 64.8753 71.7064 64.9396C71.8073 65.0408 71.9244 65.1204 72.0496 65.1766L71.2913 65.4426Z" fill="black"/>
</svg>
