<svg width="120" height="96" viewBox="0 0 120 96" fill="none" xmlns="http://www.w3.org/2000/svg">
<path d="M115.935 36.5876H103.235H99.8324C97.6397 36.5876 95.736 34.8353 95.7353 32.6324C95.736 30.4295 97.6397 28.6092 99.8324 28.6092H103.235H107.774C109.966 28.6092 111.617 26.8569 111.618 24.654C111.617 22.4511 109.966 20.6308 107.774 20.6308H91.2294H89.6265C89.4272 20.4218 89.2257 20.2142 89.0206 20.0081C73.0838 3.99666 47.2449 3.99666 31.3081 20.0081C27.7074 23.6257 24.9206 27.7515 22.9471 32.1552H15.2831C13.0904 32.1552 11.4706 33.8705 11.4706 36.0734V36.1274C11.4706 38.3303 13.0904 40.1335 15.2831 40.1335H17.2059H27.8566C30.0493 40.1335 31.7647 41.8489 31.7647 44.0518V44.1057C31.7647 46.3087 30.05 48.1119 27.8566 48.1119H17.2059H3.8125C1.61985 48.1119 0 49.828 0 52.0309V52.0849C0 54.2878 1.61985 56.091 3.8125 56.091H17.2059H19.9154C22.1081 56.091 23.8235 57.8064 23.8235 60.0093V60.0632C23.8235 62.2662 22.1088 64.0694 19.9154 64.0694H17.2059H11.9743C9.78162 64.0694 7.94118 65.7848 7.94118 67.9877V68.0416C7.94118 70.2445 9.78162 72.0478 11.9743 72.0478H26.4051C27.825 74.1421 29.4596 76.1338 31.3081 77.9917C47.2449 94.0031 73.0838 94.0031 89.0206 77.9917C94.0405 72.9483 97.4779 66.9187 99.3353 60.5235H104.464C106.657 60.5235 108.528 58.7712 108.529 56.5683C108.528 54.3653 106.657 52.5451 104.464 52.5451H103.235H91.8912C89.6985 52.5451 87.7949 50.7928 87.7941 48.5899C87.7949 46.387 89.6985 44.5667 91.8912 44.5667H103.235H115.935C118.128 44.5667 119.999 42.8144 120 40.6115C119.999 38.4086 118.128 36.5876 115.935 36.5876Z" fill="#EEF0F1"/>
<path d="M61.5263 92.1597H55.8123C55.5488 92.1597 55.3362 92.3741 55.3362 92.6397C55.3362 92.9053 55.5488 93.1197 55.8123 93.1197H61.5263C61.7898 93.1197 62.0025 92.9053 62.0025 92.6397C62.0025 92.3741 61.7898 92.1597 61.5263 92.1597Z" fill="black"/>
<path d="M52.9553 92.1597H42.4796C42.2161 92.1597 42.0034 92.3741 42.0034 92.6397C42.0034 92.9053 42.2161 93.1197 42.4796 93.1197H52.9553C53.2188 93.1197 53.4315 92.9053 53.4315 92.6397C53.4315 92.3741 53.2188 92.1597 52.9553 92.1597Z" fill="black"/>
<path d="M25.3375 53.2798H21.5281C21.2647 53.2798 21.052 53.4942 21.052 53.7598C21.052 54.0254 21.2647 54.2398 21.5281 54.2398H25.3375C25.601 54.2398 25.8137 54.0254 25.8137 53.7598C25.8137 53.4942 25.601 53.2798 25.3375 53.2798Z" fill="black"/>
<path d="M18.6711 53.2798H8.19541C7.93193 53.2798 7.71924 53.4942 7.71924 53.7598C7.71924 54.0254 7.93193 54.2398 8.19541 54.2398H18.6711C18.9346 54.2398 19.1473 54.0254 19.1473 53.7598C19.1473 53.4942 18.9346 53.2798 18.6711 53.2798Z" fill="black"/>
<path d="M21.052 50.3999H13.4333C13.1698 50.3999 12.9571 50.6143 12.9571 50.8799C12.9571 51.1455 13.1698 51.3599 13.4333 51.3599H21.052C21.3154 51.3599 21.5281 51.1455 21.5281 50.8799C21.5281 50.6143 21.3154 50.3999 21.052 50.3999Z" fill="black"/>
<path d="M74.3829 95.0396H51.0506C50.7872 95.0396 50.5745 95.2539 50.5745 95.5195C50.5745 95.7851 50.7872 95.9995 51.0506 95.9995H74.3829C74.6464 95.9995 74.859 95.7851 74.859 95.5195C74.859 95.2539 74.6464 95.0396 74.3829 95.0396Z" fill="black"/>
<path d="M47.2413 95.0396H45.3366C45.0731 95.0396 44.8604 95.2539 44.8604 95.5195C44.8604 95.7851 45.0731 95.9995 45.3366 95.9995H47.2413C47.5047 95.9995 47.7174 95.7851 47.7174 95.5195C47.7174 95.2539 47.5047 95.0396 47.2413 95.0396Z" fill="black"/>
<path d="M77.7161 4.31982H76.2876C76.0242 4.31982 75.8115 4.53422 75.8115 4.79982C75.8115 5.06542 76.0242 5.27982 76.2876 5.27982H77.7161C77.9796 5.27982 78.1923 5.06542 78.1923 4.79982C78.1923 4.53422 77.9796 4.31982 77.7161 4.31982Z" fill="black"/>
<path d="M70.5736 4.31982H69.1451C68.8816 4.31982 68.6689 4.53422 68.6689 4.79982C68.6689 5.06542 68.8816 5.27982 69.1451 5.27982H70.5736C70.8371 5.27982 71.0498 5.06542 71.0498 4.79982C71.0498 4.53422 70.8371 4.31982 70.5736 4.31982Z" fill="black"/>
<path d="M76.1702 1.46071L75.1607 2.47831C74.975 2.6655 74.975 2.9695 75.1607 3.1567C75.2543 3.2511 75.375 3.2975 75.4972 3.2975C75.6194 3.2975 75.7416 3.2511 75.8337 3.1567L76.8432 2.13911C77.0289 1.95191 77.0289 1.64791 76.8432 1.46071C76.6575 1.27351 76.3559 1.27351 76.1702 1.46071Z" fill="black"/>
<path d="M71.1196 6.55213L70.1102 7.56973C69.9245 7.75692 69.9245 8.06092 70.1102 8.24812C70.2038 8.34252 70.3244 8.38892 70.4467 8.38892C70.5689 8.38892 70.6911 8.34252 70.7831 8.24812L71.7926 7.23053C71.9783 7.04333 71.9783 6.73933 71.7926 6.55213C71.6069 6.36493 71.3053 6.36333 71.1196 6.55213Z" fill="black"/>
<path d="M73.4306 0C73.1672 0 72.9545 0.214399 72.9545 0.479997V1.91999C72.9545 2.18559 73.1672 2.39999 73.4306 2.39999C73.6941 2.39999 73.9068 2.18559 73.9068 1.91999V0.479997C73.9068 0.214399 73.6941 0 73.4306 0Z" fill="black"/>
<path d="M73.4306 7.2002C73.1672 7.2002 72.9545 7.41459 72.9545 7.68019V9.12018C72.9545 9.38578 73.1672 9.60018 73.4306 9.60018C73.6941 9.60018 73.9068 9.38578 73.9068 9.12018V7.68019C73.9068 7.41459 73.6941 7.2002 73.4306 7.2002Z" fill="black"/>
<path d="M70.7831 1.46071C70.5974 1.27351 70.2959 1.27351 70.1102 1.46071C69.9245 1.64791 69.9245 1.95191 70.1102 2.13911L71.1196 3.1567C71.2133 3.2511 71.3339 3.2975 71.4561 3.2975C71.5783 3.2975 71.7005 3.2511 71.7926 3.1567C71.9783 2.9695 71.9783 2.6655 71.7926 2.47831L70.7831 1.46071Z" fill="black"/>
<path d="M75.8337 6.55202C75.648 6.36482 75.3464 6.36482 75.1607 6.55202C74.975 6.73922 74.975 7.04322 75.1607 7.23042L76.1702 8.24801C76.2638 8.34241 76.3845 8.38881 76.5067 8.38881C76.6289 8.38881 76.7511 8.34241 76.8432 8.24801C77.0289 8.06081 77.0289 7.75681 76.8432 7.56961L75.8337 6.55202Z" fill="black"/>
<path d="M116.286 59.5195H114.857C114.594 59.5195 114.381 59.7339 114.381 59.9995C114.381 60.2651 114.594 60.4795 114.857 60.4795H116.286C116.549 60.4795 116.762 60.2651 116.762 59.9995C116.762 59.7339 116.549 59.5195 116.286 59.5195Z" fill="black"/>
<path d="M109.143 59.5195H107.715C107.451 59.5195 107.239 59.7339 107.239 59.9995C107.239 60.2651 107.451 60.4795 107.715 60.4795H109.143C109.407 60.4795 109.619 60.2651 109.619 59.9995C109.619 59.7339 109.407 59.5195 109.143 59.5195Z" fill="black"/>
<path d="M114.74 56.6604L113.73 57.678C113.545 57.8652 113.545 58.1692 113.73 58.3564C113.824 58.4508 113.945 58.4972 114.067 58.4972C114.189 58.4972 114.311 58.4508 114.403 58.3564L115.413 57.3388C115.598 57.1516 115.598 56.8476 115.413 56.6604C115.227 56.4732 114.926 56.4732 114.74 56.6604Z" fill="black"/>
<path d="M109.689 61.7518L108.68 62.7694C108.494 62.9566 108.494 63.2606 108.68 63.4478C108.773 63.5422 108.894 63.5886 109.016 63.5886C109.138 63.5886 109.261 63.5422 109.353 63.4478L110.362 62.4302C110.548 62.243 110.548 61.939 110.362 61.7518C110.177 61.563 109.875 61.5646 109.689 61.7518Z" fill="black"/>
<path d="M112 55.1997C111.737 55.1997 111.524 55.4141 111.524 55.6797V57.1197C111.524 57.3853 111.737 57.5997 112 57.5997C112.264 57.5997 112.476 57.3853 112.476 57.1197V55.6797C112.476 55.4141 112.264 55.1997 112 55.1997Z" fill="black"/>
<path d="M112 62.3999C111.737 62.3999 111.524 62.6143 111.524 62.8799V64.3199C111.524 64.5855 111.737 64.7999 112 64.7999C112.264 64.7999 112.476 64.5855 112.476 64.3199V62.8799C112.476 62.6143 112.264 62.3999 112 62.3999Z" fill="black"/>
<path d="M109.353 56.6604C109.167 56.4732 108.865 56.4732 108.68 56.6604C108.494 56.8476 108.494 57.1516 108.68 57.3388L109.689 58.3564C109.783 58.4508 109.904 58.4972 110.026 58.4972C110.148 58.4972 110.27 58.4508 110.362 58.3564C110.548 58.1692 110.548 57.8652 110.362 57.678L109.353 56.6604Z" fill="black"/>
<path d="M114.403 61.7517C114.218 61.5645 113.916 61.5645 113.73 61.7517C113.545 61.9389 113.545 62.2429 113.73 62.4301L114.74 63.4477C114.833 63.5421 114.954 63.5885 115.076 63.5885C115.199 63.5885 115.321 63.5421 115.413 63.4477C115.598 63.2605 115.598 62.9565 115.413 62.7693L114.403 61.7517Z" fill="black"/>
<path d="M109.537 36.3136L108.472 35.7264C107.991 35.4608 107.596 35.064 107.332 34.5776L106.75 33.504C106.666 33.3504 106.505 33.2544 106.332 33.2544C106.158 33.2544 105.997 33.3504 105.915 33.504L105.332 34.5776C105.069 35.0624 104.675 35.4608 104.193 35.7264L103.128 36.3136C102.975 36.3984 102.88 36.56 102.88 36.7344C102.88 36.9104 102.975 37.072 103.128 37.1552L104.193 37.7424C104.674 38.008 105.069 38.4048 105.332 38.8912L105.915 39.9648C105.999 40.1184 106.159 40.2144 106.332 40.2144C106.507 40.2144 106.667 40.1184 106.75 39.9648L107.332 38.8912C107.596 38.4048 107.989 38.008 108.472 37.7424L109.537 37.1552C109.689 37.0704 109.784 36.9088 109.784 36.7344C109.784 36.5584 109.689 36.3968 109.537 36.3136ZM108.015 36.9008C107.373 37.2544 106.848 37.784 106.497 38.4304L106.332 38.7344L106.167 38.4304C105.816 37.784 105.291 37.2544 104.65 36.9008L104.348 36.7344L104.65 36.568C105.291 36.2144 105.816 35.6848 106.167 35.0384L106.332 34.7344L106.497 35.0384C106.848 35.6848 107.373 36.2144 108.015 36.568L108.316 36.7344L108.015 36.9008Z" fill="black"/>
<path d="M27.8342 69.3932L26.7692 68.806C26.2882 68.5404 25.893 68.1436 25.6295 67.6572L25.047 66.5836C24.9629 66.43 24.8026 66.334 24.6296 66.334C24.455 66.334 24.2947 66.43 24.2121 66.5836L23.6296 67.6572C23.3662 68.1436 22.9725 68.5404 22.49 68.806L21.425 69.3932C21.2726 69.478 21.1774 69.6396 21.1774 69.814C21.1774 69.99 21.2726 70.1516 21.425 70.2348L22.49 70.822C22.9709 71.0876 23.3662 71.4844 23.6296 71.9708L24.2121 73.0443C24.2963 73.1979 24.4566 73.2939 24.6296 73.2939C24.8042 73.2939 24.9645 73.1979 25.047 73.0443L25.6295 71.9708C25.893 71.4844 26.2867 71.0876 26.7692 70.822L27.8342 70.2348C27.9866 70.15 28.0818 69.9884 28.0818 69.814C28.0818 69.638 27.9866 69.4764 27.8342 69.3932ZM26.312 69.9804C25.6708 70.334 25.1454 70.8636 24.7947 71.51L24.6296 71.814L24.4645 71.51C24.1137 70.8636 23.5884 70.334 22.9471 69.9804L22.6456 69.814L22.9471 69.6476C23.5884 69.294 24.1137 68.7644 24.4645 68.118L24.6296 67.814L24.7947 68.118C25.1454 68.7644 25.6708 69.294 26.312 69.6476L26.6136 69.814L26.312 69.9804Z" fill="black"/>
<path d="M101.524 85.9194H100.572C100.309 85.9194 100.096 86.1338 100.096 86.3994C100.096 86.665 100.309 86.8794 100.572 86.8794H101.524C101.788 86.8794 102.001 86.665 102.001 86.3994C102.001 86.1338 101.788 85.9194 101.524 85.9194Z" fill="black"/>
<path d="M96.7627 85.9194H95.8104C95.5469 85.9194 95.3342 86.1338 95.3342 86.3994C95.3342 86.665 95.5469 86.8794 95.8104 86.8794H96.7627C97.0262 86.8794 97.2389 86.665 97.2389 86.3994C97.2389 86.1338 97.0262 85.9194 96.7627 85.9194Z" fill="black"/>
<path d="M98.6674 83.0396C98.4039 83.0396 98.1913 83.2539 98.1913 83.5195V84.4795C98.1913 84.7451 98.4039 84.9595 98.6674 84.9595C98.9309 84.9595 99.1436 84.7451 99.1436 84.4795V83.5195C99.1436 83.2539 98.9309 83.0396 98.6674 83.0396Z" fill="black"/>
<path d="M98.6674 87.8394C98.4039 87.8394 98.1913 88.0538 98.1913 88.3194V89.2793C98.1913 89.5449 98.4039 89.7593 98.6674 89.7593C98.9309 89.7593 99.1436 89.5449 99.1436 89.2793V88.3194C99.1436 88.0538 98.9309 87.8394 98.6674 87.8394Z" fill="black"/>
<path d="M25.3374 22.0796H24.3851C24.1216 22.0796 23.9089 22.294 23.9089 22.5596C23.9089 22.8252 24.1216 23.0396 24.3851 23.0396H25.3374C25.6009 23.0396 25.8136 22.8252 25.8136 22.5596C25.8136 22.294 25.6009 22.0796 25.3374 22.0796Z" fill="black"/>
<path d="M20.5757 22.0796H19.6234C19.3599 22.0796 19.1472 22.294 19.1472 22.5596C19.1472 22.8252 19.3599 23.0396 19.6234 23.0396H20.5757C20.8392 23.0396 21.0519 22.8252 21.0519 22.5596C21.0519 22.294 20.8392 22.0796 20.5757 22.0796Z" fill="black"/>
<path d="M22.4804 19.1997C22.2169 19.1997 22.0042 19.4141 22.0042 19.6797V20.6397C22.0042 20.9053 22.2169 21.1197 22.4804 21.1197C22.7439 21.1197 22.9566 20.9053 22.9566 20.6397V19.6797C22.9566 19.4141 22.7439 19.1997 22.4804 19.1997Z" fill="black"/>
<path d="M22.4804 23.9995C22.2169 23.9995 22.0042 24.2139 22.0042 24.4795V25.4395C22.0042 25.7051 22.2169 25.9195 22.4804 25.9195C22.7439 25.9195 22.9566 25.7051 22.9566 25.4395V24.4795C22.9566 24.2139 22.7439 23.9995 22.4804 23.9995Z" fill="black"/>
<path d="M107.715 12H102.953C102.689 12 102.477 12.2144 102.477 12.48C102.477 12.7456 102.689 12.96 102.953 12.96H107.715C107.978 12.96 108.191 12.7456 108.191 12.48C108.191 12.2144 107.978 12 107.715 12Z" fill="black"/>
<path d="M101.525 15.3599H86.2871C86.0237 15.3599 85.811 15.5743 85.811 15.8399C85.811 16.1055 86.0237 16.3199 86.2871 16.3199H101.525C101.788 16.3199 102.001 16.1055 102.001 15.8399C102.001 15.5743 101.788 15.3599 101.525 15.3599Z" fill="black"/>
<path d="M92.0012 18.7197H88.1918C87.9283 18.7197 87.7156 18.9341 87.7156 19.1997C87.7156 19.4653 87.9283 19.6797 88.1918 19.6797H92.0012C92.2646 19.6797 92.4773 19.4653 92.4773 19.1997C92.4773 18.9341 92.2646 18.7197 92.0012 18.7197Z" fill="black"/>
<path d="M104.381 18.7197H95.8104C95.5469 18.7197 95.3342 18.9341 95.3342 19.1997C95.3342 19.4653 95.5469 19.6797 95.8104 19.6797H104.381C104.645 19.6797 104.858 19.4653 104.858 19.1997C104.858 18.9341 104.645 18.7197 104.381 18.7197Z" fill="black"/>
<path d="M55.8123 9.12012H31.0515C30.788 9.12012 30.5753 9.33452 30.5753 9.60012C30.5753 9.86572 30.788 10.0801 31.0515 10.0801H55.8123C56.0758 10.0801 56.2885 9.86572 56.2885 9.60012C56.2885 9.33452 56.0758 9.12012 55.8123 9.12012Z" fill="black"/>
<path d="M51.0506 5.75977H42.4796C42.2161 5.75977 42.0034 5.97416 42.0034 6.23976C42.0034 6.50536 42.2161 6.71976 42.4796 6.71976H51.0506C51.3141 6.71976 51.5268 6.50536 51.5268 6.23976C51.5268 5.97416 51.3141 5.75977 51.0506 5.75977Z" fill="black"/>
<path d="M37.7179 5.75977H34.8609C34.5974 5.75977 34.3847 5.97416 34.3847 6.23976C34.3847 6.50536 34.5974 6.71976 34.8609 6.71976H37.7179C37.9814 6.71976 38.1941 6.50536 38.1941 6.23976C38.1941 5.97416 37.9814 5.75977 37.7179 5.75977Z" fill="black"/>
<path d="M36.1782 53.646L36.1481 55.3052L43.6604 71.8683L45.8127 72.2235V56.3004L38.0416 55.6364L36.1782 53.646Z" fill="#00A460"/>
<path d="M43.5017 71.9992H45.8127V56.3001L43.2129 53.7241L43.5017 71.9992Z" fill="#00A460"/>
<path d="M41.3843 39.9434C39.9209 39.9434 38.7336 41.1402 38.7336 42.6153V53.3033C38.7336 54.7785 39.9209 55.9753 41.3843 55.9753H47.7427C48.4744 55.9753 49.1379 55.6761 49.6172 55.1929V40.7258C49.1379 40.2426 48.4744 39.9434 47.7427 39.9434H41.3843Z" fill="white"/>
<path d="M49.1236 39.9434H46.8587C46.4745 39.9434 46.1619 41.1402 46.1619 42.6153V53.3033C46.1619 54.7785 46.4745 55.9753 46.8587 55.9753H49.1236C49.3157 55.9753 49.4903 55.6761 49.6157 55.1929V40.7258C49.4903 40.2426 49.3157 39.9434 49.1236 39.9434Z" fill="#00A460"/>
<path d="M36.4766 43.7881H31.2118V53.2664H36.4766V43.7881Z" fill="white"/>
<path d="M36.4766 43.7881H34.0323V53.2664H36.4766V43.7881Z" fill="#00A460"/>
<path d="M51.5204 56.1579L76.9082 66.5354V29.7612L51.5204 40.0924V56.1579Z" fill="#FF645A"/>
<path d="M72.6766 64.2618L77.4716 66.5354V29.7612L72.6766 32.1308V64.2618Z" fill="#FF645A"/>
<path d="M63.9865 34.2732L48.9412 40.3132C48.6079 40.4475 48.3888 40.7723 48.3888 41.1339V49.7339C48.3888 50.2219 48.7809 50.6171 49.265 50.6171C49.7491 50.6171 50.1411 50.2219 50.1411 49.7339V41.7339L64.6357 35.9148C65.0849 35.734 65.3039 35.2204 65.1261 34.7676C64.9452 34.3148 64.4357 34.094 63.9865 34.2732Z" fill="black"/>
<path d="M77.9637 29.0299C77.7224 28.8651 77.4177 28.8331 77.1478 28.9419L68.6355 32.3739C68.1863 32.5547 67.9673 33.0683 68.1482 33.5211C68.3276 33.9739 68.8371 34.1947 69.2863 34.0123L76.5971 31.0651V65.2313L50.1411 54.5642V51.8938C50.1411 51.4058 49.7491 51.0106 49.265 51.0106C48.7809 51.0106 48.3888 51.4058 48.3888 51.8938V55.1626C48.3888 55.5242 48.6063 55.849 48.9396 55.9818L77.1478 67.3561C77.2526 67.3977 77.3637 67.4201 77.4732 67.4201C77.6462 67.4201 77.8176 67.3689 77.9637 67.2681C78.2049 67.1033 78.3478 66.8297 78.3478 66.5369V29.7611C78.3478 29.4683 78.2033 29.1931 77.9637 29.0299Z" fill="black"/>
<path d="M66.3658 33.315L66.2214 33.3726C65.7722 33.5534 65.5531 34.067 65.7341 34.5198C65.8706 34.8654 66.2007 35.075 66.5483 35.075C66.6563 35.075 66.7674 35.0542 66.8737 35.011L67.0181 34.9534C67.4673 34.7726 67.6864 34.259 67.5054 33.8062C67.3245 33.3534 66.815 33.1326 66.3658 33.315Z" fill="black"/>
<path d="M78.4128 27.1069C77.0621 27.1069 75.9684 28.2109 75.9684 29.5709V67.1051C75.9684 68.4667 77.0636 69.5691 78.4128 69.5691C79.7635 69.5691 80.8571 68.4651 80.8571 67.1051V29.5709C80.8571 28.2109 79.7619 27.1069 78.4128 27.1069Z" fill="#FF645A"/>
<path d="M79.6826 27.1069C79.0334 27.1069 78.5081 27.6381 78.5081 28.2909V68.3835C78.5081 69.0379 79.035 69.5675 79.6826 69.5675C80.3318 69.5675 80.8572 69.0363 80.8572 68.3835V28.2909C80.8572 27.6381 80.3302 27.1069 79.6826 27.1069Z" fill="#FF645A"/>
<path d="M49.1237 55.457L46.3032 55.6042L46.4429 61.4394H50.6744C48.8412 59.5194 49.1237 55.457 49.1237 55.457Z" fill="#00A460"/>
<path d="M78.4129 26.2236C76.5812 26.2236 75.0924 27.726 75.0924 29.5708V67.105C75.0924 68.9514 76.5828 70.4522 78.4129 70.4522C80.2445 70.4522 81.7333 68.9498 81.7333 67.105V59.9338C81.7333 59.4458 81.3413 59.0506 80.8572 59.0506C80.3731 59.0506 79.981 59.4458 79.981 59.9338V67.105C79.981 67.977 79.2779 68.6858 78.4129 68.6858C77.5478 68.6858 76.8447 67.977 76.8447 67.105V29.5708C76.8447 28.6988 77.5478 27.99 78.4129 27.99C79.2779 27.99 79.981 28.6988 79.981 29.5708V57.5338C79.981 58.0218 80.3731 58.417 80.8572 58.417C81.3413 58.417 81.7333 58.0218 81.7333 57.5338V29.5708C81.7333 27.726 80.2429 26.2236 78.4129 26.2236Z" fill="black"/>
<path d="M39.1273 40.8271H47.7412C48.2158 40.8271 48.6602 41.0127 48.9967 41.3503C49.3395 41.6959 49.8935 41.6943 50.2363 41.3503C50.5792 41.0047 50.5776 40.4463 50.2363 40.1007C49.5697 39.4287 48.684 39.0591 47.7428 39.0591H39.1289C37.1845 39.0591 35.6021 40.6543 35.6021 42.6143V53.3022C35.6021 55.2622 37.1845 56.8574 39.1289 56.8574H47.7428C48.684 56.8574 49.5697 56.4878 50.2363 55.8158C50.5792 55.4702 50.5792 54.9118 50.2363 54.5662C49.8951 54.2206 49.3395 54.2206 48.9967 54.5662C48.6618 54.9038 48.2158 55.0894 47.7412 55.0894H39.1273C38.148 55.0894 37.3528 54.2862 37.3528 53.3006V42.6127C37.3528 41.6287 38.1496 40.8271 39.1273 40.8271Z" fill="black"/>
<path d="M36.4766 42.9053H32.526C32.0419 42.9053 31.6498 43.3005 31.6498 43.7885C31.6498 44.2765 32.0419 44.6717 32.526 44.6717H35.6005V52.3836H29.8309V44.6717H30.1452C30.6293 44.6717 31.0213 44.2765 31.0213 43.7885C31.0213 43.3005 30.6293 42.9053 30.1452 42.9053H28.9547C28.4706 42.9053 28.0786 43.3005 28.0786 43.7885V53.2668C28.0786 53.7548 28.4706 54.15 28.9547 54.15H36.4766C36.9607 54.15 37.3528 53.7548 37.3528 53.2668V43.7885C37.3528 43.3005 36.9607 42.9053 36.4766 42.9053Z" fill="black"/>
<path d="M45.8128 69.1194C45.2874 69.1194 44.8604 69.5498 44.8604 70.0794V71.5194H42.4097L34.0117 53.7675C33.7847 53.2891 33.2165 53.0859 32.7419 53.3147C32.2673 53.5435 32.0658 54.1163 32.2927 54.5947L40.9495 72.8938C41.1082 73.2282 41.4415 73.441 41.8098 73.441H45.8128C46.3381 73.441 46.7651 73.0106 46.7651 72.481V70.081C46.7651 69.5498 46.3397 69.1194 45.8128 69.1194Z" fill="black"/>
<path d="M45.8587 66.7739C45.608 66.7739 45.3619 66.8763 45.1858 67.0555C45.008 67.2331 44.9064 67.4811 44.9064 67.7339C44.9064 67.9867 45.008 68.2347 45.1858 68.4123C45.3619 68.5915 45.608 68.6939 45.8587 68.6939C46.1095 68.6939 46.354 68.5915 46.5317 68.4123C46.7095 68.2347 46.8111 67.9867 46.8111 67.7339C46.8111 67.4811 46.7095 67.2331 46.5317 67.0555C46.354 66.8763 46.1095 66.7739 45.8587 66.7739Z" fill="black"/>
<path d="M45.8127 55.1997C45.2873 55.1997 44.8603 55.6301 44.8603 56.1597V65.2796C44.8603 65.8092 45.2873 66.2396 45.8127 66.2396C46.338 66.2396 46.765 65.8092 46.765 65.2796V56.1597C46.765 55.6301 46.3396 55.1997 45.8127 55.1997Z" fill="black"/>
<path d="M40.0986 59.9995H37.2416C36.7162 59.9995 36.2893 60.4299 36.2893 60.9595C36.2893 61.4891 36.7162 61.9195 37.2416 61.9195H40.0986C40.624 61.9195 41.051 61.4891 41.051 60.9595C41.051 60.4299 40.6256 59.9995 40.0986 59.9995Z" fill="black"/>
<path d="M41.5272 65.2793H39.1464C38.621 65.2793 38.1941 65.7097 38.1941 66.2393C38.1941 66.7689 38.621 67.1993 39.1464 67.1993H41.5272C42.0526 67.1993 42.4796 66.7689 42.4796 66.2393C42.4796 65.7097 42.0542 65.2793 41.5272 65.2793Z" fill="black"/>
<path d="M51.2601 60.6827C50.2125 59.8587 49.93 57.0747 49.9983 55.5115C50.0221 54.9819 49.6157 54.5339 49.0904 54.5099C48.5634 54.4843 48.119 54.8955 48.0952 55.4251C48.0777 55.8107 47.9936 58.4587 48.857 60.4795H46.2905C45.7651 60.4795 45.3382 60.9099 45.3382 61.4395C45.3382 61.9691 45.7651 62.3995 46.2905 62.3995H50.676C51.0823 62.3995 51.4442 62.1387 51.576 61.7515C51.7077 61.3643 51.5807 60.9339 51.2601 60.6827Z" fill="black"/>
<path d="M45.8128 42.2397H40.0987C39.5734 42.2397 39.1464 42.6701 39.1464 43.1997C39.1464 43.7293 39.5734 44.1597 40.0987 44.1597H45.8128C46.3381 44.1597 46.7651 43.7293 46.7651 43.1997C46.7651 42.6701 46.3397 42.2397 45.8128 42.2397Z" fill="black"/>
<path d="M92.7613 61.2541L95.6183 56.9341L86.095 55.4941L92.7613 61.2541Z" fill="white"/>
<path d="M95.7247 56.222L86.2013 54.7821C85.8871 54.7341 85.5776 54.9021 85.4458 55.1949C85.3141 55.486 85.3887 55.8316 85.6299 56.0412L92.2963 61.8012C92.4265 61.9132 92.5915 61.974 92.7614 61.974C92.7931 61.974 92.8264 61.9724 92.8582 61.9676C93.0613 61.9388 93.2423 61.8252 93.355 61.654L96.212 57.334C96.3469 57.1292 96.3691 56.8684 96.2707 56.6428C96.1723 56.4172 95.966 56.2588 95.7247 56.222ZM92.6138 60.1788L88.4457 56.5772L94.3994 57.478L92.6138 60.1788Z" fill="black"/>
<path d="M85.6187 47.8141L96.2944 48.0253L95.3802 43.4941L85.6187 47.8141Z" fill="white"/>
<path d="M96.0802 43.3516C96.0373 43.1388 95.9009 42.9564 95.7088 42.8572C95.5167 42.7564 95.2914 42.7516 95.093 42.8396L85.3315 47.1628C85.0252 47.2988 84.8521 47.638 84.9188 47.9692C84.9839 48.3004 85.2696 48.5548 85.6045 48.5612L96.2802 48.7996C96.285 48.7996 96.2897 48.7996 96.2945 48.7996C96.5056 48.7996 96.7072 48.678 96.8437 48.5132C96.9833 48.3452 97.0389 48.0956 96.9945 47.8812L96.0802 43.3516ZM88.8774 47.158L94.8565 44.5116L95.4167 47.2876L88.8774 47.158Z" fill="black"/>
<path d="M85.0363 40.0783L93.9517 34.6144L89.8122 31.4512L85.0363 40.0783Z" fill="white"/>
<path d="M94.3835 34.0397L90.244 30.8765C90.079 30.7501 89.8679 30.7037 89.6663 30.7453C89.4647 30.7885 89.2901 30.9165 89.1885 31.0989L84.4125 39.7261C84.2538 40.0109 84.3078 40.3693 84.5411 40.5949C84.6776 40.7277 84.857 40.7965 85.0363 40.7965C85.1633 40.7965 85.2919 40.7629 85.4077 40.6925L94.3232 35.2285C94.5248 35.1053 94.6533 34.8877 94.666 34.6493C94.6771 34.4125 94.5724 34.1837 94.3835 34.0397ZM86.9807 38.0429L90.0361 32.5245L92.6836 34.5469L86.9807 38.0429Z" fill="black"/>
</svg>
