<svg width="138" height="95" viewBox="0 0 138 95" fill="none" xmlns="http://www.w3.org/2000/svg">
<g clip-path="url(#clip0)">
<path d="M138 33.748C138 33.755 137.999 33.762 137.999 33.7689C137.999 33.7759 138 33.7828 138 33.7898V33.748Z" fill="#EEF0F1"/>
<path d="M133.332 29.0846H118.746H105.717C103.206 29.0846 101.023 27.1267 101.012 24.6063C101.024 22.0851 103.206 19.9228 105.717 19.9228H118.746H120.158C122.669 19.9228 124.814 17.9648 124.825 15.4445C124.813 12.9233 122.669 10.7609 120.158 10.7609H98.0685C79.6799 -3.6529 53.0524 -2.36515 36.1373 14.6267C29.264 21.5312 24.9724 30.0458 23.2606 38.9625L13.663 39.077C11.1447 39.1067 9.12727 41.1825 9.15682 43.7122C9.18638 46.2419 11.252 48.2685 13.7711 48.2388L19.7627 48.1676L22.8915 48.1303C25.4098 48.1006 27.4754 50.1272 27.5058 52.6569C27.5354 55.1866 25.5187 57.2616 22.9996 57.2921L19.8708 57.3294L4.50624 57.5127C1.98798 57.5407 -0.0294957 59.6157 6.12639e-05 62.1454C0.0296183 64.6751 2.09523 66.7017 4.61433 66.672L19.9789 66.4888L32.2273 66.3428C34.7456 66.3132 36.8112 68.3389 36.8416 70.8695C36.8712 73.3992 34.8545 75.4742 32.3354 75.5047L20.087 75.6506L17.8956 75.6769C15.3773 75.7066 13.3598 77.7816 13.3894 80.3121C13.4189 82.8418 15.4846 84.8685 18.0037 84.8388L39.8632 84.5775C58.2688 99.5181 85.3117 98.3966 102.42 81.2105C109.371 74.228 113.682 65.5972 115.353 56.5702H123.958C126.469 56.5702 128.362 54.6123 128.372 52.0919C128.362 49.5707 126.469 47.4083 123.958 47.4083H118.746H114.837C112.326 47.4083 110.144 45.4504 110.133 42.9301C110.145 40.4089 112.326 38.2465 114.837 38.2465H118.746H133.332C135.843 38.2465 137.988 36.2886 137.999 33.7682C137.987 31.247 135.843 29.0846 133.332 29.0846Z" fill="#EEF0F1"/>
<path d="M124.826 15.4243C124.826 15.4313 124.825 15.4382 124.825 15.4452C124.825 15.4521 124.826 15.4591 124.826 15.4661V15.4243Z" fill="#EEF0F1"/>
<path d="M128.373 52.0718C128.373 52.0787 128.372 52.0857 128.372 52.0926C128.372 52.0996 128.373 52.1066 128.373 52.1135V52.0718Z" fill="#EEF0F1"/>
<path d="M90.3542 86.0917H84.2738C83.9943 86.0917 83.7671 85.8644 83.7671 85.5827C83.7671 85.3011 83.9943 85.0737 84.2738 85.0737H90.3542C90.6337 85.0737 90.8609 85.3011 90.8609 85.5827C90.8609 85.8644 90.6337 86.0917 90.3542 86.0917Z" fill="black"/>
<path d="M104.542 86.0917H93.3943C93.1148 86.0917 92.8876 85.8644 92.8876 85.5827C92.8876 85.3011 93.1148 85.0737 93.3943 85.0737H104.542C104.821 85.0737 105.048 85.3011 105.048 85.5827C105.048 85.8644 104.821 86.0917 104.542 86.0917Z" fill="black"/>
<path d="M95.4211 89.1454H70.5932C70.3136 89.1454 70.0865 88.9181 70.0865 88.6364C70.0865 88.3548 70.3136 88.1274 70.5932 88.1274H95.4211C95.7006 88.1274 95.9278 88.3548 95.9278 88.6364C95.9278 88.9181 95.7006 89.1454 95.4211 89.1454Z" fill="black"/>
<path d="M101.501 89.1454H99.4746C99.1951 89.1454 98.9679 88.9181 98.9679 88.6364C98.9679 88.3548 99.1951 88.1274 99.4746 88.1274H101.501C101.781 88.1274 102.008 88.3548 102.008 88.6364C102.008 88.9181 101.781 89.1454 101.501 89.1454Z" fill="black"/>
<path d="M106.568 19.9228H105.048C104.769 19.9228 104.542 19.6946 104.542 19.4138C104.542 19.133 104.769 18.9048 105.048 18.9048H106.568C106.848 18.9048 107.075 19.133 107.075 19.4138C107.075 19.6946 106.848 19.9228 106.568 19.9228Z" fill="black"/>
<path d="M114.169 19.9228H112.649C112.369 19.9228 112.142 19.6946 112.142 19.4138C112.142 19.133 112.369 18.9048 112.649 18.9048H114.169C114.448 18.9048 114.675 19.133 114.675 19.4138C114.675 19.6946 114.448 19.9228 114.169 19.9228Z" fill="black"/>
<path d="M107.458 17.8055C107.328 17.8055 107.199 17.7554 107.1 17.6562L106.025 16.5763C105.828 16.3778 105.828 16.0554 106.025 15.8569C106.223 15.6584 106.544 15.6584 106.741 15.8569L107.816 16.9368C108.014 17.1353 108.014 17.4577 107.816 17.6562C107.718 17.7554 107.588 17.8055 107.458 17.8055Z" fill="black"/>
<path d="M112.833 23.2039C112.703 23.2039 112.573 23.1539 112.475 23.0546L111.4 21.9747C111.202 21.7762 111.202 21.4538 111.4 21.2553C111.597 21.0568 111.918 21.0568 112.116 21.2553L113.191 22.3352C113.388 22.5337 113.388 22.8561 113.191 23.0546C113.092 23.1539 112.963 23.2039 112.833 23.2039Z" fill="black"/>
<path d="M109.625 16.9112C109.346 16.9112 109.119 16.683 109.119 16.4022V14.8752C109.119 14.5944 109.346 14.3662 109.625 14.3662C109.905 14.3662 110.132 14.5944 110.132 14.8752V16.4022C110.132 16.683 109.905 16.9112 109.625 16.9112Z" fill="black"/>
<path d="M109.625 24.5459C109.346 24.5459 109.119 24.3177 109.119 24.0369V22.51C109.119 22.2292 109.346 22.001 109.625 22.001C109.905 22.001 110.132 22.2292 110.132 22.51V24.0369C110.132 24.3177 109.905 24.5459 109.625 24.5459Z" fill="black"/>
<path d="M111.758 17.8055C111.628 17.8055 111.499 17.7554 111.4 17.6562C111.203 17.4577 111.203 17.1353 111.4 16.9368L112.475 15.8569C112.673 15.6584 112.994 15.6584 113.192 15.8569C113.389 16.0554 113.389 16.3778 113.192 16.5763L112.117 17.6562C112.018 17.7554 111.888 17.8055 111.758 17.8055Z" fill="black"/>
<path d="M106.384 23.2039C106.254 23.2039 106.125 23.1539 106.026 23.0546C105.828 22.8561 105.828 22.5337 106.026 22.3352L107.101 21.2553C107.299 21.0568 107.62 21.0568 107.817 21.2553C108.015 21.4538 108.015 21.7762 107.817 21.9747L106.742 23.0546C106.643 23.1539 106.513 23.2039 106.384 23.2039Z" fill="black"/>
<path d="M30.0578 85.5829H28.5378C28.2582 85.5829 28.0311 85.3556 28.0311 85.0739C28.0311 84.7923 28.2582 84.5649 28.5378 84.5649H30.0578C30.3374 84.5649 30.5645 84.7923 30.5645 85.0739C30.5645 85.3556 30.3374 85.5829 30.0578 85.5829Z" fill="black"/>
<path d="M37.6582 85.5829H36.1382C35.8586 85.5829 35.6315 85.3556 35.6315 85.0739C35.6315 84.7923 35.8586 84.5649 36.1382 84.5649H37.6582C37.9377 84.5649 38.1649 84.7923 38.1649 85.0739C38.1649 85.3556 37.9377 85.5829 37.6582 85.5829Z" fill="black"/>
<path d="M30.948 83.4656C30.8179 83.4656 30.6887 83.4156 30.5899 83.3163L29.5149 82.2364C29.3173 82.0379 29.3173 81.7156 29.5149 81.517C29.7125 81.3185 30.0342 81.3185 30.231 81.517L31.306 82.597C31.5036 82.7955 31.5036 83.1178 31.306 83.3163C31.2072 83.4164 31.078 83.4656 30.948 83.4656Z" fill="black"/>
<path d="M36.3222 88.8641C36.1922 88.8641 36.063 88.814 35.9642 88.7148L34.8891 87.6349C34.6915 87.4363 34.6915 87.114 34.8891 86.9155C35.0867 86.717 35.4085 86.717 35.6053 86.9155L36.6803 87.9954C36.8779 88.1939 36.8779 88.5162 36.6803 88.7148C36.5815 88.8149 36.4523 88.8641 36.3222 88.8641Z" fill="black"/>
<path d="M33.1149 82.5713C32.8354 82.5713 32.6082 82.344 32.6082 82.0623V80.5354C32.6082 80.2537 32.8354 80.0264 33.1149 80.0264C33.3944 80.0264 33.6216 80.2537 33.6216 80.5354V82.0623C33.6216 82.3431 33.3944 82.5713 33.1149 82.5713Z" fill="black"/>
<path d="M33.1149 90.2061C32.8354 90.2061 32.6082 89.9788 32.6082 89.6971V88.1701C32.6082 87.8885 32.8354 87.6611 33.1149 87.6611C33.3944 87.6611 33.6216 87.8885 33.6216 88.1701V89.6971C33.6216 89.9779 33.3944 90.2061 33.1149 90.2061Z" fill="black"/>
<path d="M35.2481 83.4656C35.118 83.4656 34.9888 83.4156 34.89 83.3163C34.6924 83.1178 34.6924 82.7955 34.89 82.597L35.965 81.517C36.1627 81.3185 36.4836 81.3185 36.6812 81.517C36.8788 81.7156 36.8788 82.0379 36.6812 82.2364L35.6061 83.3163C35.5073 83.4164 35.3773 83.4656 35.2481 83.4656Z" fill="black"/>
<path d="M29.8738 88.8641C29.7437 88.8641 29.6145 88.814 29.5157 88.7148C29.3181 88.5162 29.3181 88.1939 29.5157 87.9954L30.5908 86.9155C30.7884 86.717 31.1093 86.717 31.3069 86.9155C31.5045 87.114 31.5045 87.4363 31.3069 87.6349L30.2318 88.7148C30.133 88.8149 30.003 88.8641 29.8738 88.8641Z" fill="black"/>
<path d="M125.14 78.2311C124.955 78.2311 124.785 78.1293 124.696 77.9664L124.076 76.828C123.796 76.3139 123.377 75.8923 122.864 75.6115L121.731 74.988C121.569 74.8989 121.468 74.7275 121.468 74.5418C121.468 74.356 121.569 74.1846 121.731 74.0955L122.864 73.4729C123.377 73.1912 123.796 72.7696 124.076 72.2547L124.696 71.1162C124.785 70.9534 124.955 70.8516 125.14 70.8516C125.325 70.8516 125.496 70.9534 125.584 71.1162L126.204 72.2547C126.485 72.7696 126.904 73.1904 127.416 73.472C127.416 73.4729 127.416 73.4729 127.416 73.4729L128.549 74.0955C128.712 74.1846 128.813 74.356 128.813 74.5418C128.813 74.7275 128.712 74.8989 128.549 74.988L127.416 75.6106C126.904 75.8923 126.485 76.3139 126.204 76.828L125.584 77.9664C125.496 78.1293 125.326 78.2311 125.14 78.2311ZM123.029 74.5409L123.35 74.7174C124.033 75.0923 124.591 75.6531 124.965 76.3393L125.14 76.6617L125.315 76.3393C125.688 75.6531 126.247 75.0923 126.93 74.7174L127.251 74.5418L126.93 74.3662C126.246 73.9912 125.688 73.4296 125.315 72.7433L125.14 72.4218L124.965 72.7442C124.59 73.4305 124.032 73.9912 123.35 74.3662L123.029 74.5409Z" fill="black"/>
<path d="M53.4214 7.36079C53.2365 7.36079 53.0659 7.25899 52.9772 7.09612L52.3574 5.95767C52.077 5.44274 51.6582 5.02197 51.1455 4.74033L50.0122 4.11766C49.8501 4.02859 49.7488 3.85723 49.7488 3.67145C49.7488 3.48566 49.8501 3.3143 50.0122 3.22523L51.1455 2.60256C51.6582 2.32092 52.0779 1.90015 52.3574 1.38522L52.9772 0.245929C53.1546 -0.0806743 53.6891 -0.0806743 53.8665 0.245929L54.4863 1.38437C54.7667 1.89931 55.1856 2.32092 55.6982 2.60171L56.8315 3.22353C56.9936 3.31261 57.095 3.48397 57.095 3.66975C57.095 3.85553 56.9936 4.02689 56.8315 4.11597L55.6982 4.73863C55.1856 5.02028 54.7667 5.44104 54.4863 5.95597L53.8665 7.09442C53.777 7.25899 53.6064 7.36079 53.4214 7.36079ZM51.3102 3.6706L51.6311 3.84705C52.3143 4.22285 52.8725 4.78359 53.2458 5.46904L53.4214 5.7914L53.5971 5.46904C53.9704 4.78275 54.5294 4.22201 55.2117 3.84705L55.5327 3.6706L55.2117 3.495C54.5294 3.12004 53.9704 2.5593 53.5971 1.87301L53.4214 1.55065L53.2458 1.87301C52.8725 2.5593 52.3143 3.12004 51.6311 3.495L51.3102 3.6706Z" fill="black"/>
<path d="M28.0311 22.4677H27.0177C26.7382 22.4677 26.511 22.2395 26.511 21.9587C26.511 21.6779 26.7382 21.4497 27.0177 21.4497H28.0311C28.3106 21.4497 28.5378 21.6779 28.5378 21.9587C28.5378 22.2395 28.3106 22.4677 28.0311 22.4677Z" fill="black"/>
<path d="M33.098 22.4677H32.0846C31.8051 22.4677 31.5779 22.2395 31.5779 21.9587C31.5779 21.6779 31.8051 21.4497 32.0846 21.4497H33.098C33.3775 21.4497 33.6047 21.6779 33.6047 21.9587C33.6047 22.2395 33.3775 22.4677 33.098 22.4677Z" fill="black"/>
<path d="M30.0747 20.474C29.7952 20.474 29.5681 20.2458 29.5681 19.965V18.947C29.5681 18.6662 29.7952 18.438 30.0747 18.438C30.3543 18.438 30.5814 18.6662 30.5814 18.947V19.965C30.5814 20.2458 30.3543 20.474 30.0747 20.474Z" fill="black"/>
<path d="M30.0747 25.5638C29.7952 25.5638 29.5681 25.3356 29.5681 25.0548V24.0368C29.5681 23.756 29.7952 23.5278 30.0747 23.5278C30.3543 23.5278 30.5814 23.756 30.5814 24.0368V25.0548C30.5814 25.3356 30.3543 25.5638 30.0747 25.5638Z" fill="black"/>
<path d="M125.823 38.7558H124.809C124.53 38.7558 124.302 38.5276 124.302 38.2468C124.302 37.966 124.53 37.7378 124.809 37.7378H125.823C126.102 37.7378 126.329 37.966 126.329 38.2468C126.329 38.5276 126.102 38.7558 125.823 38.7558Z" fill="black"/>
<path d="M130.889 38.7558H129.876C129.597 38.7558 129.369 38.5276 129.369 38.2468C129.369 37.966 129.597 37.7378 129.876 37.7378H130.889C131.169 37.7378 131.396 37.966 131.396 38.2468C131.396 38.5276 131.169 38.7558 130.889 38.7558Z" fill="black"/>
<path d="M127.866 36.762C127.587 36.762 127.36 36.5338 127.36 36.2531V35.2351C127.36 34.9543 127.587 34.7261 127.866 34.7261C128.146 34.7261 128.373 34.9543 128.373 35.2351V36.2531C128.373 36.5338 128.146 36.762 127.866 36.762Z" fill="black"/>
<path d="M127.866 41.8519C127.587 41.8519 127.36 41.6237 127.36 41.3429V40.3249C127.36 40.0441 127.587 39.8159 127.866 39.8159C128.146 39.8159 128.373 40.0441 128.373 40.3249V41.3429C128.373 41.6237 128.146 41.8519 127.866 41.8519Z" fill="black"/>
<path d="M105.048 8.72502H78.7002C78.4207 8.72502 78.1935 8.49682 78.1935 8.21602C78.1935 7.93523 78.4207 7.70703 78.7002 7.70703H105.048C105.328 7.70703 105.555 7.93523 105.555 8.21602C105.555 8.49682 105.328 8.72502 105.048 8.72502Z" fill="black"/>
<path d="M5.73665 55.0434H0.669732C0.390207 55.0434 0.16304 54.8152 0.16304 54.5344C0.16304 54.2536 0.390207 54.0254 0.669732 54.0254H5.73665C6.01617 54.0254 6.24334 54.2536 6.24334 54.5344C6.24334 54.8152 6.01617 55.0434 5.73665 55.0434Z" fill="black"/>
<path d="M23.4709 58.6063H7.25672C6.9772 58.6063 6.75003 58.3781 6.75003 58.0974C6.75003 57.8166 6.9772 57.5884 7.25672 57.5884H23.4709C23.7504 57.5884 23.9775 57.8166 23.9775 58.0974C23.9775 58.3781 23.7504 58.6063 23.4709 58.6063Z" fill="black"/>
<path d="M21.4441 62.1693H17.3905C17.111 62.1693 16.8839 61.942 16.8839 61.6604C16.8839 61.3787 17.111 61.1514 17.3905 61.1514H21.4441C21.7236 61.1514 21.9508 61.3787 21.9508 61.6604C21.9508 61.942 21.7236 62.1693 21.4441 62.1693Z" fill="black"/>
<path d="M13.337 62.1693H4.21658C3.93705 62.1693 3.70988 61.942 3.70988 61.6604C3.70988 61.3787 3.93705 61.1514 4.21658 61.1514H13.337C13.6165 61.1514 13.8437 61.3787 13.8437 61.6604C13.8437 61.942 13.6165 62.1693 13.337 62.1693Z" fill="black"/>
<path d="M92.8876 5.16203H83.7671C83.4876 5.16203 83.2604 4.93383 83.2604 4.65304C83.2604 4.37224 83.4876 4.14404 83.7671 4.14404H92.8876C93.1671 4.14404 93.3943 4.37224 93.3943 4.65304C93.3943 4.93383 93.1671 5.16203 92.8876 5.16203Z" fill="black"/>
<path d="M100.995 5.16203H97.9545C97.675 5.16203 97.4478 4.93383 97.4478 4.65304C97.4478 4.37224 97.675 4.14404 97.9545 4.14404H100.995C101.274 4.14404 101.501 4.37224 101.501 4.65304C101.501 4.93383 101.274 5.16203 100.995 5.16203Z" fill="black"/>
<path d="M95.9446 73.5123C95.9446 76.5247 93.5142 78.9661 90.5154 78.9661H52.2247C49.226 78.9661 46.7955 76.5247 46.7955 73.5123V39.6287C46.7955 36.6163 49.226 34.1748 52.2247 34.1748H90.5154C93.5142 34.1748 95.9446 36.6163 95.9446 39.6287V73.5123Z" fill="#00A460"/>
<path d="M92.3978 77.893C92.3978 72.6733 92.3978 38.8423 92.3978 34.1943C92.3978 34.1943 95.9446 36.674 95.9446 39.733V72.3552C95.9446 75.4134 92.3978 77.893 92.3978 77.893Z" fill="white"/>
<path d="M50.1794 35.1577C48.1822 35.7363 46.7955 38.3991 46.7955 39.7319V72.354C46.7955 73.7631 47.9685 76.4166 50.1836 77.5737C50.1828 73.9039 50.057 38.7054 50.1794 35.1577Z" fill="#EEF0F1"/>
<path d="M66.5565 34.6836V78.1523L76.6903 78.1498V34.6836H66.5565Z" fill="#FF645A"/>
<path d="M68.5833 34.6836H66.5565V78.6385L68.5833 78.5375V34.6836Z" fill="#EEF0F1"/>
<path d="M74.6636 34.6836H76.6903V78.6385L74.6636 78.9235V34.6836Z" fill="#E04646"/>
<path d="M85.2872 79.4751H51.8515C48.0918 79.4751 45.7813 75.7993 45.7813 72.3543V61.1938C45.7813 60.6313 46.2348 60.1758 46.7947 60.1758C47.3546 60.1758 47.8081 60.6313 47.8081 61.1938V72.3543C47.8081 74.8203 49.3433 77.4391 51.8515 77.4391H85.2872C85.8471 77.4391 86.3006 77.8946 86.3006 78.4571C86.3006 79.0195 85.8471 79.4751 85.2872 79.4751Z" fill="black"/>
<path d="M90.9993 79.4751H88.3274C87.7675 79.4751 87.314 79.0196 87.314 78.4571C87.314 77.8947 87.7675 77.4391 88.3274 77.4391H90.9993C93.6898 77.4391 94.4245 74.2579 94.4245 72.3543V39.7321C94.4245 37.2279 93.4525 36.2108 90.9993 36.2108H51.8515C49.1576 36.2108 47.8081 37.4239 47.8081 39.7321V55.594C47.8081 56.1565 47.3546 56.612 46.7947 56.612C46.2348 56.612 45.7813 56.1565 45.7813 55.594V39.7321C45.7813 36.2786 48.0403 34.1748 51.8515 34.1748H90.9985C94.6053 34.1748 96.4505 36.0725 96.4505 39.7321V72.3535C96.4513 75.8044 94.7336 79.4751 90.9993 79.4751Z" fill="black"/>
<path d="M46.8851 59.5029C46.6165 59.5029 46.353 59.396 46.1655 59.2077C45.9781 59.0143 45.8666 58.7547 45.8666 58.4849C45.8666 58.2203 45.9781 57.9556 46.1655 57.7673C46.5456 57.3855 47.2195 57.3855 47.5995 57.7673C47.787 57.9556 47.8984 58.2203 47.8984 58.4849C47.8984 58.7547 47.787 59.0143 47.5995 59.2077C47.412 59.396 47.1485 59.5029 46.8851 59.5029Z" fill="black"/>
<path d="M76.6903 38.2889C76.1304 38.2889 75.677 37.8334 75.677 37.271V34.726C75.677 34.1636 76.1304 33.708 76.6903 33.708C77.2502 33.708 77.7037 34.1636 77.7037 34.726V37.271C77.7037 37.8325 77.2494 38.2889 76.6903 38.2889Z" fill="black"/>
<path d="M76.8204 40.4156C76.5569 40.4156 76.2934 40.3087 76.106 40.1204C75.9185 39.9269 75.8121 39.6674 75.8121 39.3976C75.8121 39.1329 75.9185 38.8682 76.106 38.6799C76.486 38.2982 77.1649 38.3033 77.5398 38.6799C77.7273 38.8682 77.8388 39.1329 77.8388 39.3976C77.8388 39.6674 77.7273 39.9269 77.5398 40.1204C77.3524 40.3087 77.0889 40.4156 76.8204 40.4156Z" fill="black"/>
<path d="M76.6734 79.4749H66.0329C65.473 79.4749 65.0364 79.0609 65.0364 78.4993V34.726C65.0364 34.1636 65.4899 33.708 66.0498 33.708C66.6097 33.708 67.0632 34.1636 67.0632 34.726V77.4389H75.677V42.3609C75.677 41.7984 76.1304 41.3429 76.6903 41.3429C77.2502 41.3429 77.7037 41.7984 77.7037 42.3609V78.4993C77.7037 79.0609 77.2333 79.4749 76.6734 79.4749Z" fill="black"/>
<g opacity="0.3">
<path opacity="0.3" d="M95.9684 39.978H47.1705V48.3645H95.9684V39.978Z" fill="black"/>
</g>
<path d="M100.235 42.4718C100.235 43.763 99.1925 44.8098 97.9072 44.8098H45.3287C43.4007 44.8098 41.8376 43.2396 41.8376 41.3029V33.651C41.8376 31.7143 43.4007 30.144 45.3287 30.144H97.9072C99.1925 30.144 100.235 31.1909 100.235 32.482V42.4718Z" fill="#00A460"/>
<path d="M96.426 44.8891V30.304C96.426 30.304 100.869 29.3513 100.869 33.0135V41.8606C100.789 45.527 96.426 44.8891 96.426 44.8891Z" fill="white"/>
<path d="M45.9434 30.1445C43.5822 30.1445 41.8367 31.5773 41.8367 33.173V41.3025C41.8367 44.1715 44.534 44.8095 45.9206 44.8095C45.9214 40.4152 45.7981 34.3921 45.9434 30.1445Z" fill="#EEF0F1"/>
<path d="M65.5431 30.6113V43.8867L78.2104 43.8833V30.6113H65.5431Z" fill="#FF645A"/>
<path d="M68.0766 30.6113H64.5297V44.4695L68.0766 44.3482V30.6113Z" fill="#EEF0F1"/>
<path d="M75.677 30.1025H78.7171V43.8911L75.677 44.2321V30.1025Z" fill="#E04646"/>
<path d="M97.8472 45.1905H44.9909C42.693 45.1905 40.8233 43.3123 40.8233 41.0049V33.7535C40.8233 31.5546 42.6044 29.7646 44.7941 29.7646H99.0751C100.623 29.7646 101.882 31.0295 101.882 32.5836V41.1372C101.882 43.3717 100.072 45.1905 97.8472 45.1905ZM44.7941 31.7998C43.7225 31.7998 42.8501 32.6752 42.8501 33.7526V41.004C42.8501 42.1891 43.8103 43.1537 44.9909 43.1537H97.8472C98.9552 43.1537 99.8563 42.2485 99.8563 41.1364V32.5836C99.8563 32.1518 99.5067 31.8006 99.076 31.8006H44.7941V31.7998Z" fill="black"/>
<path d="M78.2104 34.7255C77.6505 34.7255 77.197 34.2699 77.197 33.7075V31.1625C77.197 30.6001 77.6505 30.1445 78.2104 30.1445C78.7703 30.1445 79.2238 30.6001 79.2238 31.1625V33.7075C79.2238 34.2691 78.7695 34.7255 78.2104 34.7255Z" fill="black"/>
<path d="M78.5482 37.525C78.2847 37.525 78.0212 37.4182 77.8337 37.2298C77.6463 37.0364 77.5399 36.7717 77.5399 36.5071C77.5399 36.2424 77.6463 35.9777 77.8337 35.7894C78.2138 35.4076 78.8877 35.4076 79.2677 35.7843C79.4552 35.9777 79.5616 36.2373 79.5616 36.5071C79.5616 36.7768 79.4552 37.0364 79.2677 37.2247C79.0802 37.4182 78.8168 37.525 78.5482 37.525Z" fill="black"/>
<path d="M78.1935 45.3719H65.0195C64.4596 45.3719 64.023 44.9579 64.023 44.3963V31.1625C64.023 30.6001 64.4765 30.1445 65.0364 30.1445C65.5963 30.1445 66.0498 30.6001 66.0498 31.1625V43.3359H77.197V39.8154C77.197 39.253 77.6505 38.7974 78.2104 38.7974C78.7703 38.7974 79.2238 39.253 79.2238 39.8154V44.3963C79.2238 44.9579 78.7534 45.3719 78.1935 45.3719Z" fill="black"/>
<path d="M72.4932 30.5265H70.7198C69.2504 30.5265 68.0597 29.3303 68.0597 27.8543V26.8363C68.0597 25.3602 69.2504 24.1641 70.7198 24.1641H72.4932C73.9626 24.1641 75.1533 25.3602 75.1533 26.8363V27.8543C75.1533 29.3295 73.9626 30.5265 72.4932 30.5265Z" fill="#FF645A"/>
<path d="M74.1188 31.5444H69.0942C67.9651 31.5444 67.0463 30.6214 67.0463 29.4872V26.8362C67.0463 24.8011 68.6939 23.146 70.7198 23.146H72.4932C74.5191 23.146 76.1667 24.8011 76.1667 26.8362V29.4872C76.1667 30.6214 75.2479 31.5444 74.1188 31.5444ZM70.7198 25.182C69.812 25.182 69.0731 25.9242 69.0731 26.8362V29.4872L74.1188 29.5084C74.1307 29.5084 74.14 29.4991 74.14 29.4872V26.8362C74.14 25.9242 73.401 25.182 72.4932 25.182H70.7198Z" fill="black"/>
<path d="M73.6333 24.164C75.0267 22.3826 77.3668 20.0641 79.2069 18.8196C81.2708 17.4233 83.0527 16.6072 85.5405 16.6564C86.4855 16.6751 88.503 17.257 89.2613 17.8228C90.9123 19.0546 89.996 20.5146 89.7148 22.134C89.3559 24.2014 91.2813 25.2041 91.1074 27.2197C91.0179 28.2597 89.616 29.8478 88.9607 30.6113H73.76C73.76 30.6113 75.28 29.1055 75.1534 26.815C75.0267 24.5246 73.6333 24.164 73.6333 24.164Z" fill="#FF645A"/>
<path d="M76.8001 30.6116H73.76C73.76 30.6116 75.28 29.1058 75.1534 26.8154C75.0267 24.5249 73.6333 24.1533 73.6333 24.1533C74.1501 23.4925 74.7362 22.4669 75.4067 21.7407C75.4067 21.7407 77.4453 23.6333 77.5602 26.1757C77.6868 28.976 76.8001 30.6116 76.8001 30.6116Z" fill="#EEF0F1"/>
<path d="M86.5278 17.0093C87.4727 17.0279 88.4312 17.3155 89.2301 17.8228C89.9319 18.2682 90.0603 19.6823 90.1852 21.3221C90.3541 23.5278 90.4437 26.2416 90.2697 28.2572C90.1802 29.2972 90.1008 30.5264 88.9607 30.6113H86.3006C86.3006 30.6113 88.1585 29.5296 88.074 27.0695C87.9997 24.908 88.074 22.8805 88.074 20.2931C88.074 19.0147 86.5278 17.0093 86.5278 17.0093Z" fill="#E04646"/>
<path d="M88.9608 31.6292H74.2244C73.8469 31.6292 73.5016 31.44 73.3267 31.1041C73.1519 30.7681 73.1773 30.3737 73.3926 30.0623C73.3968 30.0556 74.2464 28.7704 74.1417 26.8871C74.0623 25.4449 73.374 25.1446 73.3664 25.1429C73.0388 25.053 72.7778 24.8053 72.6706 24.4821C72.5642 24.158 72.6258 23.8026 72.8361 23.5345C74.1847 21.8107 76.611 19.3472 78.6403 17.9746C78.7965 17.8686 78.9401 17.7693 79.0769 17.6752C79.7541 17.2069 80.3385 16.8022 81.574 16.2381C82.0841 16.0048 82.6845 16.2313 82.9159 16.7437C83.1473 17.2553 82.9218 17.8593 82.4126 18.0917C81.3409 18.5812 80.8731 18.9044 80.2262 19.3515C80.0843 19.4499 79.9349 19.5534 79.7719 19.6628C78.3962 20.5934 76.5198 22.3375 75.1078 23.9697C75.633 24.5415 76.0899 25.4212 76.1642 26.7581C76.2267 27.8923 76.0359 28.9146 75.7952 29.5932H88.9202C89.0824 29.5084 89.3737 28.7381 89.4252 27.5343C89.4725 26.4451 89.4362 25.489 89.399 24.4651C89.3703 23.6796 89.3399 22.8728 89.3399 21.9108C89.3399 21.6436 89.3484 21.3959 89.356 21.1575C89.3855 20.271 89.4033 19.7366 88.9726 19.007C88.612 18.3971 87.7996 17.9441 87.0395 17.9288C86.4797 17.9178 86.0354 17.4538 86.0464 16.8913C86.0574 16.3289 86.5354 15.8844 87.0792 15.8937C88.5377 15.9225 89.9986 16.7573 90.7148 17.9695C91.4486 19.2123 91.414 20.2371 91.3811 21.2288C91.3735 21.446 91.3659 21.6733 91.3659 21.9168C91.3659 22.8414 91.3954 23.6346 91.4233 24.4015C91.463 25.4678 91.5001 26.4536 91.4486 27.6243C91.3405 30.182 90.4327 31.6292 88.9608 31.6292Z" fill="black"/>
<path d="M84.3583 17.8035C83.7038 17.8035 83.442 17.3403 83.3745 17.191C83.3373 17.1078 83.3086 17.0145 83.2942 16.9136C83.2849 16.8771 83.2773 16.8398 83.2714 16.8016C83.1912 16.2459 83.5729 15.7302 84.126 15.6487C84.9131 15.5334 85.2306 16.0992 85.2863 16.2137C85.3319 16.3079 85.3657 16.4156 85.3817 16.5318C85.3952 16.5836 85.4037 16.6379 85.4088 16.693C85.4586 17.2529 85.0473 17.7475 84.49 17.7975C84.4452 17.8018 84.4005 17.8035 84.3583 17.8035Z" fill="black"/>
<path d="M69.3306 24.1643C67.9372 22.3829 65.5971 20.0644 63.757 18.8199C61.6931 17.4236 58.8607 16.9604 56.3728 17.0104C55.4279 17.0291 54.4609 17.2573 53.7017 17.824C52.0508 19.0558 52.967 20.5157 53.2482 22.1352C53.6071 24.2025 51.6817 25.2052 51.8557 27.2208C51.9452 28.2609 53.347 29.5944 54.0024 30.6124H69.2031C69.2031 30.6124 67.683 29.1067 67.8097 26.8162C67.9364 24.5257 69.3306 24.1643 69.3306 24.1643Z" fill="#FF645A"/>
<path d="M65.1504 30.6116H68.1905C68.1905 30.6116 66.6705 29.1058 66.7971 26.8154C66.9238 24.5249 68.3172 24.1533 68.3172 24.1533C67.8004 23.4925 67.2143 22.4669 66.5438 21.7407C66.5438 21.7407 64.5052 23.6333 64.3904 26.1757C64.2637 28.976 65.1504 30.6116 65.1504 30.6116Z" fill="#E04646"/>
<path d="M56.4362 17.0093C55.4912 17.0279 54.4921 17.2561 53.7338 17.8228C52.0828 19.0546 51.5922 19.6255 51.5922 22.0856C51.5922 24.1844 51.691 25.2041 51.8649 27.2205C51.9545 28.2606 53.3487 29.5941 54.0032 30.6121H56.6633C56.6633 30.6121 54.2101 28.9791 54.2101 26.8159C54.2101 25.2889 54.1256 23.56 54.1256 21.9058C54.1256 20.1243 54.4288 19.673 54.6323 18.9418C54.976 17.71 56.4362 17.0093 56.4362 17.0093Z" fill="#EEF0F1"/>
<path d="M69.0731 31.6294H54.0032C53.9052 31.6294 53.8073 31.6362 53.7127 31.6074C51.9562 31.0797 50.8296 29.3652 50.8431 27.2241C50.8499 26.1985 50.8246 25.4672 50.7984 24.6868C50.7739 23.9538 50.7477 23.1988 50.7477 22.1681C50.7477 19.8089 51.0872 18.5051 53.0979 17.0052C53.9525 16.3673 55.0782 16.0169 56.3534 15.9915C58.1826 15.9576 61.6467 16.1646 64.3237 17.9749C66.353 19.3483 68.78 21.811 70.1278 23.5347C70.3474 23.8147 70.4048 24.1905 70.279 24.5239C70.1633 24.8301 69.91 25.06 69.5992 25.1457C69.4632 25.2221 69.1322 25.6301 69.0722 26.7227C68.9675 28.6179 69.9041 30.0702 69.9133 30.0838C70.1228 30.396 70.1439 30.7777 69.9682 31.1102C69.7917 31.4428 69.448 31.6294 69.0731 31.6294ZM54.1687 29.5934H67.4846C67.211 28.83 66.9821 27.7738 67.048 26.5887C67.1189 25.3001 67.4795 24.5001 67.8832 23.992C66.4687 22.3513 64.5762 20.5962 63.1912 19.6588C60.977 18.1615 57.9807 17.9944 56.3931 18.0249C55.8003 18.0368 54.9566 18.1539 54.3064 18.6391C53.0042 19.6113 52.7745 20.1398 52.7745 22.1698C52.7745 23.1666 52.7998 23.9063 52.8243 24.6223C52.8505 25.3883 52.8767 26.1594 52.8699 27.2266C52.8623 28.4007 53.3563 29.3389 54.1687 29.5934Z" fill="black"/>
</g>
<defs>
<clipPath id="clip0">
<rect width="138" height="95" fill="white"/>
</clipPath>
</defs>
</svg>
