<svg width="122" height="97" viewBox="0 0 122 97" fill="none" xmlns="http://www.w3.org/2000/svg">
<g clip-path="url(#clip0)">
<path d="M119.865 69.9659H113.511H101.856C99.6008 69.9659 97.734 68.1568 97.734 65.8866V65.8714C97.734 63.6028 99.5993 61.748 101.856 61.748H113.467V61.7769C115.735 61.7769 117.55 59.9541 117.552 57.6869C117.55 55.4198 115.735 53.5559 113.467 53.5559V53.5331H110.026C107.77 53.5331 105.903 51.7239 105.903 49.4538V49.4386C105.903 47.1699 107.769 45.3151 110.026 45.3151H113.511H118.352C120.608 45.3151 122.393 43.506 122.393 41.2358V41.2206C122.393 38.952 120.608 37.0972 118.352 37.0972H110.452C108.932 29.1851 105.082 21.4267 98.9034 15.2111C83.583 -0.197752 59.3702 -1.19133 42.8834 12.1984L29.0954 11.9808C26.8398 11.9534 24.9896 13.7747 24.9624 16.0434C24.9563 16.5348 25.0365 17.008 25.1893 17.4463C25.74 19.0332 27.2316 20.1805 28.9986 20.2018L36.1271 20.357C38.3827 20.3844 40.189 22.2453 40.1633 24.5139C40.1361 26.7825 38.2859 28.6008 36.0302 28.5734L25.0592 28.4289L13.6646 28.2782C11.409 28.2554 9.55878 30.0737 9.53155 32.3423C9.50432 34.611 11.3122 36.4718 13.5678 36.4992L24.9624 36.6575L27.7642 36.697C30.0198 36.7244 31.8261 38.5853 31.8004 40.8539C31.7731 43.1226 29.923 44.9393 27.6673 44.9134L24.8656 44.8495L23.3452 44.8145C21.0896 44.7872 19.2394 46.6054 19.2121 48.8741C19.1849 51.1427 20.9927 53.0036 23.2484 53.031L27.9926 53.104C29.5221 61.1104 33.3677 68.7289 39.5309 74.9277C54.7545 90.2361 78.754 91.4199 95.2317 78.1823H119.865C122.121 78.1823 123.906 76.3732 123.906 74.103V74.0878C123.906 71.8207 122.121 69.9659 119.865 69.9659Z" fill="#EEF0F1"/>
<path d="M6.4559 58.7168H3.47625C3.20146 58.7168 2.97964 58.939 2.97964 59.2142C2.97964 59.4895 3.20146 59.7117 3.47625 59.7117H6.4559C6.73069 59.7117 6.95251 59.4895 6.95251 59.2142C6.95251 58.939 6.73069 58.7168 6.4559 58.7168Z" fill="black"/>
<path d="M20.3609 58.7168H9.43556C9.16077 58.7168 8.93895 58.939 8.93895 59.2142C8.93895 59.4895 9.16077 59.7117 9.43556 59.7117H20.3609C20.6357 59.7117 20.8575 59.4895 20.8575 59.2142C20.8575 58.939 20.6357 58.7168 20.3609 58.7168Z" fill="black"/>
<path d="M11.422 55.7319H0.496608C0.221818 55.7319 0 55.9541 0 56.2294C0 56.5046 0.221818 56.7268 0.496608 56.7268H11.422C11.6968 56.7268 11.9186 56.5046 11.9186 56.2294C11.9186 55.9541 11.6968 55.7319 11.422 55.7319Z" fill="black"/>
<path d="M17.3813 55.7319H15.3948C15.1201 55.7319 14.8982 55.9541 14.8982 56.2294C14.8982 56.5046 15.1201 56.7268 15.3948 56.7268H17.3813C17.6561 56.7268 17.8779 56.5046 17.8779 56.2294C17.8779 55.9541 17.6561 55.7319 17.3813 55.7319Z" fill="black"/>
<path d="M25.327 76.6245H23.8372C23.5624 76.6245 23.3406 76.8467 23.3406 77.1219C23.3406 77.3972 23.5624 77.6194 23.8372 77.6194H25.327C25.6018 77.6194 25.8236 77.3972 25.8236 77.1219C25.8236 76.8467 25.6018 76.6245 25.327 76.6245Z" fill="black"/>
<path d="M32.7761 76.6245H31.2863C31.0115 76.6245 30.7897 76.8467 30.7897 77.1219C30.7897 77.3972 31.0115 77.6194 31.2863 77.6194H32.7761C33.0509 77.6194 33.2727 77.3972 33.2727 77.1219C33.2727 76.8467 33.0509 76.6245 32.7761 76.6245Z" fill="black"/>
<path d="M25.8485 78.8613L24.7949 79.9167C24.6012 80.1107 24.6012 80.4257 24.7949 80.6197C24.8917 80.7167 25.0192 80.7657 25.1458 80.7657C25.2733 80.7657 25.3999 80.7167 25.4967 80.6197L26.5504 79.5644C26.744 79.3704 26.744 79.0553 26.5504 78.8613C26.3575 78.6673 26.043 78.6673 25.8485 78.8613Z" fill="black"/>
<path d="M31.1158 73.585L30.0622 74.6403C29.8685 74.8343 29.8685 75.1494 30.0622 75.3434C30.159 75.4404 30.2865 75.4893 30.4131 75.4893C30.5406 75.4893 30.6672 75.4404 30.764 75.3434L31.8177 74.288C32.0114 74.094 32.0114 73.779 31.8177 73.585C31.624 73.391 31.3103 73.391 31.1158 73.585Z" fill="black"/>
<path d="M28.2653 79.5898C27.9905 79.5898 27.7686 79.812 27.7686 80.0873V81.5796C27.7686 81.8548 27.9905 82.077 28.2653 82.077C28.54 82.077 28.7619 81.8548 28.7619 81.5796V80.0873C28.7619 79.812 28.54 79.5898 28.2653 79.5898Z" fill="black"/>
<path d="M28.2653 72.1284C27.9905 72.1284 27.7686 72.3506 27.7686 72.6259V74.1182C27.7686 74.3934 27.9905 74.6156 28.2653 74.6156C28.54 74.6156 28.7619 74.3934 28.7619 74.1182V72.6259C28.7619 72.3506 28.54 72.1284 28.2653 72.1284Z" fill="black"/>
<path d="M30.7649 78.8613C30.5712 78.6673 30.2567 78.6673 30.063 78.8613C29.8693 79.0553 29.8693 79.3704 30.063 79.5644L31.1166 80.6197C31.2135 80.7167 31.3409 80.7657 31.4676 80.7657C31.595 80.7657 31.7217 80.7167 31.8185 80.6197C32.0122 80.4257 32.0122 80.1107 31.8185 79.9167L30.7649 78.8613Z" fill="black"/>
<path d="M25.4975 73.585C25.3038 73.391 24.9893 73.391 24.7956 73.585C24.602 73.779 24.602 74.094 24.7956 74.288L25.8493 75.3434C25.9461 75.4404 26.0736 75.4893 26.2002 75.4893C26.3277 75.4893 26.4543 75.4404 26.5512 75.3434C26.7448 75.1494 26.7448 74.8343 26.5512 74.6403L25.4975 73.585Z" fill="black"/>
<path d="M112.73 62.6963H111.24C110.965 62.6963 110.744 62.9185 110.744 63.1937C110.744 63.469 110.965 63.6912 111.24 63.6912H112.73C113.005 63.6912 113.227 63.469 113.227 63.1937C113.227 62.9185 113.005 62.6963 112.73 62.6963Z" fill="black"/>
<path d="M120.179 62.6963H118.689C118.415 62.6963 118.193 62.9185 118.193 63.1937C118.193 63.469 118.415 63.6912 118.689 63.6912H120.179C120.454 63.6912 120.676 63.469 120.676 63.1937C120.676 62.9185 120.454 62.6963 120.179 62.6963Z" fill="black"/>
<path d="M113.251 64.9331L112.198 65.9885C112.004 66.1825 112.004 66.4976 112.198 66.6916C112.295 66.7886 112.422 66.8375 112.549 66.8375C112.675 66.8375 112.803 66.7886 112.9 66.6916L113.953 65.6362C114.147 65.4422 114.147 65.1271 113.953 64.9331C113.76 64.7391 113.446 64.7391 113.251 64.9331Z" fill="black"/>
<path d="M118.519 59.6567L117.465 60.7121C117.271 60.9061 117.271 61.2212 117.465 61.4152C117.562 61.5122 117.689 61.5611 117.816 61.5611C117.943 61.5611 118.07 61.5122 118.167 61.4152L119.221 60.3598C119.414 60.1658 119.414 59.8507 119.221 59.6567C119.027 59.4627 118.713 59.4627 118.519 59.6567Z" fill="black"/>
<path d="M115.668 65.6616C115.393 65.6616 115.172 65.8838 115.172 66.1591V67.6514C115.172 67.9266 115.393 68.1488 115.668 68.1488C115.943 68.1488 116.165 67.9266 116.165 67.6514V66.1591C116.165 65.8838 115.943 65.6616 115.668 65.6616Z" fill="black"/>
<path d="M115.668 58.2002C115.393 58.2002 115.172 58.4224 115.172 58.6976V60.1899C115.172 60.4652 115.393 60.6874 115.668 60.6874C115.943 60.6874 116.165 60.4652 116.165 60.1899V58.6976C116.165 58.4224 115.943 58.2002 115.668 58.2002Z" fill="black"/>
<path d="M118.168 64.9331C117.974 64.7391 117.66 64.7391 117.466 64.9331C117.272 65.1271 117.272 65.4422 117.466 65.6362L118.52 66.6916C118.616 66.7886 118.744 66.8375 118.871 66.8375C118.997 66.8375 119.125 66.7886 119.221 66.6916C119.415 66.4976 119.415 66.1825 119.221 65.9885L118.168 64.9331Z" fill="black"/>
<path d="M112.901 59.6567C112.707 59.4627 112.392 59.4627 112.199 59.6567C112.005 59.8507 112.005 60.1658 112.199 60.3598L113.252 61.4152C113.349 61.5122 113.477 61.5611 113.603 61.5611C113.73 61.5611 113.857 61.5122 113.954 61.4152C114.148 61.2212 114.148 60.9061 113.954 60.7121L112.901 59.6567Z" fill="black"/>
<path d="M121.742 26.2597L120.631 25.6511C120.129 25.3759 119.717 24.9639 119.442 24.4606L118.835 23.348C118.748 23.188 118.581 23.0894 118.4 23.0894C118.218 23.0894 118.051 23.1888 117.964 23.348L117.357 24.4606C117.082 24.9639 116.671 25.3759 116.168 25.6511L115.057 26.2597C114.899 26.3467 114.799 26.5142 114.799 26.6958C114.799 26.8773 114.899 27.0448 115.057 27.1319L116.167 27.7404C116.67 28.0156 117.081 28.4277 117.356 28.9309L117.963 30.0435C118.05 30.2035 118.217 30.3022 118.399 30.3022C118.581 30.3022 118.747 30.2027 118.835 30.0435L119.442 28.9309C119.716 28.4277 120.128 28.0165 120.63 27.7404L121.741 27.1319C121.901 27.0448 121.999 26.8773 121.999 26.6949C122 26.5142 121.901 26.3467 121.742 26.2597ZM120.154 26.8674C120.154 26.8682 120.154 26.8682 120.154 26.8674C119.485 27.2347 118.938 27.7827 118.571 28.4534L118.4 28.7676L118.227 28.4525C117.862 27.7818 117.314 27.2338 116.645 26.8674L116.331 26.6958L116.646 26.5233C117.315 26.1569 117.862 25.6089 118.228 24.9382L118.4 24.6231L118.572 24.9382C118.938 25.6089 119.485 26.1569 120.154 26.5233L120.468 26.6958L120.154 26.8674Z" fill="black"/>
<path d="M27.8829 30.2392L26.7721 29.6306C26.2697 29.3554 25.8584 28.9434 25.5836 28.4401L24.9761 27.3275C24.8892 27.1675 24.722 27.0688 24.5407 27.0688C24.3594 27.0688 24.1923 27.1683 24.1053 27.3275L23.4978 28.4401C23.223 28.9434 22.8117 29.3554 22.3093 29.6306L21.1985 30.2392C21.0396 30.3262 20.9403 30.4937 20.9403 30.6753C20.9403 30.8568 21.0396 31.0243 21.1985 31.1113L22.3084 31.7199C22.8109 31.9951 23.2222 32.4072 23.497 32.9104L24.1045 34.023C24.1914 34.183 24.3586 34.2817 24.5399 34.2817C24.722 34.2817 24.8883 34.1822 24.9761 34.023L25.5828 32.9104C25.8575 32.4072 26.2689 31.996 26.7713 31.7199L27.8821 31.1113C28.0418 31.0243 28.1403 30.8568 28.1403 30.6744C28.1411 30.4937 28.0426 30.3262 27.8829 30.2392ZM26.2954 30.8469C26.2954 30.8477 26.2954 30.8477 26.2954 30.8469C25.6258 31.2141 25.0787 31.7622 24.712 32.4329L24.5407 32.7471L24.3685 32.432C24.0027 31.7613 23.4556 31.2133 22.786 30.8469L22.4723 30.6753L22.7868 30.5028C23.4564 30.1364 24.0035 29.5884 24.3694 28.9177L24.5415 28.6026L24.7129 28.9177C25.0787 29.5884 25.6258 30.1364 26.2954 30.5028L26.6091 30.6753L26.2954 30.8469Z" fill="black"/>
<path d="M64.559 93.04H63.5658C63.291 93.04 63.0692 93.2622 63.0692 93.5375C63.0692 93.8127 63.291 94.0349 63.5658 94.0349H64.559C64.8338 94.0349 65.0556 93.8127 65.0556 93.5375C65.0556 93.2622 64.8338 93.04 64.559 93.04Z" fill="black"/>
<path d="M69.5251 93.04H68.5319C68.2571 93.04 68.0352 93.2622 68.0352 93.5375C68.0352 93.8127 68.2571 94.0349 68.5319 94.0349H69.5251C69.7999 94.0349 70.0217 93.8127 70.0217 93.5375C70.0217 93.2622 69.7999 93.04 69.5251 93.04Z" fill="black"/>
<path d="M66.5041 95.0103C66.2293 95.0103 66.0075 95.2324 66.0075 95.5077V96.5026C66.0075 96.7778 66.2293 97 66.5041 97C66.7789 97 67.0007 96.7778 67.0007 96.5026V95.5077C67.0007 95.2324 66.7789 95.0103 66.5041 95.0103Z" fill="black"/>
<path d="M66.5041 90.0361C66.2293 90.0361 66.0075 90.2583 66.0075 90.5336V91.5284C66.0075 91.8037 66.2293 92.0259 66.5041 92.0259C66.7789 92.0259 67.0007 91.8037 67.0007 91.5284V90.5336C67.0007 90.2583 66.7789 90.0361 66.5041 90.0361Z" fill="black"/>
<path d="M76.9742 3.00391H75.981C75.7062 3.00391 75.4843 3.22609 75.4843 3.50134C75.4843 3.77659 75.7062 3.99877 75.981 3.99877H76.9742C77.249 3.99877 77.4708 3.77659 77.4708 3.50134C77.4708 3.22609 77.249 3.00391 76.9742 3.00391Z" fill="black"/>
<path d="M81.9403 3.00391H80.947C80.6722 3.00391 80.4504 3.22609 80.4504 3.50134C80.4504 3.77659 80.6722 3.99877 80.947 3.99877H81.9403C82.2151 3.99877 82.4369 3.77659 82.4369 3.50134C82.4369 3.22609 82.2151 3.00391 81.9403 3.00391Z" fill="black"/>
<path d="M78.9193 4.97412C78.6445 4.97412 78.4227 5.19631 78.4227 5.47156V6.46643C78.4227 6.74168 78.6445 6.96386 78.9193 6.96386C79.1941 6.96386 79.4159 6.74168 79.4159 6.46643V5.47156C79.4159 5.19631 79.1941 4.97412 78.9193 4.97412Z" fill="black"/>
<path d="M78.9193 0C78.6445 0 78.4227 0.222188 78.4227 0.497436V1.49231C78.4227 1.76756 78.6445 1.98974 78.9193 1.98974C79.1941 1.98974 79.4159 1.76756 79.4159 1.49231V0.497436C79.4159 0.222188 79.1941 0 78.9193 0Z" fill="black"/>
<path d="M87.8996 86.0752H77.9674C77.6926 86.0752 77.4708 86.2974 77.4708 86.5726C77.4708 86.8479 77.6926 87.0701 77.9674 87.0701H87.8996C88.1744 87.0701 88.3962 86.8479 88.3962 86.5726C88.3962 86.2974 88.1744 86.0752 87.8996 86.0752Z" fill="black"/>
<path d="M108.757 82.5933H89.3894C89.1146 82.5933 88.8928 82.8154 88.8928 83.0907C88.8928 83.3659 89.1146 83.5881 89.3894 83.5881H108.757C109.032 83.5881 109.254 83.3659 109.254 83.0907C109.254 82.8154 109.032 82.5933 108.757 82.5933Z" fill="black"/>
<path d="M101.805 79.1113H99.3216C99.0468 79.1113 98.825 79.3335 98.825 79.6088C98.825 79.884 99.0468 80.1062 99.3216 80.1062H101.805C102.079 80.1062 102.301 79.884 102.301 79.6088C102.301 79.3335 102.079 79.1113 101.805 79.1113Z" fill="black"/>
<path d="M95.3487 79.1113H81.4437C81.1689 79.1113 80.9471 79.3335 80.9471 79.6088C80.9471 79.884 81.1689 80.1062 81.4437 80.1062H95.3487C95.6235 80.1062 95.8453 79.884 95.8453 79.6088C95.8453 79.3335 95.6235 79.1113 95.3487 79.1113Z" fill="black"/>
<path d="M62.5725 7.97803H36.749C36.4742 7.97803 36.2524 8.20022 36.2524 8.47546C36.2524 8.75071 36.4742 8.9729 36.749 8.9729H62.5725C62.8473 8.9729 63.0692 8.75071 63.0692 8.47546C63.0692 8.20022 62.8473 7.97803 62.5725 7.97803Z" fill="black"/>
<path d="M50.654 11.46H41.7151C41.4403 11.46 41.2184 11.6821 41.2184 11.9574C41.2184 12.2326 41.4403 12.4548 41.7151 12.4548H50.654C50.9288 12.4548 51.1506 12.2326 51.1506 11.9574C51.1506 11.6821 50.9288 11.46 50.654 11.46Z" fill="black"/>
<path d="M58.5997 11.46H55.6201C55.3453 11.46 55.1235 11.6821 55.1235 11.9574C55.1235 12.2326 55.3453 12.4548 55.6201 12.4548H58.5997C58.8745 12.4548 59.0963 12.2326 59.0963 11.9574C59.0963 11.6821 58.8745 11.46 58.5997 11.46Z" fill="black"/>
<path d="M74.7052 64.6643C74.8298 62.1618 72.9055 60.032 70.4072 59.9072C67.9088 59.7825 65.7825 61.71 65.658 64.2125C65.5334 66.715 67.4577 68.8448 69.9561 68.9696C72.4544 69.0944 74.5807 67.1668 74.7052 64.6643Z" fill="#FF645A"/>
<path d="M71.1731 60.018C70.8527 59.9459 70.5217 59.9053 70.1798 59.9053C67.6786 59.9053 65.6507 61.9365 65.6507 64.4419C65.6507 66.9473 67.6786 68.9777 70.1798 68.9777C70.5217 68.9777 70.8527 68.9362 71.1731 68.8649C69.1502 68.4106 67.6372 66.6049 67.6372 64.4419C67.638 62.278 69.151 60.4715 71.1731 60.018Z" fill="white"/>
<path d="M69.6832 59.9053C69.3414 59.9053 69.0103 59.9467 68.69 60.018C70.7129 60.4723 72.2259 62.278 72.2259 64.4419C72.2259 66.6049 70.7129 68.4114 68.69 68.8649C69.0103 68.9371 69.3414 68.9777 69.6832 68.9777C72.1845 68.9777 74.2123 66.9465 74.2123 64.4419C74.2123 61.9356 72.1845 59.9053 69.6832 59.9053Z" fill="white"/>
<path d="M70.1807 58.9106C67.1356 58.9106 64.6584 61.392 64.6584 64.4413C64.6584 67.4914 67.1356 69.9728 70.1807 69.9728C73.2257 69.9728 75.7021 67.4914 75.7021 64.4413C75.7021 61.392 73.2249 58.9106 70.1807 58.9106ZM70.1807 67.9831C68.2315 67.9831 66.6448 66.3937 66.6448 64.4413C66.6448 62.4889 68.2315 60.9004 70.1807 60.9004C72.1299 60.9004 73.7157 62.4889 73.7157 64.4413C73.7157 66.3937 72.1299 67.9831 70.1807 67.9831Z" fill="black"/>
<path d="M70.1798 20.8926C68.613 20.8926 67.3317 22.176 67.3317 23.7454V30.8778C67.3317 32.4472 68.613 33.7306 70.1798 33.7306C71.7466 33.7306 73.0278 32.4472 73.0278 30.8778V23.7454C73.0287 22.176 71.7466 20.8926 70.1798 20.8926Z" fill="#FF645A"/>
<path d="M70.063 20.8926C69.6517 20.8926 69.1998 20.9829 68.8455 21.1413C69.8396 21.5873 70.476 22.588 70.476 23.7454V30.8778C70.476 32.0351 69.8156 33.035 68.8207 33.4819C69.1741 33.641 69.6326 33.7306 70.0432 33.7306C71.61 33.7306 72.9591 32.4472 72.9591 30.8778V23.7454C72.9599 22.1768 71.6298 20.8926 70.063 20.8926Z" fill="white"/>
<path d="M70.1807 19.8975C68.0626 19.8975 66.3394 21.6236 66.3394 23.7451V30.8775C66.3394 32.9991 68.0626 34.7252 70.1807 34.7252C72.2987 34.7252 74.0219 32.9991 74.0219 30.8775V23.7451C74.0219 21.6236 72.2987 19.8975 70.1807 19.8975ZM72.0355 30.8775C72.0355 31.9022 71.2037 32.7355 70.1807 32.7355C69.1576 32.7355 68.3258 31.9022 68.3258 30.8775V23.7451C68.3258 22.7204 69.1576 21.8872 70.1807 21.8872C71.2037 21.8872 72.0355 22.7204 72.0355 23.7451V30.8775Z" fill="black"/>
<path d="M70.1798 26.645C61.5645 26.645 54.5151 33.7061 54.5151 42.3358L55.7856 49.4118L54.5151 54.9367C54.5151 56.6363 55.904 58.0274 57.6007 58.0274H82.7597C84.4565 58.0274 85.8453 56.6363 85.8453 54.9367L84.7544 49.246L85.8445 42.3358C85.8445 33.7061 78.7959 26.645 70.1798 26.645Z" fill="#FF645A"/>
<path d="M85.4165 54.9368C84.4374 51.1961 84.3513 47.2763 85.1665 43.4966L85.4165 42.3368C85.4165 33.7071 78.2505 26.646 69.6351 26.646C68.9622 26.646 68.3588 26.6941 67.7075 26.777C74.9273 27.703 80.7037 33.5985 81.3783 40.9042C81.4585 41.7714 81.3774 42.646 81.1937 43.4966C80.3784 47.2771 80.4645 51.1961 81.4436 54.9368C81.4436 56.6364 79.8214 58.0756 78.1246 58.0756H82.9989C84.6368 58.0756 85.832 56.5236 85.4165 54.9368Z" fill="#FF645A"/>
<path d="M54.6269 42.3371L55.1897 44.947C55.7989 47.7741 55.7351 50.7056 55.0026 53.5029L54.6269 54.9372C54.6269 56.6367 56.235 58.076 57.9318 58.076H60.9114C59.2147 58.076 57.6065 56.6367 57.6065 54.9372L57.9823 53.5029C58.7148 50.7048 58.7785 47.7741 58.1693 44.947L57.8722 43.5707C57.6553 42.5651 57.5916 41.5271 57.7323 40.5082C58.7139 33.3874 65.2998 27.6884 72.388 26.7789C71.7366 26.6952 71.0198 26.6479 70.3469 26.6479C61.7308 26.6471 54.6269 33.7074 54.6269 42.3371Z" fill="white"/>
<path d="M86.4015 53.2082C85.7311 50.7583 85.65 48.1484 86.1673 45.6613C86.8228 42.515 86.5753 39.2642 85.4521 36.2597C85.2593 35.7449 84.6849 35.4845 84.1734 35.6769C83.6594 35.8701 83.3987 36.4429 83.5915 36.9578C84.5823 39.6083 84.8008 42.4785 84.2222 45.255C83.6412 48.0498 83.7322 50.9822 84.4854 53.7346L84.8479 55.0578C84.785 56.1572 83.8721 57.0318 82.7589 57.0318H57.6015C56.4883 57.0318 55.5754 56.1572 55.5125 55.0578L55.875 53.7346C56.629 50.9813 56.7201 48.0498 56.1382 45.255C54.7088 38.3863 58.2198 31.4661 64.487 28.799C66.2947 28.0296 68.2099 27.64 70.1806 27.64C72.1513 27.64 74.0666 28.0305 75.8742 28.799C77.7142 29.5825 79.3348 30.7299 80.6922 32.2089C81.063 32.6127 81.6903 32.6409 82.0959 32.2678C82.4998 31.8964 82.5263 31.2663 82.1547 30.8617C80.6044 29.1721 78.7529 27.8613 76.6506 26.9668C74.5955 26.0921 72.4187 25.6494 70.1798 25.6494C67.9409 25.6494 65.7633 26.0921 63.709 26.9668C56.5727 30.0036 52.5701 37.8656 54.1923 45.6596C54.7105 48.1468 54.6293 50.7567 53.9581 53.2065L53.5567 54.6715C53.5335 54.7577 53.5211 54.8456 53.5211 54.9351C53.5211 57.1877 55.3511 59.0207 57.5999 59.0207H82.7597C85.0085 59.0207 86.8385 57.1877 86.8385 54.9351C86.8385 54.8464 86.8261 54.7577 86.8029 54.6715L86.4015 53.2082Z" fill="black"/>
<path d="M83.9648 33.1693C83.8754 33.0707 83.8101 33.0002 83.7463 32.9024C83.4426 32.4439 82.8268 32.3187 82.3699 32.6222C81.9122 32.9256 81.7872 33.5432 82.0901 34.0009C82.2408 34.2272 82.384 34.3847 82.4998 34.5116C82.6124 34.6351 82.6687 34.6989 82.7241 34.8001C82.9046 35.1309 83.2447 35.3182 83.5965 35.3182C83.7579 35.3182 83.9201 35.2793 84.0716 35.1964C84.5533 34.9327 84.7304 34.3284 84.4672 33.8467C84.2942 33.53 84.1113 33.3302 83.9648 33.1693Z" fill="black"/>
<path d="M86.1805 56.5537H54.1799C52.6619 56.5537 51.4196 57.7981 51.4196 59.3186C51.4196 60.8391 52.6619 62.0835 54.1799 62.0835H86.1805C87.6985 62.0835 88.9408 60.8391 88.9408 59.3186C88.9408 57.7973 87.6985 56.5537 86.1805 56.5537Z" fill="#FF645A"/>
<path d="M58.3183 56.7271H54.6765C53.1586 56.7271 51.9162 57.9425 51.9162 59.463C51.9162 60.9835 53.1586 62.1989 54.6765 62.1989H58.3183C56.8003 62.1989 55.558 60.9835 55.558 59.463C55.558 57.9416 56.8003 56.7271 58.3183 56.7271Z" fill="white"/>
<path d="M85.3528 56.7271H81.711C83.229 56.7271 84.4713 57.9425 84.4713 59.463C84.4713 60.9835 83.229 62.1989 81.711 62.1989H85.3528C86.8708 62.1989 88.1131 60.9835 88.1131 59.463C88.1131 57.9416 86.8708 56.7271 85.3528 56.7271Z" fill="#FF645A"/>
<path d="M77.3053 61.0879H54.1799C53.2057 61.0879 52.4128 60.2945 52.4128 59.3179C52.4128 58.3421 53.2049 57.5478 54.1799 57.5478H60.2551C60.8038 57.5478 61.2483 57.1026 61.2483 56.553C61.2483 56.0033 60.8038 55.5581 60.2551 55.5581H54.1799C52.1107 55.5581 50.4264 57.2444 50.4264 59.3179C50.4264 61.3905 52.1099 63.0777 54.1799 63.0777H77.3053C77.854 63.0777 78.2985 62.6325 78.2985 62.0828C78.2985 61.5331 77.854 61.0879 77.3053 61.0879Z" fill="black"/>
<path d="M80.2849 61.0874H80.1194C79.5706 61.0874 79.1262 61.5326 79.1262 62.0823C79.1262 62.6319 79.5706 63.0772 80.1194 63.0772H80.2849C80.8336 63.0772 81.2781 62.6319 81.2781 62.0823C81.2781 61.5326 80.8336 61.0874 80.2849 61.0874Z" fill="black"/>
<path d="M86.1805 55.5586H63.0692C62.5204 55.5586 62.076 56.0038 62.076 56.5535C62.076 57.1031 62.5204 57.5483 63.0692 57.5483H86.1805C87.1547 57.5483 87.9476 58.3417 87.9476 59.3184C87.9476 60.2942 87.1555 61.0884 86.1805 61.0884H82.768C82.2192 61.0884 81.7747 61.5336 81.7747 62.0833C81.7747 62.633 82.2192 63.0782 82.768 63.0782H86.1805C88.2497 63.0782 89.934 61.3919 89.934 59.3184C89.934 57.2449 88.2505 55.5586 86.1805 55.5586Z" fill="black"/>
<path d="M79.6112 21.6646C78.6553 21.6662 77.8855 22.4406 77.8814 23.3981C77.8773 24.3557 78.6511 25.1367 79.6071 25.1466C79.8678 25.1491 86.0191 25.2925 87.8822 32.2915C88.09 33.0716 88.7943 33.5856 89.564 33.584C89.7105 33.584 89.8612 33.5641 90.0093 33.5251C90.9372 33.2772 91.4884 32.323 91.2409 31.3944C89.1883 23.685 82.7357 21.6588 79.6112 21.6646Z" fill="white"/>
<path d="M79.6236 20.9116C79.6187 20.9116 79.6137 20.9116 79.6087 20.9116C78.1148 20.9116 76.8948 22.0483 76.8873 23.548C76.8807 25.0478 78.0966 26.1919 79.5971 26.2068C79.8272 26.2085 85.2502 26.3967 86.9221 32.6785C87.2408 33.8756 88.3251 34.8398 89.5608 34.8398C89.5633 34.8398 89.5649 34.8398 89.5674 34.8398C89.8008 34.8398 90.0342 34.7387 90.266 34.6773C91.7202 34.2885 92.5884 32.7166 92.2011 31.2591C89.9953 22.9752 83.0188 20.9116 79.6236 20.9116ZM89.7569 32.6934C89.6916 32.7108 89.6262 32.8492 89.5616 32.8492H89.5608C89.2247 32.8492 88.9293 32.5218 88.8424 32.1951C86.7847 24.4666 79.9084 24.2146 79.617 24.2121C79.2056 24.208 78.8729 23.9319 78.8737 23.5232C78.8754 23.1144 79.2073 22.9005 79.612 22.9005C79.6162 22.9005 79.6195 22.9005 79.6245 22.9005C82.4899 22.9005 88.3871 24.722 90.2817 31.8361C90.3876 32.2341 90.1509 32.5881 89.7569 32.6934Z" fill="black"/>
<path d="M54.2991 28.4724C53.7495 27.684 52.6661 27.4908 51.879 28.0405C45.3453 32.6053 45.6465 39.3721 46.7184 42.312C47.0461 43.2115 48.036 43.6716 48.9357 43.3483C49.8354 43.0249 50.3047 42.0301 49.9877 41.1264C49.9008 40.8802 47.9359 35.0394 53.8679 30.8958C54.5284 30.434 54.7709 29.595 54.5068 28.8712C54.4563 28.7336 54.3868 28.5993 54.2991 28.4724Z" fill="white"/>
<path d="M55.1135 27.9032C54.2519 26.667 52.5477 26.3619 51.3095 27.2242C44.28 32.1355 44.6219 39.4644 45.7848 42.6538C46.187 43.7573 47.2373 44.4454 48.3514 44.4454C48.6568 44.4454 48.9672 44.394 49.2693 44.2854C50.6788 43.7788 51.4204 42.2144 50.923 40.7967C50.846 40.5795 49.112 35.431 54.4348 31.7135C55.4496 31.0047 55.8626 29.6956 55.4388 28.5316C55.3594 28.3111 55.2509 28.1013 55.1135 27.9032ZM53.2993 30.0803C46.7515 34.655 48.9531 41.1814 49.0508 41.4575C49.1873 41.8455 48.9854 42.2741 48.6005 42.4117C48.2181 42.5485 47.7902 42.352 47.652 41.9706C46.6704 39.2795 46.4097 33.0748 52.4467 28.8566C52.5767 28.7654 52.7257 28.7223 52.873 28.7223C53.1089 28.7223 53.3398 28.8334 53.4838 29.039C53.5227 29.0945 53.5525 29.1534 53.5749 29.2122C53.6891 29.5306 53.5765 29.8871 53.2993 30.0803Z" fill="black"/>
<path d="M80.4803 13.6852C79.3679 13.7233 78.4997 14.6552 78.5336 15.7686C78.5684 16.8828 79.4937 17.7608 80.6111 17.7277C81.1267 17.7136 93.2845 17.5196 95.6889 30.0459C95.8553 30.9155 96.5555 31.5473 97.384 31.6667C97.6 31.6982 97.826 31.694 98.052 31.6501C99.1478 31.4395 99.8646 30.3791 99.6535 29.2823C97.2044 16.5123 86.0398 13.4936 80.4803 13.6852Z" fill="white"/>
<path d="M80.4463 12.6922C78.7934 12.7494 77.4899 14.1455 77.5412 15.8028C77.5917 17.4327 78.9333 18.7302 80.5498 18.7302C80.5796 18.7302 80.6086 18.736 80.6383 18.7352C80.7774 18.731 82.0288 18.7219 83.7595 19.0768C84.2942 19.1895 84.8214 18.8645 84.9315 18.3265C85.0416 17.7884 84.6948 17.3117 84.1576 17.2022C82.2515 16.8109 80.8494 16.932 80.5837 16.932C80.5738 16.932 80.5639 16.932 80.5539 16.932C80.0027 16.932 79.545 16.3931 79.5276 15.8376C79.5102 15.273 79.953 14.6993 80.5158 14.6802C85.794 14.4987 96.3568 17.3589 98.6809 29.4715C98.7331 29.7409 98.6768 30.0145 98.5228 30.2417C98.3689 30.4689 98.1363 30.6222 97.8665 30.6745C97.7539 30.6968 97.6405 30.6993 97.5288 30.6836C97.0959 30.6206 96.7491 30.2898 96.6664 29.8595C95.256 22.5132 90.6359 19.3172 87.009 17.9302C86.4975 17.7328 85.9231 17.9907 85.7269 18.5047C85.5308 19.0179 85.7882 19.5924 86.3005 19.7889C90.89 21.5449 93.7215 25.0592 94.7155 30.2351C94.9572 31.4985 95.9744 32.4702 97.2449 32.6534C97.3864 32.6742 97.5288 32.6841 97.6712 32.6841C97.8624 32.6841 98.0527 32.6659 98.2414 32.6294C99.0319 32.4777 99.7155 32.0258 100.167 31.3593C100.619 30.6919 100.784 29.8885 100.632 29.0968C98.0511 15.6602 86.3113 12.4882 80.4463 12.6922Z" fill="black"/>
<path d="M48.2943 23.8652C47.7298 23.0278 46.5942 22.8081 45.7591 23.3744C36.0314 29.9629 37.5022 40.3353 39.6401 44.8968C40.068 45.8096 41.1506 46.2009 42.0627 45.7756C42.9756 45.3503 43.3746 44.2667 42.9491 43.3473C42.7538 42.9228 38.2645 32.8671 47.8051 26.4046C48.4681 25.9561 48.7429 25.1486 48.5467 24.4157C48.4946 24.225 48.411 24.0385 48.2943 23.8652Z" fill="white"/>
<path d="M49.117 23.3083C48.6949 22.6832 48.0551 22.2604 47.316 22.117C46.576 21.9752 45.8253 22.1278 45.2021 22.5506C44.0947 23.3001 43.0824 24.1291 42.1935 25.0146C41.8045 25.4017 41.8028 26.0318 42.1894 26.4215C42.5759 26.8111 43.2041 26.8136 43.5939 26.4256C44.3943 25.6281 45.3105 24.8786 46.3153 24.1988C46.4999 24.0736 46.7217 24.0296 46.9394 24.0703C47.1579 24.1125 47.3466 24.2377 47.4716 24.4226C47.5237 24.4997 47.5626 24.5851 47.5866 24.673C47.6785 25.0162 47.5428 25.381 47.2481 25.5808C37.0238 32.5059 41.8368 43.307 42.047 43.7663C42.2398 44.1833 42.0586 44.6799 41.6423 44.8739C41.2259 45.0679 40.7326 44.888 40.5381 44.4734C39.0301 41.2575 38.1304 35.7086 40.5597 30.6588C40.798 30.1639 40.5903 29.5694 40.0962 29.3306C39.6029 29.0927 39.0086 29.3 38.7702 29.7949C36.0389 35.4748 37.047 41.7077 38.7404 45.3191C39.2188 46.3405 40.2369 46.9407 41.2963 46.9407C41.6936 46.9407 42.0975 46.8562 42.4807 46.6779C43.8877 46.0221 44.5019 44.34 43.8505 42.9314C43.6692 42.5376 39.5176 33.2189 48.3605 27.229C49.3562 26.555 49.8156 25.3205 49.5044 24.1565C49.4233 23.8539 49.2925 23.5687 49.117 23.3083Z" fill="black"/>
<path d="M41.8583 26.7641C41.4387 26.4093 40.8121 26.464 40.4587 26.8835C40.3718 26.9872 40.1665 27.2301 40.121 27.5567C39.9902 27.9588 40.126 28.4148 40.4868 28.6743C40.6623 28.8003 40.8643 28.86 41.0646 28.86C41.3741 28.86 41.6787 28.7157 41.8732 28.4446C41.9924 28.2788 42.0727 28.1147 42.1141 27.9547C42.3061 27.5559 42.2125 27.0634 41.8583 26.7641Z" fill="black"/>
<path d="M54.0078 69.2556C48.4855 67.2369 43.1652 69.6818 41.764 74.4986C40.3627 79.3146 43.1238 84.3577 47.9327 85.7613C52.7406 87.1649 57.7754 84.3992 59.1767 79.5824C59.8338 77.3232 59.6675 74.9678 58.6196 73.0552C58.3589 72.5793 61.4387 66.562 61.4387 66.562C61.4387 66.562 56.3005 68.4763 54.0078 69.2556Z" fill="white"/>
<path d="M46.7382 84.9323C46.408 84.8527 46.4436 84.88 46.7382 84.9323V84.9323Z" fill="white"/>
<path d="M59.7138 67.0362C59.1179 68.3793 56.2409 71.3739 55.9603 72.1632C55.9313 72.2452 57.8971 75.4686 56.8608 79.0916C54.9108 85.909 48.0907 85.1687 46.7375 84.9316C46.9254 84.9763 47.2308 85.0559 47.6736 85.1852C52.4816 86.5888 57.7738 84.3976 59.1758 79.5816C59.833 77.3224 59.6667 74.967 58.6188 73.0544C58.3581 72.5785 61.8567 66.4028 61.8567 66.4028C61.8567 66.4028 60.2113 66.7942 59.7138 67.0362Z" fill="white"/>
<path d="M42.2606 74.4989C40.8594 79.3149 43.6114 84.4542 48.4194 85.8578C48.4194 85.8578 42.0736 81.259 43.9822 74.7965C45.9868 68.0082 53.7372 68.9061 53.7372 68.9061C48.9293 67.5025 43.6619 69.6821 42.2606 74.4989Z" fill="white"/>
<path d="M59.9282 71.8142C60.1293 71.3035 59.8793 70.7248 59.3695 70.5233C58.858 70.3227 58.2819 70.5731 58.0808 71.0829C57.6057 72.2876 57.4352 72.9607 57.7489 73.5345C58.6428 75.1669 58.8149 77.2702 58.2231 79.3047C57.6189 81.379 56.2458 83.0935 54.3546 84.1331C52.4633 85.172 50.2807 85.4116 48.2107 84.8072C47.6859 84.653 47.1331 84.9564 46.9791 85.4837C46.8252 86.011 47.1281 86.5639 47.6545 86.7173C48.5873 86.9901 49.5383 87.1252 50.4843 87.1252C52.1538 87.1252 53.8058 86.7049 55.3097 85.8783C57.6661 84.5833 59.3778 82.4477 60.1301 79.8627C60.856 77.3689 60.6656 74.8643 59.5979 72.7808C59.6302 72.6416 59.713 72.3589 59.9282 71.8142Z" fill="black"/>
<path d="M61.1375 65.1975C61.0821 65.2224 55.8685 67.5247 53.873 68.1937C51.1822 67.1242 48.3457 67.1773 45.8445 68.3512C43.3962 69.5003 41.562 71.6393 40.8113 74.2202C39.8371 77.5679 40.6359 81.1254 42.9492 83.7369C43.1454 83.9583 43.4185 84.0719 43.6925 84.0719C43.9267 84.0719 44.1618 83.9889 44.3513 83.8215C44.7618 83.4567 44.7991 82.8283 44.4349 82.4171C42.5776 80.3204 41.9361 77.4643 42.7183 74.7781C43.3093 72.7469 44.7569 71.0614 46.6879 70.1544C48.7744 69.1753 51.1681 69.1795 53.4301 70.1652C53.6429 70.2581 53.8821 70.273 54.1039 70.2083C55.1641 69.8999 57.6116 68.8843 59.4937 68.081C59.3828 68.3264 59.2752 68.5718 59.1759 68.8072C58.9624 69.3138 59.1991 69.8974 59.7048 70.1113C60.2105 70.3252 60.7932 70.0881 61.0067 69.5816C61.5538 68.2833 62.4171 66.5762 62.4254 66.5597C62.6157 66.1849 62.5495 65.7306 62.2607 65.4255C61.9702 65.1187 61.5216 65.0284 61.1375 65.1975Z" fill="black"/>
<path d="M46.2136 83.8614C46.1963 83.8465 46.1789 83.8324 46.1607 83.8183C45.5515 83.3598 44.9713 83.6566 44.7296 83.9675C44.4887 84.2784 44.3447 84.9151 44.9373 85.3926C45.1691 85.58 45.4009 85.6513 45.6111 85.6513C45.9397 85.6513 46.2186 85.4772 46.3726 85.2932C46.6234 84.9906 46.7889 84.3597 46.2136 83.8614Z" fill="black"/>
<path d="M45.558 78.1863C46.358 78.1863 47.0065 77.5368 47.0065 76.7355C47.0065 75.9342 46.358 75.2847 45.558 75.2847C44.7581 75.2847 44.1096 75.9342 44.1096 76.7355C44.1096 77.5368 44.7581 78.1863 45.558 78.1863Z" fill="black"/>
<path d="M51.1052 77.7612C51.6709 77.1947 51.6709 76.276 51.1052 75.7095C50.5396 75.1429 49.6225 75.1429 49.0568 75.7095C48.4912 76.276 48.4912 77.1947 49.0568 77.7612C49.6225 78.3278 50.5396 78.3278 51.1052 77.7612Z" fill="black"/>
<path d="M54.9399 78.1414C55.7184 77.9573 56.2004 77.1758 56.0166 76.396C55.8328 75.6162 55.0527 75.1333 54.2742 75.3175C53.4957 75.5016 53.0136 76.283 53.1974 77.0628C53.3812 77.8426 54.1614 78.3255 54.9399 78.1414Z" fill="black"/>
<path d="M105.351 41.4918C101.972 39.0701 97.2714 39.8502 94.8538 43.2361C93.7198 44.8238 93.2042 46.714 93.4997 48.4998C93.5733 48.9442 89.5127 52.8076 89.5127 52.8076C89.5127 52.8076 94.06 52.7231 96.0688 52.7438C99.8389 55.8428 104.674 55.3927 107.093 52.0076C109.51 48.6217 108.731 43.9135 105.351 41.4918Z" fill="white"/>
<path d="M105.644 41.5656C102.265 39.1439 97.2714 39.8503 94.8529 43.2362C93.719 44.8238 93.2034 46.7141 93.4989 48.4999C93.5725 48.9442 89.1403 52.8168 89.1403 52.8168C89.1403 52.8168 90.5366 52.9643 90.9918 52.9113C91.8261 52.0234 95.0359 50.4092 95.472 49.8686C95.5176 49.8123 94.6535 46.477 96.5894 44.0238C100.811 38.6755 109.025 43.9873 105.644 41.5656Z" fill="white"/>
<path d="M104.855 40.9941C104.855 40.9941 108.596 46.2678 105.33 50.8027C101.899 55.5657 96.0771 52.7303 96.0771 52.7303C99.4565 55.152 104.178 54.8941 106.596 51.5091C109.014 48.124 108.234 43.4158 104.855 40.9941Z" fill="white"/>
<path d="M106.291 40.9271L106.205 40.8699C106.129 40.8202 106.041 40.7621 105.93 40.6817C104.078 39.356 101.824 38.8304 99.5798 39.2035C97.3359 39.5766 95.3702 40.8027 94.0459 42.6557C92.7837 44.4233 92.2333 46.4528 92.4866 48.4235C92.4336 48.4898 92.355 48.5852 92.2399 48.7178C91.8807 49.1332 91.9254 49.7616 92.3401 50.1214C92.528 50.2847 92.7597 50.3643 92.9898 50.3643C93.2679 50.3643 93.5444 50.2474 93.7413 50.0211C94.2884 49.3885 94.5922 48.9989 94.4805 48.3356C94.2355 46.8566 94.6659 45.2084 95.6624 43.8139C96.6771 42.3929 98.1843 41.4527 99.9051 41.1667C101.629 40.8823 103.356 41.2836 104.775 42.3009C104.913 42.3995 105.022 42.4716 105.116 42.533L105.191 42.5819C105.647 42.887 106.263 42.7626 106.568 42.3058C106.871 41.8498 106.747 41.2322 106.291 40.9271Z" fill="black"/>
<path d="M108.127 45.0516C107.597 45.1942 107.283 45.7397 107.425 46.2703C107.891 48.0139 107.518 49.701 106.284 51.4279C105.292 52.8166 103.742 53.712 102.03 53.8853C100.174 54.0734 98.3498 53.4268 96.8865 52.0663C96.7168 51.9088 96.4967 51.8143 96.2658 51.8018C95.4414 51.7571 93.5965 51.8491 92.0016 51.9494C92.0843 51.8632 92.163 51.7778 92.2391 51.694C92.6074 51.2878 92.5768 50.6586 92.1704 50.2888C91.764 49.919 91.1366 49.9505 90.7675 50.3576C90.0019 51.2024 88.6685 52.3764 88.6553 52.388C88.3333 52.6707 88.2282 53.1275 88.3945 53.523C88.5609 53.9176 88.964 54.1597 89.3869 54.1282C90.7493 54.0212 94.3306 53.7733 95.8196 53.78C97.4369 55.1686 99.3787 55.9073 101.392 55.9073C101.67 55.9073 101.949 55.8932 102.229 55.8642C104.509 55.6337 106.576 54.4382 107.9 52.5853C109.479 50.3742 109.965 48.076 109.343 45.7547C109.202 45.2249 108.658 44.9082 108.127 45.0516Z" fill="black"/>
<path d="M106.756 42.8537C106.572 43.0436 106.463 43.2964 106.463 43.5601C106.463 43.8187 106.572 44.0774 106.756 44.2614C106.94 44.4455 107.198 44.5549 107.456 44.5549C107.714 44.5549 107.972 44.4455 108.161 44.2614C108.345 44.0724 108.449 43.8187 108.449 43.5601C108.449 43.2964 108.345 43.0436 108.161 42.8537C107.789 42.4856 107.123 42.4856 106.756 42.8537Z" fill="black"/>
<path d="M104.84 46.4028C104.176 46.4028 103.638 46.9417 103.638 47.6066C103.638 48.2715 104.176 48.8104 104.84 48.8104C105.504 48.8104 106.042 48.2715 106.042 47.6066C106.042 46.9417 105.504 46.4028 104.84 46.4028Z" fill="black"/>
<path d="M101.086 48.8114C101.75 48.8114 102.288 48.2724 102.288 47.6076C102.288 46.9428 101.75 46.4038 101.086 46.4038C100.422 46.4038 99.8844 46.9428 99.8844 47.6076C99.8844 48.2724 100.422 48.8114 101.086 48.8114Z" fill="black"/>
<path d="M98.5334 47.6911C98.5805 47.028 98.0819 46.4521 97.4199 46.405C96.7578 46.3579 96.1829 46.8573 96.1359 47.5204C96.0888 48.1836 96.5874 48.7594 97.2494 48.8065C97.9115 48.8537 98.4864 48.3543 98.5334 47.6911Z" fill="black"/>
</g>
<defs>
<clipPath id="clip0">
<rect width="122" height="97" fill="white"/>
</clipPath>
</defs>
</svg>
