<svg width="48" height="65" viewBox="0 0 48 65" fill="none" xmlns="http://www.w3.org/2000/svg">
<path d="M46.6667 14.8955H1.33337V63.6455H46.6667V14.8955Z" stroke="#505050" stroke-width="2" stroke-miterlimit="10" stroke-linejoin="round"/>
<path d="M33.3334 21.6665V9.479C33.3334 4.65817 28.6934 1.354 24.0001 1.354C19.3067 1.354 14.6667 4.65817 14.6667 9.479V21.6665" stroke="#505050" stroke-width="2" stroke-miterlimit="10"/>
<path d="M12 21.6665H17.3333" stroke="#505050" stroke-width="2" stroke-miterlimit="10"/>
<path d="M30.6667 21.6665H36.0001" stroke="#505050" stroke-width="2" stroke-miterlimit="10"/>
<path d="M24 37.9167C24 37.9167 23.7467 32.947 21.2933 30.7261C19.6133 29.2095 17.68 29.5074 16.4267 30.9292C15.1867 32.3511 15.1067 34.3417 16.7867 35.8584C19.24 38.0792 24 37.9167 24 37.9167Z" stroke="#505050" stroke-width="2" stroke-miterlimit="10"/>
<path d="M24 37.9167C24 37.9167 24.6133 32.947 27.0667 30.7261C28.7467 29.2095 30.68 29.5074 31.9333 30.9292C33.1733 32.3511 33.2533 34.3417 31.5733 35.8584C29.12 38.0792 24 37.9167 24 37.9167Z" stroke="#505050" stroke-width="2" stroke-miterlimit="10"/>
<path d="M12 44.6875V56.875H36V44.6875" stroke="#505050" stroke-width="2" stroke-miterlimit="10"/>
<path d="M26.6667 44.6873H37.3334V37.9165H10.6667V44.6873H21.3334" stroke="#505050" stroke-width="2" stroke-miterlimit="10"/>
<path d="M26.6667 37.9165V56.8748" stroke="#505050" stroke-width="2" stroke-miterlimit="10"/>
<path d="M21.3334 56.8748V37.9165" stroke="#505050" stroke-width="2" stroke-miterlimit="10"/>
</svg>
