<svg width="76" height="76" viewBox="0 0 76 76" fill="none" xmlns="http://www.w3.org/2000/svg">
<circle cx="38" cy="38" r="38" fill="#00A460"/>
<path d="M47.2277 20.9364L47.2277 20.9365L47.2315 20.9419L59.1828 37.6559C59.1829 37.656 59.183 37.6562 59.1831 37.6563C59.1831 37.6564 59.1832 37.6564 59.1832 37.6565C59.5487 38.1688 59.5539 38.8365 59.2028 39.3572L47.2611 56.0578L47.2572 56.0632C46.5327 57.0862 45.3323 57.7082 44.0734 57.7082C40.8746 57.7082 39.0307 54.1109 40.8833 51.5343L40.8868 51.5293L49.5548 39.3706L50.1755 38.4998L49.5548 37.6291L40.8881 25.4721C40.8879 25.4718 40.8877 25.4715 40.8875 25.4712C39.0464 22.8796 40.8907 19.2915 44.0734 19.2915C45.3233 19.2915 46.4979 19.9061 47.2277 20.9364Z" stroke="white" stroke-width="3"/>
<path d="M38.4738 37.655L38.4744 37.6559C38.8404 38.1682 38.8457 38.8362 38.4944 39.3572L26.5528 56.0578L26.5489 56.0632C25.8243 57.0862 24.624 57.7082 23.365 57.7082C20.1662 57.7082 18.3223 54.1109 20.175 51.5343L20.1785 51.5293L28.8464 39.3706L29.4672 38.4998L28.8464 37.6291L20.1785 25.4704L20.1785 25.4703L20.175 25.4654C18.3223 22.8888 20.1662 19.2915 23.365 19.2915C24.6092 19.2915 25.7917 19.902 26.5567 20.9473L38.4738 37.655Z" stroke="white" stroke-width="3"/>
</svg>
