<svg width="1247" height="420" xmlns="http://www.w3.org/2000/svg">
 <defs>
  <clipPath id="clip0">
   <rect id="svg_1" fill="white" height="572" width="1249" x="-2"/>
  </clipPath>
 </defs>
 <g>
  <title>background</title>
  <rect fill="none" id="canvas_background" height="422" width="1249" y="-1" x="-1"/>
 </g>
 <g>
  <title>Layer 1</title>
  <g id="svg_2" clip-path="url(#clip0)">
   <path id="svg_3" fill="white" d="m140.72,32.957194l-9.099,-8.706l2.005,-12.418l-11.083,5.957l-11.197,-5.747l2.245,12.387l-8.941,8.862l12.478,1.689l5.678,11.233l5.467,-11.338l12.447,-1.919z"/>
   <path id="svg_4" fill="white" d="m337.714,33.020194l-9.099,-8.706l2.005,-12.418l-11.083,5.957l-11.208,-5.747l2.246,12.387l-8.931,8.862l12.478,1.689l5.678,11.233l5.467,-11.338l12.447,-1.919z"/>
   <path id="svg_5" fill="white" d="m540.123,33.020194l-9.099,-8.706l2.005,-12.418l-11.082,5.957l-11.198,-5.747l2.246,12.387l-8.942,8.862l12.478,1.689l5.678,11.233l5.468,-11.338l12.446,-1.919z"/>
   <path id="svg_6" fill="white" d="m744.243,31.835194l-9.099,-8.695l2.005,-12.429l-11.083,5.968l-11.197,-5.758l2.245,12.387l-8.941,8.873l12.478,1.689l5.678,11.222l5.467,-11.327l12.447,-1.93z"/>
   <path id="svg_7" fill="white" d="m943.262,32.737194l-9.098,-8.706l2.014,-12.418l-11.092,5.957l-11.198,-5.747l2.246,12.376l-8.931,8.873l12.478,1.689l5.678,11.233l5.467,-11.338l12.436,-1.919z"/>
   <path id="svg_8" fill="white" d="m1172.78,32.433194l-9.1,-8.695l2,-12.419l-11.08,5.958l-11.2,-5.748l2.25,12.377l-8.94,8.873l12.48,1.688l5.68,11.234l5.46,-11.338l12.45,-1.93z"/>
   <path id="svg_9" fill="#FF645A" d="m249.696,17.518194l-18.974,0l0,10.3l18.974,0c0.839,0 1.532,-0.682 1.532,-1.532l0,-7.247c-0.01,-0.839 -0.693,-1.521 -1.532,-1.521z"/>
   <path id="svg_10" fill="#FF645A" d="m208.284,19.049194l0,7.248c0,0.839 0.682,1.531 1.532,1.531l18.523,0l0,-10.3l-18.523,0c-0.85,-0.01 -1.532,0.672 -1.532,1.521z"/>
   <path id="svg_11" fill="#FF645A" d="m210.929,44.987194c0,0.839 0.682,1.531 1.532,1.531l15.878,0l0,-17.484l-17.4,0l0,15.953l-0.01,0z"/>
   <path id="svg_12" fill="#FF645A" d="m230.711,46.508194l15.878,0c0.84,0 1.533,-0.682 1.533,-1.531l0,-15.964l-17.4,0l0,17.495l-0.011,0z"/>
   <path id="svg_13" fill="#FF645A" d="m235.381,15.829194c3.526,0 5.898,-0.472 7.241,-1.437c1.585,-1.143 2.624,-2.832 2.939,-4.751c0.315,-1.919 -0.147,-3.849 -1.291,-5.433c-1.144,-1.584 -2.833,-2.622 -4.754,-2.937c-1.92,-0.314 -3.851,0.147 -5.436,1.29c-1.354,0.976 -2.561,3.126 -3.684,6.556c-0.241,0.744 -0.451,1.468 -0.629,2.108c-0.179,-0.64 -0.389,-1.364 -0.63,-2.108c-1.123,-3.43 -2.33,-5.57 -3.684,-6.556c-3.264,-2.36 -7.839,-1.615 -10.19,1.647c-1.144,1.584 -1.595,3.514 -1.291,5.433c0.315,1.919 1.354,3.608 2.939,4.751c1.343,0.965 3.704,1.437 7.241,1.437c0.042,0 0.094,0 0.147,0c2.477,-0.01 4.607,-0.251 4.701,-0.262l0.788,-0.094l0.787,0.094c0.094,0.011 2.214,0.252 4.701,0.262c0.011,0 0.053,0 0.105,0zm-16.623,-4.027c-0.892,-0.64 -1.469,-1.584 -1.648,-2.664c-0.178,-1.081 0.084,-2.161 0.724,-3.052c0.798,-1.112 2.057,-1.7 3.327,-1.7c0.829,0 1.669,0.252 2.393,0.777c0.273,0.199 1.259,1.132 2.508,4.919c0.294,0.891 0.535,1.751 0.724,2.464c-3.064,0.189 -6.874,0.084 -8.028,-0.744zm17.19,-6.639c0.892,-0.64 1.973,-0.892 3.054,-0.724c1.081,0.178 2.025,0.755 2.665,1.647c0.641,0.891 0.892,1.971 0.725,3.052c-0.168,1.08 -0.756,2.024 -1.648,2.664c-0.273,0.199 -1.469,0.839 -5.468,0.828c-0.934,0 -1.836,-0.042 -2.56,-0.084c0.776,-2.968 2.077,-6.555 3.232,-7.383z"/>
   <path id="svg_14" fill="#FF645A" d="m429.542,17.287194l-18.975,0l0,10.3l18.975,0c0.839,0 1.532,-0.682 1.532,-1.531l0,-7.248c0,-0.839 -0.682,-1.521 -1.532,-1.521z"/>
   <path id="svg_15" fill="#FF645A" d="m388.14,18.808194l0,7.248c0,0.839 0.683,1.531 1.533,1.531l18.523,0l0,-10.3l-18.523,0c-0.85,0 -1.533,0.682 -1.533,1.521z"/>
   <path id="svg_16" fill="#FF645A" d="m390.785,44.756194c0,0.84 0.682,1.532 1.532,1.532l15.879,0l0,-17.495l-17.4,0l0,15.963l-0.011,0z"/>
   <path id="svg_17" fill="#FF645A" d="m410.567,46.277194l15.879,0c0.839,0 1.532,-0.681 1.532,-1.531l0,-15.953l-17.4,0l0,17.484l-0.011,0z"/>
   <path id="svg_18" fill="#FF645A" d="m415.227,15.598194c3.526,0 5.898,-0.472 7.241,-1.437c1.585,-1.143 2.624,-2.831 2.939,-4.751c0.314,-1.919 -0.147,-3.849 -1.291,-5.433c-1.144,-1.584 -2.834,-2.622 -4.754,-2.937c-1.921,-0.314 -3.852,0.147 -5.436,1.29c-1.354,0.976 -2.561,3.126 -3.684,6.556c-0.241,0.744 -0.451,1.468 -0.63,2.108c-0.178,-0.64 -0.388,-1.364 -0.629,-2.108c-1.123,-3.43 -2.33,-5.57 -3.684,-6.556c-3.264,-2.359 -7.839,-1.615 -10.19,1.647c-1.144,1.584 -1.595,3.514 -1.291,5.433c0.315,1.92 1.354,3.608 2.938,4.751c1.344,0.965 3.705,1.437 7.242,1.437c0.042,0 0.094,0 0.147,0c2.476,-0.01 4.607,-0.251 4.701,-0.262l0.787,-0.094l0.787,0.094c0.095,0.011 2.215,0.252 4.702,0.262c0.01,0 0.063,0 0.105,0zm-16.613,-4.027c-0.892,-0.64 -1.469,-1.584 -1.648,-2.664c-0.178,-1.081 0.084,-2.161 0.724,-3.052c0.798,-1.112 2.057,-1.7 3.327,-1.7c0.829,0 1.669,0.252 2.393,0.777c0.273,0.199 1.259,1.132 2.508,4.919c0.294,0.891 0.535,1.751 0.724,2.464c-3.064,0.189 -6.874,0.084 -8.028,-0.744zm17.19,-6.639c0.892,-0.64 1.973,-0.892 3.054,-0.724c1.081,0.178 2.025,0.755 2.666,1.647c0.64,0.891 0.892,1.971 0.724,3.052c-0.179,1.08 -0.756,2.024 -1.648,2.664c-0.273,0.199 -1.469,0.839 -5.468,0.828c-0.934,0 -1.836,-0.042 -2.56,-0.084c0.776,-2.968 2.078,-6.555 3.232,-7.383z"/>
   <path id="svg_19" fill="#FF645A" d="m660.664,16.406194l-18.974,0l0,10.3l18.974,0c0.84,0 1.532,-0.682 1.532,-1.531l0,-7.248c0,-0.839 -0.682,-1.521 -1.532,-1.521z"/>
   <path id="svg_20" fill="#FF645A" d="m619.263,17.927194l0,7.248c0,0.839 0.682,1.531 1.532,1.531l18.523,0l0,-10.3l-18.534,0c-0.839,0 -1.521,0.682 -1.521,1.521z"/>
   <path id="svg_21" fill="#FF645A" d="m621.908,43.865194c0,0.839 0.682,1.531 1.532,1.531l15.878,0l0,-17.484l-17.4,0l0,15.953l-0.01,0z"/>
   <path id="svg_22" fill="#FF645A" d="m641.69,45.396194l15.878,0c0.84,0 1.532,-0.682 1.532,-1.531l0,-15.964l-17.4,0l0,17.495l-0.01,0z"/>
   <path id="svg_23" fill="#FF645A" d="m646.349,14.717194c3.526,0 5.898,-0.471 7.241,-1.436c1.585,-1.144 2.624,-2.832 2.939,-4.752c0.315,-1.919 -0.147,-3.849 -1.291,-5.433c-1.144,-1.584 -2.833,-2.622 -4.754,-2.937c-1.92,-0.314 -3.851,0.147 -5.436,1.291c-1.354,0.975 -2.561,3.125 -3.684,6.555c-0.241,0.745 -0.451,1.468 -0.629,2.108c-0.179,-0.64 -0.389,-1.363 -0.63,-2.108c-1.123,-3.43 -2.33,-5.57 -3.684,-6.555c-3.263,-2.36 -7.839,-1.616 -10.19,1.646c-1.144,1.584 -1.595,3.514 -1.291,5.433c0.315,1.92 1.354,3.608 2.939,4.752c1.343,0.965 3.704,1.436 7.241,1.436c0.042,0 0.095,0 0.147,0c2.477,-0.01 4.607,-0.251 4.702,-0.262l0.787,-0.094l0.787,0.094c0.094,0.011 2.214,0.252 4.701,0.262c0.011,0 0.063,0 0.105,0zm-16.613,-4.038c-0.892,-0.639 -1.469,-1.583 -1.647,-2.664c-0.179,-1.08 0.084,-2.16 0.724,-3.052c0.797,-1.112 2.057,-1.699 3.327,-1.699c0.829,0 1.668,0.252 2.392,0.776c0.273,0.199 1.26,1.133 2.509,4.919c0.293,0.892 0.535,1.752 0.724,2.465c-3.065,0.199 -6.874,0.095 -8.029,-0.745zm17.19,-6.628c0.892,-0.64 1.973,-0.892 3.054,-0.724c1.081,0.178 2.026,0.755 2.666,1.647c0.64,0.891 0.892,1.972 0.724,3.052c-0.178,1.08 -0.755,2.024 -1.648,2.664c-0.272,0.199 -1.469,0.839 -5.467,0.828c-0.934,0 -1.837,-0.041 -2.561,-0.083c0.777,-2.979 2.078,-6.556 3.232,-7.384z"/>
   <path id="svg_24" fill="#FF645A" d="m832.114,16.333194l-18.974,0l0,10.299l18.974,0c0.84,0 1.532,-0.682 1.532,-1.531l0,-7.248c0,-0.828 -0.682,-1.52 -1.532,-1.52z"/>
   <path id="svg_25" fill="#FF645A" d="m790.713,17.864194l0,7.247c0,0.839 0.682,1.532 1.532,1.532l18.523,0l0,-10.3l-18.523,0c-0.85,-0.011 -1.532,0.682 -1.532,1.521z"/>
   <path id="svg_26" fill="#FF645A" d="m793.358,43.802194c0,0.839 0.682,1.531 1.532,1.531l15.878,0l0,-17.484l-17.4,0l0,15.953l-0.01,0z"/>
   <path id="svg_27" fill="#FF645A" d="m813.14,45.333194l15.878,0c0.84,0 1.532,-0.682 1.532,-1.531l0,-15.964l-17.399,0l0,17.495l-0.011,0z"/>
   <path id="svg_28" fill="#FF645A" d="m817.799,14.654194c3.527,0 5.898,-0.471 7.242,-1.436c1.584,-1.144 2.623,-2.832 2.938,-4.752c0.315,-1.919 -0.147,-3.849 -1.291,-5.433c-1.144,-1.584 -2.833,-2.622 -4.754,-2.937c-1.92,-0.314 -3.851,0.147 -5.436,1.291c-1.354,0.975 -2.561,3.125 -3.683,6.555c-0.242,0.745 -0.452,1.468 -0.63,2.108c-0.179,-0.64 -0.388,-1.363 -0.63,-2.108c-1.123,-3.43 -2.33,-5.57 -3.683,-6.555c-3.264,-2.36 -7.84,-1.616 -10.191,1.646c-1.144,1.584 -1.595,3.514 -1.291,5.433c0.315,1.92 1.354,3.608 2.939,4.752c1.343,0.965 3.705,1.436 7.241,1.436c0.042,0 0.095,0 0.147,0c2.477,-0.01 4.607,-0.251 4.702,-0.262l0.787,-0.094l0.787,0.094c0.094,0.011 2.214,0.252 4.702,0.262c0.01,0 0.063,0 0.104,0zm-16.613,-4.038c-0.892,-0.639 -1.469,-1.583 -1.647,-2.664c-0.179,-1.08 0.084,-2.16 0.724,-3.052c0.798,-1.112 2.057,-1.699 3.327,-1.699c0.829,0 1.668,0.252 2.393,0.776c0.272,0.2 1.259,1.133 2.508,4.919c0.294,0.892 0.535,1.752 0.724,2.465c-3.065,0.199 -6.874,0.095 -8.029,-0.745zm17.191,-6.639c0.892,-0.64 1.973,-0.891 3.054,-0.723c1.081,0.178 2.025,0.755 2.665,1.646c0.64,0.892 0.892,1.972 0.724,3.052c-0.178,1.081 -0.755,2.025 -1.647,2.664c-0.273,0.2 -1.47,0.839 -5.468,0.829c-0.934,0 -1.837,-0.042 -2.561,-0.084c0.777,-2.968 2.078,-6.545 3.233,-7.384z"/>
   <path id="svg_29" fill="#FF645A" d="m1059.42,17.004194l-18.98,0l0,10.3l18.98,0c0.84,0 1.53,-0.682 1.53,-1.532l0,-7.247c0,-0.839 -0.68,-1.521 -1.53,-1.521z"/>
   <path id="svg_30" fill="#FF645A" d="m1018,18.525194l0,7.247c0,0.839 0.69,1.532 1.54,1.532l18.52,0l0,-10.3l-18.52,0c-0.84,0 -1.54,0.682 -1.54,1.521z"/>
   <path id="svg_31" fill="#FF645A" d="m1020.65,44.463194c0,0.839 0.68,1.531 1.53,1.531l15.88,0l0,-17.484l-17.4,0l0,15.953l-0.01,0z"/>
   <path id="svg_32" fill="#FF645A" d="m1040.44,45.994194l15.88,0c0.84,0 1.53,-0.682 1.53,-1.531l0,-15.964l-17.4,0l0,17.495l-0.01,0z"/>
   <path id="svg_33" fill="#FF645A" d="m1045.1,15.315194c3.53,0 5.9,-0.472 7.24,-1.437c1.59,-1.143 2.63,-2.832 2.94,-4.751c0.32,-1.919 -0.15,-3.849 -1.29,-5.433c-1.14,-1.584 -2.83,-2.622 -4.75,-2.937c-1.92,-0.315 -3.85,0.147 -5.44,1.29c-1.35,0.976 -2.56,3.126 -3.68,6.556c-0.24,0.744 -0.45,1.468 -0.63,2.108c-0.18,-0.64 -0.39,-1.364 -0.63,-2.108c-1.13,-3.43 -2.33,-5.57 -3.69,-6.556c-3.26,-2.36 -7.84,-1.615 -10.19,1.647c-1.14,1.584 -1.59,3.514 -1.29,5.433c0.32,1.919 1.36,3.608 2.94,4.751c1.34,0.965 3.71,1.437 7.24,1.437c0.04,0 0.1,0 0.15,0c2.48,-0.01 4.61,-0.252 4.7,-0.262l0.79,-0.094l0.79,0.094c0.09,0.01 2.21,0.252 4.7,0.262c0.01,0 0.06,0 0.1,0zm-16.61,-4.038c-0.89,-0.64 -1.47,-1.584 -1.65,-2.664c-0.18,-1.08 0.09,-2.161 0.73,-3.052c0.79,-1.112 2.05,-1.699 3.32,-1.699c0.83,0 1.67,0.251 2.4,0.776c0.27,0.199 1.25,1.133 2.5,4.919c0.3,0.891 0.54,1.752 0.73,2.465c-3.07,0.199 -6.88,0.094 -8.03,-0.745zm17.18,-6.629c0.89,-0.639 1.97,-0.891 3.05,-0.723c1.08,0.178 2.03,0.755 2.67,1.646c0.64,0.892 0.89,1.972 0.72,3.052c-0.18,1.081 -0.75,2.025 -1.65,2.665c-0.27,0.199 -1.46,0.839 -5.46,0.828c-0.94,0 -1.84,-0.042 -2.56,-0.084c0.78,-2.968 2.07,-6.555 3.23,-7.384z"/>
   <path id="svg_34" fill="#FF645A" d="m35.5642,17.581194l-18.9847,0l0,10.299l18.9742,0c0.8396,0 1.5322,-0.681 1.5322,-1.531l0,-7.248c0,-0.839 -0.6822,-1.52 -1.5217,-1.52z"/>
   <path id="svg_35" fill="#FF645A" d="m-5.84753,19.112194l0,7.247c0,0.839 0.68214,1.532 1.53221,1.532l18.51242,0l0,-10.3l-18.51242,0c-0.85007,-0.011 -1.53221,0.671 -1.53221,1.521z"/>
   <path id="svg_36" fill="#FF645A" d="m-3.20288,45.050194c0,0.839 0.68215,1.531 1.53221,1.531l15.86787,0l0,-17.484l-17.40008,0l0,15.953z"/>
   <path id="svg_37" fill="#FF645A" d="m16.5795,46.571194l15.8783,0c0.8395,0 1.5322,-0.682 1.5322,-1.531l0,-15.964l-17.4105,0l0,17.495z"/>
   <path id="svg_38" fill="#FF645A" d="m21.2495,15.903194c3.5262,0 5.8979,-0.472 7.2412,-1.437c1.5847,-1.144 2.6237,-2.832 2.9385,-4.752c0.3149,-1.919 -0.1469,-3.849 -1.2908,-5.433c-1.1439,-1.583 -2.8336,-2.622 -4.7541,-2.936c-1.9205,-0.315 -3.8515,0.146 -5.4362,1.29c-1.3538,0.975 -2.5606,3.125 -3.6836,6.555c-0.2413,0.745 -0.4512,1.468 -0.6296,2.108c-0.1784,-0.64 -0.3883,-1.363 -0.6297,-2.108c-1.1229,-3.43 -2.3298,-5.569 -3.6836,-6.555c-3.26383,-2.36 -7.83947,-1.616 -10.19026,1.646c-1.14391,1.584 -1.59518,3.514 -1.29084,5.433c0.31484,1.92 1.35381,3.608 2.93849,4.752c1.34331,0.965 3.70459,1.437 7.24131,1.437c0.0419,0 0.0944,0 0.1469,0c2.4767,-0.011 4.6071,-0.252 4.7016,-0.263l0.7871,-0.094l0.787,0.094c0.0945,0.011 2.2144,0.252 4.7016,0.263c0.0105,-0.011 0.0525,0 0.105,0zm-16.61297,-4.039c-0.89204,-0.639 -1.46924,-1.583 -1.64765,-2.664c-0.17841,-1.08 0.08396,-2.16 0.72413,-3.052c0.79759,-1.112 2.05694,-1.699 3.32678,-1.699c0.82908,0 1.66864,0.252 2.39277,0.776c0.27286,0.2 1.25934,1.133 2.50824,4.919c0.2938,0.892 0.5352,1.752 0.7241,2.465c-3.06443,0.189 -6.88446,0.084 -8.02837,-0.745zm17.17967,-6.639c0.892,-0.64 1.973,-0.891 3.0539,-0.723c1.0809,0.178 2.0255,0.755 2.6656,1.646c0.6402,0.892 0.8921,1.972 0.7242,3.052c-0.1785,1.081 -0.7557,2.025 -1.6477,2.664c-0.2729,0.2 -1.4692,0.84 -5.4677,0.829c-0.934,0 -1.8365,-0.042 -2.5607,-0.084c0.7766,-2.968 2.078,-6.555 3.2324,-7.384z"/>
   <path id="svg_39" fill="#FF645A" d="m1244.94,18.231194l0,7.248c0,0.839 0.68,1.531 1.53,1.531l18.53,0l0,-10.299l-18.53,0c-0.85,-0.011 -1.53,0.681 -1.53,1.52z"/>
   <path id="svg_40" fill="white" d="m79.2112,135.146194l21.4298,0l-15.1645,-15.155c-1.2699,-1.27 -1.994,-3.074 -1.994,-4.972c0,-1.888 0.7346,-3.702 1.994,-4.972c2.739,-2.727 7.1993,-2.727 9.9383,0l15.1542,15.156l0,-21.407c0,-3.87 3.148,-7.027 7.031,-7.027c3.883,0 7.032,3.157 7.032,7.027l0,21.407l15.154,-15.145c2.739,-2.727 7.199,-2.727 9.938,0c1.27,1.269 1.994,3.084 1.994,4.971c0,1.888 -0.724,3.703 -1.994,4.972l-15.154,15.145l21.43,0c3.873,0 7.032,3.157 7.032,7.028c0,3.87 -3.149,7.027 -7.032,7.027l-21.409,0l15.144,15.124c1.27,1.269 2.004,3.084 2.004,4.972c0,1.888 -0.734,3.702 -2.004,4.971c-2.739,2.738 -7.199,2.738 -9.939,0l-15.143,-15.145l0,21.428c0,3.87 -3.149,7.017 -7.032,7.017c-3.883,0 -7.031,-3.147 -7.031,-7.017l0,-21.428l-15.1542,15.145c-2.7391,2.727 -7.1993,2.727 -9.9488,0c-2.6342,-2.643 -2.6447,-7.279 0,-9.943l15.133,-15.124l-21.4088,0c-3.8725,0 -7.0314,-3.147 -7.0314,-7.027c0,-3.881 3.1589,-7.028 7.0314,-7.028zm6.8739,29.777c-2.3298,2.339 -2.3193,6.43 0,8.748c2.4138,2.401 6.3388,2.401 8.7525,0l16.5814,-16.583l0,23.463c0,3.409 2.771,6.178 6.192,6.178c3.421,0 6.192,-2.769 6.192,-6.178l0,-23.463l16.592,16.583c2.403,2.412 6.338,2.412 8.752,0c1.113,-1.112 1.753,-2.707 1.753,-4.374c0,-1.668 -0.64,-3.262 -1.753,-4.374l-16.581,-16.561l23.445,0c3.41,0 6.191,-2.769 6.191,-6.188c0,-3.42 -2.77,-6.189 -6.191,-6.189l-23.466,0l16.602,-16.592c1.113,-1.112 1.753,-2.706 1.753,-4.374c0,-1.668 -0.64,-3.262 -1.753,-4.374c-2.414,-2.402 -6.339,-2.402 -8.752,0l-16.592,16.583l0,-23.432c0,-3.408 -2.771,-6.188 -6.192,-6.188c-3.421,0 -6.192,2.78 -6.192,6.188l0,23.442l-16.5919,-16.593c-2.4137,-2.402 -6.3387,-2.402 -8.7524,0c-1.1125,1.112 -1.7526,2.706 -1.7526,4.384c0,1.668 0.6401,3.262 1.7526,4.374l15.8883,15.869l0.714,0.724l-23.4658,0c-3.4108,0 -6.1918,2.779 -6.1918,6.188c0,3.409 2.781,6.188 6.1918,6.188l23.4448,0l-16.5709,16.551z"/>
   <path id="svg_41" fill="white" d="m79.2111,139.342194l31.5469,0l-22.3222,-22.299c-0.9759,-0.975 -0.9759,-3.041 0.0105,-4.027c1.102,-1.102 2.907,-1.091 4.0195,0.01l22.3012,22.299l0,-31.518c0,-1.563 1.27,-2.843 2.833,-2.843c1.564,0 2.844,1.28 2.844,2.843l0,31.518l22.301,-22.309c1.102,-1.102 2.907,-1.091 4.02,0.01c0.965,0.976 0.976,3.031 -0.011,4.017l-22.322,22.299l31.547,0c1.564,0 2.834,1.279 2.834,2.842c0,1.563 -1.27,2.832 -2.834,2.832l-31.536,0l22.301,22.278c0.976,0.985 0.976,3.041 0,4.017c-1.113,1.101 -2.907,1.111 -4.02,0l-22.301,-22.299l0,31.539c0,1.563 -1.28,2.832 -2.844,2.832c-1.563,0 -2.833,-1.269 -2.833,-2.832l0,-31.539l-22.3012,22.299c-1.1124,1.101 -2.9175,1.101 -4.0194,-0.011c-0.9655,-0.975 -0.976,-3.031 0.0104,-4.017l22.2902,-22.267l-31.5149,0c-1.5637,0 -2.844,-1.269 -2.844,-2.832c0,-1.563 1.2803,-2.842 2.844,-2.842zm9.8439,28.539c-0.6716,0.661 -0.6716,2.171 -0.0105,2.821c0.7766,0.787 2.0465,0.787 2.8231,0.011l23.7384,-23.736l0,33.574c0,1.101 0.892,1.993 1.994,1.993c1.102,0 1.994,-0.892 1.994,-1.993l0,-33.574l23.739,23.736c0.777,0.776 2.047,0.776 2.823,0c0.661,-0.651 0.672,-2.161 0,-2.822l-15.868,-15.837l-7.871,-7.877l33.562,0c1.102,0 1.994,-0.892 1.994,-1.993c0,-1.101 -0.892,-1.993 -1.994,-1.993l-33.583,0l23.75,-23.735c0.661,-0.661 0.661,-2.171 0.01,-2.822c-0.787,-0.786 -2.057,-0.786 -2.833,-0.01l-23.739,23.735l0,-33.552c0,-1.102 -0.903,-1.993 -1.994,-1.993c-1.092,0 -1.994,0.902 -1.994,1.993l0,33.552l-23.7389,-23.735c-0.7871,-0.776 -2.0465,-0.787 -2.8231,-0.011c-0.6716,0.661 -0.6611,2.172 -0.0104,2.832l23.7594,23.736l-33.5824,0c-1.1019,0 -2.0045,0.902 -2.0045,1.993c0,1.09 0.9026,1.992 2.0045,1.992l33.5614,0l-23.707,23.715z"/>
   <path id="svg_42" fill="white" d="m79.2112,130.961194l11.3131,0l-8.0074,-8.002c-2.0464,-2.046 -3.2323,-4.94 -3.2323,-7.93c0,-2.989 1.1754,-5.884 3.2219,-7.939c4.3762,-4.353 11.4915,-4.353 15.8573,-0.011l8.0072,8.013l0,-11.296c0,-6.188 5.038,-11.212 11.219,-11.212c6.192,0 11.219,5.034 11.219,11.212l0,11.296l7.996,-7.992c4.366,-4.353 11.482,-4.353 15.858,-0.01c2.057,2.055 3.243,4.95 3.243,7.939c0,2.99 -1.176,5.884 -3.222,7.94l-8.008,8.003l11.314,0c6.191,0 11.218,5.034 11.218,11.212c0,6.178 -5.037,11.212 -11.218,11.212l-11.293,0l7.987,7.971c2.057,2.046 3.232,4.941 3.232,7.93c0,2.999 -1.175,5.894 -3.232,7.94c-4.376,4.363 -11.492,4.363 -15.858,-0.011l-7.996,-7.992l0,11.306c0,6.178 -5.038,11.213 -11.219,11.213c-6.181,0 -11.219,-5.035 -11.219,-11.213l0,-11.306l-7.9967,7.992c-4.3763,4.353 -11.4916,4.353 -15.8679,0.011c-2.0464,-2.046 -3.2218,-4.941 -3.2218,-7.94c0,-2.989 1.1754,-5.874 3.2113,-7.93l7.9864,-7.981l-11.2921,0c-6.1919,0 -11.2188,-5.035 -11.2188,-11.212c0,-6.178 5.0374,-11.213 11.2188,-11.213zm3.9039,31.004c-1.889,1.899 -2.9699,4.573 -2.9699,7.332c0,2.779 1.0809,5.454 2.9804,7.342c4.0404,4.017 10.6311,4.017 14.6715,0l9.4349,-9.429l0,13.341c0,5.716 4.659,10.373 10.379,10.373c5.719,0 10.379,-4.657 10.379,-10.373l0,-13.341l9.435,9.429c4.04,4.038 10.62,4.038 14.671,0c1.9,-1.888 2.981,-4.563 2.981,-7.342c0,-2.78 -1.092,-5.454 -2.981,-7.332l-9.424,-9.408l13.328,0c5.72,0 10.379,-4.657 10.379,-10.373c0,-5.716 -4.659,-10.373 -10.379,-10.373l-13.349,0l9.445,-9.44c1.9,-1.888 2.981,-4.562 2.981,-7.342c0,-2.769 -1.092,-5.454 -2.991,-7.342c-4.051,-4.017 -10.631,-4.017 -14.672,0.011l-9.434,9.429l0,-13.32c0,-5.717 -4.66,-10.373 -10.38,-10.373c-5.719,0 -10.379,4.656 -10.379,10.373l0,13.331l-9.4449,-9.44c-4.0404,-4.028 -10.6205,-4.017 -14.6715,0c-1.889,1.898 -2.9804,4.573 -2.9804,7.342c0,2.769 1.0809,5.443 2.9804,7.331l9.4452,9.44l-13.3386,0c-5.7196,0 -10.3792,4.657 -10.3792,10.373c0,5.716 4.6596,10.373 10.3792,10.373l13.3176,0l-9.4137,9.408z"/>
   <path id="svg_43" fill="white" d="m482.329,135.115194l21.43,0l-15.164,-15.156c-1.27,-1.269 -1.994,-3.073 -1.994,-4.972c0,-1.888 0.734,-3.702 1.994,-4.971c2.739,-2.727 7.199,-2.727 9.938,0l15.154,15.156l0,-21.407c0,-3.871 3.149,-7.028 7.032,-7.028c3.883,0 7.031,3.157 7.031,7.028l0,21.407l15.154,-15.146c2.739,-2.727 7.199,-2.727 9.939,0c1.269,1.269 1.994,3.084 1.994,4.972c0,1.888 -0.725,3.702 -1.994,4.971l-15.165,15.156l21.43,0c3.872,0 7.031,3.157 7.031,7.027c0,3.871 -3.148,7.028 -7.031,7.028l-21.409,0l15.144,15.124c1.269,1.269 2.004,3.084 2.004,4.972c0,1.888 -0.735,3.702 -2.004,4.971c-2.74,2.738 -7.2,2.738 -9.939,0l-15.144,-15.145l0,21.428c0,3.87 -3.148,7.017 -7.031,7.017c-3.883,0 -7.031,-3.147 -7.031,-7.017l0,-21.428l-15.144,15.145c-2.739,2.727 -7.199,2.727 -9.949,0c-2.634,-2.643 -2.645,-7.279 0,-9.943l15.133,-15.124l-21.409,0c-3.872,0 -7.031,-3.147 -7.031,-7.028c0,-3.88 3.148,-7.037 7.031,-7.037zm6.864,29.766c-2.33,2.339 -2.319,6.429 0,8.747c2.414,2.402 6.339,2.402 8.752,0l16.582,-16.582l0,23.463c0,3.409 2.77,6.177 6.192,6.177c3.41,0 6.191,-2.768 6.191,-6.177l0,-23.463l16.582,16.593c2.403,2.412 6.339,2.412 8.752,0c1.113,-1.112 1.753,-2.706 1.753,-4.374c0,-1.668 -0.64,-3.262 -1.753,-4.374l-16.581,-16.561l23.445,0c3.411,0 6.192,-2.769 6.192,-6.188c0,-3.419 -2.771,-6.188 -6.192,-6.188l-23.466,0l16.602,-16.593c1.113,-1.112 1.753,-2.706 1.753,-4.374c0,-1.667 -0.64,-3.262 -1.753,-4.373c-2.413,-2.402 -6.338,-2.402 -8.752,0l-16.592,16.582l0,-23.431c0,-3.409 -2.771,-6.189 -6.192,-6.189c-3.411,0 -6.192,2.78 -6.192,6.189l0,23.441l-16.592,-16.592c-2.413,-2.402 -6.338,-2.402 -8.752,0c-1.113,1.111 -1.753,2.706 -1.753,4.384c0,1.667 0.64,3.262 1.753,4.373l15.889,15.87l0.713,0.723l-23.466,0c-3.41,0 -6.191,2.78 -6.191,6.188c0,3.409 2.781,6.189 6.191,6.189l23.445,0l-16.56,16.54z"/>
   <path id="svg_44" fill="white" d="m482.329,139.300194l31.547,0l-22.322,-22.299c-0.976,-0.975 -0.976,-3.041 0.011,-4.027c1.101,-1.102 2.907,-1.091 4.019,0.01l22.301,22.299l0,-31.518c0,-1.563 1.27,-2.843 2.834,-2.843c1.563,0 2.844,1.28 2.844,2.843l0,31.518l22.301,-22.309c1.102,-1.102 2.907,-1.091 4.019,0.01c0.966,0.976 0.976,3.031 -0.01,4.017l-22.322,22.299l31.546,0c1.564,0 2.834,1.279 2.834,2.842c0,1.563 -1.27,2.832 -2.834,2.832l-31.536,0l22.301,22.277c0.976,0.986 0.976,3.042 0,4.018c-1.112,1.101 -2.907,1.111 -4.019,0l-22.301,-22.299l0,31.539c0,1.563 -1.281,2.832 -2.844,2.832c-1.564,0 -2.834,-1.269 -2.834,-2.832l0,-31.539l-22.301,22.299c-1.112,1.101 -2.917,1.101 -4.019,-0.011c-0.966,-0.975 -0.976,-3.031 0.01,-4.017l22.291,-22.267l-31.526,0c-1.564,0 -2.844,-1.269 -2.844,-2.832c0,-1.563 1.28,-2.842 2.854,-2.842zm9.834,28.549c-0.672,0.661 -0.672,2.171 -0.011,2.822c0.777,0.786 2.047,0.786 2.823,0.01l23.739,-23.735l0,33.573c0,1.102 0.892,1.993 1.994,1.993c1.102,0 1.994,-0.891 1.994,-1.993l0,-33.573l23.739,23.735c0.776,0.776 2.046,0.776 2.823,0c0.661,-0.65 0.672,-2.16 0,-2.821l-15.868,-15.838l-7.871,-7.877l33.562,0c1.102,0 1.994,-0.891 1.994,-1.992c0,-1.102 -0.892,-1.993 -1.994,-1.993l-33.583,0l23.749,-23.736c0.662,-0.66 0.662,-2.171 0.011,-2.821c-0.787,-0.787 -2.057,-0.787 -2.834,-0.011l-23.738,23.736l0,-33.553c0,-1.101 -0.903,-1.993 -1.994,-1.993c-1.092,0 -1.994,0.902 -1.994,1.993l0,33.553l-23.739,-23.736c-0.787,-0.776 -2.047,-0.786 -2.823,-0.01c-0.672,0.661 -0.661,2.171 -0.011,2.832l23.76,23.735l-33.583,0c-1.102,0 -2.004,0.902 -2.004,1.993c0,1.091 0.902,1.993 2.004,1.993l33.562,0l-23.707,23.714z"/>
   <path id="svg_45" fill="white" d="m482.329,130.919194l11.314,0l-8.008,-8.002c-2.046,-2.046 -3.232,-4.94 -3.232,-7.93c0,-2.989 1.175,-5.884 3.222,-7.939c4.376,-4.353 11.491,-4.353 15.857,-0.011l8.007,8.013l0,-11.296c0,-6.188 5.038,-11.212 11.219,-11.212c6.192,0 11.219,5.034 11.219,11.212l0,11.296l7.997,-7.992c4.365,-4.353 11.481,-4.353 15.857,-0.01c2.057,2.055 3.243,4.95 3.243,7.939c0,2.99 -1.176,5.884 -3.222,7.94l-8.007,8.003l11.313,0c6.192,0 11.219,5.034 11.219,11.212c0,6.178 -5.038,11.212 -11.219,11.212l-11.292,0l7.986,7.971c2.057,2.046 3.232,4.94 3.232,7.93c0,2.999 -1.175,5.894 -3.232,7.939c-4.376,4.364 -11.492,4.364 -15.857,-0.01l-7.997,-7.992l0,11.306c0,6.178 -5.038,11.213 -11.219,11.213c-6.181,0 -11.219,-5.035 -11.219,-11.213l0,-11.306l-7.996,7.992c-4.377,4.353 -11.492,4.353 -15.868,0.01c-2.047,-2.045 -3.222,-4.94 -3.222,-7.939c0,-2.99 1.175,-5.874 3.211,-7.93l7.987,-7.981l-11.293,0c-6.191,0 -11.218,-5.035 -11.218,-11.212c0,-6.178 5.027,-11.213 11.218,-11.213zm3.894,31.004c-1.889,1.899 -2.97,4.573 -2.97,7.332c0,2.779 1.081,5.454 2.98,7.342c4.041,4.017 10.631,4.017 14.672,0l9.434,-9.43l0,13.342c0,5.716 4.66,10.373 10.38,10.373c5.719,0 10.379,-4.657 10.379,-10.373l0,-13.342l9.434,9.43c4.041,4.038 10.621,4.038 14.672,0c1.899,-1.888 2.98,-4.563 2.98,-7.342c0,-2.78 -1.091,-5.454 -2.98,-7.332l-9.424,-9.408l13.328,0c5.719,0 10.379,-4.657 10.379,-10.373c0,-5.716 -4.66,-10.373 -10.379,-10.373l-13.339,0l9.445,-9.44c1.9,-1.888 2.981,-4.562 2.981,-7.342c0,-2.779 -1.092,-5.454 -2.991,-7.342c-4.051,-4.017 -10.631,-4.017 -14.672,0.011l-9.434,9.429l0,-13.32c0,-5.717 -4.66,-10.373 -10.379,-10.373c-5.72,0 -10.38,4.656 -10.38,10.373l0,13.331l-9.445,-9.44c-4.04,-4.028 -10.62,-4.017 -14.671,0c-1.889,1.898 -2.981,4.573 -2.981,7.342c0,2.769 1.081,5.443 2.981,7.331l9.445,9.44l-13.349,0c-5.72,0 -10.379,4.657 -10.379,10.373c0,5.716 4.659,10.373 10.379,10.373l13.318,0l-9.414,9.408z"/>
   <path id="svg_46" fill="white" d="m885.469,135.944194l21.43,0l-15.165,-15.156c-1.27,-1.269 -1.994,-3.084 -1.994,-4.972c0,-1.888 0.735,-3.702 1.994,-4.971c2.739,-2.727 7.199,-2.727 9.938,0l15.155,15.156l0,-21.407c0,-3.871 3.148,-7.028 7.031,-7.028c3.883,0 7.031,3.157 7.031,7.028l0,21.407l15.155,-15.146c2.739,-2.727 7.199,-2.727 9.938,0c1.27,1.269 1.994,3.084 1.994,4.972c0,1.888 -0.724,3.702 -1.994,4.971l-15.165,15.156l21.43,0c3.873,0 7.032,3.157 7.032,7.028c0,3.87 -3.149,7.027 -7.032,7.027l-21.409,0l15.144,15.124c1.27,1.269 2.004,3.084 2.004,4.972c0,1.888 -0.734,3.702 -2.004,4.971c-2.739,2.738 -7.199,2.738 -9.938,0l-15.144,-15.145l0,21.428c0,3.87 -3.148,7.017 -7.031,7.017c-3.883,0 -7.032,-3.147 -7.032,-7.017l0,-21.428l-15.144,15.145c-2.739,2.727 -7.199,2.727 -9.948,0c-2.635,-2.643 -2.645,-7.279 0,-9.943l15.133,-15.124l-21.409,0c-3.873,0 -7.032,-3.147 -7.032,-7.027c0,-3.881 3.159,-7.038 7.032,-7.038zm6.863,29.777c-2.33,2.338 -2.319,6.429 0,8.747c2.414,2.402 6.339,2.402 8.753,0l16.581,-16.582l0,23.462c0,3.409 2.771,6.178 6.192,6.178c3.411,0 6.192,-2.769 6.192,-6.178l0,-23.462l16.592,16.582c2.403,2.412 6.339,2.412 8.752,0c1.113,-1.112 1.753,-2.706 1.753,-4.374c0,-1.667 -0.64,-3.262 -1.753,-4.373l-16.581,-16.562l23.445,0c3.41,0 6.192,-2.769 6.192,-6.188c0,-3.409 -2.771,-6.188 -6.192,-6.188l-23.466,0l16.602,-16.593c1.113,-1.112 1.753,-2.706 1.753,-4.374c0,-1.667 -0.64,-3.262 -1.753,-4.373c-2.413,-2.402 -6.338,-2.402 -8.752,0l-16.592,16.582l0,-23.431c0,-3.409 -2.771,-6.189 -6.192,-6.189c-3.411,0 -6.192,2.78 -6.192,6.189l0,23.441l-16.592,-16.592c-2.414,-2.402 -6.338,-2.402 -8.752,0c-1.113,1.111 -1.753,2.706 -1.753,4.384c0,1.668 0.64,3.262 1.753,4.374l15.889,15.869l0.713,0.723l-23.466,0c-3.41,0 -6.191,2.78 -6.191,6.189c0,3.408 2.781,6.188 6.191,6.188l23.445,0l-16.571,16.551z"/>
   <path id="svg_47" fill="white" d="m885.469,140.139194l31.546,0l-22.322,-22.298c-0.976,-0.976 -0.976,-3.042 0.011,-4.028c1.102,-1.101 2.907,-1.091 4.019,0.01l22.301,22.299l0,-31.518c0,-1.563 1.27,-2.842 2.834,-2.842c1.564,0 2.844,1.279 2.844,2.842l0,31.518l22.301,-22.309c1.102,-1.101 2.907,-1.091 4.019,0.01c0.966,0.976 0.976,3.032 -0.01,4.018l-22.322,22.298l31.547,0c1.563,0 2.833,1.28 2.833,2.842c0,1.563 -1.27,2.832 -2.833,2.832l-31.537,0l22.301,22.278c0.976,0.986 0.976,3.042 0,4.017c-1.112,1.101 -2.907,1.112 -4.019,0l-22.301,-22.299l0,31.539c0,1.563 -1.28,2.832 -2.844,2.832c-1.564,0 -2.834,-1.269 -2.834,-2.832l0,-31.539l-22.301,22.299c-1.112,1.101 -2.917,1.101 -4.019,-0.011c-0.965,-0.975 -0.976,-3.031 0.01,-4.017l22.291,-22.267l-31.526,0c-1.563,0 -2.844,-1.269 -2.844,-2.832c0.011,-1.573 1.281,-2.842 2.855,-2.842zm9.833,28.539c-0.671,0.661 -0.672,2.171 -0.01,2.822c0.776,0.786 2.046,0.786 2.823,0.01l23.738,-23.735l0,33.573c0,1.102 0.893,1.993 1.994,1.993c1.102,0 1.994,-0.891 1.994,-1.993l0,-33.573l23.739,23.735c0.777,0.776 2.047,0.776 2.823,0c0.661,-0.65 0.672,-2.161 0,-2.821l-15.868,-15.838l-7.871,-7.877l33.562,0c1.102,0 1.994,-0.891 1.994,-1.993c0,-1.101 -0.892,-1.992 -1.994,-1.992l-33.582,0l23.749,-23.736c0.661,-0.661 0.661,-2.171 0.01,-2.821c-0.787,-0.787 -2.057,-0.787 -2.833,-0.011l-23.739,23.736l0,-33.553c0,-1.101 -0.903,-1.993 -1.994,-1.993c-1.102,0 -1.994,0.902 -1.994,1.993l0,33.553l-23.739,-23.736c-0.787,-0.776 -2.046,-0.786 -2.823,-0.01c-0.672,0.661 -0.661,2.171 -0.01,2.832l23.759,23.735l-33.582,0c-1.102,0 -2.005,0.902 -2.005,1.993c0,1.101 0.903,1.993 2.005,1.993l33.561,0l-23.707,23.714z"/>
   <path id="svg_48" fill="white" d="m885.469,131.759194l11.313,0l-8.008,-8.003c-2.046,-2.045 -3.232,-4.94 -3.232,-7.929c0,-2.99 1.176,-5.884 3.222,-7.94c4.376,-4.353 11.492,-4.353 15.857,-0.011l8.008,8.014l0,-11.296c0,-6.189 5.037,-11.213 11.218,-11.213c6.192,0 11.219,5.035 11.219,11.213l0,11.296l7.997,-7.993c4.366,-4.352 11.481,-4.352 15.857,-0.01c2.057,2.056 3.243,4.95 3.243,7.94c0,2.989 -1.175,5.884 -3.222,7.94l-8.007,8.002l11.313,0c6.192,0 11.219,5.035 11.219,11.212c0,6.189 -5.038,11.213 -11.219,11.213l-11.292,0l7.986,7.971c2.057,2.045 3.233,4.94 3.233,7.929c0,3 -1.176,5.895 -3.233,7.94c-4.376,4.363 -11.491,4.363 -15.857,-0.011l-7.997,-7.992l0,11.307c0,6.177 -5.037,11.212 -11.219,11.212c-6.181,0 -11.218,-5.035 -11.218,-11.212l0,-11.307l-7.997,7.992c-4.376,4.353 -11.492,4.353 -15.868,0.011c-2.047,-2.045 -3.222,-4.94 -3.222,-7.94c0,-2.989 1.176,-5.873 3.211,-7.929l7.987,-7.982l-11.292,0c-6.192,0 -11.219,-5.034 -11.219,-11.212c0,-6.178 5.027,-11.212 11.219,-11.212zm3.893,31.004c-1.889,1.898 -2.97,4.573 -2.97,7.331c0,2.78 1.081,5.454 2.981,7.342c4.04,4.017 10.631,4.017 14.671,0l9.435,-9.429l0,13.341c0,5.716 4.659,10.373 10.379,10.373c5.719,0 10.379,-4.657 10.379,-10.373l0,-13.341l9.435,9.429c4.04,4.038 10.62,4.038 14.671,0c1.9,-1.888 2.981,-4.562 2.981,-7.342c0,-2.779 -1.092,-5.454 -2.981,-7.331l-9.424,-9.408l13.328,0c5.72,0 10.379,-4.657 10.379,-10.374c0,-5.716 -4.659,-10.373 -10.379,-10.373l-13.338,0l9.445,-9.439c1.899,-1.888 2.98,-4.563 2.98,-7.342c0,-2.78 -1.091,-5.454 -2.991,-7.342c-4.051,-4.017 -10.631,-4.017 -14.671,0.01l-9.435,9.429l0,-13.32c0,-5.716 -4.66,-10.373 -10.379,-10.373c-5.72,0 -10.379,4.657 -10.379,10.373l0,13.331l-9.445,-9.44c-4.041,-4.027 -10.621,-4.017 -14.672,0c-1.889,1.899 -2.98,4.573 -2.98,7.342c0,2.769 1.081,5.444 2.98,7.332l9.445,9.439l-13.349,0c-5.719,0 -10.379,4.657 -10.379,10.373c0,5.717 4.66,10.374 10.379,10.374l13.328,0l-9.424,9.408z"/>
   <path id="svg_49" fill="white" d="m231.435,163.340194c11.198,0 20.276,-9.073 20.276,-20.264c0,-11.192 -9.078,-20.264 -20.276,-20.264c-11.198,0 -20.275,9.072 -20.275,20.264c0,11.191 9.077,20.264 20.275,20.264z"/>
   <path id="svg_50" fill="white" d="m406.275,162.280194c11.198,0 20.276,-9.072 20.276,-20.264c0,-11.191 -9.078,-20.264 -20.276,-20.264c-11.198,0 -20.275,9.073 -20.275,20.264c0,11.192 9.077,20.264 20.275,20.264z"/>
   <path id="svg_51" fill="white" d="m636.526,163.235194c11.198,0 20.276,-9.073 20.276,-20.264c0,-11.192 -9.078,-20.264 -20.276,-20.264c-11.197,0 -20.275,9.072 -20.275,20.264c0,11.191 9.078,20.264 20.275,20.264z"/>
   <path id="svg_52" fill="white" d="m810.8,162.437194c11.198,0 20.275,-9.072 20.275,-20.264c0,-11.191 -9.077,-20.263 -20.275,-20.263c-11.198,0 -20.276,9.072 -20.276,20.263c0,11.192 9.078,20.264 20.276,20.264z"/>
   <path id="svg_53" fill="white" d="m1038.1,161.965194c11.2,0 20.28,-9.072 20.28,-20.263c0,-11.192 -9.08,-20.264 -20.28,-20.264c-11.2,0 -20.27,9.072 -20.27,20.264c0,11.191 9.07,20.263 20.27,20.263z"/>
   <path id="svg_54" fill="white" d="m329.853,145.173194l7.651,0c0.472,0 0.913,-0.272 1.112,-0.702c0.21,-0.43 0.147,-0.944 -0.157,-1.312l-11.754,-14.568l7.651,0c0.493,0 0.944,-0.294 1.133,-0.745c0.199,-0.451 0.105,-0.975 -0.231,-1.342l-15.616,-16.583c-0.472,-0.492 -1.333,-0.492 -1.805,0l-15.616,16.583c-0.336,0.356 -0.43,0.881 -0.231,1.342c0.2,0.451 0.641,0.745 1.134,0.745l7.65,0l-11.754,14.568c-0.304,0.368 -0.356,0.882 -0.157,1.312c0.21,0.43 0.64,0.702 1.112,0.702l7.651,0l-11.754,14.569c-0.294,0.367 -0.357,0.881 -0.157,1.311c0.209,0.43 0.64,0.703 1.112,0.703l17.022,0l0,10.866c0,0.681 0.556,1.237 1.239,1.237l7.293,0c0.682,0 1.239,-0.556 1.239,-1.237l0,-10.866l17.032,0c0.683,0 1.239,-0.556 1.239,-1.238c0,-0.357 -0.147,-0.671 -0.389,-0.902l-11.649,-14.443zm-8.71,26.2l-4.817,0l0,-9.628l4.817,0l0,9.628zm-21.724,-12.103l11.754,-14.569c0.294,-0.367 0.357,-0.881 0.158,-1.311c-0.21,-0.43 -0.641,-0.703 -1.113,-0.703l-7.65,0l11.753,-14.568c0.294,-0.367 0.357,-0.881 0.158,-1.311c-0.21,-0.43 -0.64,-0.703 -1.113,-0.703l-7.367,0l12.751,-13.54l12.751,13.54l-7.367,0c-0.472,0 -0.913,0.273 -1.113,0.703c-0.209,0.43 -0.146,0.944 0.158,1.311l11.754,14.568l-7.651,0c-0.472,0 -0.913,0.273 -1.112,0.703c-0.21,0.43 -0.147,0.944 0.157,1.311l11.754,14.569l-38.662,0z"/>
   <path id="svg_55" fill="white" d="m735.942,145.173194l7.65,0c0.473,0 0.913,-0.272 1.113,-0.702c0.21,-0.43 0.147,-0.944 -0.158,-1.312l-11.754,-14.568l7.651,0c0.493,0 0.944,-0.294 1.133,-0.745c0.2,-0.451 0.105,-0.975 -0.231,-1.342l-15.616,-16.583c-0.472,-0.492 -1.332,-0.492 -1.805,0l-15.616,16.583c-0.335,0.356 -0.43,0.881 -0.23,1.342c0.199,0.451 0.64,0.745 1.133,0.745l7.651,0l-11.754,14.568c-0.305,0.368 -0.357,0.882 -0.158,1.312c0.21,0.43 0.64,0.702 1.113,0.702l7.65,0l-11.754,14.569c-0.294,0.367 -0.357,0.881 -0.157,1.311c0.21,0.43 0.64,0.703 1.112,0.703l17.022,0l0,10.866c0,0.681 0.557,1.237 1.239,1.237l7.294,0c0.682,0 1.238,-0.556 1.238,-1.237l0,-10.866l17.033,0c0.682,0 1.238,-0.556 1.238,-1.238c0,-0.357 -0.147,-0.671 -0.388,-0.902l-11.649,-14.443zm-8.711,26.2l-4.817,0l0,-9.628l4.817,0l0,9.628zm-21.724,-12.103l11.754,-14.569c0.294,-0.367 0.357,-0.881 0.158,-1.311c-0.21,-0.43 -0.64,-0.703 -1.113,-0.703l-7.65,0l11.754,-14.568c0.294,-0.367 0.357,-0.881 0.157,-1.311c-0.21,-0.43 -0.64,-0.703 -1.112,-0.703l-7.368,0l12.751,-13.54l12.751,13.54l-7.367,0c-0.472,0 -0.913,0.273 -1.112,0.703c-0.21,0.43 -0.147,0.944 0.157,1.311l11.754,14.568l-7.65,0c-0.473,0 -0.913,0.273 -1.113,0.703c-0.21,0.43 -0.147,0.944 0.158,1.311l11.754,14.569l-38.663,0z"/>
   <path id="svg_56" fill="white" d="m1114.97,135.052194l21.43,0l-15.16,-15.156c-1.27,-1.269 -1.99,-3.083 -1.99,-4.971c0,-1.888 0.73,-3.703 1.99,-4.972c2.74,-2.727 7.2,-2.727 9.94,0l15.15,15.156l0,-21.407c0,-3.87 3.15,-7.027 7.03,-7.027c3.88,0 7.04,3.157 7.04,7.027l0,21.407l15.15,-15.145c2.74,-2.727 7.2,-2.727 9.94,0c1.27,1.269 1.99,3.083 1.99,4.971c0,1.888 -0.72,3.703 -1.99,4.972l-15.17,15.156l21.43,0c3.88,0 7.03,3.157 7.03,7.027c0,3.87 -3.14,7.027 -7.03,7.027l-21.41,0l15.15,15.125c1.27,1.269 2,3.073 2,4.971c0,1.888 -0.73,3.703 -2,4.972c-2.74,2.737 -7.2,2.737 -9.94,0l-15.14,-15.146l0,21.428c0,3.871 -3.15,7.017 -7.04,7.017c-3.87,0 -7.03,-3.146 -7.03,-7.017l0,-21.428l-15.14,15.146c-2.74,2.727 -7.2,2.727 -9.95,0c-2.63,-2.643 -2.64,-7.279 0,-9.943l15.13,-15.125l-21.41,0c-3.87,0 -7.03,-3.146 -7.03,-7.027c0,-3.881 3.16,-7.038 7.03,-7.038zm6.88,29.777c-2.33,2.339 -2.32,6.429 0,8.747c2.41,2.402 6.34,2.402 8.75,0l16.58,-16.582l0,23.463c0,3.409 2.77,6.178 6.19,6.178c3.42,0 6.2,-2.769 6.2,-6.178l0,-23.463l16.59,16.582c2.4,2.413 6.34,2.413 8.75,0c1.11,-1.111 1.75,-2.706 1.75,-4.373c0,-1.668 -0.64,-3.262 -1.75,-4.374l-16.58,-16.561l23.44,0c3.42,0 6.2,-2.769 6.2,-6.189c0,-3.408 -2.77,-6.188 -6.2,-6.188l-23.46,0l16.6,-16.593c1.11,-1.111 1.75,-2.706 1.75,-4.373c0,-1.668 -0.64,-3.262 -1.75,-4.374c-2.41,-2.402 -6.34,-2.402 -8.75,0l-16.59,16.582l0,-23.431c0,-3.409 -2.77,-6.188 -6.2,-6.188c-3.41,0 -6.19,2.779 -6.19,6.188l0,23.442l-16.59,-16.593c-2.41,-2.402 -6.34,-2.402 -8.75,0c-1.11,1.112 -1.75,2.706 -1.75,4.384c0,1.668 0.64,3.262 1.75,4.374l15.89,15.869l0.71,0.724l-23.47,0c-3.41,0 -6.19,2.779 -6.19,6.188c0,3.409 2.78,6.188 6.19,6.188l23.45,0l-16.57,16.551z"/>
   <path id="svg_57" fill="white" d="m1114.97,139.247194l31.55,0l-22.32,-22.298c-0.98,-0.975 -0.98,-3.042 0.01,-4.028c1.1,-1.101 2.91,-1.09 4.02,0.011l22.3,22.298l0,-31.517c0,-1.563 1.27,-2.843 2.83,-2.843c1.57,0 2.85,1.28 2.85,2.843l0,31.517l22.3,-22.309c1.1,-1.101 2.91,-1.09 4.02,0.011c0.96,0.975 0.97,3.031 -0.01,4.017l-22.32,22.298l31.54,0c1.57,0 2.84,1.28 2.84,2.843c0,1.563 -1.27,2.832 -2.84,2.832l-31.53,0l22.3,22.277c0.97,0.986 0.97,3.042 0,4.017c-1.11,1.102 -2.91,1.112 -4.02,0l-22.3,-22.298l0,31.539c0,1.562 -1.28,2.832 -2.85,2.832c-1.56,0 -2.83,-1.27 -2.83,-2.832l0,-31.539l-22.3,22.298c-1.11,1.102 -2.92,1.102 -4.02,-0.01c-0.97,-0.976 -0.98,-3.031 0.01,-4.017l22.29,-22.267l-31.52,0c-1.56,0 -2.84,-1.269 -2.84,-2.832c0,-1.563 1.28,-2.843 2.84,-2.843zm9.85,28.54c-0.67,0.66 -0.67,2.171 -0.01,2.821c0.77,0.787 2.04,0.787 2.82,0.01l23.74,-23.735l0,33.574c0,1.101 0.89,1.992 1.99,1.992c1.11,0 2,-0.891 2,-1.992l0,-33.574l23.74,23.735c0.77,0.777 2.04,0.777 2.82,0c0.66,-0.65 0.67,-2.16 0,-2.821l-15.87,-15.838l-7.87,-7.876l33.56,0c1.1,0 2,-0.892 2,-1.993c0,-1.101 -0.9,-1.993 -2,-1.993l-33.58,0l23.75,-23.735c0.66,-0.661 0.66,-2.171 0.01,-2.822c-0.79,-0.786 -2.06,-0.786 -2.83,-0.01l-23.74,23.735l0,-33.552c0,-1.102 -0.9,-1.993 -2,-1.993c-1.09,0 -1.99,0.902 -1.99,1.993l0,33.552l-23.74,-23.735c-0.79,-0.776 -2.05,-0.787 -2.82,-0.011c-0.67,0.661 -0.66,2.171 -0.01,2.832l23.76,23.736l-33.59,0c-1.1,0 -2,0.902 -2,1.992c0,1.091 0.9,1.993 2,1.993l33.57,0l-23.71,23.715z"/>
   <path id="svg_58" fill="white" d="m1114.97,130.867194l11.32,0l-8.01,-8.003c-2.05,-2.045 -3.23,-4.94 -3.23,-7.929c0,-2.989 1.17,-5.884 3.22,-7.94c4.38,-4.352 11.49,-4.352 15.86,-0.01l8,8.013l0,-11.296c0,-6.188 5.04,-11.212 11.22,-11.212c6.2,0 11.22,5.034 11.22,11.212l0,11.296l8,-7.992c4.36,-4.353 11.48,-4.353 15.86,-0.011c2.05,2.056 3.24,4.951 3.24,7.94c0,2.989 -1.18,5.884 -3.22,7.94l-8.01,8.003l11.31,0c6.2,0 11.22,5.034 11.22,11.212c0,6.177 -5.04,11.212 -11.22,11.212l-11.29,0l7.99,7.971c2.05,2.045 3.23,4.94 3.23,7.929c0,3 -1.18,5.895 -3.23,7.94c-4.38,4.363 -11.49,4.363 -15.86,-0.01l-8,-7.993l0,11.307c0,6.178 -5.03,11.212 -11.22,11.212c-6.18,0 -11.21,-5.034 -11.21,-11.212l0,-11.307l-8,7.993c-4.38,4.352 -11.49,4.352 -15.87,0.01c-2.05,-2.045 -3.22,-4.94 -3.22,-7.94c0,-2.989 1.17,-5.873 3.21,-7.929l7.99,-7.982l-11.3,0c-6.19,0 -11.21,-5.034 -11.21,-11.212c0,-6.177 5.03,-11.212 11.21,-11.212zm3.91,31.004c-1.89,1.898 -2.97,4.573 -2.97,7.331c0,2.78 1.08,5.454 2.98,7.342c4.04,4.017 10.63,4.017 14.67,0l9.44,-9.429l0,13.342c0,5.716 4.66,10.373 10.37,10.373c5.72,0 10.38,-4.657 10.38,-10.373l0,-13.342l9.44,9.429c4.04,4.038 10.62,4.038 14.67,0c1.9,-1.888 2.98,-4.562 2.98,-7.342c0,-2.779 -1.09,-5.454 -2.98,-7.331l-9.42,-9.408l13.32,0c5.72,0 10.38,-4.657 10.38,-10.373c0,-5.716 -4.66,-10.373 -10.38,-10.373l-13.33,0l9.44,-9.44c1.9,-1.888 2.98,-4.562 2.98,-7.342c0,-2.769 -1.09,-5.454 -2.99,-7.342c-4.05,-4.017 -10.63,-4.017 -14.67,0.011l-9.44,9.429l0,-13.321c0,-5.716 -4.66,-10.373 -10.38,-10.373c-5.71,0 -10.37,4.657 -10.37,10.373l0,13.331l-9.45,-9.439c-4.04,-4.028 -10.62,-4.017 -14.67,0c-1.89,1.898 -2.98,4.573 -2.98,7.342c0,2.769 1.08,5.443 2.98,7.331l9.44,9.44l-13.35,0c-5.71,0 -10.37,4.657 -10.37,10.373c0,5.716 4.66,10.373 10.37,10.373l13.32,0l-9.41,9.408z"/>
   <path id="svg_59" fill="white" d="m13.3786,162.437194c11.1979,0 20.2755,-9.072 20.2755,-20.264c0,-11.191 -9.0776,-20.263 -20.2755,-20.263c-11.1979,0 -20.27557,9.072 -20.27557,20.263c0,11.192 9.07767,20.264 20.27557,20.264z"/>
   <path id="svg_60" fill="white" d="m1265.04,161.158194c11.19,0 20.27,-9.073 20.27,-20.264c0,-11.191 -9.08,-20.264 -20.27,-20.264c-11.2,0 -20.28,9.073 -20.28,20.264c0,11.191 9.08,20.264 20.28,20.264z"/>
   <path id="svg_61" fill="white" d="m139.67,252.544194l-9.098,-8.695l2.004,-12.418l-11.082,5.957l-11.198,-5.748l2.246,12.377l-8.941,8.873l12.478,1.689l5.677,11.233l5.468,-11.338l12.446,-1.93z"/>
   <path id="svg_62" fill="white" d="m336.665,252.617194l-9.099,-8.705l2.004,-12.418l-11.082,5.957l-11.208,-5.748l2.246,12.377l-8.931,8.873l12.478,1.689l5.677,11.233l5.468,-11.338l12.447,-1.92z"/>
   <path id="svg_63" fill="white" d="m539.074,252.617194l-9.099,-8.705l2.004,-12.418l-11.082,5.957l-11.198,-5.748l2.246,12.377l-8.941,8.873l12.478,1.689l5.678,11.233l5.467,-11.338l12.447,-1.92z"/>
   <path id="svg_64" fill="white" d="m743.193,251.432194l-9.098,-8.695l2.004,-12.428l-11.082,5.968l-11.198,-5.759l2.246,12.387l-8.941,8.863l12.478,1.699l5.677,11.223l5.468,-11.328l12.446,-1.93z"/>
   <path id="svg_65" fill="white" d="m942.213,252.324194l-9.099,-8.695l2.015,-12.419l-11.093,5.958l-11.197,-5.748l2.245,12.377l-8.93,8.873l12.478,1.688l5.677,11.234l5.468,-11.338l12.436,-1.93z"/>
   <path id="svg_66" fill="white" d="m1171.73,252.030194l-9.1,-8.695l2.01,-12.429l-11.09,5.968l-11.19,-5.758l2.24,12.387l-8.94,8.873l12.48,1.689l5.68,11.222l5.46,-11.327l12.45,-1.93z"/>
   <path id="svg_67" fill="#FF645A" d="m248.646,237.116194l-18.974,0l0,10.299l18.974,0c0.84,0 1.533,-0.681 1.533,-1.531l0,-7.247c-0.011,-0.84 -0.693,-1.521 -1.533,-1.521z"/>
   <path id="svg_68" fill="#FF645A" d="m207.235,238.637194l0,7.247c0,0.839 0.682,1.531 1.532,1.531l18.523,0l0,-10.299l-18.523,0c-0.85,0 -1.532,0.681 -1.532,1.521z"/>
   <path id="svg_69" fill="#FF645A" d="m209.879,264.585194c0,0.839 0.682,1.531 1.533,1.531l15.878,0l0,-17.484l-17.4,0l0,15.953l-0.011,0z"/>
   <path id="svg_70" fill="#FF645A" d="m229.662,266.106194l15.878,0c0.84,0 1.532,-0.682 1.532,-1.532l0,-15.963l-17.4,0l0,17.495l-0.01,0z"/>
   <path id="svg_71" fill="#FF645A" d="m234.332,235.427194c3.526,0 5.898,-0.472 7.241,-1.437c1.585,-1.143 2.624,-2.832 2.938,-4.751c0.315,-1.92 -0.146,-3.85 -1.29,-5.433c-1.144,-1.584 -2.834,-2.622 -4.754,-2.937c-1.921,-0.315 -3.852,0.147 -5.437,1.29c-1.353,0.975 -2.56,3.126 -3.683,6.555c-0.242,0.745 -0.451,1.469 -0.63,2.109c-0.178,-0.64 -0.388,-1.364 -0.63,-2.109c-1.122,-3.429 -2.329,-5.569 -3.683,-6.555c-3.264,-2.36 -7.84,-1.615 -10.19,1.647c-1.144,1.583 -1.596,3.513 -1.291,5.433c0.315,1.919 1.354,3.608 2.938,4.751c1.344,0.965 3.705,1.437 7.242,1.437c0.042,0 0.094,0 0.146,0c2.477,-0.01 4.608,-0.252 4.702,-0.262l0.787,-0.095l0.787,0.095c0.095,0.01 2.215,0.252 4.702,0.262c0.01,0 0.052,0 0.105,0zm-16.624,-4.028c-0.892,-0.639 -1.469,-1.583 -1.647,-2.664c-0.179,-1.08 0.084,-2.16 0.724,-3.052c0.797,-1.112 2.057,-1.699 3.327,-1.699c0.829,0 1.668,0.252 2.392,0.776c0.273,0.199 1.26,1.133 2.509,4.919c0.293,0.892 0.535,1.752 0.724,2.465c-3.065,0.189 -6.874,0.084 -8.029,-0.745zm17.19,-6.639c0.892,-0.64 1.973,-0.891 3.054,-0.724c1.081,0.179 2.026,0.756 2.666,1.647c0.64,0.892 0.892,1.972 0.724,3.052c-0.178,1.081 -0.755,2.025 -1.648,2.664c-0.272,0.2 -1.469,0.839 -5.467,0.829c-0.934,0 -1.837,-0.042 -2.561,-0.084c0.777,-2.968 2.078,-6.555 3.232,-7.384z"/>
   <path id="svg_72" fill="#FF645A" d="m428.492,236.885194l-18.974,0l0,10.299l18.974,0c0.84,0 1.532,-0.681 1.532,-1.531l0,-7.247c0,-0.839 -0.682,-1.521 -1.532,-1.521z"/>
   <path id="svg_73" fill="#FF645A" d="m387.091,238.406194l0,7.247c0,0.839 0.682,1.531 1.532,1.531l18.523,0l0,-10.299l-18.523,0c-0.85,0 -1.532,0.682 -1.532,1.521z"/>
   <path id="svg_74" fill="#FF645A" d="m389.736,264.344194c0,0.839 0.682,1.531 1.532,1.531l15.878,0l0,-17.484l-17.4,0l0,15.953l-0.01,0z"/>
   <path id="svg_75" fill="#FF645A" d="m409.518,265.875194l15.878,0c0.84,0 1.533,-0.682 1.533,-1.532l0,-15.963l-17.401,0l0,17.495l-0.01,0z"/>
   <path id="svg_76" fill="#FF645A" d="m414.177,235.196194c3.527,0 5.898,-0.472 7.242,-1.437c1.584,-1.143 2.623,-2.832 2.938,-4.751c0.315,-1.92 -0.147,-3.849 -1.291,-5.433c-1.143,-1.584 -2.833,-2.622 -4.754,-2.937c-1.92,-0.315 -3.851,0.147 -5.436,1.29c-1.354,0.976 -2.561,3.126 -3.683,6.555c-0.242,0.745 -0.452,1.469 -0.63,2.109c-0.179,-0.64 -0.388,-1.364 -0.63,-2.109c-1.123,-3.429 -2.33,-5.569 -3.683,-6.555c-3.264,-2.36 -7.84,-1.615 -10.191,1.647c-1.144,1.584 -1.595,3.513 -1.291,5.433c0.315,1.919 1.354,3.608 2.939,4.751c1.343,0.965 3.705,1.437 7.241,1.437c0.042,0 0.095,0 0.147,0c2.477,-0.01 4.607,-0.252 4.702,-0.262l0.787,-0.095l0.787,0.095c0.094,0.01 2.214,0.252 4.702,0.262c0.01,0 0.063,0 0.104,0zm-16.612,-4.038c-0.893,-0.64 -1.47,-1.584 -1.648,-2.664c-0.179,-1.08 0.084,-2.161 0.724,-3.052c0.798,-1.112 2.057,-1.699 3.327,-1.699c0.829,0 1.668,0.251 2.393,0.776c0.272,0.199 1.259,1.133 2.508,4.919c0.294,0.891 0.535,1.751 0.724,2.465c-3.065,0.199 -6.874,0.094 -8.028,-0.745zm17.19,-6.629c0.892,-0.64 1.973,-0.891 3.054,-0.723c1.081,0.178 2.025,0.755 2.665,1.646c0.64,0.892 0.892,1.972 0.724,3.052c-0.178,1.081 -0.755,2.025 -1.647,2.664c-0.273,0.2 -1.47,0.84 -5.468,0.829c-0.934,0 -1.837,-0.042 -2.561,-0.084c0.777,-2.968 2.078,-6.555 3.233,-7.384z"/>
   <path id="svg_77" fill="#FF645A" d="m659.615,235.993194l-18.975,0l0,10.3l18.975,0c0.839,0 1.532,-0.682 1.532,-1.531l0,-7.248c0,-0.839 -0.682,-1.521 -1.532,-1.521z"/>
   <path id="svg_78" fill="#FF645A" d="m618.213,237.524194l0,7.248c0,0.839 0.682,1.531 1.532,1.531l18.524,0l0,-10.299l-18.534,0c-0.84,-0.011 -1.522,0.671 -1.522,1.52z"/>
   <path id="svg_79" fill="#FF645A" d="m620.858,263.463194c0,0.839 0.682,1.531 1.532,1.531l15.879,0l0,-17.484l-17.401,0l0,15.953l-0.01,0z"/>
   <path id="svg_80" fill="#FF645A" d="m640.64,264.994194l15.879,0c0.839,0 1.532,-0.682 1.532,-1.532l0,-15.963l-17.4,0l0,17.495l-0.011,0z"/>
   <path id="svg_81" fill="#FF645A" d="m645.3,234.315194c3.526,0 5.898,-0.472 7.241,-1.437c1.585,-1.143 2.624,-2.832 2.938,-4.751c0.315,-1.919 -0.146,-3.849 -1.29,-5.433c-1.144,-1.584 -2.834,-2.622 -4.754,-2.937c-1.921,-0.315 -3.852,0.147 -5.437,1.29c-1.353,0.976 -2.56,3.126 -3.683,6.556c-0.241,0.744 -0.451,1.468 -0.63,2.108c-0.178,-0.64 -0.388,-1.364 -0.629,-2.108c-1.123,-3.43 -2.33,-5.57 -3.684,-6.556c-3.264,-2.36 -7.839,-1.615 -10.19,1.647c-1.144,1.584 -1.595,3.514 -1.291,5.433c0.315,1.919 1.354,3.608 2.938,4.751c1.344,0.965 3.705,1.437 7.242,1.437c0.042,0 0.094,0 0.147,0c2.476,-0.01 4.607,-0.252 4.701,-0.262l0.787,-0.094l0.787,0.094c0.095,0.01 2.215,0.252 4.702,0.262c0.01,0 0.063,0 0.105,0zm-16.613,-4.038c-0.892,-0.64 -1.469,-1.584 -1.648,-2.664c-0.178,-1.08 0.084,-2.161 0.724,-3.052c0.798,-1.112 2.057,-1.699 3.327,-1.699c0.829,0 1.669,0.251 2.393,0.776c0.273,0.199 1.259,1.133 2.508,4.919c0.294,0.891 0.535,1.752 0.724,2.465c-3.064,0.199 -6.874,0.084 -8.028,-0.745zm17.19,-6.639c0.892,-0.64 1.973,-0.892 3.054,-0.724c1.081,0.178 2.025,0.755 2.666,1.647c0.64,0.891 0.892,1.972 0.724,3.052c-0.179,1.08 -0.756,2.024 -1.648,2.664c-0.273,0.199 -1.469,0.839 -5.468,0.829c-0.934,0 -1.836,-0.042 -2.56,-0.084c0.776,-2.968 2.078,-6.545 3.232,-7.384z"/>
   <path id="svg_82" fill="#FF645A" d="m831.065,235.930194l-18.974,0l0,10.3l18.974,0c0.839,0 1.532,-0.682 1.532,-1.531l0,-7.248c0,-0.839 -0.682,-1.521 -1.532,-1.521z"/>
   <path id="svg_83" fill="#FF645A" d="m789.663,237.461194l0,7.248c0,0.839 0.683,1.531 1.533,1.531l18.523,0l0,-10.299l-18.523,0c-0.85,-0.011 -1.533,0.671 -1.533,1.52z"/>
   <path id="svg_84" fill="#FF645A" d="m792.308,263.400194c0,0.839 0.682,1.531 1.532,1.531l15.879,0l0,-17.484l-17.4,0l0,15.953l-0.011,0z"/>
   <path id="svg_85" fill="#FF645A" d="m812.091,264.920194l15.878,0c0.84,0 1.532,-0.681 1.532,-1.531l0,-15.963l-17.4,0l0,17.494l-0.01,0z"/>
   <path id="svg_86" fill="#FF645A" d="m816.75,234.252194c3.526,0 5.898,-0.472 7.241,-1.437c1.585,-1.143 2.624,-2.832 2.939,-4.751c0.315,-1.919 -0.147,-3.849 -1.291,-5.433c-1.144,-1.584 -2.834,-2.622 -4.754,-2.937c-1.921,-0.315 -3.852,0.147 -5.436,1.29c-1.354,0.976 -2.561,3.126 -3.684,6.556c-0.241,0.744 -0.451,1.468 -0.63,2.108c-0.178,-0.64 -0.388,-1.364 -0.629,-2.108c-1.123,-3.43 -2.33,-5.57 -3.684,-6.556c-3.264,-2.36 -7.839,-1.615 -10.19,1.647c-1.144,1.584 -1.595,3.514 -1.291,5.433c0.315,1.919 1.354,3.608 2.939,4.751c1.343,0.965 3.704,1.437 7.241,1.437c0.042,0 0.094,0 0.147,0c2.477,-0.01 4.607,-0.252 4.701,-0.262l0.787,-0.094l0.788,0.094c0.094,0.01 2.214,0.252 4.701,0.262c0.011,0 0.063,0 0.105,0zm-16.613,-4.038c-0.892,-0.64 -1.469,-1.584 -1.648,-2.664c-0.178,-1.08 0.084,-2.161 0.725,-3.052c0.797,-1.112 2.057,-1.699 3.326,-1.699c0.829,0 1.669,0.251 2.393,0.776c0.273,0.199 1.26,1.133 2.508,4.919c0.294,0.891 0.536,1.752 0.724,2.465c-3.064,0.189 -6.873,0.084 -8.028,-0.745zm17.19,-6.639c0.892,-0.64 1.973,-0.892 3.054,-0.724c1.081,0.178 2.026,0.755 2.666,1.647c0.64,0.891 0.892,1.972 0.724,3.052c-0.178,1.08 -0.756,2.024 -1.648,2.664c-0.273,0.199 -1.469,0.839 -5.467,0.829c-0.934,0 -1.837,-0.042 -2.561,-0.084c0.776,-2.968 2.078,-6.545 3.232,-7.384z"/>
   <path id="svg_87" fill="#FF645A" d="m1058.37,236.591194l-18.98,0l0,10.3l18.98,0c0.84,0 1.53,-0.682 1.53,-1.532l0,-7.247c0,-0.829 -0.68,-1.521 -1.53,-1.521z"/>
   <path id="svg_88" fill="#FF645A" d="m1016.96,238.122194l0,7.248c0,0.839 0.68,1.531 1.53,1.531l18.52,0l0,-10.3l-18.52,0c-0.84,-0.01 -1.53,0.682 -1.53,1.521z"/>
   <path id="svg_89" fill="#FF645A" d="m1019.6,264.060194c0,0.839 0.68,1.532 1.53,1.532l15.88,0l0,-17.485l-17.4,0l0,15.953l-0.01,0z"/>
   <path id="svg_90" fill="#FF645A" d="m1039.39,265.592194l15.88,0c0.84,0 1.53,-0.682 1.53,-1.532l0,-15.963l-17.4,0l0,17.495l-0.01,0z"/>
   <path id="svg_91" fill="#FF645A" d="m1044.05,234.913194c3.53,0 5.9,-0.472 7.24,-1.437c1.59,-1.143 2.63,-2.832 2.94,-4.751c0.32,-1.92 -0.14,-3.85 -1.29,-5.433c-1.14,-1.584 -2.83,-2.623 -4.75,-2.937c-1.92,-0.315 -3.85,0.147 -5.44,1.29c-1.35,0.975 -2.56,3.125 -3.68,6.555c-0.24,0.745 -0.45,1.469 -0.63,2.108c-0.18,-0.639 -0.39,-1.363 -0.63,-2.108c-1.12,-3.43 -2.33,-5.569 -3.69,-6.555c-3.26,-2.36 -7.83,-1.615 -10.19,1.647c-1.14,1.583 -1.59,3.513 -1.29,5.433c0.32,1.919 1.36,3.608 2.94,4.751c1.35,0.965 3.71,1.437 7.24,1.437c0.05,0 0.1,0 0.15,0c2.48,-0.011 4.61,-0.252 4.7,-0.262l0.79,-0.095l0.79,0.095c0.09,0.01 2.21,0.251 4.7,0.262c0.01,0 0.06,0 0.1,0zm-16.61,-4.038c-0.89,-0.64 -1.47,-1.584 -1.65,-2.664c-0.18,-1.081 0.09,-2.161 0.73,-3.053c0.79,-1.111 2.05,-1.699 3.32,-1.699c0.83,0 1.67,0.252 2.4,0.777c0.27,0.199 1.25,1.132 2.5,4.919c0.3,0.891 0.54,1.751 0.73,2.464c-3.07,0.2 -6.88,0.095 -8.03,-0.744zm17.18,-6.639c0.89,-0.64 1.97,-0.892 3.05,-0.724c1.08,0.178 2.03,0.755 2.67,1.646c0.64,0.892 0.89,1.972 0.72,3.053c-0.18,1.08 -0.75,2.024 -1.64,2.664c-0.28,0.199 -1.47,0.839 -5.47,0.828c-0.94,0 -1.84,-0.042 -2.56,-0.084c0.78,-2.968 2.07,-6.544 3.23,-7.383z"/>
   <path id="svg_92" fill="#FF645A" d="m34.5146,237.179194l-18.9847,0l0,10.299l18.9742,0c0.8396,0 1.5322,-0.681 1.5322,-1.531l0,-7.247c0,-0.84 -0.6821,-1.521 -1.5217,-1.521z"/>
   <path id="svg_93" fill="#FF645A" d="m-6.89697,238.700194l0,7.247c0,0.839 0.68215,1.531 1.53221,1.531l18.51246,0l0,-10.299l-18.51246,0c-0.85006,0 -1.53221,0.681 -1.53221,1.521z"/>
   <path id="svg_94" fill="#FF645A" d="m-4.25232,264.648194c0,0.839 0.68215,1.531 1.53221,1.531l15.86781,0l0,-17.484l-17.40002,0l0,15.953z"/>
   <path id="svg_95" fill="#FF645A" d="m15.5299,266.169194l15.8783,0c0.8396,0 1.5322,-0.682 1.5322,-1.532l0,-15.963l-17.4105,0l0,17.495z"/>
   <path id="svg_96" fill="#FF645A" d="m20.2,235.490194c3.5262,0 5.898,-0.472 7.2413,-1.437c1.5847,-1.143 2.6237,-2.832 2.9385,-4.751c0.3148,-1.92 -0.1469,-3.85 -1.2908,-5.433c-1.144,-1.584 -2.8336,-2.622 -4.7541,-2.937c-1.9205,-0.315 -3.8515,0.147 -5.4362,1.29c-1.3538,0.975 -2.5607,3.126 -3.6836,6.555c-0.2414,0.745 -0.4513,1.469 -0.6297,2.108c-0.1784,-0.639 -0.3883,-1.363 -0.6296,-2.108c-1.123,-3.429 -2.3298,-5.569 -3.6836,-6.555c-3.26387,-2.36 -7.83951,-1.615 -10.1903,1.647c-1.14391,1.583 -1.59518,3.513 -1.29083,5.433c0.31483,1.919 1.3538,3.608 2.93848,4.751c1.34331,0.965 3.70459,1.437 7.24127,1.437c0.04198,0 0.09445,0 0.14693,0c2.47675,-0.011 4.60715,-0.252 4.70155,-0.262l0.7871,-0.084l0.7871,0.084c0.0945,0.01 2.2144,0.251 4.7016,0.262c0.0105,0 0.0525,0 0.1049,0zm-16.61291,-4.028c-0.89204,-0.639 -1.46924,-1.583 -1.64765,-2.664c-0.1784,-1.08 0.08396,-2.16 0.72413,-3.052c0.79759,-1.112 2.05694,-1.699 3.32679,-1.699c0.82907,0 1.66864,0.252 2.39276,0.776c0.27286,0.199 1.25936,1.133 2.50818,4.919c0.2939,0.892 0.5353,1.752 0.7242,2.465c-3.06446,0.189 -6.88449,0.084 -8.02841,-0.745zm17.17961,-6.639c0.8921,-0.64 1.973,-0.891 3.054,-0.724c1.0809,0.179 2.0254,0.756 2.6656,1.647c0.6402,0.892 0.892,1.972 0.7241,3.052c-0.1784,1.081 -0.7556,2.025 -1.6476,2.664c-0.2729,0.2 -1.4693,0.839 -5.4677,0.829c-0.934,0 -1.8366,-0.042 -2.5607,-0.084c0.7766,-2.968 2.0779,-6.555 3.2323,-7.384z"/>
   <path id="svg_97" fill="#FF645A" d="m1243.89,237.829194l0,7.247c0,0.839 0.68,1.531 1.53,1.531l18.53,0l0,-10.299l-18.53,0c-0.85,-0.011 -1.53,0.671 -1.53,1.521z"/>
   <path id="svg_98" fill="#FF645A" d="m1246.53,263.767194c0,0.839 0.69,1.531 1.54,1.531l15.88,0l0,-17.484l-17.4,0l0,15.953l-0.02,0z"/>
   <path id="svg_99" fill="white" d="m79.5995,347.048194l21.4295,0l-15.1537,-15.156c-1.2699,-1.269 -1.994,-3.083 -1.994,-4.971c0,-1.888 0.7346,-3.703 1.994,-4.972c2.739,-2.727 7.1992,-2.727 9.9383,0l15.1544,15.156l0,-21.407c0,-3.87 3.148,-7.027 7.031,-7.027c3.883,0 7.032,3.157 7.032,7.027l0,21.407l15.154,-15.145c2.739,-2.727 7.199,-2.727 9.938,0c1.27,1.269 1.994,3.083 1.994,4.971c0,1.888 -0.724,3.703 -1.994,4.972l-15.165,15.156l21.43,0c3.873,0 7.032,3.157 7.032,7.027c0,3.87 -3.149,7.027 -7.032,7.027l-21.409,0l15.144,15.125c1.27,1.269 2.005,3.073 2.005,4.971c0,1.888 -0.735,3.703 -2.005,4.972c-2.739,2.737 -7.199,2.737 -9.938,0l-15.144,-15.146l0,21.428c0,3.871 -3.148,7.017 -7.031,7.017c-3.883,0 -7.032,-3.146 -7.032,-7.017l0,-21.428l-15.1434,15.146c-2.7391,2.727 -7.1993,2.727 -9.9488,0c-2.6342,-2.643 -2.6447,-7.279 0,-9.943l15.1332,-15.125l-21.409,0c-3.8725,0 -7.0314,-3.146 -7.0314,-7.027c0,-3.881 3.1484,-7.038 7.0209,-7.038zm6.8739,29.767c-2.3298,2.338 -2.3193,6.429 0,8.747c2.4138,2.402 6.3388,2.402 8.7525,0l16.5811,-16.582l0,23.462c0,3.409 2.771,6.178 6.192,6.178c3.421,0 6.192,-2.769 6.192,-6.178l0,-23.462l16.592,16.582c2.403,2.412 6.339,2.412 8.752,0c1.113,-1.112 1.753,-2.706 1.753,-4.374c0,-1.667 -0.64,-3.262 -1.753,-4.373l-16.581,-16.562l23.445,0c3.411,0 6.192,-2.769 6.192,-6.188c0,-3.419 -2.771,-6.188 -6.192,-6.188l-23.466,0l16.602,-16.593c1.113,-1.112 1.753,-2.706 1.753,-4.374c0,-1.667 -0.64,-3.262 -1.753,-4.373c-2.413,-2.402 -6.338,-2.402 -8.752,0l-16.592,16.582l0,-23.431c0,-3.409 -2.771,-6.188 -6.192,-6.188c-3.421,0 -6.192,2.779 -6.192,6.188l0,23.441l-16.5916,-16.592c-2.4137,-2.402 -6.3387,-2.402 -8.7524,0c-1.1125,1.111 -1.7526,2.706 -1.7526,4.384c0,1.668 0.6401,3.262 1.7526,4.374l15.889,15.869l0.713,0.723l-23.4655,0c-3.4108,0 -6.1918,2.78 -6.1918,6.189c0,3.408 2.781,6.188 6.1918,6.188l23.4445,0l-16.5706,16.551z"/>
   <path id="svg_100" fill="white" d="m79.5994,351.233194l31.5466,0l-22.3218,-22.298c-0.976,-0.976 -0.976,-3.042 0.0105,-4.028c1.1019,-1.101 2.907,-1.091 4.0194,0.011l22.3009,22.298l0,-31.518c0,-1.562 1.27,-2.842 2.834,-2.842c1.563,0 2.844,1.28 2.844,2.842l0,31.518l22.301,-22.309c1.102,-1.101 2.907,-1.091 4.019,0.011c0.966,0.975 0.976,3.031 -0.01,4.017l-22.322,22.298l31.546,0c1.564,0 2.834,1.28 2.834,2.843c0,1.562 -1.27,2.832 -2.834,2.832l-31.536,0l22.301,22.277c0.976,0.986 0.976,3.042 0,4.017c-1.112,1.101 -2.907,1.112 -4.019,0l-22.301,-22.298l0,31.539c0,1.562 -1.281,2.831 -2.844,2.831c-1.564,0 -2.834,-1.269 -2.834,-2.831l0,-31.539l-22.3009,22.298c-1.1124,1.101 -2.9175,1.101 -4.0194,-0.01c-0.9655,-0.976 -0.976,-3.031 0.0105,-4.017l22.2908,-22.267l-31.5156,0c-1.5637,0 -2.844,-1.27 -2.844,-2.832c0,-1.574 1.2803,-2.843 2.844,-2.843zm9.8439,28.539c-0.6716,0.661 -0.6716,2.172 -0.0105,2.822c0.7766,0.786 2.0465,0.786 2.8231,0.01l23.7391,-23.735l0,33.574c0,1.101 0.892,1.992 1.994,1.992c1.102,0 1.994,-0.891 1.994,-1.992l0,-33.574l23.738,23.735c0.777,0.776 2.047,0.776 2.823,0c0.662,-0.65 0.672,-2.16 0,-2.821l-15.867,-15.838l-7.871,-7.877l33.561,0c1.102,0 1.994,-0.891 1.994,-1.992c0,-1.102 -0.892,-1.993 -1.994,-1.993l-33.582,0l23.749,-23.736c0.661,-0.66 0.661,-2.171 0.01,-2.821c-0.787,-0.787 -2.057,-0.787 -2.833,-0.01l-23.739,23.735l0,-33.553c0,-1.101 -0.902,-1.992 -1.994,-1.992c-1.091,0 -1.994,0.902 -1.994,1.992l0,33.553l-23.7386,-23.735c-0.7871,-0.777 -2.0465,-0.787 -2.8231,-0.011c-0.6716,0.661 -0.6611,2.171 -0.0105,2.832l23.7602,23.735l-33.5831,0c-1.1019,0 -2.0045,0.902 -2.0045,1.993c0,1.101 0.9026,1.993 2.0045,1.993l33.5621,0l-23.7077,23.714z"/>
   <path id="svg_101" fill="white" d="m79.5995,342.853194l11.3131,0l-8.0073,-8.003c-2.0465,-2.045 -3.2324,-4.94 -3.2324,-7.929c0,-2.989 1.1754,-5.884 3.2219,-7.94c4.3762,-4.353 11.4915,-4.353 15.8573,-0.01l8.0069,8.013l0,-11.296c0,-6.188 5.038,-11.212 11.219,-11.212c6.192,0 11.219,5.034 11.219,11.212l0,11.296l7.997,-7.992c4.366,-4.353 11.481,-4.353 15.857,-0.011c2.057,2.056 3.243,4.951 3.243,7.94c0,2.989 -1.175,5.884 -3.222,7.94l-8.007,8.002l11.313,0c6.192,0 11.219,5.035 11.219,11.213c0,6.188 -5.038,11.212 -11.219,11.212l-11.292,0l7.986,7.971c2.057,2.045 3.232,4.94 3.232,7.929c0,3 -1.175,5.895 -3.232,7.94c-4.376,4.363 -11.491,4.363 -15.857,-0.01l-7.997,-7.993l0,11.307c0,6.178 -5.038,11.212 -11.219,11.212c-6.181,0 -11.219,-5.034 -11.219,-11.212l0,-11.307l-7.9964,7.993c-4.3763,4.352 -11.4916,4.352 -15.8679,0.01c-2.0464,-2.045 -3.2218,-4.94 -3.2218,-7.94c0,-2.989 1.1754,-5.873 3.2114,-7.929l7.9863,-7.982l-11.2921,0c-6.1919,0 -11.2188,-5.034 -11.2188,-11.212c0,-6.178 5.0374,-11.212 11.2188,-11.212zm3.9039,31.004c-1.889,1.898 -2.9699,4.573 -2.9699,7.331c0,2.78 1.0809,5.454 2.9804,7.342c4.0405,4.017 10.6311,4.017 14.6715,0l9.4346,-9.429l0,13.341c0,5.717 4.66,10.374 10.379,10.374c5.72,0 10.379,-4.657 10.379,-10.374l0,-13.341l9.435,9.429c4.04,4.038 10.62,4.038 14.671,0c1.9,-1.888 2.981,-4.562 2.981,-7.342c0,-2.779 -1.092,-5.454 -2.981,-7.331l-9.424,-9.408l13.328,0c5.72,0 10.38,-4.657 10.38,-10.373c0,-5.717 -4.66,-10.374 -10.38,-10.374l-13.338,0l9.445,-9.439c1.899,-1.888 2.98,-4.563 2.98,-7.342c0,-2.78 -1.091,-5.454 -2.991,-7.342c-4.051,-4.017 -10.631,-4.017 -14.671,0.01l-9.435,9.43l0,-13.321c0,-5.716 -4.659,-10.373 -10.379,-10.373c-5.719,0 -10.379,4.657 -10.379,10.373l0,13.331l-9.4451,-9.44c-4.0404,-4.027 -10.6205,-4.017 -14.6715,0c-1.889,1.899 -2.9804,4.573 -2.9804,7.342c0,2.769 1.0809,5.444 2.9804,7.332l9.4452,9.439l-13.3491,0c-5.7196,0 -10.3792,4.657 -10.3792,10.374c0,5.716 4.6596,10.373 10.3792,10.373l13.3176,0l-9.4137,9.408z"/>
   <path id="svg_102" fill="white" d="m482.707,347.007194l21.43,0l-15.164,-15.156c-1.27,-1.269 -1.994,-3.084 -1.994,-4.972c0,-1.888 0.734,-3.702 1.994,-4.971c2.739,-2.727 7.199,-2.727 9.938,0l15.154,15.156l0,-21.407c0,-3.871 3.148,-7.028 7.031,-7.028c3.883,0 7.032,3.157 7.032,7.028l0,21.407l15.154,-15.146c2.739,-2.727 7.199,-2.727 9.938,0c1.27,1.269 1.994,3.084 1.994,4.972c0,1.888 -0.724,3.702 -1.994,4.971l-15.164,15.156l21.43,0c3.872,0 7.031,3.157 7.031,7.027c0,3.871 -3.148,7.028 -7.031,7.028l-21.409,0l15.143,15.124c1.27,1.269 2.005,3.073 2.005,4.972c0,1.888 -0.735,3.702 -2.005,4.971c-2.739,2.738 -7.199,2.738 -9.938,0l-15.144,-15.145l0,21.428c0,3.87 -3.148,7.017 -7.031,7.017c-3.883,0 -7.031,-3.147 -7.031,-7.017l0,-21.428l-15.144,15.145c-2.739,2.727 -7.199,2.727 -9.949,0c-2.634,-2.643 -2.645,-7.279 0,-9.943l15.133,-15.124l-21.409,0c-3.872,0 -7.031,-3.147 -7.031,-7.028c0,-3.88 3.159,-7.037 7.031,-7.037zm6.874,29.766c-2.33,2.339 -2.319,6.429 0,8.747c2.414,2.402 6.339,2.402 8.753,0l16.581,-16.582l0,23.463c0,3.409 2.771,6.178 6.192,6.178c3.411,0 6.192,-2.769 6.192,-6.178l0,-23.452l16.592,16.582c2.403,2.412 6.338,2.412 8.752,0c1.113,-1.112 1.753,-2.706 1.753,-4.374c0,-1.667 -0.64,-3.262 -1.753,-4.374l-16.581,-16.561l23.445,0c3.41,0 6.191,-2.769 6.191,-6.188c0,-3.419 -2.77,-6.188 -6.191,-6.188l-23.466,0l16.602,-16.593c1.113,-1.112 1.753,-2.706 1.753,-4.374c0,-1.667 -0.64,-3.262 -1.753,-4.373c-2.414,-2.402 -6.339,-2.402 -8.752,0l-16.592,16.582l0,-23.431c0,-3.409 -2.771,-6.188 -6.192,-6.188c-3.411,0 -6.192,2.779 -6.192,6.188l0,23.441l-16.592,-16.592c-2.414,-2.402 -6.339,-2.402 -8.752,0c-1.113,1.111 -1.753,2.706 -1.753,4.384c0,1.667 0.64,3.262 1.753,4.374l15.889,15.869l0.713,0.723l-23.466,0c-3.41,0 -6.192,2.78 -6.192,6.188c0,3.409 2.782,6.189 6.192,6.189l23.445,0l-16.571,16.54z"/>
   <path id="svg_103" fill="white" d="m482.707,351.191194l31.547,0l-22.322,-22.298c-0.976,-0.976 -0.976,-3.042 0.01,-4.028c1.102,-1.101 2.908,-1.091 4.02,0.011l22.301,22.298l0,-31.518c0,-1.562 1.27,-2.842 2.833,-2.842c1.564,0 2.845,1.28 2.845,2.842l0,31.518l22.301,-22.309c1.102,-1.101 2.907,-1.091 4.019,0.011c0.966,0.975 0.976,3.031 -0.01,4.017l-22.323,22.298l31.547,0c1.564,0 2.834,1.28 2.834,2.843c0,1.563 -1.27,2.832 -2.834,2.832l-31.536,0l22.301,22.277c0.976,0.986 0.976,3.042 0,4.017c-1.112,1.102 -2.907,1.112 -4.019,0l-22.301,-22.298l0,31.539c0,1.562 -1.281,2.832 -2.844,2.832c-1.564,0 -2.834,-1.27 -2.834,-2.832l0,-31.539l-22.301,22.298c-1.112,1.102 -2.918,1.102 -4.019,-0.01c-0.966,-0.976 -0.976,-3.031 0.01,-4.017l22.291,-22.267l-31.526,0c-1.564,0 -2.844,-1.269 -2.844,-2.832c0.021,-1.563 1.291,-2.843 2.854,-2.843zm9.844,28.55c-0.671,0.661 -0.671,2.171 -0.01,2.821c0.776,0.787 2.046,0.787 2.823,0.011l23.739,-23.736l0,33.574c0,1.101 0.892,1.993 1.993,1.993c1.102,0 1.994,-0.892 1.994,-1.993l0,-33.574l23.739,23.736c0.777,0.776 2.047,0.776 2.823,0c0.661,-0.65 0.672,-2.161 0,-2.821l-15.868,-15.838l-7.87,-7.877l33.561,0c1.102,0 1.994,-0.891 1.994,-1.993c0,-1.101 -0.892,-1.993 -1.994,-1.993l-33.582,0l23.749,-23.735c0.661,-0.661 0.661,-2.171 0.01,-2.821c-0.787,-0.787 -2.057,-0.787 -2.833,-0.011l-23.739,23.736l0,-33.553c0,-1.101 -0.903,-1.993 -1.994,-1.993c-1.102,0 -1.994,0.902 -1.994,1.993l0,33.553l-23.739,-23.736c-0.787,-0.776 -2.046,-0.787 -2.823,-0.01c-0.671,0.66 -0.661,2.171 -0.01,2.831l23.759,23.736l-33.582,0c-1.102,0 -2.005,0.902 -2.005,1.993c0,1.101 0.903,1.993 2.005,1.993l33.561,0l-23.707,23.714z"/>
   <path id="svg_104" fill="white" d="m482.707,342.822194l11.313,0l-8.007,-8.003c-2.046,-2.045 -3.232,-4.94 -3.232,-7.929c0,-2.99 1.175,-5.884 3.222,-7.94c4.376,-4.353 11.491,-4.353 15.857,-0.011l8.007,8.014l0,-11.296c0,-6.189 5.038,-11.213 11.219,-11.213c6.192,0 11.219,5.035 11.219,11.213l0,11.296l7.997,-7.993c4.365,-4.352 11.481,-4.352 15.857,-0.01c2.057,2.056 3.243,4.95 3.243,7.94c0,2.989 -1.176,5.884 -3.222,7.939l-8.008,8.003l11.314,0c6.191,0 11.218,5.035 11.218,11.212c0,6.189 -5.037,11.213 -11.218,11.213l-11.293,0l7.987,7.971c2.057,2.045 3.232,4.94 3.232,7.929c0,3 -1.175,5.895 -3.232,7.94c-4.376,4.363 -11.492,4.363 -15.857,-0.011l-7.997,-7.992l0,11.307c0,6.178 -5.038,11.212 -11.219,11.212c-6.181,0 -11.219,-5.034 -11.219,-11.212l0,-11.307l-7.997,7.992c-4.376,4.353 -11.491,4.353 -15.867,0.011c-2.047,-2.045 -3.222,-4.94 -3.222,-7.94c0,-2.989 1.175,-5.873 3.211,-7.929l7.986,-7.982l-11.292,0c-6.192,0 -11.218,-5.034 -11.218,-11.212c0,-6.188 5.037,-11.212 11.218,-11.212zm3.904,30.993c-1.889,1.899 -2.97,4.573 -2.97,7.332c0,2.779 1.081,5.454 2.981,7.342c4.04,4.017 10.631,4.017 14.671,0l9.435,-9.43l0,13.342c0,5.716 4.659,10.373 10.379,10.373c5.719,0 10.379,-4.657 10.379,-10.373l0,-13.342l9.435,9.43c4.04,4.038 10.62,4.038 14.671,0c1.9,-1.888 2.981,-4.563 2.981,-7.342c0,-2.78 -1.092,-5.454 -2.981,-7.332l-9.424,-9.408l13.328,0c5.72,0 10.379,-4.657 10.379,-10.373c0,-5.716 -4.659,-10.373 -10.379,-10.373l-13.338,0l9.445,-9.44c1.899,-1.888 2.98,-4.562 2.98,-7.342c0,-2.779 -1.091,-5.454 -2.991,-7.342c-4.051,-4.017 -10.631,-4.017 -14.671,0.011l-9.435,9.429l0,-13.32c0,-5.717 -4.66,-10.374 -10.379,-10.374c-5.72,0 -10.379,4.657 -10.379,10.374l0,13.33l-9.445,-9.439c-4.041,-4.028 -10.621,-4.017 -14.672,0c-1.889,1.898 -2.98,4.573 -2.98,7.342c0,2.769 1.081,5.443 2.98,7.331l9.445,9.44l-13.349,0c-5.719,0 -10.379,4.657 -10.379,10.373c0,5.716 4.66,10.373 10.379,10.373l13.318,0l-9.414,9.408z"/>
   <path id="svg_105" fill="white" d="m231.824,375.241194c11.197,0 20.275,-9.072 20.275,-20.263c0,-11.192 -9.078,-20.264 -20.275,-20.264c-11.198,0 -20.276,9.072 -20.276,20.264c0,11.191 9.078,20.263 20.276,20.263z"/>
   <path id="svg_106" fill="white" d="m406.663,374.171194c11.198,0 20.276,-9.072 20.276,-20.263c0,-11.192 -9.078,-20.264 -20.276,-20.264c-11.197,0 -20.275,9.072 -20.275,20.264c0,11.191 9.078,20.263 20.275,20.263z"/>
   <path id="svg_107" fill="white" d="m636.915,375.126194c11.198,0 20.275,-9.072 20.275,-20.264c0,-11.191 -9.077,-20.263 -20.275,-20.263c-11.198,0 -20.276,9.072 -20.276,20.263c0,11.192 9.078,20.264 20.276,20.264z"/>
   <path id="svg_108" fill="white" d="m1038.49,373.857194c11.2,0 20.28,-9.072 20.28,-20.264c0,-11.191 -9.08,-20.263 -20.28,-20.263c-11.2,0 -20.28,9.072 -20.28,20.263c0,11.192 9.08,20.264 20.28,20.264z"/>
   <path id="svg_109" fill="white" d="m330.242,357.065194l7.65,0c0.473,0 0.913,-0.273 1.113,-0.703c0.21,-0.43 0.147,-0.944 -0.158,-1.311l-11.754,-14.568l7.651,0c0.493,0 0.944,-0.294 1.133,-0.745c0.2,-0.451 0.105,-0.976 -0.23,-1.343l-15.616,-16.582c-0.473,-0.493 -1.333,-0.493 -1.806,0l-15.615,16.582c-0.336,0.357 -0.431,0.881 -0.231,1.343c0.199,0.451 0.64,0.745 1.133,0.745l7.651,0l-11.754,14.568c-0.305,0.367 -0.357,0.881 -0.158,1.311c0.21,0.43 0.64,0.703 1.113,0.703l7.65,0l-11.754,14.568c-0.294,0.367 -0.357,0.881 -0.157,1.311c0.21,0.43 0.64,0.703 1.112,0.703l17.023,0l0,10.866c0,0.682 0.556,1.238 1.238,1.238l7.294,0c0.682,0 1.238,-0.556 1.238,-1.238l0,-10.866l17.033,0c0.682,0 1.238,-0.556 1.238,-1.237c0,-0.357 -0.147,-0.672 -0.388,-0.902l-11.649,-14.443zm-8.711,26.2l-4.817,0l0,-9.628l4.817,0l0,9.628zm-21.724,-12.104l11.754,-14.568c0.294,-0.367 0.357,-0.881 0.158,-1.311c-0.21,-0.43 -0.64,-0.703 -1.113,-0.703l-7.65,0l11.754,-14.568c0.294,-0.367 0.357,-0.881 0.157,-1.311c-0.21,-0.43 -0.64,-0.703 -1.112,-0.703l-7.367,0l12.751,-13.541l12.74,13.551l-7.367,0c-0.472,0 -0.913,0.273 -1.113,0.703c-0.21,0.43 -0.147,0.944 0.158,1.311l11.754,14.569l-7.651,0c-0.472,0 -0.913,0.272 -1.112,0.702c-0.21,0.43 -0.147,0.944 0.157,1.311l11.754,14.569l-38.652,0l0,-0.011z"/>
   <path id="svg_110" fill="white" d="m736.33,357.065194l7.651,0c0.472,0 0.913,-0.273 1.112,-0.703c0.21,-0.43 0.147,-0.944 -0.157,-1.311l-11.754,-14.568l7.65,0c0.493,0 0.945,-0.294 1.134,-0.745c0.199,-0.451 0.105,-0.976 -0.231,-1.343l-15.616,-16.582c-0.472,-0.493 -1.333,-0.493 -1.805,0l-15.616,16.582c-0.336,0.357 -0.43,0.881 -0.231,1.343c0.199,0.451 0.64,0.745 1.133,0.745l7.651,0l-11.754,14.568c-0.304,0.367 -0.357,0.881 -0.157,1.311c0.209,0.43 0.64,0.703 1.112,0.703l7.651,0l-11.754,14.568c-0.294,0.367 -0.357,0.881 -0.158,1.311c0.21,0.43 0.64,0.703 1.113,0.703l17.022,0l0,10.866c0,0.682 0.556,1.238 1.238,1.238l7.294,0c0.682,0 1.238,-0.556 1.238,-1.238l0,-10.866l17.033,0c0.682,0 1.238,-0.556 1.238,-1.237c0,-0.357 -0.147,-0.672 -0.388,-0.902l-11.649,-14.443zm-8.71,26.2l-4.817,0l0,-9.628l4.817,0l0,9.628zm-21.724,-12.104l11.754,-14.568c0.294,-0.367 0.357,-0.881 0.157,-1.311c-0.21,-0.43 -0.64,-0.703 -1.112,-0.703l-7.651,0l11.754,-14.568c0.294,-0.367 0.357,-0.881 0.157,-1.311c-0.209,-0.43 -0.64,-0.703 -1.112,-0.703l-7.367,0l12.751,-13.541l12.74,13.551l-7.367,0c-0.472,0 -0.913,0.273 -1.112,0.703c-0.21,0.43 -0.147,0.944 0.157,1.311l11.754,14.569l-7.651,0c-0.472,0 -0.913,0.272 -1.112,0.702c-0.21,0.43 -0.147,0.944 0.157,1.311l11.754,14.569l-38.651,0l0,-0.011z"/>
   <path id="svg_111" fill="white" d="m1115.36,346.954194l21.43,0l-15.16,-15.156c-1.27,-1.269 -2,-3.083 -2,-4.971c0,-1.888 0.74,-3.703 2,-4.972c2.74,-2.727 7.2,-2.727 9.94,0l15.15,15.156l0,-21.407c0,-3.87 3.15,-7.027 7.03,-7.027c3.88,0 7.03,3.157 7.03,7.027l0,21.407l15.16,-15.145c2.74,-2.727 7.2,-2.727 9.94,0c1.27,1.269 1.99,3.083 1.99,4.971c0,1.888 -0.72,3.703 -1.99,4.972l-15.17,15.156l21.43,0c3.87,0 7.03,3.157 7.03,7.027c0,3.87 -3.15,7.027 -7.03,7.027l-21.41,0l15.15,15.124c1.27,1.27 2,3.074 2,4.972c0,1.888 -0.73,3.702 -2,4.972c-2.74,2.737 -7.2,2.737 -9.94,0l-15.15,-15.146l0,21.428c0,3.87 -3.14,7.017 -7.03,7.017c-3.87,0 -7.03,-3.147 -7.03,-7.017l0,-21.428l-15.14,15.146c-2.74,2.727 -7.2,2.727 -9.95,0c-2.63,-2.643 -2.65,-7.279 0,-9.944l15.13,-15.124l-21.41,0c-3.87,0 -7.03,-3.146 -7.03,-7.027c0,-3.881 3.16,-7.038 7.03,-7.038zm6.88,29.766c-2.33,2.339 -2.32,6.43 0,8.748c2.41,2.402 6.34,2.402 8.75,0l16.58,-16.583l0,23.463c0,3.409 2.77,6.178 6.19,6.178c3.41,0 6.19,-2.769 6.19,-6.178l0,-23.463l16.6,16.583c2.4,2.412 6.34,2.412 8.75,0c1.11,-1.112 1.75,-2.706 1.75,-4.374c0,-1.668 -0.64,-3.262 -1.75,-4.374l-16.58,-16.561l23.44,0c3.41,0 6.19,-2.769 6.19,-6.188c0,-3.419 -2.77,-6.188 -6.19,-6.188l-23.46,0l16.6,-16.593c1.11,-1.112 1.75,-2.706 1.75,-4.374c0,-1.668 -0.64,-3.262 -1.75,-4.374c-2.41,-2.401 -6.34,-2.401 -8.75,0l-16.6,16.583l0,-23.432c0,-3.408 -2.77,-6.188 -6.19,-6.188c-3.41,0 -6.19,2.78 -6.19,6.188l0,23.442l-16.59,-16.593c-2.41,-2.401 -6.34,-2.401 -8.75,0c-1.12,1.112 -1.76,2.706 -1.76,4.385c0,1.667 0.64,3.262 1.76,4.373l15.89,15.869l0.71,0.724l-23.47,0c-3.41,0 -6.19,2.78 -6.19,6.188c0,3.409 2.78,6.189 6.19,6.189l23.45,0l-16.57,16.55z"/>
   <path id="svg_112" fill="white" d="m1115.36,351.139194l31.55,0l-22.32,-22.298c-0.98,-0.976 -0.98,-3.042 0.01,-4.028c1.1,-1.101 2.91,-1.091 4.02,0.01l22.3,22.299l0,-31.518c0,-1.563 1.27,-2.842 2.83,-2.842c1.57,0 2.85,1.279 2.85,2.842l0,31.518l22.3,-22.309c1.1,-1.101 2.9,-1.091 4.02,0.01c0.96,0.976 0.97,3.032 -0.01,4.018l-22.33,22.298l31.55,0c1.56,0 2.83,1.28 2.83,2.843c0,1.562 -1.27,2.831 -2.83,2.831l-31.54,0l22.31,22.278c0.97,0.986 0.97,3.042 0,4.017c-1.12,1.101 -2.91,1.112 -4.02,0l-22.3,-22.298l0,31.538c0,1.563 -1.28,2.832 -2.85,2.832c-1.56,0 -2.83,-1.269 -2.83,-2.832l0,-31.538l-22.28,22.298c-1.11,1.101 -2.92,1.101 -4.02,-0.01c-0.97,-0.976 -0.98,-3.032 0.01,-4.018l22.29,-22.267l-31.53,0c-1.56,0 -2.84,-1.269 -2.84,-2.831c-0.01,-1.574 1.27,-2.843 2.83,-2.843zm9.84,28.539c-0.67,0.661 -0.68,2.171 -0.01,2.822c0.77,0.786 2.04,0.786 2.82,0.01l23.74,-23.735l0,33.573c0,1.102 0.89,1.993 1.99,1.993c1.1,0 2,-0.891 2,-1.993l0,-33.573l23.73,23.735c0.78,0.776 2.05,0.776 2.83,0c0.66,-0.65 0.67,-2.16 0,-2.821l-15.87,-15.838l-7.87,-7.877l33.56,0c1.1,0 1.99,-0.891 1.99,-1.992c0,-1.102 -0.89,-1.993 -1.99,-1.993l-33.58,0l23.75,-23.736c0.66,-0.661 0.66,-2.171 0.01,-2.821c-0.79,-0.787 -2.06,-0.787 -2.84,-0.011l-23.73,23.736l0,-33.553c0,-1.101 -0.91,-1.993 -2,-1.993c-1.09,0 -1.99,0.902 -1.99,1.993l0,33.553l-23.74,-23.736c-0.79,-0.776 -2.05,-0.786 -2.82,-0.01c-0.68,0.661 -0.67,2.171 -0.01,2.832l23.75,23.735l-33.58,0c-1.1,0 -2,0.902 -2,1.993c0,1.101 0.9,1.993 2,1.993l33.56,0l-23.7,23.714z"/>
   <path id="svg_113" fill="white" d="m1115.36,342.759194l11.32,0l-8.01,-8.003c-2.05,-2.045 -3.23,-4.94 -3.23,-7.929c0,-2.99 1.17,-5.884 3.22,-7.94c4.37,-4.353 11.49,-4.353 15.86,-0.011l8,8.014l0,-11.296c0,-6.189 5.04,-11.213 11.22,-11.213c6.19,0 11.22,5.035 11.22,11.213l0,11.296l8,-7.993c4.36,-4.352 11.48,-4.352 15.85,-0.01c2.06,2.056 3.25,4.95 3.25,7.94c0,2.989 -1.18,5.884 -3.22,7.939l-8.01,8.003l11.31,0c6.19,0 11.22,5.035 11.22,11.212c0,6.178 -5.04,11.213 -11.22,11.213l-11.29,0l7.99,7.971c2.05,2.045 3.23,4.94 3.23,7.929c0,3 -1.18,5.895 -3.23,7.94c-4.38,4.363 -11.5,4.363 -15.86,-0.011l-8,-7.992l0,11.307c0,6.177 -5.04,11.212 -11.22,11.212c-6.18,0 -11.22,-5.035 -11.22,-11.212l0,-11.307l-7.99,7.992c-4.38,4.353 -11.49,4.353 -15.87,0.011c-2.05,-2.045 -3.22,-4.94 -3.22,-7.94c0,-2.989 1.17,-5.873 3.21,-7.929l7.99,-7.982l-11.3,0c-6.19,0 -11.22,-5.034 -11.22,-11.212c0,-6.178 5.04,-11.212 11.22,-11.212zm3.91,31.004c-1.89,1.898 -2.97,4.573 -2.97,7.331c0,2.78 1.08,5.454 2.98,7.342c4.04,4.017 10.63,4.017 14.67,0l9.43,-9.429l0,13.341c0,5.716 4.66,10.373 10.38,10.373c5.72,0 10.38,-4.657 10.38,-10.373l0,-13.341l9.44,9.429c4.04,4.038 10.62,4.038 14.67,0c1.9,-1.888 2.98,-4.562 2.98,-7.342c0,-2.779 -1.09,-5.454 -2.98,-7.331l-9.43,-9.409l13.33,0c5.72,0 10.38,-4.656 10.38,-10.373c0,-5.716 -4.66,-10.373 -10.38,-10.373l-13.34,0l9.45,-9.439c1.9,-1.888 2.98,-4.563 2.98,-7.342c0,-2.78 -1.09,-5.454 -2.99,-7.342c-4.05,-4.017 -10.63,-4.017 -14.67,0.01l-9.44,9.429l0,-13.32c0,-5.716 -4.66,-10.373 -10.38,-10.373c-5.72,0 -10.38,4.657 -10.38,10.373l0,13.331l-9.44,-9.44c-4.04,-4.027 -10.62,-4.017 -14.67,0c-1.89,1.899 -2.98,4.573 -2.98,7.342c0,2.769 1.08,5.444 2.98,7.332l9.44,9.439l-13.35,0c-5.72,0 -10.38,4.657 -10.38,10.373c0,5.717 4.66,10.373 10.38,10.373l13.32,0l-9.41,9.409z"/>
   <path id="svg_114" fill="white" d="m13.7669,374.329194c11.1979,0 20.2755,-9.072 20.2755,-20.263c0,-11.192 -9.0776,-20.264 -20.2755,-20.264c-11.19789,0 -20.27557,9.072 -20.27557,20.264c0,11.191 9.07768,20.263 20.27557,20.263z"/>
   <path id="svg_115" fill="white" d="m1265.41,373.049194c11.2,0 20.28,-9.072 20.28,-20.263c0,-11.192 -9.08,-20.264 -20.28,-20.264c-11.19,0 -20.27,9.072 -20.27,20.264c0,11.191 9.08,20.263 20.27,20.263z"/>
  </g>
 </g>
</svg>