<svg width="1247" height="572" viewBox="0 0 1247 572" fill="none" xmlns="http://www.w3.org/2000/svg">
<g clip-path="url(#clip0)">
<path d="M140.72 188.769L131.621 180.063L133.626 167.645L122.543 173.602L111.346 167.855L113.591 180.242L104.65 189.104L117.128 190.793L122.806 202.026L128.273 190.688L140.72 188.769Z" fill="white"/>
<path d="M337.714 188.832L328.615 180.126L330.62 167.708L319.537 173.665L308.329 167.918L310.575 180.305L301.644 189.167L314.122 190.856L319.8 202.089L325.267 190.751L337.714 188.832Z" fill="white"/>
<path d="M540.123 188.832L531.024 180.126L533.029 167.708L521.947 173.665L510.749 167.918L512.995 180.305L504.053 189.167L516.531 190.856L522.209 202.089L527.677 190.751L540.123 188.832Z" fill="white"/>
<path d="M744.243 187.647L735.144 178.952L737.149 166.523L726.066 172.491L714.869 166.733L717.114 179.12L708.173 187.993L720.651 189.682L726.329 200.904L731.796 189.577L744.243 187.647Z" fill="white"/>
<path d="M943.262 188.549L934.164 179.843L936.178 167.425L925.086 173.382L913.888 167.635L916.134 180.011L907.203 188.884L919.681 190.573L925.359 201.806L930.826 190.468L943.262 188.549Z" fill="white"/>
<path d="M1172.78 188.245L1163.68 179.55L1165.68 167.131L1154.6 173.089L1143.4 167.341L1145.65 179.718L1136.71 188.591L1149.19 190.279L1154.87 201.513L1160.33 190.175L1172.78 188.245Z" fill="white"/>
<path d="M249.696 173.33H230.722V183.63H249.696C250.535 183.63 251.228 182.948 251.228 182.098V174.851C251.218 174.012 250.535 173.33 249.696 173.33Z" fill="#FF645A"/>
<path d="M208.284 174.861V182.109C208.284 182.948 208.966 183.64 209.816 183.64H228.339V173.34H209.816C208.966 173.33 208.284 174.012 208.284 174.861Z" fill="#FF645A"/>
<path d="M210.929 200.799C210.929 201.638 211.611 202.33 212.461 202.33H228.339V184.846H210.939V200.799H210.929Z" fill="#FF645A"/>
<path d="M230.711 202.32H246.589C247.429 202.32 248.122 201.638 248.122 200.789V184.825H230.722V202.32H230.711Z" fill="#FF645A"/>
<path d="M235.381 171.641C238.907 171.641 241.279 171.169 242.622 170.204C244.207 169.061 245.246 167.372 245.561 165.453C245.876 163.534 245.414 161.604 244.27 160.02C243.126 158.436 241.437 157.398 239.516 157.083C237.596 156.769 235.665 157.23 234.08 158.373C232.726 159.349 231.519 161.499 230.396 164.929C230.155 165.673 229.945 166.397 229.767 167.037C229.588 166.397 229.378 165.673 229.137 164.929C228.014 161.499 226.807 159.359 225.453 158.373C222.189 156.013 217.614 156.758 215.263 160.02C214.119 161.604 213.668 163.534 213.972 165.453C214.287 167.372 215.326 169.061 216.911 170.204C218.254 171.169 220.615 171.641 224.152 171.641C224.194 171.641 224.246 171.641 224.299 171.641C226.776 171.631 228.906 171.39 229 171.379L229.788 171.285L230.575 171.379C230.669 171.39 232.789 171.631 235.276 171.641C235.287 171.641 235.329 171.641 235.381 171.641ZM218.758 167.614C217.866 166.974 217.289 166.03 217.11 164.95C216.932 163.869 217.194 162.789 217.834 161.898C218.632 160.786 219.891 160.198 221.161 160.198C221.99 160.198 222.83 160.45 223.554 160.975C223.827 161.174 224.813 162.107 226.062 165.894C226.356 166.785 226.597 167.645 226.786 168.358C223.722 168.547 219.912 168.442 218.758 167.614ZM235.948 160.975C236.84 160.335 237.921 160.083 239.002 160.251C240.083 160.429 241.027 161.006 241.667 161.898C242.308 162.789 242.559 163.869 242.392 164.95C242.224 166.03 241.636 166.974 240.744 167.614C240.471 167.813 239.275 168.453 235.276 168.442C234.342 168.442 233.44 168.4 232.716 168.358C233.492 165.39 234.793 161.803 235.948 160.975Z" fill="#FF645A"/>
<path d="M429.542 173.099H410.567V183.399H429.542C430.381 183.399 431.074 182.717 431.074 181.868V174.62C431.074 173.781 430.392 173.099 429.542 173.099Z" fill="#FF645A"/>
<path d="M388.14 174.62V181.868C388.14 182.707 388.823 183.399 389.673 183.399H408.196V173.099H389.673C388.823 173.099 388.14 173.781 388.14 174.62Z" fill="#FF645A"/>
<path d="M390.785 200.568C390.785 201.408 391.467 202.1 392.317 202.1H408.196V184.605H390.796V200.568H390.785Z" fill="#FF645A"/>
<path d="M410.567 202.089H426.446C427.285 202.089 427.978 201.408 427.978 200.558V184.605H410.578V202.089H410.567Z" fill="#FF645A"/>
<path d="M415.227 171.41C418.753 171.41 421.125 170.938 422.468 169.973C424.053 168.83 425.092 167.142 425.407 165.222C425.721 163.303 425.26 161.373 424.116 159.789C422.972 158.205 421.282 157.167 419.362 156.852C417.441 156.538 415.51 156.999 413.926 158.142C412.572 159.118 411.365 161.268 410.242 164.698C410.001 165.442 409.791 166.166 409.612 166.806C409.434 166.166 409.224 165.442 408.983 164.698C407.86 161.268 406.653 159.128 405.299 158.142C402.035 155.783 397.46 156.527 395.109 159.789C393.965 161.373 393.514 163.303 393.818 165.222C394.133 167.142 395.172 168.83 396.756 169.973C398.1 170.938 400.461 171.41 403.998 171.41C404.04 171.41 404.092 171.41 404.145 171.41C406.621 171.4 408.752 171.159 408.846 171.148L409.633 171.054L410.42 171.148C410.515 171.159 412.635 171.4 415.122 171.41C415.132 171.41 415.185 171.41 415.227 171.41ZM398.614 167.383C397.722 166.743 397.145 165.799 396.966 164.719C396.788 163.638 397.05 162.558 397.69 161.667C398.488 160.555 399.747 159.967 401.017 159.967C401.846 159.967 402.686 160.219 403.41 160.744C403.683 160.943 404.669 161.876 405.918 165.663C406.212 166.554 406.453 167.414 406.642 168.127C403.578 168.316 399.768 168.211 398.614 167.383ZM415.804 160.744C416.696 160.104 417.777 159.852 418.858 160.02C419.939 160.198 420.883 160.775 421.524 161.667C422.164 162.558 422.416 163.638 422.248 164.719C422.069 165.799 421.492 166.743 420.6 167.383C420.327 167.582 419.131 168.222 415.132 168.211C414.198 168.211 413.296 168.169 412.572 168.127C413.348 165.159 414.65 161.572 415.804 160.744Z" fill="#FF645A"/>
<path d="M660.664 172.218H641.69V182.518H660.664C661.504 182.518 662.196 181.836 662.196 180.987V173.739C662.196 172.9 661.514 172.218 660.664 172.218Z" fill="#FF645A"/>
<path d="M619.263 173.739V180.987C619.263 181.826 619.945 182.518 620.795 182.518H639.318V172.218H620.784C619.945 172.218 619.263 172.9 619.263 173.739Z" fill="#FF645A"/>
<path d="M621.908 199.677C621.908 200.516 622.59 201.208 623.44 201.208H639.318V183.724H621.918V199.677H621.908Z" fill="#FF645A"/>
<path d="M641.69 201.208H657.568C658.408 201.208 659.1 200.526 659.1 199.677V183.713H641.7V201.208H641.69Z" fill="#FF645A"/>
<path d="M646.349 170.529C649.875 170.529 652.247 170.058 653.59 169.093C655.175 167.949 656.214 166.261 656.529 164.341C656.844 162.422 656.382 160.492 655.238 158.908C654.094 157.324 652.405 156.286 650.484 155.971C648.564 155.657 646.633 156.118 645.048 157.262C643.694 158.237 642.487 160.387 641.364 163.817C641.123 164.562 640.913 165.285 640.735 165.925C640.556 165.285 640.346 164.562 640.105 163.817C638.982 160.387 637.775 158.247 636.421 157.262C633.158 154.902 628.582 155.646 626.231 158.908C625.087 160.492 624.636 162.422 624.94 164.341C625.255 166.261 626.294 167.949 627.879 169.093C629.222 170.058 631.583 170.529 635.12 170.529C635.162 170.529 635.215 170.529 635.267 170.529C637.744 170.519 639.874 170.278 639.969 170.267L640.756 170.173L641.543 170.267C641.637 170.278 643.757 170.519 646.244 170.529C646.255 170.529 646.307 170.529 646.349 170.529ZM629.736 166.491C628.844 165.852 628.267 164.908 628.089 163.827C627.91 162.747 628.173 161.667 628.813 160.775C629.61 159.663 630.87 159.076 632.14 159.076C632.969 159.076 633.808 159.328 634.532 159.852C634.805 160.051 635.792 160.985 637.041 164.771C637.334 165.663 637.576 166.523 637.765 167.236C634.7 167.435 630.891 167.331 629.736 166.491ZM646.926 159.863C647.818 159.223 648.899 158.971 649.98 159.139C651.061 159.317 652.006 159.894 652.646 160.786C653.286 161.677 653.538 162.758 653.37 163.838C653.192 164.918 652.615 165.862 651.722 166.502C651.45 166.701 650.253 167.341 646.255 167.33C645.321 167.33 644.418 167.289 643.694 167.247C644.471 164.268 645.772 160.691 646.926 159.863Z" fill="#FF645A"/>
<path d="M832.114 172.145H813.14V182.444H832.114C832.954 182.444 833.646 181.762 833.646 180.913V173.665C833.646 172.837 832.964 172.145 832.114 172.145Z" fill="#FF645A"/>
<path d="M790.713 173.676V180.923C790.713 181.762 791.395 182.455 792.245 182.455H810.768V172.155H792.245C791.395 172.144 790.713 172.837 790.713 173.676Z" fill="#FF645A"/>
<path d="M793.358 199.614C793.358 200.453 794.04 201.145 794.89 201.145H810.768V183.661H793.368V199.614H793.358Z" fill="#FF645A"/>
<path d="M813.14 201.145H829.018C829.858 201.145 830.55 200.463 830.55 199.614V183.65H813.151V201.145H813.14Z" fill="#FF645A"/>
<path d="M817.799 170.466C821.326 170.466 823.697 169.995 825.041 169.03C826.625 167.886 827.664 166.198 827.979 164.278C828.294 162.359 827.832 160.429 826.688 158.845C825.544 157.261 823.855 156.223 821.934 155.908C820.014 155.594 818.083 156.055 816.498 157.199C815.144 158.174 813.937 160.324 812.815 163.754C812.573 164.499 812.363 165.222 812.185 165.862C812.006 165.222 811.797 164.499 811.555 163.754C810.432 160.324 809.225 158.184 807.872 157.199C804.608 154.839 800.032 155.583 797.681 158.845C796.537 160.429 796.086 162.359 796.39 164.278C796.705 166.198 797.744 167.886 799.329 169.03C800.672 169.995 803.034 170.466 806.57 170.466C806.612 170.466 806.665 170.466 806.717 170.466C809.194 170.456 811.324 170.215 811.419 170.204L812.206 170.11L812.993 170.204C813.087 170.215 815.207 170.456 817.695 170.466C817.705 170.466 817.758 170.466 817.799 170.466ZM801.186 166.428C800.294 165.789 799.717 164.845 799.539 163.764C799.36 162.684 799.623 161.604 800.263 160.712C801.061 159.6 802.32 159.013 803.59 159.013C804.419 159.013 805.258 159.265 805.983 159.789C806.255 159.989 807.242 160.922 808.491 164.708C808.785 165.6 809.026 166.46 809.215 167.173C806.15 167.372 802.341 167.268 801.186 166.428ZM818.377 159.789C819.269 159.149 820.35 158.898 821.431 159.066C822.512 159.244 823.456 159.821 824.096 160.712C824.736 161.604 824.988 162.684 824.82 163.764C824.642 164.845 824.065 165.789 823.173 166.428C822.9 166.628 821.703 167.267 817.705 167.257C816.771 167.257 815.868 167.215 815.144 167.173C815.921 164.205 817.222 160.628 818.377 159.789Z" fill="#FF645A"/>
<path d="M1059.42 172.816H1040.44V183.116H1059.42C1060.26 183.116 1060.95 182.434 1060.95 181.584V174.337C1060.95 173.498 1060.27 172.816 1059.42 172.816Z" fill="#FF645A"/>
<path d="M1018 174.337V181.584C1018 182.423 1018.69 183.116 1019.54 183.116H1038.06V172.816H1019.54C1018.7 172.816 1018 173.498 1018 174.337Z" fill="#FF645A"/>
<path d="M1020.65 200.275C1020.65 201.114 1021.33 201.806 1022.18 201.806H1038.06V184.322H1020.66V200.275H1020.65Z" fill="#FF645A"/>
<path d="M1040.44 201.806H1056.32C1057.16 201.806 1057.85 201.124 1057.85 200.275V184.311H1040.45V201.806H1040.44Z" fill="#FF645A"/>
<path d="M1045.1 171.127C1048.63 171.127 1051 170.655 1052.34 169.69C1053.93 168.547 1054.97 166.858 1055.28 164.939C1055.6 163.02 1055.13 161.09 1053.99 159.506C1052.85 157.922 1051.16 156.884 1049.24 156.569C1047.32 156.254 1045.39 156.716 1043.8 157.859C1042.45 158.835 1041.24 160.985 1040.12 164.415C1039.88 165.159 1039.67 165.883 1039.49 166.523C1039.31 165.883 1039.1 165.159 1038.86 164.415C1037.73 160.985 1036.53 158.845 1035.17 157.859C1031.91 155.499 1027.33 156.244 1024.98 159.506C1023.84 161.09 1023.39 163.02 1023.69 164.939C1024.01 166.858 1025.05 168.547 1026.63 169.69C1027.97 170.655 1030.34 171.127 1033.87 171.127C1033.91 171.127 1033.97 171.127 1034.02 171.127C1036.5 171.117 1038.63 170.875 1038.72 170.865L1039.51 170.771L1040.3 170.865C1040.39 170.875 1042.51 171.117 1045 171.127C1045.01 171.127 1045.06 171.127 1045.1 171.127ZM1028.49 167.089C1027.6 166.449 1027.02 165.505 1026.84 164.425C1026.66 163.345 1026.93 162.264 1027.57 161.373C1028.36 160.261 1029.62 159.674 1030.89 159.674C1031.72 159.674 1032.56 159.925 1033.29 160.45C1033.56 160.649 1034.54 161.583 1035.79 165.369C1036.09 166.26 1036.33 167.121 1036.52 167.834C1033.45 168.033 1029.64 167.928 1028.49 167.089ZM1045.67 160.46C1046.56 159.821 1047.64 159.569 1048.72 159.737C1049.8 159.915 1050.75 160.492 1051.39 161.383C1052.03 162.275 1052.28 163.355 1052.11 164.435C1051.93 165.516 1051.36 166.46 1050.46 167.1C1050.19 167.299 1049 167.939 1045 167.928C1044.06 167.928 1043.16 167.886 1042.44 167.844C1043.22 164.876 1044.51 161.289 1045.67 160.46Z" fill="#FF645A"/>
<path d="M35.5642 173.393H16.5795V183.692H35.5537C36.3933 183.692 37.0859 183.011 37.0859 182.161V174.913C37.0859 174.074 36.4037 173.393 35.5642 173.393Z" fill="#FF645A"/>
<path d="M-5.84753 174.924V182.171C-5.84753 183.01 -5.16539 183.703 -4.31532 183.703H14.1971V173.403H-4.31532C-5.16539 173.392 -5.84753 174.074 -5.84753 174.924Z" fill="#FF645A"/>
<path d="M-3.20288 200.862C-3.20288 201.701 -2.52073 202.393 -1.67067 202.393H14.1972V184.909H-3.20288V200.862Z" fill="#FF645A"/>
<path d="M16.5795 202.383H32.4578C33.2973 202.383 33.99 201.701 33.99 200.852V184.888H16.5795V202.383Z" fill="#FF645A"/>
<path d="M21.2495 171.715C24.7757 171.715 27.1474 171.243 28.4907 170.278C30.0754 169.134 31.1144 167.446 31.4292 165.526C31.7441 163.607 31.2823 161.677 30.1384 160.093C28.9945 158.51 27.3048 157.471 25.3843 157.157C23.4638 156.842 21.5328 157.303 19.9481 158.447C18.5943 159.422 17.3875 161.572 16.2645 165.002C16.0232 165.747 15.8133 166.47 15.6349 167.11C15.4565 166.47 15.2466 165.747 15.0052 165.002C13.8823 161.572 12.6754 159.433 11.3216 158.447C8.05777 156.087 3.48213 156.831 1.13134 160.093C-0.0125709 161.677 -0.463838 163.607 -0.159495 165.526C0.155342 167.446 1.19431 169.134 2.77899 170.278C4.1223 171.243 6.48358 171.715 10.0203 171.715C10.0622 171.715 10.1147 171.715 10.1672 171.715C12.6439 171.704 14.7743 171.463 14.8688 171.452L15.6559 171.358L16.4429 171.452C16.5374 171.463 18.6573 171.704 21.1445 171.715C21.155 171.704 21.197 171.715 21.2495 171.715ZM4.63653 167.676C3.74449 167.037 3.16729 166.093 2.98888 165.012C2.81047 163.932 3.07284 162.852 3.71301 161.96C4.5106 160.848 5.76995 160.261 7.03979 160.261C7.86887 160.261 8.70843 160.513 9.43256 161.037C9.70542 161.237 10.6919 162.17 11.9408 165.956C12.2346 166.848 12.476 167.708 12.6649 168.421C9.60047 168.61 5.78044 168.505 4.63653 167.676ZM21.8162 161.037C22.7082 160.397 23.7892 160.146 24.8701 160.314C25.951 160.492 26.8956 161.069 27.5357 161.96C28.1759 162.852 28.4278 163.932 28.2599 165.012C28.0814 166.093 27.5042 167.037 26.6122 167.676C26.3393 167.876 25.143 168.516 21.1445 168.505C20.2105 168.505 19.308 168.463 18.5838 168.421C19.3604 165.453 20.6618 161.866 21.8162 161.037Z" fill="#FF645A"/>
<path d="M1244.94 174.043V181.291C1244.94 182.13 1245.62 182.822 1246.47 182.822H1265V172.523H1246.47C1245.62 172.512 1244.94 173.204 1244.94 174.043Z" fill="#FF645A"/>
<path d="M79.2112 290.958H100.641L85.4765 275.803C84.2066 274.533 83.4825 272.729 83.4825 270.831C83.4825 268.943 84.2171 267.129 85.4765 265.859C88.2155 263.132 92.6758 263.132 95.4148 265.859L110.569 281.015V259.608C110.569 255.738 113.717 252.581 117.6 252.581C121.483 252.581 124.632 255.738 124.632 259.608V281.015L139.786 265.87C142.525 263.143 146.985 263.143 149.724 265.87C150.994 267.139 151.718 268.954 151.718 270.841C151.718 272.729 150.994 274.544 149.724 275.813L134.57 290.958H156C159.873 290.958 163.032 294.115 163.032 297.986C163.032 301.856 159.883 305.013 156 305.013H134.591L149.735 320.137C151.005 321.406 151.739 323.221 151.739 325.109C151.739 326.997 151.005 328.811 149.735 330.08C146.996 332.818 142.536 332.818 139.796 330.08L124.653 314.935V336.363C124.653 340.233 121.504 343.38 117.621 343.38C113.738 343.38 110.59 340.233 110.59 336.363V314.935L95.4358 330.08C92.6967 332.807 88.2365 332.807 85.487 330.08C82.8528 327.437 82.8423 322.801 85.487 320.137L100.62 305.013H79.2112C75.3387 305.013 72.1798 301.866 72.1798 297.986C72.1798 294.105 75.3387 290.958 79.2112 290.958ZM86.0851 320.735C83.7553 323.074 83.7658 327.165 86.0851 329.483C88.4989 331.884 92.4239 331.884 94.8376 329.483L111.419 312.9V336.363C111.419 339.772 114.19 342.541 117.611 342.541C121.032 342.541 123.803 339.772 123.803 336.363V312.9L140.395 329.483C142.798 331.895 146.733 331.895 149.147 329.483C150.26 328.371 150.9 326.776 150.9 325.109C150.9 323.441 150.26 321.847 149.147 320.735L132.566 304.174H156.011C159.421 304.174 162.202 301.405 162.202 297.986C162.202 294.566 159.432 291.797 156.011 291.797H132.545L149.147 275.205C150.26 274.093 150.9 272.499 150.9 270.831C150.9 269.163 150.26 267.569 149.147 266.457C146.733 264.055 142.808 264.055 140.395 266.457L123.803 283.04V259.608C123.803 256.2 121.032 253.42 117.611 253.42C114.19 253.42 111.419 256.2 111.419 259.608V283.05L94.8271 266.457C92.4134 264.055 88.4884 264.055 86.0747 266.457C84.9622 267.569 84.3221 269.163 84.3221 270.841C84.3221 272.509 84.9622 274.103 86.0747 275.215L101.963 291.084L102.677 291.808H79.2112C75.8004 291.808 73.0194 294.587 73.0194 297.996C73.0194 301.405 75.8004 304.184 79.2112 304.184H102.656L86.0851 320.735Z" fill="white"/>
<path d="M79.2111 295.154H110.758L88.4358 272.855C87.4599 271.88 87.4599 269.814 88.4463 268.828C89.5483 267.726 91.3533 267.737 92.4658 268.838L114.767 291.137V259.619C114.767 258.056 116.037 256.776 117.6 256.776C119.164 256.776 120.444 258.056 120.444 259.619V291.137L142.745 268.828C143.847 267.726 145.652 267.737 146.765 268.838C147.73 269.814 147.741 271.869 146.754 272.855L124.432 295.154H155.979C157.543 295.154 158.813 296.433 158.813 297.996C158.813 299.559 157.543 300.828 155.979 300.828H124.443L146.744 323.106C147.72 324.091 147.72 326.147 146.744 327.123C145.631 328.224 143.837 328.234 142.724 327.123L120.423 304.824V336.363C120.423 337.926 119.143 339.195 117.579 339.195C116.016 339.195 114.746 337.926 114.746 336.363V304.824L92.4448 327.123C91.3324 328.224 89.5273 328.224 88.4254 327.112C87.4599 326.137 87.4494 324.081 88.4358 323.095L110.726 300.828H79.2111C77.6474 300.828 76.3671 299.559 76.3671 297.996C76.3671 296.433 77.6474 295.154 79.2111 295.154ZM89.055 323.693C88.3834 324.354 88.3834 325.864 89.0445 326.514C89.8211 327.301 91.091 327.301 91.8676 326.525L115.606 302.789V336.363C115.606 337.464 116.498 338.356 117.6 338.356C118.702 338.356 119.594 337.464 119.594 336.363V302.789L143.333 326.525C144.11 327.301 145.38 327.301 146.156 326.525C146.817 325.874 146.828 324.364 146.156 323.703L130.288 307.866L122.417 299.989H155.979C157.081 299.989 157.973 299.097 157.973 297.996C157.973 296.895 157.081 296.003 155.979 296.003H122.396L146.146 272.268C146.807 271.607 146.807 270.097 146.156 269.446C145.369 268.66 144.099 268.66 143.323 269.436L119.584 293.171V259.619C119.584 258.517 118.681 257.626 117.59 257.626C116.498 257.626 115.596 258.528 115.596 259.619V293.171L91.8571 269.436C91.07 268.66 89.8106 268.649 89.034 269.425C88.3624 270.086 88.3729 271.597 89.0236 272.257L112.783 295.993H79.2006C78.0987 295.993 77.1961 296.895 77.1961 297.986C77.1961 299.076 78.0987 299.978 79.2006 299.978H112.762L89.055 323.693Z" fill="white"/>
<path d="M79.2112 286.773H90.5243L82.5169 278.771C80.4705 276.725 79.2846 273.831 79.2846 270.841C79.2846 267.852 80.46 264.957 82.5065 262.902C86.8827 258.549 93.998 258.549 98.3638 262.891L106.371 270.904V259.608C106.371 253.42 111.409 248.396 117.59 248.396C123.782 248.396 128.809 253.43 128.809 259.608V270.904L136.805 262.912C141.171 258.559 148.287 258.559 152.663 262.902C154.72 264.957 155.906 267.852 155.906 270.841C155.906 273.831 154.73 276.725 152.684 278.781L144.676 286.784H155.99C162.181 286.784 167.208 291.818 167.208 297.996C167.208 304.174 162.171 309.208 155.99 309.208H144.697L152.684 317.179C154.741 319.225 155.916 322.12 155.916 325.109C155.916 328.108 154.741 331.003 152.684 333.049C148.308 337.412 141.192 337.412 136.826 333.038L128.83 325.046V336.352C128.83 342.53 123.792 347.565 117.611 347.565C111.43 347.565 106.392 342.53 106.392 336.352V325.046L98.3953 333.038C94.019 337.391 86.9037 337.391 82.5274 333.049C80.481 331.003 79.3056 328.108 79.3056 325.109C79.3056 322.12 80.481 319.235 82.5169 317.179L90.5033 309.198H79.2112C73.0193 309.198 67.9924 304.163 67.9924 297.986C67.9924 291.808 73.0298 286.773 79.2112 286.773ZM83.1151 317.777C81.2261 319.676 80.1452 322.35 80.1452 325.109C80.1452 327.888 81.2261 330.563 83.1256 332.451C87.166 336.468 93.7567 336.468 97.7971 332.451L107.232 323.022V336.363C107.232 342.079 111.891 346.736 117.611 346.736C123.33 346.736 127.99 342.079 127.99 336.363V323.022L137.425 332.451C141.465 336.489 148.045 336.489 152.096 332.451C153.996 330.563 155.077 327.888 155.077 325.109C155.077 322.329 153.985 319.655 152.096 317.777L142.672 308.369H156C161.72 308.369 166.379 303.712 166.379 297.996C166.379 292.28 161.72 287.623 156 287.623H142.651L152.096 278.183C153.996 276.295 155.077 273.621 155.077 270.841C155.077 268.072 153.985 265.387 152.086 263.499C148.035 259.482 141.455 259.482 137.414 263.51L127.98 272.939V259.619C127.98 253.902 123.32 249.246 117.6 249.246C111.881 249.246 107.221 253.902 107.221 259.619V272.95L97.7761 263.51C93.7357 259.482 87.1556 259.493 83.1046 263.51C81.2156 265.408 80.1242 268.083 80.1242 270.852C80.1242 273.621 81.2051 276.295 83.1046 278.183L92.5498 287.623H79.2112C73.4916 287.623 68.832 292.28 68.832 297.996C68.832 303.712 73.4916 308.369 79.2112 308.369H92.5288L83.1151 317.777Z" fill="white"/>
<path d="M482.329 290.927H503.759L488.595 275.771C487.325 274.502 486.601 272.698 486.601 270.799C486.601 268.911 487.335 267.097 488.595 265.828C491.334 263.101 495.794 263.101 498.533 265.828L513.687 280.984V259.577C513.687 255.706 516.836 252.549 520.719 252.549C524.602 252.549 527.75 255.706 527.75 259.577V280.984L542.904 265.838C545.643 263.111 550.103 263.111 552.843 265.838C554.112 267.107 554.837 268.922 554.837 270.81C554.837 272.698 554.112 274.512 552.843 275.781L537.678 290.937H559.108C562.98 290.937 566.139 294.094 566.139 297.964C566.139 301.835 562.991 304.992 559.108 304.992H537.699L552.843 320.116C554.112 321.385 554.847 323.2 554.847 325.088C554.847 326.976 554.112 328.79 552.843 330.059C550.103 332.797 545.643 332.797 542.904 330.059L527.76 314.914V336.342C527.76 340.212 524.612 343.359 520.729 343.359C516.846 343.359 513.698 340.212 513.698 336.342V314.914L498.554 330.059C495.815 332.786 491.355 332.786 488.605 330.059C485.971 327.416 485.96 322.78 488.605 320.116L503.738 304.992H482.329C478.457 304.992 475.298 301.845 475.298 297.964C475.298 294.084 478.446 290.927 482.329 290.927ZM489.193 320.693C486.863 323.032 486.874 327.122 489.193 329.44C491.607 331.842 495.532 331.842 497.945 329.44L514.527 312.858V336.321C514.527 339.73 517.297 342.498 520.719 342.498C524.129 342.498 526.91 339.73 526.91 336.321V312.858L543.492 329.451C545.895 331.863 549.831 331.863 552.244 329.451C553.357 328.339 553.997 326.745 553.997 325.077C553.997 323.409 553.357 321.815 552.244 320.703L535.663 304.142H559.108C562.519 304.142 565.3 301.373 565.3 297.954C565.3 294.535 562.529 291.766 559.108 291.766H535.642L552.244 275.173C553.357 274.061 553.997 272.467 553.997 270.799C553.997 269.132 553.357 267.537 552.244 266.426C549.831 264.024 545.906 264.024 543.492 266.426L526.9 283.008V259.577C526.9 256.168 524.129 253.388 520.708 253.388C517.297 253.388 514.516 256.168 514.516 259.577V283.018L497.924 266.426C495.511 264.024 491.586 264.024 489.172 266.426C488.059 267.537 487.419 269.132 487.419 270.81C487.419 272.477 488.059 274.072 489.172 275.183L505.061 291.053L505.774 291.776H482.308C478.898 291.776 476.117 294.556 476.117 297.964C476.117 301.373 478.898 304.153 482.308 304.153H505.753L489.193 320.693Z" fill="white"/>
<path d="M482.329 295.112H513.876L491.554 272.813C490.578 271.838 490.578 269.772 491.565 268.786C492.666 267.684 494.472 267.695 495.584 268.796L517.885 291.095V259.577C517.885 258.014 519.155 256.734 520.719 256.734C522.282 256.734 523.563 258.014 523.563 259.577V291.095L545.864 268.786C546.966 267.684 548.771 267.695 549.883 268.796C550.849 269.772 550.859 271.827 549.873 272.813L527.551 295.112H559.097C560.661 295.112 561.931 296.391 561.931 297.954C561.931 299.517 560.661 300.786 559.097 300.786H527.561L549.862 323.063C550.838 324.049 550.838 326.105 549.862 327.081C548.75 328.182 546.955 328.192 545.843 327.081L523.542 304.782V336.321C523.542 337.884 522.261 339.153 520.698 339.153C519.134 339.153 517.864 337.884 517.864 336.321V304.782L495.563 327.081C494.451 328.182 492.646 328.182 491.544 327.07C490.578 326.095 490.568 324.039 491.554 323.053L513.845 300.786H482.319C480.755 300.786 479.475 299.517 479.475 297.954C479.475 296.391 480.755 295.112 482.329 295.112ZM492.163 323.661C491.491 324.322 491.491 325.832 492.152 326.483C492.929 327.269 494.199 327.269 494.975 326.493L518.714 302.758V336.331C518.714 337.433 519.606 338.324 520.708 338.324C521.81 338.324 522.702 337.433 522.702 336.331V302.758L546.441 326.493C547.217 327.269 548.487 327.269 549.264 326.493C549.925 325.843 549.936 324.333 549.264 323.672L533.396 307.834L525.525 299.957H559.087C560.189 299.957 561.081 299.066 561.081 297.965C561.081 296.863 560.189 295.972 559.087 295.972H525.504L549.253 272.236C549.915 271.576 549.915 270.065 549.264 269.415C548.477 268.628 547.207 268.628 546.43 269.404L522.692 293.14V259.587C522.692 258.486 521.789 257.594 520.698 257.594C519.606 257.594 518.704 258.496 518.704 259.587V293.14L494.965 269.404C494.178 268.628 492.918 268.618 492.142 269.394C491.47 270.055 491.481 271.565 492.131 272.226L515.891 295.961H482.308C481.206 295.961 480.304 296.863 480.304 297.954C480.304 299.045 481.206 299.947 482.308 299.947H515.87L492.163 323.661Z" fill="white"/>
<path d="M482.329 286.731H493.643L485.635 278.729C483.589 276.683 482.403 273.789 482.403 270.799C482.403 267.81 483.578 264.915 485.625 262.86C490.001 258.507 497.116 258.507 501.482 262.849L509.489 270.862V259.566C509.489 253.378 514.527 248.354 520.708 248.354C526.9 248.354 531.927 253.388 531.927 259.566V270.862L539.924 262.87C544.289 258.517 551.405 258.517 555.781 262.86C557.838 264.915 559.024 267.81 559.024 270.799C559.024 273.789 557.848 276.683 555.802 278.739L547.795 286.742H559.108C565.3 286.742 570.327 291.776 570.327 297.954C570.327 304.132 565.289 309.166 559.108 309.166H547.816L555.802 317.137C557.859 319.183 559.034 322.077 559.034 325.067C559.034 328.066 557.859 330.961 555.802 333.006C551.426 337.37 544.31 337.37 539.945 332.996L531.948 325.004V336.31C531.948 342.488 526.91 347.523 520.729 347.523C514.548 347.523 509.51 342.488 509.51 336.31V325.004L501.514 332.996C497.137 337.349 490.022 337.349 485.646 333.006C483.599 330.961 482.424 328.066 482.424 325.067C482.424 322.077 483.599 319.193 485.635 317.137L493.622 309.156H482.329C476.138 309.156 471.111 304.121 471.111 297.944C471.111 291.766 476.138 286.731 482.329 286.731ZM486.223 317.735C484.334 319.634 483.253 322.308 483.253 325.067C483.253 327.846 484.334 330.521 486.233 332.409C490.274 336.426 496.864 336.426 500.905 332.409L510.339 322.979V336.321C510.339 342.037 514.999 346.694 520.719 346.694C526.438 346.694 531.098 342.037 531.098 336.321V322.979L540.532 332.409C544.573 336.447 551.153 336.447 555.204 332.409C557.103 330.521 558.184 327.846 558.184 325.067C558.184 322.287 557.093 319.613 555.204 317.735L545.78 308.327H559.108C564.827 308.327 569.487 303.67 569.487 297.954C569.487 292.238 564.827 287.581 559.108 287.581H545.769L555.214 278.141C557.114 276.253 558.195 273.579 558.195 270.799C558.195 268.02 557.103 265.345 555.204 263.457C551.153 259.44 544.573 259.44 540.532 263.468L531.098 272.897V259.577C531.098 253.86 526.438 249.204 520.719 249.204C514.999 249.204 510.339 253.86 510.339 259.577V272.908L500.894 263.468C496.854 259.44 490.274 259.451 486.223 263.468C484.334 265.366 483.242 268.041 483.242 270.81C483.242 273.579 484.323 276.253 486.223 278.141L495.668 287.581H482.319C476.599 287.581 471.94 292.238 471.94 297.954C471.94 303.67 476.599 308.327 482.319 308.327H495.637L486.223 317.735Z" fill="white"/>
<path d="M885.469 291.756H906.899L891.734 276.6C890.464 275.331 889.74 273.516 889.74 271.628C889.74 269.74 890.475 267.926 891.734 266.657C894.473 263.93 898.933 263.93 901.672 266.657L916.827 281.813V260.406C916.827 256.535 919.975 253.378 923.858 253.378C927.741 253.378 930.889 256.535 930.889 260.406V281.813L946.044 266.667C948.783 263.94 953.243 263.94 955.982 266.667C957.252 267.936 957.976 269.751 957.976 271.639C957.976 273.527 957.252 275.341 955.982 276.61L940.817 291.766H962.247C966.12 291.766 969.279 294.923 969.279 298.794C969.279 302.664 966.13 305.821 962.247 305.821H940.838L955.982 320.945C957.252 322.214 957.986 324.029 957.986 325.917C957.986 327.805 957.252 329.619 955.982 330.888C953.243 333.626 948.783 333.626 946.044 330.888L930.9 315.743V337.171C930.9 341.041 927.752 344.188 923.869 344.188C919.986 344.188 916.837 341.041 916.837 337.171V315.743L901.693 330.888C898.954 333.615 894.494 333.615 891.745 330.888C889.11 328.245 889.1 323.609 891.745 320.945L906.878 305.821H885.469C881.596 305.821 878.437 302.674 878.437 298.794C878.437 294.913 881.596 291.756 885.469 291.756ZM892.332 321.533C890.002 323.871 890.013 327.962 892.332 330.28C894.746 332.682 898.671 332.682 901.085 330.28L917.666 313.698V337.16C917.666 340.569 920.437 343.338 923.858 343.338C927.269 343.338 930.05 340.569 930.05 337.16V313.698L946.642 330.28C949.045 332.692 952.981 332.692 955.394 330.28C956.507 329.168 957.147 327.574 957.147 325.906C957.147 324.239 956.507 322.644 955.394 321.533L938.813 304.971H962.258C965.668 304.971 968.45 302.202 968.45 298.783C968.45 295.374 965.679 292.595 962.258 292.595H938.792L955.394 276.002C956.507 274.89 957.147 273.296 957.147 271.628C957.147 269.961 956.507 268.366 955.394 267.255C952.981 264.853 949.056 264.853 946.642 267.255L930.05 283.837V260.406C930.05 256.997 927.279 254.217 923.858 254.217C920.447 254.217 917.666 256.997 917.666 260.406V283.847L901.074 267.255C898.66 264.853 894.736 264.853 892.322 267.255C891.209 268.366 890.569 269.961 890.569 271.639C890.569 273.307 891.209 274.901 892.322 276.013L908.211 291.882L908.924 292.605H885.458C882.048 292.605 879.267 295.385 879.267 298.794C879.267 302.202 882.048 304.982 885.458 304.982H908.903L892.332 321.533Z" fill="white"/>
<path d="M885.469 295.951H917.015L894.693 273.653C893.717 272.677 893.717 270.611 894.704 269.625C895.806 268.524 897.611 268.534 898.723 269.635L921.024 291.934V260.416C921.024 258.853 922.294 257.574 923.858 257.574C925.422 257.574 926.702 258.853 926.702 260.416V291.934L949.003 269.625C950.105 268.524 951.91 268.534 953.022 269.635C953.988 270.611 953.998 272.667 953.012 273.653L930.69 295.951H962.237C963.8 295.951 965.07 297.231 965.07 298.793C965.07 300.356 963.8 301.625 962.237 301.625H930.7L953.001 323.903C953.977 324.889 953.977 326.945 953.001 327.92C951.889 329.021 950.094 329.032 948.982 327.92L926.681 305.621V337.16C926.681 338.723 925.401 339.992 923.837 339.992C922.273 339.992 921.003 338.723 921.003 337.16V305.621L898.702 327.92C897.59 329.021 895.785 329.021 894.683 327.909C893.718 326.934 893.707 324.878 894.693 323.892L916.984 301.625H885.458C883.895 301.625 882.614 300.356 882.614 298.793C882.625 297.22 883.895 295.951 885.469 295.951ZM895.302 324.49C894.631 325.151 894.63 326.661 895.292 327.312C896.068 328.098 897.338 328.098 898.115 327.322L921.853 303.587V337.16C921.853 338.262 922.746 339.153 923.847 339.153C924.949 339.153 925.841 338.262 925.841 337.16V303.587L949.58 327.322C950.357 328.098 951.627 328.098 952.403 327.322C953.064 326.672 953.075 325.161 952.403 324.501L936.535 308.663L928.664 300.786H962.226C963.328 300.786 964.22 299.895 964.22 298.793C964.22 297.692 963.328 296.801 962.226 296.801H928.644L952.393 273.065C953.054 272.404 953.054 270.894 952.403 270.244C951.616 269.457 950.346 269.457 949.57 270.233L925.831 293.969V260.416C925.831 259.315 924.928 258.423 923.837 258.423C922.735 258.423 921.843 259.325 921.843 260.416V293.969L898.104 270.233C897.317 269.457 896.058 269.447 895.281 270.223C894.609 270.884 894.62 272.394 895.271 273.055L919.03 296.79H885.448C884.346 296.79 883.443 297.692 883.443 298.783C883.443 299.884 884.346 300.776 885.448 300.776H919.009L895.302 324.49Z" fill="white"/>
<path d="M885.469 287.571H896.782L888.774 279.568C886.728 277.523 885.542 274.628 885.542 271.639C885.542 268.649 886.718 265.755 888.764 263.699C893.14 259.346 900.256 259.346 904.621 263.688L912.629 271.702V260.406C912.629 254.217 917.666 249.193 923.847 249.193C930.039 249.193 935.066 254.228 935.066 260.406V271.702L943.063 263.709C947.429 259.357 954.544 259.357 958.92 263.699C960.977 265.755 962.163 268.649 962.163 271.639C962.163 274.628 960.988 277.523 958.941 279.579L950.934 287.581H962.247C968.439 287.581 973.466 292.616 973.466 298.793C973.466 304.982 968.428 310.006 962.247 310.006H950.955L958.941 317.977C960.998 320.022 962.174 322.917 962.174 325.906C962.174 328.906 960.998 331.801 958.941 333.846C954.565 338.209 947.45 338.209 943.084 333.835L935.087 325.843V337.15C935.087 343.327 930.05 348.362 923.868 348.362C917.687 348.362 912.65 343.327 912.65 337.15V325.843L904.653 333.835C900.277 338.188 893.161 338.188 888.785 333.846C886.738 331.801 885.563 328.906 885.563 325.906C885.563 322.917 886.739 320.033 888.774 317.977L896.761 309.995H885.469C879.277 309.995 874.25 304.961 874.25 298.783C874.25 292.605 879.277 287.571 885.469 287.571ZM889.362 318.575C887.473 320.473 886.392 323.148 886.392 325.906C886.392 328.686 887.473 331.36 889.373 333.248C893.413 337.265 900.004 337.265 904.044 333.248L913.479 323.819V337.16C913.479 342.876 918.138 347.533 923.858 347.533C929.577 347.533 934.237 342.876 934.237 337.16V323.819L943.672 333.248C947.712 337.286 954.292 337.286 958.343 333.248C960.243 331.36 961.324 328.686 961.324 325.906C961.324 323.127 960.232 320.452 958.343 318.575L948.919 309.167H962.247C967.967 309.167 972.626 304.51 972.626 298.793C972.626 293.077 967.967 288.42 962.247 288.42H948.909L958.354 278.981C960.253 277.093 961.334 274.418 961.334 271.639C961.334 268.859 960.243 266.185 958.343 264.297C954.292 260.28 947.712 260.28 943.672 264.307L934.237 273.736V260.416C934.237 254.7 929.577 250.043 923.858 250.043C918.138 250.043 913.479 254.7 913.479 260.416V273.747L904.034 264.307C899.993 260.28 893.413 260.29 889.362 264.307C887.473 266.206 886.382 268.88 886.382 271.649C886.382 274.418 887.463 277.093 889.362 278.981L898.807 288.42H885.458C879.739 288.42 875.079 293.077 875.079 298.793C875.079 304.51 879.739 309.167 885.458 309.167H898.786L889.362 318.575Z" fill="white"/>
<path d="M231.435 319.152C242.633 319.152 251.711 310.079 251.711 298.888C251.711 287.696 242.633 278.624 231.435 278.624C220.237 278.624 211.16 287.696 211.16 298.888C211.16 310.079 220.237 319.152 231.435 319.152Z" fill="white"/>
<path d="M406.275 318.092C417.473 318.092 426.551 309.02 426.551 297.828C426.551 286.637 417.473 277.564 406.275 277.564C395.077 277.564 386 286.637 386 297.828C386 309.02 395.077 318.092 406.275 318.092Z" fill="white"/>
<path d="M636.526 319.047C647.724 319.047 656.802 309.974 656.802 298.783C656.802 287.591 647.724 278.519 636.526 278.519C625.329 278.519 616.251 287.591 616.251 298.783C616.251 309.974 625.329 319.047 636.526 319.047Z" fill="white"/>
<path d="M810.8 318.249C821.998 318.249 831.075 309.177 831.075 297.985C831.075 286.794 821.998 277.722 810.8 277.722C799.602 277.722 790.524 286.794 790.524 297.985C790.524 309.177 799.602 318.249 810.8 318.249Z" fill="white"/>
<path d="M1038.1 317.777C1049.3 317.777 1058.38 308.705 1058.38 297.514C1058.38 286.322 1049.3 277.25 1038.1 277.25C1026.9 277.25 1017.83 286.322 1017.83 297.514C1017.83 308.705 1026.9 317.777 1038.1 317.777Z" fill="white"/>
<path d="M329.853 300.985H337.504C337.976 300.985 338.417 300.713 338.616 300.283C338.826 299.853 338.763 299.339 338.459 298.971L326.705 284.403H334.356C334.849 284.403 335.3 284.109 335.489 283.658C335.688 283.207 335.594 282.683 335.258 282.316L319.642 265.733C319.17 265.241 318.309 265.241 317.837 265.733L302.221 282.316C301.885 282.672 301.791 283.197 301.99 283.658C302.19 284.109 302.631 284.403 303.124 284.403H310.774L299.02 298.971C298.716 299.339 298.664 299.853 298.863 300.283C299.073 300.713 299.503 300.985 299.975 300.985H307.626L295.872 315.554C295.578 315.921 295.515 316.435 295.715 316.865C295.924 317.295 296.355 317.568 296.827 317.568H313.849V328.434C313.849 329.115 314.405 329.671 315.088 329.671H322.381C323.063 329.671 323.62 329.115 323.62 328.434V317.568H340.652C341.335 317.568 341.891 317.012 341.891 316.33C341.891 315.973 341.744 315.659 341.502 315.428L329.853 300.985ZM321.143 327.185H316.326V317.557H321.143V327.185ZM299.419 315.082L311.173 300.513C311.467 300.146 311.53 299.632 311.331 299.202C311.121 298.772 310.69 298.499 310.218 298.499H302.568L314.321 283.931C314.615 283.564 314.678 283.05 314.479 282.62C314.269 282.19 313.839 281.917 313.366 281.917H305.999L318.75 268.377L331.501 281.917H324.134C323.662 281.917 323.221 282.19 323.021 282.62C322.812 283.05 322.875 283.564 323.179 283.931L334.933 298.499H327.282C326.81 298.499 326.369 298.772 326.17 299.202C325.96 299.632 326.023 300.146 326.327 300.513L338.081 315.082H299.419Z" fill="white"/>
<path d="M735.942 300.985H743.592C744.065 300.985 744.505 300.713 744.705 300.283C744.915 299.853 744.852 299.339 744.547 298.971L732.793 284.403H740.444C740.937 284.403 741.388 284.109 741.577 283.658C741.777 283.207 741.682 282.683 741.346 282.316L725.73 265.733C725.258 265.241 724.398 265.241 723.925 265.733L708.309 282.316C707.974 282.672 707.879 283.197 708.079 283.658C708.278 284.109 708.719 284.403 709.212 284.403H716.863L705.109 298.971C704.804 299.339 704.752 299.853 704.951 300.283C705.161 300.713 705.591 300.985 706.064 300.985H713.714L701.96 315.554C701.666 315.921 701.603 316.435 701.803 316.865C702.013 317.295 702.443 317.568 702.915 317.568H719.937V328.434C719.937 329.115 720.494 329.671 721.176 329.671H728.47C729.152 329.671 729.708 329.115 729.708 328.434V317.568H746.741C747.423 317.568 747.979 317.012 747.979 316.33C747.979 315.973 747.832 315.659 747.591 315.428L735.942 300.985ZM727.231 327.185H722.414V317.557H727.231V327.185ZM705.507 315.082L717.261 300.513C717.555 300.146 717.618 299.632 717.419 299.202C717.209 298.772 716.779 298.499 716.306 298.499H708.656L720.41 283.931C720.704 283.564 720.767 283.05 720.567 282.62C720.357 282.19 719.927 281.917 719.455 281.917H712.087L724.838 268.377L737.589 281.917H730.222C729.75 281.917 729.309 282.19 729.11 282.62C728.9 283.05 728.963 283.564 729.267 283.931L741.021 298.499H733.371C732.898 298.499 732.458 298.772 732.258 299.202C732.048 299.632 732.111 300.146 732.416 300.513L744.17 315.082H705.507Z" fill="white"/>
<path d="M1114.97 290.864H1136.4L1121.24 275.708C1119.97 274.439 1119.25 272.625 1119.25 270.737C1119.25 268.849 1119.98 267.034 1121.24 265.765C1123.98 263.038 1128.44 263.038 1131.18 265.765L1146.33 280.921V259.514C1146.33 255.644 1149.48 252.487 1153.36 252.487C1157.24 252.487 1160.4 255.644 1160.4 259.514V280.921L1175.55 265.776C1178.29 263.049 1182.75 263.049 1185.49 265.776C1186.76 267.045 1187.48 268.859 1187.48 270.747C1187.48 272.635 1186.76 274.45 1185.49 275.719L1170.32 290.875H1191.75C1195.63 290.875 1198.78 294.032 1198.78 297.902C1198.78 301.772 1195.64 304.929 1191.75 304.929H1170.34L1185.49 320.054C1186.76 321.323 1187.49 323.127 1187.49 325.025C1187.49 326.913 1186.76 328.728 1185.49 329.997C1182.75 332.734 1178.29 332.734 1175.55 329.997L1160.41 314.851V336.279C1160.41 340.15 1157.26 343.296 1153.37 343.296C1149.5 343.296 1146.34 340.15 1146.34 336.279V314.851L1131.2 329.997C1128.46 332.724 1124 332.724 1121.25 329.997C1118.62 327.354 1118.61 322.718 1121.25 320.054L1136.38 304.929H1114.97C1111.1 304.929 1107.94 301.783 1107.94 297.902C1107.94 294.021 1111.1 290.864 1114.97 290.864ZM1121.85 320.641C1119.52 322.98 1119.53 327.07 1121.85 329.388C1124.26 331.79 1128.19 331.79 1130.6 329.388L1147.18 312.806V336.269C1147.18 339.678 1149.95 342.447 1153.37 342.447C1156.79 342.447 1159.57 339.678 1159.57 336.269V312.806L1176.16 329.388C1178.56 331.801 1182.5 331.801 1184.91 329.388C1186.02 328.277 1186.66 326.682 1186.66 325.015C1186.66 323.347 1186.02 321.753 1184.91 320.641L1168.33 304.08H1191.77C1195.19 304.08 1197.97 301.311 1197.97 297.891C1197.97 294.483 1195.2 291.703 1191.77 291.703H1168.31L1184.91 275.11C1186.02 273.999 1186.66 272.404 1186.66 270.737C1186.66 269.069 1186.02 267.475 1184.91 266.363C1182.5 263.961 1178.57 263.961 1176.16 266.363L1159.57 282.945V259.514C1159.57 256.105 1156.8 253.326 1153.37 253.326C1149.96 253.326 1147.18 256.105 1147.18 259.514V282.956L1130.59 266.363C1128.18 263.961 1124.25 263.961 1121.84 266.363C1120.73 267.475 1120.09 269.069 1120.09 270.747C1120.09 272.415 1120.73 274.009 1121.84 275.121L1137.73 290.99L1138.44 291.714H1114.97C1111.56 291.714 1108.78 294.493 1108.78 297.902C1108.78 301.311 1111.56 304.09 1114.97 304.09H1138.42L1121.85 320.641Z" fill="white"/>
<path d="M1114.97 295.059H1146.52L1124.2 272.761C1123.22 271.786 1123.22 269.719 1124.21 268.733C1125.31 267.632 1127.12 267.643 1128.23 268.744L1150.53 291.042V259.525C1150.53 257.962 1151.8 256.682 1153.36 256.682C1154.93 256.682 1156.21 257.962 1156.21 259.525V291.042L1178.51 268.733C1179.61 267.632 1181.42 267.643 1182.53 268.744C1183.49 269.719 1183.5 271.775 1182.52 272.761L1160.2 295.059H1191.74C1193.31 295.059 1194.58 296.339 1194.58 297.902C1194.58 299.465 1193.31 300.734 1191.74 300.734H1160.21L1182.51 323.011C1183.48 323.997 1183.48 326.053 1182.51 327.028C1181.4 328.13 1179.6 328.14 1178.49 327.028L1156.19 304.73V336.269C1156.19 337.831 1154.91 339.101 1153.34 339.101C1151.78 339.101 1150.51 337.831 1150.51 336.269V304.73L1128.21 327.028C1127.1 328.13 1125.29 328.13 1124.19 327.018C1123.22 326.042 1123.21 323.987 1124.2 323.001L1146.49 300.734H1114.97C1113.41 300.734 1112.13 299.465 1112.13 297.902C1112.13 296.339 1113.41 295.059 1114.97 295.059ZM1124.82 323.599C1124.15 324.259 1124.15 325.77 1124.81 326.42C1125.58 327.207 1126.85 327.207 1127.63 326.43L1151.37 302.695V336.269C1151.37 337.37 1152.26 338.261 1153.36 338.261C1154.47 338.261 1155.36 337.37 1155.36 336.269V302.695L1179.1 326.43C1179.87 327.207 1181.14 327.207 1181.92 326.43C1182.58 325.78 1182.59 324.27 1181.92 323.609L1166.05 307.771L1158.18 299.895H1191.74C1192.84 299.895 1193.74 299.003 1193.74 297.902C1193.74 296.801 1192.84 295.909 1191.74 295.909H1158.16L1181.91 272.174C1182.57 271.513 1182.57 270.003 1181.92 269.352C1181.13 268.566 1179.86 268.566 1179.09 269.342L1155.35 293.077V259.525C1155.35 258.423 1154.45 257.532 1153.35 257.532C1152.26 257.532 1151.36 258.434 1151.36 259.525V293.077L1127.62 269.342C1126.83 268.566 1125.57 268.555 1124.8 269.331C1124.13 269.992 1124.14 271.502 1124.79 272.163L1148.55 295.899H1114.96C1113.86 295.899 1112.96 296.801 1112.96 297.891C1112.96 298.982 1113.86 299.884 1114.96 299.884H1148.53L1124.82 323.599Z" fill="white"/>
<path d="M1114.97 286.679H1126.29L1118.28 278.676C1116.23 276.631 1115.05 273.736 1115.05 270.747C1115.05 267.758 1116.22 264.863 1118.27 262.807C1122.65 258.455 1129.76 258.455 1134.13 262.797L1142.13 270.81V259.514C1142.13 253.326 1147.17 248.302 1153.35 248.302C1159.55 248.302 1164.57 253.336 1164.57 259.514V270.81L1172.57 262.818C1176.93 258.465 1184.05 258.465 1188.43 262.807C1190.48 264.863 1191.67 267.758 1191.67 270.747C1191.67 273.736 1190.49 276.631 1188.45 278.687L1180.44 286.69H1191.75C1197.95 286.69 1202.97 291.724 1202.97 297.902C1202.97 304.079 1197.93 309.114 1191.75 309.114H1180.46L1188.45 317.085C1190.5 319.13 1191.68 322.025 1191.68 325.014C1191.68 328.014 1190.5 330.909 1188.45 332.954C1184.07 337.317 1176.96 337.317 1172.59 332.944L1164.59 324.951V336.258C1164.59 342.436 1159.56 347.47 1153.37 347.47C1147.19 347.47 1142.16 342.436 1142.16 336.258V324.951L1134.16 332.944C1129.78 337.296 1122.67 337.296 1118.29 332.954C1116.24 330.909 1115.07 328.014 1115.07 325.014C1115.07 322.025 1116.24 319.141 1118.28 317.085L1126.27 309.103H1114.97C1108.78 309.103 1103.76 304.069 1103.76 297.891C1103.76 291.714 1108.79 286.679 1114.97 286.679ZM1118.88 317.683C1116.99 319.581 1115.91 322.256 1115.91 325.014C1115.91 327.794 1116.99 330.468 1118.89 332.356C1122.93 336.373 1129.52 336.373 1133.56 332.356L1143 322.927V336.269C1143 341.985 1147.66 346.642 1153.37 346.642C1159.09 346.642 1163.75 341.985 1163.75 336.269V322.927L1173.19 332.356C1177.23 336.394 1183.81 336.394 1187.86 332.356C1189.76 330.468 1190.84 327.794 1190.84 325.014C1190.84 322.235 1189.75 319.56 1187.86 317.683L1178.44 308.275H1191.76C1197.48 308.275 1202.14 303.618 1202.14 297.902C1202.14 292.186 1197.48 287.529 1191.76 287.529H1178.43L1187.87 278.089C1189.77 276.201 1190.85 273.527 1190.85 270.747C1190.85 267.978 1189.76 265.293 1187.86 263.405C1183.81 259.388 1177.23 259.388 1173.19 263.416L1163.75 272.845V259.524C1163.75 253.808 1159.09 249.151 1153.37 249.151C1147.66 249.151 1143 253.808 1143 259.524V272.855L1133.55 263.416C1129.51 259.388 1122.93 259.399 1118.88 263.416C1116.99 265.314 1115.9 267.989 1115.9 270.758C1115.9 273.527 1116.98 276.201 1118.88 278.089L1128.32 287.529H1114.97C1109.26 287.529 1104.6 292.186 1104.6 297.902C1104.6 303.618 1109.26 308.275 1114.97 308.275H1128.29L1118.88 317.683Z" fill="white"/>
<path d="M13.3786 318.249C24.5765 318.249 33.6541 309.177 33.6541 297.985C33.6541 286.794 24.5765 277.722 13.3786 277.722C2.1807 277.722 -6.89697 286.794 -6.89697 297.985C-6.89697 309.177 2.1807 318.249 13.3786 318.249Z" fill="white"/>
<path d="M1265.04 316.97C1276.23 316.97 1285.31 307.897 1285.31 296.706C1285.31 285.515 1276.23 276.442 1265.04 276.442C1253.84 276.442 1244.76 285.515 1244.76 296.706C1244.76 307.897 1253.84 316.97 1265.04 316.97Z" fill="white"/>
<path d="M139.67 408.356L130.572 399.661L132.576 387.243L121.494 393.2L110.296 387.452L112.542 399.829L103.601 408.702L116.079 410.391L121.756 421.624L127.224 410.286L139.67 408.356Z" fill="white"/>
<path d="M336.665 408.429L327.566 399.724L329.57 387.306L318.488 393.263L307.28 387.515L309.526 399.892L300.595 408.765L313.073 410.454L318.75 421.687L324.218 410.349L336.665 408.429Z" fill="white"/>
<path d="M539.074 408.429L529.975 399.724L531.979 387.306L520.897 393.263L509.699 387.515L511.945 399.892L503.004 408.765L515.482 410.454L521.16 421.687L526.627 410.349L539.074 408.429Z" fill="white"/>
<path d="M743.193 407.244L734.095 398.549L736.099 386.121L725.017 392.089L713.819 386.33L716.065 398.717L707.124 407.58L719.602 409.279L725.279 420.502L730.747 409.174L743.193 407.244Z" fill="white"/>
<path d="M942.213 408.136L933.114 399.441L935.129 387.022L924.036 392.98L912.839 387.232L915.084 399.609L906.154 408.482L918.632 410.17L924.309 421.404L929.777 410.066L942.213 408.136Z" fill="white"/>
<path d="M1171.73 407.842L1162.63 399.147L1164.64 386.718L1153.55 392.686L1142.36 386.928L1144.6 399.315L1135.66 408.188L1148.14 409.877L1153.82 421.099L1159.28 409.772L1171.73 407.842Z" fill="white"/>
<path d="M248.646 392.928H229.672V403.227H248.646C249.486 403.227 250.179 402.546 250.179 401.696V394.449C250.168 393.609 249.486 392.928 248.646 392.928Z" fill="#FF645A"/>
<path d="M207.235 394.449V401.696C207.235 402.535 207.917 403.227 208.767 403.227H227.29V392.928H208.767C207.917 392.928 207.235 393.609 207.235 394.449Z" fill="#FF645A"/>
<path d="M209.879 420.397C209.879 421.236 210.561 421.928 211.412 421.928H227.29V404.444H209.89V420.397H209.879Z" fill="#FF645A"/>
<path d="M229.662 421.918H245.54C246.38 421.918 247.072 421.236 247.072 420.386V404.423H229.672V421.918H229.662Z" fill="#FF645A"/>
<path d="M234.332 391.239C237.858 391.239 240.23 390.767 241.573 389.802C243.158 388.659 244.197 386.97 244.511 385.051C244.826 383.131 244.365 381.201 243.221 379.618C242.077 378.034 240.387 376.996 238.467 376.681C236.546 376.366 234.615 376.828 233.03 377.971C231.677 378.946 230.47 381.097 229.347 384.526C229.105 385.271 228.896 385.995 228.717 386.635C228.539 385.995 228.329 385.271 228.087 384.526C226.965 381.097 225.758 378.957 224.404 377.971C221.14 375.611 216.564 376.356 214.214 379.618C213.07 381.201 212.618 383.131 212.923 385.051C213.238 386.97 214.277 388.659 215.861 389.802C217.205 390.767 219.566 391.239 223.103 391.239C223.145 391.239 223.197 391.239 223.249 391.239C225.726 391.229 227.857 390.987 227.951 390.977L228.738 390.882L229.525 390.977C229.62 390.987 231.74 391.229 234.227 391.239C234.237 391.239 234.279 391.239 234.332 391.239ZM217.708 387.211C216.816 386.572 216.239 385.628 216.061 384.547C215.882 383.467 216.145 382.387 216.785 381.495C217.582 380.383 218.842 379.796 220.112 379.796C220.941 379.796 221.78 380.048 222.504 380.572C222.777 380.771 223.764 381.705 225.013 385.491C225.306 386.383 225.548 387.243 225.737 387.956C222.672 388.145 218.863 388.04 217.708 387.211ZM234.898 380.572C235.79 379.932 236.871 379.681 237.952 379.848C239.033 380.027 239.978 380.604 240.618 381.495C241.258 382.387 241.51 383.467 241.342 384.547C241.164 385.628 240.587 386.572 239.694 387.211C239.422 387.411 238.225 388.05 234.227 388.04C233.293 388.04 232.39 387.998 231.666 387.956C232.443 384.988 233.744 381.401 234.898 380.572Z" fill="#FF645A"/>
<path d="M428.492 392.697H409.518V402.996H428.492C429.332 402.996 430.024 402.315 430.024 401.465V394.218C430.024 393.379 429.342 392.697 428.492 392.697Z" fill="#FF645A"/>
<path d="M387.091 394.218V401.465C387.091 402.304 387.773 402.996 388.623 402.996H407.146V392.697H388.623C387.773 392.697 387.091 393.379 387.091 394.218Z" fill="#FF645A"/>
<path d="M389.736 420.156C389.736 420.995 390.418 421.687 391.268 421.687H407.146V404.203H389.746V420.156H389.736Z" fill="#FF645A"/>
<path d="M409.518 421.687H425.396C426.236 421.687 426.929 421.005 426.929 420.155V404.192H409.528V421.687H409.518Z" fill="#FF645A"/>
<path d="M414.177 391.008C417.704 391.008 420.075 390.536 421.419 389.571C423.003 388.428 424.042 386.739 424.357 384.82C424.672 382.9 424.21 380.971 423.066 379.387C421.923 377.803 420.233 376.765 418.312 376.45C416.392 376.135 414.461 376.597 412.876 377.74C411.522 378.716 410.315 380.866 409.193 384.295C408.951 385.04 408.741 385.764 408.563 386.404C408.384 385.764 408.175 385.04 407.933 384.295C406.81 380.866 405.603 378.726 404.25 377.74C400.986 375.38 396.41 376.125 394.059 379.387C392.915 380.971 392.464 382.9 392.768 384.82C393.083 386.739 394.122 388.428 395.707 389.571C397.05 390.536 399.412 391.008 402.948 391.008C402.99 391.008 403.043 391.008 403.095 391.008C405.572 390.998 407.702 390.756 407.797 390.746L408.584 390.651L409.371 390.746C409.465 390.756 411.585 390.998 414.073 391.008C414.083 391.008 414.136 391.008 414.177 391.008ZM397.565 386.97C396.672 386.33 396.095 385.386 395.917 384.306C395.738 383.226 396.001 382.145 396.641 381.254C397.439 380.142 398.698 379.555 399.968 379.555C400.797 379.555 401.636 379.806 402.361 380.331C402.633 380.53 403.62 381.464 404.869 385.25C405.163 386.141 405.404 387.001 405.593 387.715C402.528 387.914 398.719 387.809 397.565 386.97ZM414.755 380.341C415.647 379.701 416.728 379.45 417.809 379.618C418.89 379.796 419.834 380.373 420.474 381.264C421.114 382.156 421.366 383.236 421.198 384.316C421.02 385.397 420.443 386.341 419.551 386.98C419.278 387.18 418.081 387.82 414.083 387.809C413.149 387.809 412.246 387.767 411.522 387.725C412.299 384.757 413.6 381.17 414.755 380.341Z" fill="#FF645A"/>
<path d="M659.615 391.805H640.64V402.105H659.615C660.454 402.105 661.147 401.423 661.147 400.574V393.326C661.147 392.487 660.465 391.805 659.615 391.805Z" fill="#FF645A"/>
<path d="M618.213 393.336V400.584C618.213 401.423 618.895 402.115 619.745 402.115H638.269V391.816H619.735C618.895 391.805 618.213 392.487 618.213 393.336Z" fill="#FF645A"/>
<path d="M620.858 419.275C620.858 420.114 621.54 420.806 622.39 420.806H638.269V403.322H620.868V419.275H620.858Z" fill="#FF645A"/>
<path d="M640.64 420.806H656.519C657.358 420.806 658.051 420.124 658.051 419.274V403.311H640.651V420.806H640.64Z" fill="#FF645A"/>
<path d="M645.3 390.127C648.826 390.127 651.198 389.655 652.541 388.69C654.126 387.547 655.165 385.858 655.479 383.939C655.794 382.02 655.333 380.09 654.189 378.506C653.045 376.922 651.355 375.884 649.435 375.569C647.514 375.254 645.583 375.716 643.998 376.859C642.645 377.835 641.438 379.985 640.315 383.415C640.074 384.159 639.864 384.883 639.685 385.523C639.507 384.883 639.297 384.159 639.056 383.415C637.933 379.985 636.726 377.845 635.372 376.859C632.108 374.499 627.533 375.244 625.182 378.506C624.038 380.09 623.587 382.02 623.891 383.939C624.206 385.858 625.245 387.547 626.829 388.69C628.173 389.655 630.534 390.127 634.071 390.127C634.113 390.127 634.165 390.127 634.218 390.127C636.694 390.117 638.825 389.875 638.919 389.865L639.706 389.771L640.493 389.865C640.588 389.875 642.708 390.117 645.195 390.127C645.205 390.127 645.258 390.127 645.3 390.127ZM628.687 386.089C627.795 385.449 627.218 384.505 627.039 383.425C626.861 382.345 627.123 381.264 627.763 380.373C628.561 379.261 629.82 378.674 631.09 378.674C631.919 378.674 632.759 378.925 633.483 379.45C633.756 379.649 634.742 380.583 635.991 384.369C636.285 385.26 636.526 386.121 636.715 386.834C633.651 387.033 629.841 386.918 628.687 386.089ZM645.877 379.45C646.769 378.81 647.85 378.558 648.931 378.726C650.012 378.904 650.956 379.481 651.597 380.373C652.237 381.264 652.489 382.345 652.321 383.425C652.142 384.505 651.565 385.449 650.673 386.089C650.4 386.288 649.204 386.928 645.205 386.918C644.271 386.918 643.369 386.876 642.645 386.834C643.421 383.866 644.723 380.289 645.877 379.45Z" fill="#FF645A"/>
<path d="M831.065 391.742H812.091V402.042H831.065C831.904 402.042 832.597 401.36 832.597 400.511V393.263C832.597 392.424 831.915 391.742 831.065 391.742Z" fill="#FF645A"/>
<path d="M789.663 393.273V400.521C789.663 401.36 790.346 402.052 791.196 402.052H809.719V391.753H791.196C790.346 391.742 789.663 392.424 789.663 393.273Z" fill="#FF645A"/>
<path d="M792.308 419.212C792.308 420.051 792.99 420.743 793.84 420.743H809.719V403.259H792.319V419.212H792.308Z" fill="#FF645A"/>
<path d="M812.091 420.732H827.969C828.809 420.732 829.501 420.051 829.501 419.201V403.238H812.101V420.732H812.091Z" fill="#FF645A"/>
<path d="M816.75 390.064C820.276 390.064 822.648 389.592 823.991 388.627C825.576 387.484 826.615 385.795 826.93 383.876C827.245 381.957 826.783 380.027 825.639 378.443C824.495 376.859 822.805 375.821 820.885 375.506C818.964 375.191 817.033 375.653 815.449 376.796C814.095 377.772 812.888 379.922 811.765 383.352C811.524 384.096 811.314 384.82 811.135 385.46C810.957 384.82 810.747 384.096 810.506 383.352C809.383 379.922 808.176 377.782 806.822 376.796C803.558 374.436 798.983 375.181 796.632 378.443C795.488 380.027 795.037 381.957 795.341 383.876C795.656 385.795 796.695 387.484 798.28 388.627C799.623 389.592 801.984 390.064 805.521 390.064C805.563 390.064 805.615 390.064 805.668 390.064C808.145 390.054 810.275 389.812 810.369 389.802L811.156 389.708L811.944 389.802C812.038 389.812 814.158 390.054 816.645 390.064C816.656 390.064 816.708 390.064 816.75 390.064ZM800.137 386.026C799.245 385.386 798.668 384.442 798.489 383.362C798.311 382.282 798.573 381.201 799.214 380.31C800.011 379.198 801.271 378.611 802.54 378.611C803.369 378.611 804.209 378.862 804.933 379.387C805.206 379.586 806.193 380.52 807.441 384.306C807.735 385.197 807.977 386.058 808.165 386.771C805.101 386.96 801.292 386.855 800.137 386.026ZM817.327 379.387C818.219 378.747 819.3 378.495 820.381 378.663C821.462 378.841 822.407 379.418 823.047 380.31C823.687 381.201 823.939 382.282 823.771 383.362C823.593 384.442 823.015 385.386 822.123 386.026C821.85 386.225 820.654 386.865 816.656 386.855C815.722 386.855 814.819 386.813 814.095 386.771C814.871 383.803 816.173 380.226 817.327 379.387Z" fill="#FF645A"/>
<path d="M1058.37 392.403H1039.39V402.703H1058.37C1059.21 402.703 1059.9 402.021 1059.9 401.171V393.924C1059.9 393.095 1059.22 392.403 1058.37 392.403Z" fill="#FF645A"/>
<path d="M1016.96 393.934V401.182C1016.96 402.021 1017.64 402.713 1018.49 402.713H1037.01V392.413H1018.49C1017.65 392.403 1016.96 393.095 1016.96 393.934Z" fill="#FF645A"/>
<path d="M1019.6 419.872C1019.6 420.711 1020.28 421.404 1021.13 421.404H1037.01V403.919H1019.61V419.872H1019.6Z" fill="#FF645A"/>
<path d="M1039.39 421.404H1055.27C1056.11 421.404 1056.8 420.722 1056.8 419.872V403.909H1039.4V421.404H1039.39Z" fill="#FF645A"/>
<path d="M1044.05 390.725C1047.58 390.725 1049.95 390.253 1051.29 389.288C1052.88 388.145 1053.92 386.456 1054.23 384.537C1054.55 382.617 1054.09 380.687 1052.94 379.104C1051.8 377.52 1050.11 376.481 1048.19 376.167C1046.27 375.852 1044.34 376.314 1042.75 377.457C1041.4 378.432 1040.19 380.582 1039.07 384.012C1038.83 384.757 1038.62 385.481 1038.44 386.12C1038.26 385.481 1038.05 384.757 1037.81 384.012C1036.69 380.582 1035.48 378.443 1034.12 377.457C1030.86 375.097 1026.29 375.842 1023.93 379.104C1022.79 380.687 1022.34 382.617 1022.64 384.537C1022.96 386.456 1024 388.145 1025.58 389.288C1026.93 390.253 1029.29 390.725 1032.82 390.725C1032.87 390.725 1032.92 390.725 1032.97 390.725C1035.45 390.714 1037.58 390.473 1037.67 390.463L1038.46 390.368L1039.25 390.463C1039.34 390.473 1041.46 390.714 1043.95 390.725C1043.96 390.725 1044.01 390.725 1044.05 390.725ZM1027.44 386.687C1026.55 386.047 1025.97 385.103 1025.79 384.023C1025.61 382.942 1025.88 381.862 1026.52 380.97C1027.31 379.859 1028.57 379.271 1029.84 379.271C1030.67 379.271 1031.51 379.523 1032.24 380.048C1032.51 380.247 1033.49 381.18 1034.74 384.967C1035.04 385.858 1035.28 386.718 1035.47 387.431C1032.4 387.631 1028.59 387.526 1027.44 386.687ZM1044.62 380.048C1045.51 379.408 1046.59 379.156 1047.67 379.324C1048.75 379.502 1049.7 380.079 1050.34 380.97C1050.98 381.862 1051.23 382.942 1051.06 384.023C1050.88 385.103 1050.31 386.047 1049.42 386.687C1049.14 386.886 1047.95 387.526 1043.95 387.515C1043.01 387.515 1042.11 387.473 1041.39 387.431C1042.17 384.463 1043.46 380.887 1044.62 380.048Z" fill="#FF645A"/>
<path d="M34.5146 392.991H15.5299V403.29H34.5041C35.3437 403.29 36.0363 402.609 36.0363 401.759V394.512C36.0363 393.672 35.3542 392.991 34.5146 392.991Z" fill="#FF645A"/>
<path d="M-6.89697 394.512V401.759C-6.89697 402.598 -6.21482 403.29 -5.36476 403.29H13.1477V392.991H-5.36476C-6.21482 392.991 -6.89697 393.672 -6.89697 394.512Z" fill="#FF645A"/>
<path d="M-4.25232 420.46C-4.25232 421.299 -3.57017 421.991 -2.72011 421.991H13.1477V404.507H-4.25232V420.46Z" fill="#FF645A"/>
<path d="M15.5299 421.981H31.4082C32.2478 421.981 32.9404 421.299 32.9404 420.449V404.486H15.5299V421.981Z" fill="#FF645A"/>
<path d="M20.2 391.302C23.7262 391.302 26.098 390.83 27.4413 389.865C29.026 388.722 30.065 387.033 30.3798 385.114C30.6946 383.194 30.2329 381.264 29.089 379.681C27.945 378.097 26.2554 377.059 24.3349 376.744C22.4144 376.429 20.4834 376.891 18.8987 378.034C17.5449 379.009 16.338 381.16 15.2151 384.589C14.9737 385.334 14.7638 386.058 14.5854 386.697C14.407 386.058 14.1971 385.334 13.9558 384.589C12.8328 381.16 11.626 379.02 10.2722 378.034C7.00833 375.674 2.43269 376.419 0.0819012 379.681C-1.06201 381.264 -1.51328 383.194 -1.20893 385.114C-0.894096 387.033 0.144869 388.722 1.72955 389.865C3.07286 390.83 5.43414 391.302 8.97082 391.302C9.0128 391.302 9.06527 391.302 9.11775 391.302C11.5945 391.291 13.7249 391.05 13.8193 391.04L14.6064 390.956L15.3935 391.04C15.488 391.05 17.6079 391.291 20.0951 391.302C20.1056 391.302 20.1476 391.302 20.2 391.302ZM3.58709 387.274C2.69505 386.635 2.11785 385.691 1.93944 384.61C1.76104 383.53 2.0234 382.45 2.66357 381.558C3.46116 380.446 4.72051 379.859 5.99036 379.859C6.81943 379.859 7.659 380.111 8.38312 380.635C8.65598 380.834 9.64248 381.768 10.8913 385.554C11.1852 386.446 11.4266 387.306 11.6155 388.019C8.55104 388.208 4.73101 388.103 3.58709 387.274ZM20.7667 380.635C21.6588 379.995 22.7397 379.744 23.8207 379.911C24.9016 380.09 25.8461 380.667 26.4863 381.558C27.1265 382.45 27.3783 383.53 27.2104 384.61C27.032 385.691 26.4548 386.635 25.5628 387.274C25.2899 387.474 24.0935 388.113 20.0951 388.103C19.1611 388.103 18.2585 388.061 17.5344 388.019C18.311 385.051 19.6123 381.464 20.7667 380.635Z" fill="#FF645A"/>
<path d="M1243.89 393.641V400.888C1243.89 401.727 1244.57 402.419 1245.42 402.419H1263.95V392.12H1245.42C1244.57 392.109 1243.89 392.791 1243.89 393.641Z" fill="#FF645A"/>
<path d="M1246.53 419.579C1246.53 420.418 1247.22 421.11 1248.07 421.11H1263.95V403.626H1246.55V419.579H1246.53Z" fill="#FF645A"/>
<path d="M79.5995 502.86H101.029L85.8753 487.704C84.6054 486.435 83.8813 484.621 83.8813 482.733C83.8813 480.845 84.6159 479.03 85.8753 477.761C88.6143 475.034 93.0745 475.034 95.8136 477.761L110.968 492.917V471.51C110.968 467.64 114.116 464.483 117.999 464.483C121.882 464.483 125.031 467.64 125.031 471.51V492.917L140.185 477.772C142.924 475.045 147.384 475.045 150.123 477.772C151.393 479.041 152.117 480.855 152.117 482.743C152.117 484.631 151.393 486.446 150.123 487.715L134.958 502.871H156.388C160.261 502.871 163.42 506.028 163.42 509.898C163.42 513.768 160.271 516.925 156.388 516.925H134.979L150.123 532.05C151.393 533.319 152.128 535.123 152.128 537.021C152.128 538.909 151.393 540.724 150.123 541.993C147.384 544.73 142.924 544.73 140.185 541.993L125.041 526.847V548.275C125.041 552.146 121.893 555.292 118.01 555.292C114.127 555.292 110.978 552.146 110.978 548.275V526.847L95.8346 541.993C93.0955 544.72 88.6353 544.72 85.8858 541.993C83.2516 539.35 83.2411 534.714 85.8858 532.05L101.019 516.925H79.61C75.7375 516.925 72.5786 513.779 72.5786 509.898C72.5786 506.017 75.727 502.86 79.5995 502.86ZM86.4734 532.627C84.1436 534.965 84.1541 539.056 86.4734 541.374C88.8872 543.776 92.8122 543.776 95.2259 541.374L111.807 524.792V548.254C111.807 551.663 114.578 554.432 117.999 554.432C121.42 554.432 124.191 551.663 124.191 548.254V524.792L140.783 541.374C143.186 543.786 147.122 543.786 149.535 541.374C150.648 540.262 151.288 538.668 151.288 537C151.288 535.333 150.648 533.738 149.535 532.627L132.954 516.065H156.399C159.81 516.065 162.591 513.296 162.591 509.877C162.591 506.458 159.82 503.689 156.399 503.689H132.933L149.535 487.096C150.648 485.984 151.288 484.39 151.288 482.722C151.288 481.055 150.648 479.46 149.535 478.349C147.122 475.947 143.197 475.947 140.783 478.349L124.191 494.931V471.5C124.191 468.091 121.42 465.312 117.999 465.312C114.578 465.312 111.807 468.091 111.807 471.5V494.941L95.2154 478.349C92.8017 475.947 88.8767 475.947 86.463 478.349C85.3505 479.46 84.7104 481.055 84.7104 482.733C84.7104 484.401 85.3505 485.995 86.463 487.107L102.352 502.976L103.065 503.699H79.5995C76.1887 503.699 73.4077 506.479 73.4077 509.888C73.4077 513.296 76.1887 516.076 79.5995 516.076H103.044L86.4734 532.627Z" fill="white"/>
<path d="M79.5994 507.045H111.146L88.8242 484.747C87.8482 483.771 87.8482 481.705 88.8347 480.719C89.9366 479.618 91.7417 479.628 92.8541 480.73L115.155 503.028V471.51C115.155 469.948 116.425 468.668 117.989 468.668C119.552 468.668 120.833 469.948 120.833 471.51V503.028L143.134 480.719C144.236 479.618 146.041 479.628 147.153 480.73C148.119 481.705 148.129 483.761 147.143 484.747L124.821 507.045H156.367C157.931 507.045 159.201 508.325 159.201 509.888C159.201 511.45 157.931 512.72 156.367 512.72H124.831L147.132 534.997C148.108 535.983 148.108 538.039 147.132 539.014C146.02 540.115 144.225 540.126 143.113 539.014L120.812 516.716V548.255C120.812 549.817 119.531 551.086 117.968 551.086C116.404 551.086 115.134 549.817 115.134 548.255V516.716L92.8331 539.014C91.7207 540.115 89.9156 540.115 88.8137 539.004C87.8482 538.028 87.8377 535.973 88.8242 534.987L111.115 512.72H79.5994C78.0357 512.72 76.7554 511.45 76.7554 509.888C76.7554 508.314 78.0357 507.045 79.5994 507.045ZM89.4433 535.584C88.7717 536.245 88.7717 537.756 89.4328 538.406C90.2094 539.192 91.4793 539.192 92.2559 538.416L115.995 514.681V548.255C115.995 549.356 116.887 550.247 117.989 550.247C119.091 550.247 119.983 549.356 119.983 548.255V514.681L143.721 538.416C144.498 539.192 145.768 539.192 146.544 538.416C147.206 537.766 147.216 536.256 146.544 535.595L130.677 519.757L122.806 511.88H156.367C157.469 511.88 158.361 510.989 158.361 509.888C158.361 508.786 157.469 507.895 156.367 507.895H122.785L146.534 484.159C147.195 483.499 147.195 481.988 146.544 481.338C145.757 480.551 144.487 480.551 143.711 481.328L119.972 505.063V471.51C119.972 470.409 119.07 469.518 117.978 469.518C116.887 469.518 115.984 470.42 115.984 471.51V505.063L92.2454 481.328C91.4583 480.551 90.1989 480.541 89.4223 481.317C88.7507 481.978 88.7612 483.488 89.4118 484.149L113.172 507.884H79.5889C78.487 507.884 77.5844 508.786 77.5844 509.877C77.5844 510.978 78.487 511.87 79.5889 511.87H113.151L89.4433 535.584Z" fill="white"/>
<path d="M79.5995 498.665H90.9126L82.9053 490.662C80.8588 488.617 79.6729 485.722 79.6729 482.733C79.6729 479.744 80.8483 476.849 82.8948 474.793C87.271 470.44 94.3863 470.44 98.7521 474.783L106.759 482.796V471.5C106.759 465.312 111.797 460.288 117.978 460.288C124.17 460.288 129.197 465.322 129.197 471.5V482.796L137.194 474.804C141.56 470.451 148.675 470.451 153.051 474.793C155.108 476.849 156.294 479.744 156.294 482.733C156.294 485.722 155.119 488.617 153.072 490.673L145.065 498.675H156.378C162.57 498.675 167.597 503.71 167.597 509.888C167.597 516.076 162.559 521.1 156.378 521.1H145.086L153.072 529.071C155.129 531.116 156.304 534.011 156.304 537C156.304 540 155.129 542.895 153.072 544.94C148.696 549.303 141.581 549.303 137.215 544.93L129.218 536.937V548.244C129.218 554.422 124.18 559.456 117.999 559.456C111.818 559.456 106.78 554.422 106.78 548.244V536.937L98.7836 544.93C94.4073 549.282 87.292 549.282 82.9157 544.94C80.8693 542.895 79.6939 540 79.6939 537C79.6939 534.011 80.8693 531.127 82.9053 529.071L90.8916 521.089H79.5995C73.4076 521.089 68.3807 516.055 68.3807 509.877C68.3807 503.699 73.4181 498.665 79.5995 498.665ZM83.5034 529.669C81.6144 531.567 80.5335 534.242 80.5335 537C80.5335 539.78 81.6144 542.454 83.5139 544.342C87.5544 548.359 94.145 548.359 98.1854 544.342L107.62 534.913V548.254C107.62 553.971 112.28 558.628 117.999 558.628C123.719 558.628 128.378 553.971 128.378 548.254V534.913L137.813 544.342C141.853 548.38 148.433 548.38 152.484 544.342C154.384 542.454 155.465 539.78 155.465 537C155.465 534.221 154.373 531.546 152.484 529.669L143.06 520.261H156.388C162.108 520.261 166.768 515.604 166.768 509.888C166.768 504.171 162.108 499.514 156.388 499.514H143.05L152.495 490.075C154.394 488.187 155.475 485.512 155.475 482.733C155.475 479.953 154.384 477.279 152.484 475.391C148.433 471.374 141.853 471.374 137.813 475.401L128.378 484.831V471.51C128.378 465.794 123.719 461.137 117.999 461.137C112.28 461.137 107.62 465.794 107.62 471.51V484.841L98.1749 475.401C94.1345 471.374 87.5544 471.384 83.5034 475.401C81.6144 477.3 80.523 479.974 80.523 482.743C80.523 485.512 81.6039 488.187 83.5034 490.075L92.9486 499.514H79.5995C73.8799 499.514 69.2203 504.171 69.2203 509.888C69.2203 515.604 73.8799 520.261 79.5995 520.261H92.9171L83.5034 529.669Z" fill="white"/>
<path d="M482.707 502.819H504.137L488.973 487.663C487.703 486.394 486.979 484.579 486.979 482.691C486.979 480.803 487.713 478.989 488.973 477.72C491.712 474.993 496.172 474.993 498.911 477.72L514.065 492.876V471.469C514.065 467.598 517.213 464.441 521.096 464.441C524.979 464.441 528.128 467.598 528.128 471.469V492.876L543.282 477.73C546.021 475.003 550.481 475.003 553.22 477.73C554.49 478.999 555.214 480.814 555.214 482.702C555.214 484.59 554.49 486.404 553.22 487.673L538.056 502.829H559.486C563.358 502.829 566.517 505.986 566.517 509.856C566.517 513.727 563.369 516.884 559.486 516.884H538.077L553.22 532.008C554.49 533.277 555.225 535.081 555.225 536.98C555.225 538.868 554.49 540.682 553.22 541.951C550.481 544.689 546.021 544.689 543.282 541.951L528.138 526.806V548.234C528.138 552.104 524.99 555.251 521.107 555.251C517.224 555.251 514.076 552.104 514.076 548.234V526.806L498.932 541.951C496.193 544.678 491.733 544.678 488.983 541.951C486.349 539.308 486.338 534.672 488.983 532.008L504.116 516.884H482.707C478.835 516.884 475.676 513.737 475.676 509.856C475.676 505.976 478.835 502.819 482.707 502.819ZM489.581 532.585C487.251 534.924 487.262 539.014 489.581 541.332C491.995 543.734 495.92 543.734 498.334 541.332L514.915 524.75V548.213C514.915 551.622 517.686 554.391 521.107 554.391C524.518 554.391 527.299 551.622 527.299 548.213V524.761L543.891 541.343C546.294 543.755 550.229 543.755 552.643 541.343C553.756 540.231 554.396 538.637 554.396 536.969C554.396 535.302 553.756 533.707 552.643 532.595L536.062 516.034H559.507C562.917 516.034 565.698 513.265 565.698 509.846C565.698 506.427 562.928 503.658 559.507 503.658H536.041L552.643 487.065C553.756 485.953 554.396 484.359 554.396 482.691C554.396 481.024 553.756 479.429 552.643 478.318C550.229 475.916 546.304 475.916 543.891 478.318L527.299 494.9V471.469C527.299 468.06 524.528 465.281 521.107 465.281C517.696 465.281 514.915 468.06 514.915 471.469V494.91L498.323 478.318C495.909 475.916 491.984 475.916 489.571 478.318C488.458 479.429 487.818 481.024 487.818 482.702C487.818 484.369 488.458 485.964 489.571 487.076L505.46 502.945L506.173 503.668H482.707C479.297 503.668 476.515 506.448 476.515 509.856C476.515 513.265 479.297 516.045 482.707 516.045H506.152L489.581 532.585Z" fill="white"/>
<path d="M482.707 507.003H514.254L491.932 484.705C490.956 483.729 490.956 481.663 491.942 480.677C493.044 479.576 494.85 479.586 495.962 480.688L518.263 502.986V471.468C518.263 469.906 519.533 468.626 521.096 468.626C522.66 468.626 523.941 469.906 523.941 471.468V502.986L546.242 480.677C547.344 479.576 549.149 479.586 550.261 480.688C551.227 481.663 551.237 483.719 550.251 484.705L527.928 507.003H559.475C561.039 507.003 562.309 508.283 562.309 509.846C562.309 511.409 561.039 512.678 559.475 512.678H527.939L550.24 534.955C551.216 535.941 551.216 537.997 550.24 538.972C549.128 540.074 547.333 540.084 546.221 538.972L523.92 516.674V548.213C523.92 549.775 522.639 551.045 521.076 551.045C519.512 551.045 518.242 549.775 518.242 548.213V516.674L495.941 538.972C494.829 540.074 493.023 540.074 491.922 538.962C490.956 537.986 490.946 535.931 491.932 534.945L514.223 512.678H482.697C481.133 512.678 479.853 511.409 479.853 509.846C479.874 508.283 481.144 507.003 482.707 507.003ZM492.551 535.553C491.88 536.214 491.88 537.724 492.541 538.374C493.317 539.161 494.587 539.161 495.364 538.385L519.103 514.649V548.223C519.103 549.324 519.995 550.216 521.096 550.216C522.198 550.216 523.09 549.324 523.09 548.223V514.649L546.829 538.385C547.606 539.161 548.876 539.161 549.652 538.385C550.313 537.735 550.324 536.224 549.652 535.564L533.784 519.726L525.914 511.849H559.475C560.577 511.849 561.469 510.958 561.469 509.856C561.469 508.755 560.577 507.863 559.475 507.863H525.893L549.642 484.128C550.303 483.467 550.303 481.957 549.652 481.307C548.865 480.52 547.595 480.52 546.819 481.296L523.08 505.032V471.479C523.08 470.378 522.177 469.486 521.086 469.486C519.984 469.486 519.092 470.388 519.092 471.479V505.032L495.353 481.296C494.566 480.52 493.307 480.509 492.53 481.286C491.859 481.946 491.869 483.457 492.52 484.117L516.279 507.853H482.697C481.595 507.853 480.692 508.755 480.692 509.846C480.692 510.947 481.595 511.839 482.697 511.839H516.258L492.551 535.553Z" fill="white"/>
<path d="M482.707 498.634H494.02L486.013 490.631C483.967 488.586 482.781 485.691 482.781 482.702C482.781 479.712 483.956 476.818 486.003 474.762C490.379 470.409 497.494 470.409 501.86 474.751L509.867 482.765V471.469C509.867 465.28 514.905 460.256 521.086 460.256C527.278 460.256 532.305 465.291 532.305 471.469V482.765L540.302 474.772C544.667 470.42 551.783 470.42 556.159 474.762C558.216 476.818 559.402 479.712 559.402 482.702C559.402 485.691 558.226 488.586 556.18 490.641L548.172 498.644H559.486C565.677 498.644 570.704 503.679 570.704 509.856C570.704 516.045 565.667 521.069 559.486 521.069H548.193L556.18 529.04C558.237 531.085 559.412 533.98 559.412 536.969C559.412 539.969 558.237 542.864 556.18 544.909C551.804 549.272 544.688 549.272 540.323 544.898L532.326 536.906V548.213C532.326 554.391 527.288 559.425 521.107 559.425C514.926 559.425 509.888 554.391 509.888 548.213V536.906L501.891 544.898C497.515 549.251 490.4 549.251 486.024 544.909C483.977 542.864 482.802 539.969 482.802 536.969C482.802 533.98 483.977 531.096 486.013 529.04L493.999 521.058H482.707C476.515 521.058 471.489 516.024 471.489 509.846C471.489 503.658 476.526 498.634 482.707 498.634ZM486.611 529.627C484.722 531.526 483.641 534.2 483.641 536.959C483.641 539.738 484.722 542.413 486.622 544.301C490.662 548.318 497.253 548.318 501.293 544.301L510.728 534.871V548.213C510.728 553.929 515.387 558.586 521.107 558.586C526.826 558.586 531.486 553.929 531.486 548.213V534.871L540.921 544.301C544.961 548.339 551.541 548.339 555.592 544.301C557.492 542.413 558.573 539.738 558.573 536.959C558.573 534.179 557.481 531.505 555.592 529.627L546.168 520.219H559.496C565.216 520.219 569.875 515.562 569.875 509.846C569.875 504.13 565.216 499.473 559.496 499.473H546.158L555.603 490.033C557.502 488.145 558.583 485.471 558.583 482.691C558.583 479.912 557.492 477.237 555.592 475.349C551.541 471.332 544.961 471.332 540.921 475.36L531.486 484.789V471.469C531.486 465.752 526.826 461.095 521.107 461.095C515.387 461.095 510.728 465.752 510.728 471.469V484.799L501.283 475.36C497.242 471.332 490.662 471.343 486.611 475.36C484.722 477.258 483.631 479.933 483.631 482.702C483.631 485.471 484.712 488.145 486.611 490.033L496.056 499.473H482.707C476.988 499.473 472.328 504.13 472.328 509.846C472.328 515.562 476.988 520.219 482.707 520.219H496.025L486.611 529.627Z" fill="white"/>
<path d="M231.824 531.053C243.021 531.053 252.099 521.981 252.099 510.79C252.099 499.598 243.021 490.526 231.824 490.526C220.626 490.526 211.548 499.598 211.548 510.79C211.548 521.981 220.626 531.053 231.824 531.053Z" fill="white"/>
<path d="M406.663 529.983C417.861 529.983 426.939 520.911 426.939 509.72C426.939 498.528 417.861 489.456 406.663 489.456C395.466 489.456 386.388 498.528 386.388 509.72C386.388 520.911 395.466 529.983 406.663 529.983Z" fill="white"/>
<path d="M636.915 530.938C648.113 530.938 657.19 521.866 657.19 510.674C657.19 499.483 648.113 490.411 636.915 490.411C625.717 490.411 616.639 499.483 616.639 510.674C616.639 521.866 625.717 530.938 636.915 530.938Z" fill="white"/>
<path d="M1038.49 529.669C1049.69 529.669 1058.77 520.597 1058.77 509.405C1058.77 498.214 1049.69 489.142 1038.49 489.142C1027.29 489.142 1018.21 498.214 1018.21 509.405C1018.21 520.597 1027.29 529.669 1038.49 529.669Z" fill="white"/>
<path d="M330.242 512.877H337.892C338.365 512.877 338.805 512.604 339.005 512.174C339.215 511.744 339.152 511.23 338.847 510.863L327.093 496.295H334.744C335.237 496.295 335.688 496.001 335.877 495.55C336.077 495.099 335.982 494.574 335.647 494.207L320.031 477.625C319.558 477.132 318.698 477.132 318.225 477.625L302.61 494.207C302.274 494.564 302.179 495.088 302.379 495.55C302.578 496.001 303.019 496.295 303.512 496.295H311.163L299.409 510.863C299.104 511.23 299.052 511.744 299.251 512.174C299.461 512.604 299.891 512.877 300.364 512.877H308.014L296.26 527.445C295.966 527.812 295.903 528.326 296.103 528.756C296.313 529.186 296.743 529.459 297.215 529.459H314.238V540.325C314.238 541.007 314.794 541.563 315.476 541.563H322.77C323.452 541.563 324.008 541.007 324.008 540.325V529.459H341.041C341.723 529.459 342.279 528.903 342.279 528.222C342.279 527.865 342.132 527.55 341.891 527.32L330.242 512.877ZM321.531 539.077H316.714V529.449H321.531V539.077ZM299.807 526.973L311.561 512.405C311.855 512.038 311.918 511.524 311.719 511.094C311.509 510.664 311.079 510.391 310.606 510.391H302.956L314.71 495.823C315.004 495.456 315.067 494.942 314.867 494.512C314.657 494.082 314.227 493.809 313.755 493.809H306.388L319.139 480.268L331.879 493.819H324.512C324.04 493.819 323.599 494.092 323.399 494.522C323.189 494.952 323.252 495.466 323.557 495.833L335.311 510.402H327.66C327.188 510.402 326.747 510.674 326.548 511.104C326.338 511.534 326.401 512.048 326.705 512.415L338.459 526.984H299.807V526.973Z" fill="white"/>
<path d="M736.33 512.877H743.981C744.453 512.877 744.894 512.604 745.093 512.174C745.303 511.744 745.24 511.23 744.936 510.863L733.182 496.295H740.832C741.325 496.295 741.777 496.001 741.966 495.55C742.165 495.099 742.071 494.574 741.735 494.207L726.119 477.625C725.647 477.132 724.786 477.132 724.314 477.625L708.698 494.207C708.362 494.564 708.268 495.088 708.467 495.55C708.666 496.001 709.107 496.295 709.6 496.295H717.251L705.497 510.863C705.193 511.23 705.14 511.744 705.34 512.174C705.549 512.604 705.98 512.877 706.452 512.877H714.103L702.349 527.445C702.055 527.812 701.992 528.326 702.191 528.756C702.401 529.186 702.831 529.459 703.304 529.459H720.326V540.325C720.326 541.007 720.882 541.563 721.564 541.563H728.858C729.54 541.563 730.096 541.007 730.096 540.325V529.459H747.129C747.811 529.459 748.367 528.903 748.367 528.222C748.367 527.865 748.22 527.55 747.979 527.32L736.33 512.877ZM727.62 539.077H722.803V529.449H727.62V539.077ZM705.896 526.973L717.65 512.405C717.944 512.038 718.007 511.524 717.807 511.094C717.597 510.664 717.167 510.391 716.695 510.391H709.044L720.798 495.823C721.092 495.456 721.155 494.942 720.955 494.512C720.746 494.082 720.315 493.809 719.843 493.809H712.476L725.227 480.268L737.967 493.819H730.6C730.128 493.819 729.687 494.092 729.488 494.522C729.278 494.952 729.341 495.466 729.645 495.833L741.399 510.402H733.748C733.276 510.402 732.835 510.674 732.636 511.104C732.426 511.534 732.489 512.048 732.793 512.415L744.547 526.984H705.896V526.973Z" fill="white"/>
<path d="M1115.36 502.766H1136.79L1121.63 487.61C1120.36 486.341 1119.63 484.527 1119.63 482.639C1119.63 480.751 1120.37 478.936 1121.63 477.667C1124.37 474.94 1128.83 474.94 1131.57 477.667L1146.72 492.823V471.416C1146.72 467.546 1149.87 464.389 1153.75 464.389C1157.63 464.389 1160.78 467.546 1160.78 471.416V492.823L1175.94 477.678C1178.68 474.951 1183.14 474.951 1185.88 477.678C1187.15 478.947 1187.87 480.761 1187.87 482.649C1187.87 484.537 1187.15 486.352 1185.88 487.621L1170.71 502.777H1192.14C1196.01 502.777 1199.17 505.934 1199.17 509.804C1199.17 513.674 1196.02 516.831 1192.14 516.831H1170.73L1185.88 531.955C1187.15 533.225 1187.88 535.029 1187.88 536.927C1187.88 538.815 1187.15 540.629 1185.88 541.899C1183.14 544.636 1178.68 544.636 1175.94 541.899L1160.79 526.753V548.181C1160.79 552.051 1157.65 555.198 1153.76 555.198C1149.89 555.198 1146.73 552.051 1146.73 548.181V526.753L1131.59 541.899C1128.85 544.626 1124.39 544.626 1121.64 541.899C1119.01 539.256 1118.99 534.62 1121.64 531.955L1136.77 516.831H1115.36C1111.49 516.831 1108.33 513.685 1108.33 509.804C1108.33 505.923 1111.49 502.766 1115.36 502.766ZM1122.24 532.532C1119.91 534.871 1119.92 538.962 1122.24 541.28C1124.65 543.682 1128.58 543.682 1130.99 541.28L1147.57 524.697V548.16C1147.57 551.569 1150.34 554.338 1153.76 554.338C1157.17 554.338 1159.95 551.569 1159.95 548.16V524.697L1176.55 541.28C1178.95 543.692 1182.89 543.692 1185.3 541.28C1186.41 540.168 1187.05 538.574 1187.05 536.906C1187.05 535.238 1186.41 533.644 1185.3 532.532L1168.72 515.971H1192.16C1195.57 515.971 1198.35 513.202 1198.35 509.783C1198.35 506.364 1195.58 503.595 1192.16 503.595H1168.7L1185.3 487.002C1186.41 485.89 1187.05 484.296 1187.05 482.628C1187.05 480.96 1186.41 479.366 1185.3 478.254C1182.89 475.853 1178.96 475.853 1176.55 478.254L1159.95 494.837V471.405C1159.95 467.997 1157.18 465.217 1153.76 465.217C1150.35 465.217 1147.57 467.997 1147.57 471.405V494.847L1130.98 478.254C1128.57 475.853 1124.64 475.853 1122.23 478.254C1121.11 479.366 1120.47 480.96 1120.47 482.639C1120.47 484.306 1121.11 485.901 1122.23 487.012L1138.12 502.881L1138.83 503.605H1115.36C1111.95 503.605 1109.17 506.385 1109.17 509.793C1109.17 513.202 1111.95 515.982 1115.36 515.982H1138.81L1122.24 532.532Z" fill="white"/>
<path d="M1115.36 506.951H1146.91L1124.59 484.653C1123.61 483.677 1123.61 481.611 1124.6 480.625C1125.7 479.524 1127.51 479.534 1128.62 480.635L1150.92 502.934V471.416C1150.92 469.853 1152.19 468.574 1153.75 468.574C1155.32 468.574 1156.6 469.853 1156.6 471.416V502.934L1178.9 480.625C1180 479.524 1181.8 479.534 1182.92 480.635C1183.88 481.611 1183.89 483.667 1182.91 484.653L1160.58 506.951H1192.13C1193.69 506.951 1194.96 508.231 1194.96 509.794C1194.96 511.356 1193.69 512.625 1192.13 512.625H1160.59L1182.9 534.903C1183.87 535.889 1183.87 537.945 1182.9 538.92C1181.78 540.021 1179.99 540.032 1178.88 538.92L1156.58 516.622V548.16C1156.58 549.723 1155.3 550.992 1153.73 550.992C1152.17 550.992 1150.9 549.723 1150.9 548.16V516.622L1128.62 538.92C1127.51 540.021 1125.7 540.021 1124.6 538.91C1123.63 537.934 1123.62 535.878 1124.61 534.892L1146.9 512.625H1115.37C1113.81 512.625 1112.53 511.356 1112.53 509.794C1112.52 508.22 1113.8 506.951 1115.36 506.951ZM1125.2 535.49C1124.53 536.151 1124.52 537.661 1125.19 538.312C1125.96 539.098 1127.23 539.098 1128.01 538.322L1151.75 514.587V548.16C1151.75 549.262 1152.64 550.153 1153.74 550.153C1154.84 550.153 1155.74 549.262 1155.74 548.16V514.587L1179.47 538.322C1180.25 539.098 1181.52 539.098 1182.3 538.322C1182.96 537.672 1182.97 536.162 1182.3 535.501L1166.43 519.663L1158.56 511.786H1192.12C1193.22 511.786 1194.11 510.895 1194.11 509.794C1194.11 508.692 1193.22 507.801 1192.12 507.801H1158.54L1182.29 484.065C1182.95 483.404 1182.95 481.894 1182.3 481.244C1181.51 480.457 1180.24 480.457 1179.46 481.233L1155.73 504.969V471.416C1155.73 470.315 1154.82 469.423 1153.73 469.423C1152.64 469.423 1151.74 470.325 1151.74 471.416V504.969L1128 481.233C1127.21 480.457 1125.95 480.447 1125.18 481.223C1124.5 481.884 1124.51 483.394 1125.17 484.055L1148.92 507.79H1115.34C1114.24 507.79 1113.34 508.692 1113.34 509.783C1113.34 510.884 1114.24 511.776 1115.34 511.776H1148.9L1125.2 535.49Z" fill="white"/>
<path d="M1115.36 498.571H1126.68L1118.67 490.568C1116.62 488.523 1115.44 485.628 1115.44 482.639C1115.44 479.649 1116.61 476.755 1118.66 474.699C1123.03 470.346 1130.15 470.346 1134.52 474.688L1142.52 482.702V471.406C1142.52 465.217 1147.56 460.193 1153.74 460.193C1159.93 460.193 1164.96 465.228 1164.96 471.406V482.702L1172.96 474.709C1177.32 470.357 1184.44 470.357 1188.81 474.699C1190.87 476.755 1192.06 479.649 1192.06 482.639C1192.06 485.628 1190.88 488.523 1188.84 490.578L1180.83 498.581H1192.14C1198.33 498.581 1203.36 503.616 1203.36 509.793C1203.36 515.971 1198.32 521.006 1192.14 521.006H1180.85L1188.84 528.977C1190.89 531.022 1192.07 533.917 1192.07 536.906C1192.07 539.906 1190.89 542.801 1188.84 544.846C1184.46 549.209 1177.34 549.209 1172.98 544.835L1164.98 536.843V548.15C1164.98 554.327 1159.94 559.362 1153.76 559.362C1147.58 559.362 1142.54 554.327 1142.54 548.15V536.843L1134.55 544.835C1130.17 549.188 1123.06 549.188 1118.68 544.846C1116.63 542.801 1115.46 539.906 1115.46 536.906C1115.46 533.917 1116.63 531.033 1118.67 528.977L1126.66 520.995H1115.36C1109.17 520.995 1104.14 515.961 1104.14 509.783C1104.14 503.605 1109.18 498.571 1115.36 498.571ZM1119.27 529.575C1117.38 531.473 1116.3 534.148 1116.3 536.906C1116.3 539.686 1117.38 542.36 1119.28 544.248C1123.32 548.265 1129.91 548.265 1133.95 544.248L1143.38 534.819V548.16C1143.38 553.876 1148.04 558.533 1153.76 558.533C1159.48 558.533 1164.14 553.876 1164.14 548.16V534.819L1173.58 544.248C1177.62 548.286 1184.2 548.286 1188.25 544.248C1190.15 542.36 1191.23 539.686 1191.23 536.906C1191.23 534.127 1190.14 531.452 1188.25 529.575L1178.82 520.166H1192.15C1197.87 520.166 1202.53 515.51 1202.53 509.793C1202.53 504.077 1197.87 499.42 1192.15 499.42H1178.81L1188.26 489.981C1190.16 488.093 1191.24 485.418 1191.24 482.639C1191.24 479.859 1190.15 477.185 1188.25 475.297C1184.2 471.28 1177.62 471.28 1173.58 475.307L1164.14 484.736V471.416C1164.14 465.7 1159.48 461.043 1153.76 461.043C1148.04 461.043 1143.38 465.7 1143.38 471.416V484.747L1133.94 475.307C1129.9 471.28 1123.32 471.29 1119.27 475.307C1117.38 477.206 1116.29 479.88 1116.29 482.649C1116.29 485.418 1117.37 488.093 1119.27 489.981L1128.71 499.42H1115.36C1109.64 499.42 1104.98 504.077 1104.98 509.793C1104.98 515.51 1109.64 520.166 1115.36 520.166H1128.68L1119.27 529.575Z" fill="white"/>
<path d="M13.7669 530.141C24.9648 530.141 34.0424 521.069 34.0424 509.878C34.0424 498.686 24.9648 489.614 13.7669 489.614C2.56901 489.614 -6.50867 498.686 -6.50867 509.878C-6.50867 521.069 2.56901 530.141 13.7669 530.141Z" fill="white"/>
<path d="M1265.41 528.861C1276.61 528.861 1285.69 519.789 1285.69 508.598C1285.69 497.406 1276.61 488.334 1265.41 488.334C1254.22 488.334 1245.14 497.406 1245.14 508.598C1245.14 519.789 1254.22 528.861 1265.41 528.861Z" fill="white"/>
</g>
<defs>
<clipPath id="clip0">
<rect x="-2" width="1249" height="572" fill="white"/>
</clipPath>
</defs>
</svg>
