<svg width="1786" height="653" viewBox="0 0 1786 653" fill="none" xmlns="http://www.w3.org/2000/svg">
<path d="M118.082 180.865H141.16L124.829 164.533C123.461 163.166 122.681 161.211 122.681 159.176C122.681 157.142 123.472 155.186 124.829 153.819C127.778 150.88 132.582 150.88 135.531 153.819L151.851 170.151V147.082C151.851 142.912 155.241 139.51 159.423 139.51C163.605 139.51 166.995 142.912 166.995 147.082V170.151L183.315 153.83C186.264 150.891 191.068 150.891 194.017 153.83C195.385 155.198 196.165 157.153 196.165 159.187C196.165 161.222 195.385 163.177 194.017 164.545L177.687 180.877H200.765C204.935 180.877 208.337 184.279 208.337 188.449C208.337 192.62 204.946 196.022 200.765 196.022H177.709L194.017 212.32C195.385 213.688 196.176 215.632 196.176 217.678C196.176 219.712 195.385 221.667 194.017 223.035C191.068 225.985 186.264 225.985 183.315 223.035L167.006 206.714V229.805C167.006 233.976 163.616 237.366 159.434 237.366C155.253 237.366 151.862 233.976 151.862 229.805V206.714L135.554 223.035C132.604 225.974 127.801 225.974 124.84 223.035C122.003 220.187 121.992 215.191 124.84 212.32L141.137 196.022H118.082C113.911 196.022 110.509 192.631 110.509 188.449C110.509 184.267 113.911 180.865 118.082 180.865ZM125.484 212.942C122.975 215.462 122.986 219.87 125.484 222.368C128.083 224.956 132.31 224.956 134.91 222.368L152.766 204.499V229.782C152.766 233.456 155.75 236.44 159.434 236.44C163.107 236.44 166.102 233.456 166.102 229.782V204.51L183.97 222.379C186.558 224.979 190.796 224.979 193.396 222.379C194.594 221.181 195.283 219.463 195.283 217.666C195.283 215.869 194.594 214.151 193.396 212.953L175.539 195.107H200.787C204.46 195.107 207.455 192.123 207.455 188.438C207.455 184.754 204.471 181.77 200.787 181.77H175.517L193.396 163.889C194.594 162.691 195.283 160.973 195.283 159.176C195.283 157.379 194.594 155.661 193.396 154.463C190.796 151.875 186.57 151.875 183.97 154.463L166.102 172.332V147.082C166.102 143.409 163.119 140.414 159.434 140.414C155.761 140.414 152.766 143.409 152.766 147.082V172.343L134.898 154.463C132.299 151.875 128.072 151.875 125.473 154.463C124.275 155.661 123.585 157.379 123.585 159.187C123.585 160.984 124.275 162.702 125.473 163.9L142.584 181.001L143.352 181.781H118.082C114.408 181.781 111.414 184.776 111.414 188.449C111.414 192.123 114.408 195.118 118.082 195.118H143.329L125.484 212.942Z" fill="white"/>
<path d="M118.082 185.375H152.054L128.016 161.346C126.965 160.295 126.965 158.068 128.027 157.006C129.214 155.819 131.158 155.831 132.356 157.017L156.372 181.046V147.082C156.372 145.398 157.739 144.02 159.423 144.02C161.107 144.02 162.486 145.398 162.486 147.082V181.046L186.502 157.006C187.689 155.819 189.632 155.831 190.83 157.017C191.87 158.068 191.881 160.284 190.819 161.346L166.78 185.375H200.753C202.437 185.375 203.805 186.754 203.805 188.438C203.805 190.122 202.437 191.49 200.753 191.49H166.792L190.808 215.496C191.859 216.559 191.859 218.774 190.808 219.825C189.61 221.012 187.677 221.023 186.479 219.825L162.463 195.796V229.783C162.463 231.467 161.084 232.834 159.4 232.834C157.716 232.834 156.349 231.467 156.349 229.783V195.796L132.333 219.825C131.135 221.012 129.191 221.012 128.004 219.814C126.965 218.763 126.953 216.547 128.016 215.485L152.02 191.49H118.07C116.386 191.49 115.007 190.122 115.007 188.438C115.03 186.754 116.398 185.375 118.082 185.375ZM128.682 216.14C127.959 216.853 127.959 218.48 128.671 219.181C129.507 220.029 130.875 220.029 131.711 219.192L157.276 193.615V229.794C157.276 230.981 158.236 231.941 159.423 231.941C160.61 231.941 161.57 230.981 161.57 229.794V193.615L187.135 219.192C187.971 220.029 189.339 220.029 190.175 219.192C190.887 218.491 190.898 216.864 190.175 216.152L173.087 199.085L164.611 190.597H200.753C201.94 190.597 202.901 189.636 202.901 188.449C202.901 187.263 201.94 186.302 200.753 186.302H164.588L190.164 160.725C190.876 160.013 190.876 158.385 190.175 157.684C189.327 156.837 187.96 156.837 187.123 157.673L161.559 183.25V147.094C161.559 145.907 160.587 144.946 159.412 144.946C158.225 144.946 157.264 145.918 157.264 147.094V183.25L131.7 157.673C130.852 156.837 129.496 156.825 128.66 157.662C127.937 158.374 127.948 160.001 128.649 160.713L154.236 186.291H118.07C116.884 186.291 115.912 187.263 115.912 188.438C115.912 189.625 116.884 190.586 118.07 190.586H154.213L128.682 216.14Z" fill="white"/>
<path d="M118.081 176.356H130.265L121.642 167.732C119.438 165.528 118.161 162.408 118.161 159.187C118.161 155.966 119.426 152.847 121.63 150.631C126.343 145.941 134.006 145.941 138.707 150.62L147.33 159.255V147.082C147.33 140.414 152.755 135 159.412 135C166.08 135 171.493 140.425 171.493 147.082V159.255L180.105 150.643C184.807 145.952 192.469 145.952 197.182 150.631C199.397 152.847 200.674 155.966 200.674 159.187C200.674 162.408 199.408 165.528 197.204 167.743L188.581 176.367H200.765C207.433 176.367 212.846 181.792 212.846 188.449C212.846 195.118 207.421 200.532 200.765 200.532H188.604L197.204 209.122C199.42 211.326 200.685 214.445 200.685 217.666C200.685 220.899 199.42 224.018 197.204 226.222C192.492 230.924 184.829 230.924 180.128 226.211L171.516 217.598V229.782C171.516 236.44 166.091 241.865 159.434 241.865C152.778 241.865 147.353 236.44 147.353 229.782V217.598L138.741 226.211C134.028 230.901 126.366 230.901 121.653 226.222C119.449 224.018 118.183 220.899 118.183 217.666C118.183 214.445 119.449 211.337 121.642 209.122L130.242 200.52H118.081C111.414 200.52 106 195.095 106 188.438C106 181.77 111.425 176.356 118.081 176.356ZM122.286 209.755C120.251 211.8 119.087 214.682 119.087 217.655C119.087 220.65 120.251 223.532 122.297 225.567C126.648 229.895 133.746 229.895 138.097 225.567L148.257 215.406V229.782C148.257 235.942 153.275 240.961 159.434 240.961C165.594 240.961 170.612 235.942 170.612 229.782V215.406L180.772 225.567C185.123 229.918 192.209 229.918 196.572 225.567C198.617 223.532 199.781 220.65 199.781 217.655C199.781 214.66 198.606 211.778 196.572 209.755L186.423 199.616H200.776C206.935 199.616 211.953 194.598 211.953 188.438C211.953 182.278 206.935 177.26 200.776 177.26H186.411L196.583 167.088C198.629 165.053 199.793 162.171 199.793 159.176C199.793 156.181 198.617 153.299 196.572 151.264C192.209 146.935 185.123 146.935 180.772 151.276L170.612 161.436V147.082C170.612 140.922 165.594 135.904 159.434 135.904C153.275 135.904 148.257 140.922 148.257 147.082V161.448L138.085 151.276C133.734 146.935 126.648 146.947 122.286 151.276C120.251 153.321 119.076 156.203 119.076 159.187C119.076 162.171 120.24 165.053 122.286 167.088L132.457 177.26H118.081C111.922 177.26 106.904 182.278 106.904 188.438C106.904 194.598 111.922 199.616 118.081 199.616H132.423L122.286 209.755Z" fill="white"/>
<path d="M822.915 461.251H836.124L826.777 451.903C825.994 451.121 825.548 450.002 825.548 448.837C825.548 447.673 826 446.554 826.777 445.771C828.465 444.089 831.214 444.089 832.902 445.771L842.243 455.119V441.915C842.243 439.528 844.184 437.581 846.577 437.581C848.97 437.581 850.911 439.528 850.911 441.915V455.119L860.252 445.777C861.94 444.095 864.689 444.095 866.377 445.777C867.16 446.56 867.606 447.679 867.606 448.844C867.606 450.008 867.16 451.127 866.377 451.91L857.03 461.258H870.239C872.626 461.258 874.573 463.205 874.573 465.592C874.573 467.979 872.632 469.926 870.239 469.926H857.043L866.377 479.255C867.16 480.037 867.613 481.15 867.613 482.321C867.613 483.485 867.16 484.604 866.377 485.387C864.689 487.076 861.94 487.076 860.252 485.387L850.917 476.046V489.262C850.917 491.649 848.977 493.59 846.583 493.59C844.19 493.59 842.25 491.649 842.25 489.262V476.046L832.915 485.387C831.227 487.069 828.478 487.069 826.783 485.387C825.16 483.757 825.153 480.898 826.783 479.255L836.111 469.926H822.915C820.528 469.926 818.581 467.985 818.581 465.592C818.581 463.198 820.528 461.251 822.915 461.251ZM827.152 479.61C825.716 481.053 825.722 483.576 827.152 485.005C828.64 486.487 831.059 486.487 832.547 485.005L842.767 474.778V489.249C842.767 491.352 844.475 493.059 846.583 493.059C848.686 493.059 850.4 491.352 850.4 489.249V474.784L860.627 485.012C862.108 486.5 864.534 486.5 866.022 485.012C866.707 484.326 867.102 483.343 867.102 482.314C867.102 481.286 866.707 480.302 866.022 479.617L855.801 469.402H870.252C872.354 469.402 874.068 467.694 874.068 465.585C874.068 463.477 872.361 461.769 870.252 461.769H855.788L866.022 451.535C866.707 450.849 867.102 449.866 867.102 448.837C867.102 447.809 866.707 446.825 866.022 446.14C864.534 444.658 862.115 444.658 860.627 446.14L850.4 456.367V441.915C850.4 439.813 848.692 438.099 846.583 438.099C844.481 438.099 842.767 439.813 842.767 441.915V456.374L832.54 446.14C831.052 444.658 828.633 444.658 827.145 446.14C826.46 446.825 826.065 447.809 826.065 448.844C826.065 449.872 826.46 450.856 827.145 451.541L836.939 461.329L837.379 461.775H822.915C820.813 461.775 819.098 463.489 819.098 465.592C819.098 467.694 820.813 469.409 822.915 469.409H837.366L827.152 479.61Z" fill="white"/>
<path d="M822.915 463.832H842.359L828.601 450.079C827.999 449.478 827.999 448.203 828.607 447.595C829.286 446.916 830.399 446.922 831.085 447.601L844.83 461.355V441.915C844.83 440.951 845.613 440.162 846.577 440.162C847.541 440.162 848.33 440.951 848.33 441.915V461.355L862.076 447.595C862.755 446.916 863.868 446.922 864.553 447.601C865.148 448.203 865.155 449.471 864.547 450.079L850.788 463.832H870.233C871.196 463.832 871.979 464.622 871.979 465.585C871.979 466.549 871.196 467.332 870.233 467.332H850.795L864.54 481.072C865.142 481.68 865.142 482.948 864.54 483.55C863.855 484.229 862.748 484.236 862.063 483.55L848.317 469.797V489.249C848.317 490.213 847.528 490.996 846.564 490.996C845.6 490.996 844.818 490.213 844.818 489.249V469.797L831.072 483.55C830.386 484.229 829.274 484.229 828.594 483.543C827.999 482.942 827.993 481.674 828.601 481.066L842.34 467.332H822.908C821.945 467.332 821.155 466.549 821.155 465.585C821.168 464.622 821.951 463.832 822.915 463.832ZM828.982 481.441C828.568 481.849 828.568 482.78 828.976 483.181C829.455 483.666 830.237 483.666 830.716 483.188L845.348 468.548V489.256C845.348 489.935 845.898 490.485 846.577 490.485C847.256 490.485 847.806 489.935 847.806 489.256V468.548L862.438 483.188C862.917 483.666 863.699 483.666 864.178 483.188C864.586 482.787 864.592 481.855 864.178 481.447L854.398 471.679L849.546 466.821H870.233C870.912 466.821 871.462 466.271 871.462 465.592C871.462 464.913 870.912 464.363 870.233 464.363H849.533L864.172 449.723C864.579 449.316 864.579 448.384 864.178 447.983C863.693 447.498 862.91 447.498 862.431 447.977L847.8 462.616V441.922C847.8 441.242 847.243 440.693 846.571 440.693C845.891 440.693 845.342 441.249 845.342 441.922V462.616L830.71 447.977C830.224 447.498 829.448 447.492 828.97 447.97C828.556 448.378 828.562 449.309 828.963 449.717L843.608 464.356H822.908C822.229 464.356 821.673 464.913 821.673 465.585C821.673 466.265 822.229 466.815 822.908 466.815H843.595L828.982 481.441Z" fill="white"/>
<path d="M822.915 458.67H829.888L824.953 453.734C823.691 452.473 822.96 450.687 822.96 448.844C822.96 447 823.685 445.215 824.946 443.947C827.643 441.262 832.029 441.262 834.72 443.94L839.656 448.883V441.915C839.656 438.099 842.761 435 846.571 435C850.387 435 853.485 438.105 853.485 441.915V448.883L858.414 443.953C861.105 441.268 865.491 441.268 868.189 443.947C869.456 445.215 870.187 447 870.187 448.844C870.187 450.687 869.463 452.473 868.201 453.741L863.266 458.677H870.239C874.056 458.677 877.154 461.782 877.154 465.592C877.154 469.409 874.049 472.507 870.239 472.507H863.279L868.201 477.424C869.469 478.685 870.194 480.471 870.194 482.315C870.194 484.165 869.469 485.95 868.201 487.212C865.504 489.903 861.118 489.903 858.427 487.205L853.498 482.276V489.249C853.498 493.06 850.393 496.165 846.583 496.165C842.773 496.165 839.669 493.06 839.669 489.249V482.276L834.739 487.205C832.042 489.89 827.656 489.89 824.959 487.212C823.698 485.95 822.973 484.165 822.973 482.315C822.973 480.471 823.698 478.692 824.953 477.424L829.875 472.501H822.915C819.098 472.501 816 469.396 816 465.586C816 461.769 819.105 458.67 822.915 458.67ZM825.321 477.786C824.157 478.957 823.491 480.607 823.491 482.308C823.491 484.022 824.157 485.672 825.328 486.836C827.818 489.314 831.88 489.314 834.371 486.836L840.186 481.021V489.249C840.186 492.775 843.058 495.647 846.583 495.647C850.109 495.647 852.981 492.775 852.981 489.249V481.021L858.796 486.836C861.287 489.327 865.342 489.327 867.839 486.836C869.01 485.672 869.676 484.022 869.676 482.308C869.676 480.594 869.004 478.944 867.839 477.786L862.03 471.983H870.246C873.771 471.983 876.643 469.111 876.643 465.586C876.643 462.06 873.771 459.188 870.246 459.188H862.024L867.846 453.366C869.016 452.201 869.683 450.552 869.683 448.837C869.683 447.123 869.01 445.473 867.839 444.309C865.342 441.831 861.287 441.831 858.796 444.315L852.981 450.131V441.915C852.981 438.39 850.109 435.518 846.583 435.518C843.058 435.518 840.186 438.39 840.186 441.915V450.138L834.364 444.315C831.874 441.831 827.818 441.838 825.321 444.315C824.157 445.486 823.484 447.136 823.484 448.844C823.484 450.552 824.15 452.201 825.321 453.366L831.143 459.188H822.915C819.39 459.188 816.517 462.06 816.517 465.586C816.517 469.111 819.39 471.983 822.915 471.983H831.124L825.321 477.786Z" fill="white"/>
<path d="M1656.69 105.732H1680.63L1663.69 88.7886C1662.27 87.3698 1661.46 85.3413 1661.46 83.2307C1661.46 81.1201 1662.28 79.0915 1663.69 77.6727C1666.75 74.6241 1671.73 74.6241 1674.79 77.6727L1691.72 94.6162V70.6843C1691.72 66.3575 1695.24 62.8281 1699.58 62.8281C1703.92 62.8281 1707.43 66.3575 1707.43 70.6843V94.6162L1724.36 77.6845C1727.42 74.6358 1732.41 74.6358 1735.47 77.6845C1736.89 79.1033 1737.69 81.1318 1737.69 83.2424C1737.69 85.353 1736.89 87.3815 1735.47 88.8003L1718.52 105.744H1742.47C1746.79 105.744 1750.32 109.273 1750.32 113.6C1750.32 117.927 1746.8 121.456 1742.47 121.456H1718.55L1735.47 138.364C1736.89 139.783 1737.71 141.8 1737.71 143.922C1737.71 146.033 1736.89 148.061 1735.47 149.48C1732.41 152.541 1727.42 152.541 1724.36 149.48L1707.44 132.548V156.504C1707.44 160.831 1703.93 164.348 1699.59 164.348C1695.25 164.348 1691.73 160.831 1691.73 156.504V132.548L1674.81 149.48C1671.75 152.529 1666.77 152.529 1663.7 149.48C1660.76 146.525 1660.74 141.343 1663.7 138.364L1680.61 121.456H1656.69C1652.36 121.456 1648.83 117.938 1648.83 113.6C1648.83 109.261 1652.36 105.732 1656.69 105.732ZM1664.37 139.009C1661.76 141.624 1661.78 146.197 1664.37 148.788C1667.06 151.474 1671.45 151.474 1674.15 148.788L1692.67 130.25V156.48C1692.67 160.291 1695.77 163.387 1699.59 163.387C1703.4 163.387 1706.51 160.291 1706.51 156.48V130.262L1725.04 148.8C1727.73 151.497 1732.13 151.497 1734.82 148.8C1736.06 147.557 1736.78 145.775 1736.78 143.911C1736.78 142.046 1736.06 140.264 1734.82 139.021L1716.3 120.506H1742.49C1746.3 120.506 1749.41 117.411 1749.41 113.588C1749.41 109.766 1746.31 106.67 1742.49 106.67H1716.27L1734.82 88.1202C1736.06 86.8773 1736.78 85.095 1736.78 83.2307C1736.78 81.3663 1736.06 79.584 1734.82 78.3411C1732.13 75.6559 1727.74 75.6559 1725.04 78.3411L1706.51 96.8792V70.6843C1706.51 66.8735 1703.41 63.7662 1699.59 63.7662C1695.78 63.7662 1692.67 66.8735 1692.67 70.6843V96.891L1674.13 78.3411C1671.44 75.6559 1667.05 75.6559 1664.36 78.3411C1663.11 79.584 1662.4 81.3663 1662.4 83.2424C1662.4 85.1067 1663.11 86.889 1664.36 88.132L1682.11 105.873L1682.9 106.682H1656.69C1652.88 106.682 1649.77 109.789 1649.77 113.6C1649.77 117.411 1652.88 120.518 1656.69 120.518H1682.88L1664.37 139.009Z" fill="white"/>
<path d="M1656.69 110.41H1691.93L1666.99 85.4817C1665.9 84.3912 1665.9 82.0812 1667.01 80.979C1668.24 79.7479 1670.25 79.7596 1671.5 80.9908L1696.41 105.919V70.684C1696.41 68.9369 1697.83 67.5063 1699.58 67.5063C1701.32 67.5063 1702.75 68.9369 1702.75 70.684V105.919L1727.67 80.979C1728.9 79.7479 1730.92 79.7596 1732.16 80.9908C1733.24 82.0813 1733.25 84.3795 1732.15 85.4817L1707.21 110.41H1742.45C1744.2 110.41 1745.62 111.841 1745.62 113.588C1745.62 115.335 1744.2 116.754 1742.45 116.754H1707.22L1732.14 141.659C1733.23 142.761 1733.23 145.059 1732.14 146.15C1730.89 147.381 1728.89 147.393 1727.65 146.15L1702.73 121.221V156.48C1702.73 158.227 1701.3 159.646 1699.55 159.646C1697.81 159.646 1696.39 158.227 1696.39 156.48V121.221L1671.47 146.15C1670.23 147.381 1668.21 147.381 1666.98 146.138C1665.9 145.048 1665.89 142.749 1666.99 141.647L1691.9 116.754H1656.68C1654.93 116.754 1653.5 115.335 1653.5 113.588C1653.52 111.841 1654.94 110.41 1656.69 110.41ZM1667.69 142.327C1666.94 143.066 1666.94 144.755 1667.67 145.481C1668.54 146.361 1669.96 146.361 1670.83 145.493L1697.35 118.958V156.492C1697.35 157.723 1698.35 158.72 1699.58 158.72C1700.81 158.72 1701.8 157.723 1701.8 156.492V118.958L1728.33 145.493C1729.19 146.361 1730.61 146.361 1731.48 145.493C1732.22 144.766 1732.23 143.078 1731.48 142.339L1713.75 124.633L1704.96 115.827H1742.45C1743.69 115.827 1744.68 114.831 1744.68 113.6C1744.68 112.368 1743.69 111.372 1742.45 111.372H1704.94L1731.47 84.8368C1732.21 84.0981 1732.21 82.4096 1731.48 81.6826C1730.6 80.8032 1729.18 80.8032 1728.31 81.6708L1701.79 108.206V70.6957C1701.79 69.4645 1700.78 68.4678 1699.57 68.4678C1698.33 68.4678 1697.34 69.4762 1697.34 70.6957V108.206L1670.82 81.6708C1669.94 80.8032 1668.53 80.7914 1667.66 81.6591C1666.91 82.3978 1666.92 84.0863 1667.65 84.825L1694.2 111.36H1656.68C1655.45 111.36 1654.44 112.368 1654.44 113.588C1654.44 114.819 1655.45 115.816 1656.68 115.816H1694.17L1667.69 142.327Z" fill="white"/>
<path d="M1656.69 101.053H1669.33L1660.38 92.1067C1658.09 89.8202 1656.77 86.584 1656.77 83.2422C1656.77 79.9004 1658.08 76.6641 1660.37 74.3659C1665.26 69.4998 1673.21 69.4998 1678.09 74.3542L1687.03 83.3125V70.6841C1687.03 63.766 1692.66 58.1494 1699.57 58.1494C1706.48 58.1494 1712.1 63.7777 1712.1 70.6841V83.3125L1721.03 74.3776C1725.91 69.5115 1733.86 69.5115 1738.75 74.3659C1741.05 76.6641 1742.37 79.9004 1742.37 83.2422C1742.37 86.584 1741.06 89.8202 1738.77 92.1185L1729.83 101.065H1742.47C1749.38 101.065 1755 106.693 1755 113.6C1755 120.518 1749.37 126.134 1742.47 126.134H1729.85L1738.77 135.046C1741.07 137.332 1742.38 140.569 1742.38 143.91C1742.38 147.264 1741.07 150.5 1738.77 152.787C1733.88 157.665 1725.93 157.665 1721.06 152.775L1712.12 143.84V156.48C1712.12 163.387 1706.49 169.015 1699.59 169.015C1692.68 169.015 1687.05 163.387 1687.05 156.48V143.84L1678.12 152.775C1673.23 157.641 1665.28 157.641 1660.39 152.787C1658.11 150.5 1656.79 147.264 1656.79 143.91C1656.79 140.569 1658.11 137.344 1660.38 135.046L1669.3 126.123H1656.69C1649.77 126.123 1644.15 120.494 1644.15 113.588C1644.15 106.67 1649.78 101.053 1656.69 101.053ZM1661.05 135.703C1658.94 137.825 1657.73 140.815 1657.73 143.899C1657.73 147.006 1658.94 149.996 1661.06 152.107C1665.58 156.598 1672.94 156.598 1677.45 152.107L1687.99 141.565V156.48C1687.99 162.871 1693.2 168.077 1699.59 168.077C1705.98 168.077 1711.18 162.871 1711.18 156.48V141.565L1721.73 152.107C1726.24 156.621 1733.59 156.621 1738.12 152.107C1740.24 149.996 1741.45 147.006 1741.45 143.899C1741.45 140.791 1740.23 137.801 1738.12 135.703L1727.59 125.185H1742.48C1748.87 125.185 1754.07 119.979 1754.07 113.588C1754.07 107.198 1748.87 101.991 1742.48 101.991H1727.58L1738.13 91.4384C1740.25 89.3278 1741.46 86.3378 1741.46 83.2305C1741.46 80.1232 1740.24 77.1332 1738.12 75.0226C1733.59 70.5317 1726.24 70.5316 1721.73 75.0343L1711.18 85.5756V70.6841C1711.18 64.2936 1705.98 59.0874 1699.59 59.0874C1693.2 59.0874 1687.99 64.2936 1687.99 70.6841V85.5873L1677.44 75.0343C1672.93 70.5316 1665.58 70.5434 1661.05 75.0343C1658.94 77.1566 1657.72 80.1466 1657.72 83.2422C1657.72 86.3377 1658.93 89.3278 1661.05 91.4384L1671.6 101.991H1656.69C1650.3 101.991 1645.09 107.198 1645.09 113.588C1645.09 119.979 1650.3 125.185 1656.69 125.185H1671.57L1661.05 135.703Z" fill="white"/>
<path d="M688.534 83.5826H712.476L695.534 66.6392C694.115 65.2204 693.306 63.1919 693.306 61.0813C693.306 58.9707 694.127 56.9421 695.534 55.5233C698.594 52.4747 703.577 52.4747 706.637 55.5233L723.568 72.4668V48.5349C723.568 44.2081 727.085 40.6787 731.423 40.6787C735.761 40.6787 739.279 44.2081 739.279 48.5349V72.4668L756.209 55.535C759.269 52.4864 764.252 52.4864 767.313 55.535C768.731 56.9538 769.54 58.9824 769.54 61.093C769.54 63.2036 768.731 65.2321 767.313 66.6509L750.37 83.5944H774.312C778.639 83.5944 782.168 87.1237 782.168 91.4505C782.168 95.7772 778.651 99.3066 774.312 99.3066H750.394L767.313 116.215C768.731 117.634 769.552 119.651 769.552 121.773C769.552 123.884 768.731 125.912 767.313 127.331C764.252 130.391 759.269 130.391 756.209 127.331L739.291 110.399V134.354C739.291 138.681 735.773 142.199 731.435 142.199C727.097 142.199 723.579 138.681 723.579 134.354V110.399L706.66 127.331C703.6 130.379 698.617 130.379 695.545 127.331C692.602 124.376 692.591 119.193 695.545 116.215L712.452 99.3066H688.534C684.208 99.3066 680.678 95.7889 680.678 91.4505C680.678 87.112 684.208 83.5826 688.534 83.5826ZM696.214 116.86C693.611 119.475 693.623 124.048 696.214 126.639C698.91 129.324 703.295 129.324 705.992 126.639L724.517 108.101V134.331C724.517 138.142 727.613 141.237 731.435 141.237C735.245 141.237 738.352 138.142 738.352 134.331V108.113L756.889 126.651C759.574 129.348 763.971 129.348 766.668 126.651C767.911 125.408 768.626 123.626 768.626 121.761C768.626 119.897 767.911 118.114 766.668 116.872L748.143 98.3569H774.336C778.146 98.3569 781.253 95.2614 781.253 91.4388C781.253 87.6163 778.158 84.5207 774.336 84.5207H748.119L766.668 65.9708C767.911 64.7279 768.626 62.9456 768.626 61.0813C768.626 59.2169 767.911 57.4346 766.668 56.1917C763.971 53.5065 759.586 53.5065 756.889 56.1917L738.352 74.7298V48.5349C738.352 44.7241 735.257 41.6168 731.435 41.6168C727.624 41.6168 724.517 44.7241 724.517 48.5349V74.7416L705.98 56.1917C703.284 53.5065 698.899 53.5065 696.202 56.1917C694.959 57.4346 694.244 59.2169 694.244 61.093C694.244 62.9573 694.959 64.7396 696.202 65.9825L713.953 83.7234L714.751 84.5324H688.534C684.723 84.5324 681.616 87.6397 681.616 91.4505C681.616 95.2613 684.723 98.3686 688.534 98.3686H714.727L696.214 116.86Z" fill="white"/>
<path d="M688.534 88.2609H723.779L698.84 63.3322C697.75 62.2418 697.75 59.9318 698.852 58.8296C700.083 57.5984 702.1 57.6102 703.342 58.8414L728.257 83.7699V48.5346C728.257 46.7874 729.676 45.3569 731.423 45.3569C733.17 45.3569 734.601 46.7874 734.601 48.5346V83.7699L759.516 58.8296C760.747 57.5984 762.764 57.6102 764.006 58.8414C765.085 59.9318 765.097 62.23 763.995 63.3322L739.056 88.2609H774.301C776.048 88.2609 777.466 89.6914 777.466 91.4385C777.466 93.1856 776.048 94.6044 774.301 94.6044H739.068L763.983 119.51C765.073 120.612 765.073 122.91 763.983 124C762.74 125.232 760.735 125.243 759.492 124L734.577 99.0718V134.331C734.577 136.078 733.147 137.497 731.4 137.497C729.653 137.497 728.234 136.078 728.234 134.331V99.0718L703.319 124C702.076 125.232 700.059 125.232 698.828 123.989C697.75 122.898 697.738 120.6 698.84 119.498L723.743 94.6044H688.522C686.775 94.6044 685.345 93.1856 685.345 91.4385C685.368 89.6914 686.787 88.2609 688.534 88.2609ZM699.532 120.178C698.781 120.917 698.781 122.605 699.52 123.332C700.388 124.211 701.806 124.212 702.674 123.344L729.195 96.8088V134.342C729.195 135.574 730.192 136.57 731.423 136.57C732.654 136.57 733.651 135.574 733.651 134.342V96.8088L760.172 123.344C761.04 124.212 762.459 124.212 763.326 123.344C764.065 122.617 764.077 120.928 763.326 120.19L745.598 102.484L736.805 93.6781H774.301C775.532 93.6781 776.528 92.6814 776.528 91.4502C776.528 90.219 775.532 89.2224 774.301 89.2224H736.781L763.315 62.6874C764.053 61.9486 764.053 60.2602 763.326 59.5332C762.447 58.6537 761.028 58.6537 760.161 59.5214L733.639 86.0564V48.5463C733.639 47.3151 732.631 46.3184 731.411 46.3184C730.18 46.3184 729.184 47.3268 729.184 48.5463V86.0564L702.662 59.5214C701.783 58.6537 700.376 58.642 699.508 59.5097C698.758 60.2484 698.77 61.9369 699.497 62.6756L726.041 89.2106H688.522C687.291 89.2106 686.283 90.2191 686.283 91.4385C686.283 92.6697 687.291 93.6663 688.522 93.6663H726.018L699.532 120.178Z" fill="white"/>
<path d="M688.534 78.9039H701.173L692.227 69.9573C689.941 67.6708 688.616 64.4346 688.616 61.0928C688.616 57.751 689.929 54.5147 692.215 52.2165C697.105 47.3504 705.054 47.3504 709.932 52.2048L718.878 61.1631V48.5347C718.878 41.6166 724.505 36 731.411 36C738.329 36 743.945 41.6283 743.945 48.5347V61.1631L752.879 52.2282C757.757 47.3621 765.706 47.3621 770.596 52.2165C772.894 54.5147 774.218 57.751 774.218 61.0928C774.218 64.4346 772.905 67.6708 770.619 69.969L761.673 78.9157H774.312C781.23 78.9157 786.846 84.5439 786.846 91.4503C786.846 98.3684 781.218 103.985 774.312 103.985H761.696L770.619 112.896C772.917 115.183 774.23 118.419 774.23 121.761C774.23 125.115 772.917 128.351 770.619 130.637C765.73 135.515 757.78 135.515 752.903 130.626L743.969 121.691V134.331C743.969 141.237 738.341 146.865 731.435 146.865C724.529 146.865 718.901 141.237 718.901 134.331V121.691L709.967 130.626C705.077 135.492 697.128 135.492 692.239 130.637C689.952 128.351 688.639 125.115 688.639 121.761C688.639 118.419 689.952 115.195 692.227 112.896L701.15 103.973H688.534C681.616 103.973 676 98.345 676 91.4386C676 84.5205 681.628 78.9039 688.534 78.9039ZM692.895 113.553C690.785 115.675 689.577 118.665 689.577 121.749C689.577 124.857 690.785 127.847 692.907 129.957C697.421 134.448 704.784 134.448 709.298 129.957L719.839 119.416V134.331C719.839 140.721 725.045 145.927 731.435 145.927C737.825 145.927 743.031 140.721 743.031 134.331V119.416L753.571 129.957C758.085 134.472 765.437 134.472 769.962 129.957C772.085 127.847 773.292 124.857 773.292 121.749C773.292 118.642 772.073 115.652 769.962 113.553L759.434 103.035H774.324C780.714 103.035 785.92 97.8291 785.92 91.4386C785.92 85.0482 780.714 79.842 774.324 79.842H759.422L769.974 69.289C772.096 67.1784 773.304 64.1883 773.304 61.0811C773.304 57.9738 772.085 54.9838 769.962 52.8731C765.437 48.3822 758.085 48.3822 753.571 52.8848L743.031 63.4262V48.5347C743.031 42.1442 737.825 36.938 731.435 36.938C725.045 36.938 719.839 42.1442 719.839 48.5347V63.4379L709.287 52.8848C704.773 48.3822 697.421 48.3939 692.895 52.8848C690.785 55.0072 689.566 57.9972 689.566 61.0928C689.566 64.1883 690.773 67.1784 692.895 69.289L703.448 79.842H688.534C682.144 79.842 676.938 85.0482 676.938 91.4386C676.938 97.8291 682.144 103.035 688.534 103.035H703.413L692.895 113.553Z" fill="white"/>
<path d="M27.5245 315.972H38.0772L30.6097 308.504C29.9844 307.879 29.6278 306.985 29.6278 306.055C29.6278 305.124 29.9895 304.23 30.6097 303.605C31.9585 302.261 34.1548 302.261 35.5036 303.605L42.966 311.073V300.525C42.966 298.618 44.5164 297.062 46.4285 297.062C48.3406 297.062 49.8909 298.618 49.8909 300.525V311.073L57.3533 303.61C58.7021 302.266 60.8984 302.266 62.2473 303.61C62.8726 304.235 63.2292 305.13 63.2292 306.06C63.2292 306.99 62.8726 307.884 62.2473 308.51L54.7797 315.978H65.3325C67.2394 315.978 68.7949 317.533 68.7949 319.44C68.7949 321.347 67.2446 322.903 65.3325 322.903H54.79L62.2473 330.356C62.8726 330.981 63.2343 331.87 63.2343 332.805C63.2343 333.736 62.8726 334.63 62.2473 335.255C60.8984 336.604 58.7021 336.604 57.3533 335.255L49.8961 327.792V338.351C49.8961 340.258 48.3457 341.808 46.4336 341.808C44.5215 341.808 42.9712 340.258 42.9712 338.351V327.792L35.514 335.255C34.1652 336.599 31.9688 336.599 30.6149 335.255C29.3177 333.953 29.3126 331.668 30.6149 330.356L38.0669 322.903H27.5245C25.6175 322.903 24.062 321.353 24.062 319.44C24.062 317.528 25.6175 315.972 27.5245 315.972ZM30.9094 330.64C29.7622 331.792 29.7673 333.808 30.9094 334.95C32.098 336.134 34.0308 336.134 35.2194 334.95L43.3846 326.779V338.341C43.3846 340.02 44.7489 341.385 46.4336 341.385C48.1132 341.385 49.4827 340.02 49.4827 338.341V326.784L57.6531 334.955C58.8365 336.144 60.7744 336.144 61.963 334.955C62.5108 334.408 62.8261 333.622 62.8261 332.8C62.8261 331.978 62.5108 331.193 61.963 330.645L53.7978 322.484H65.3428C67.0224 322.484 68.3918 321.12 68.3918 319.435C68.3918 317.75 67.0275 316.386 65.3428 316.386H53.7875L61.963 308.21C62.5108 307.662 62.8261 306.876 62.8261 306.055C62.8261 305.233 62.5108 304.447 61.963 303.9C60.7744 302.716 58.8417 302.716 57.6531 303.9L49.4827 312.071V300.525C49.4827 298.845 48.1184 297.475 46.4336 297.475C44.7541 297.475 43.3846 298.845 43.3846 300.525V312.076L35.2142 303.9C34.0256 302.716 32.0929 302.716 30.9043 303.9C30.3565 304.447 30.0412 305.233 30.0412 306.06C30.0412 306.882 30.3565 307.667 30.9043 308.215L38.7284 316.035L39.0798 316.391H27.5245C25.8449 316.391 24.4754 317.761 24.4754 319.44C24.4754 321.12 25.8449 322.49 27.5245 322.49H39.0695L30.9094 330.64Z" fill="white"/>
<path d="M27.5244 318.035H43.059L32.067 307.047C31.5864 306.566 31.5864 305.548 32.0721 305.062C32.6148 304.52 33.5036 304.525 34.0514 305.067L45.0331 316.055V300.525C45.0331 299.755 45.6584 299.124 46.4284 299.124C47.1985 299.124 47.8289 299.755 47.8289 300.525V316.055L58.8106 305.062C59.3533 304.52 60.2421 304.525 60.7899 305.067C61.2654 305.548 61.2705 306.561 60.7848 307.047L49.7927 318.035H65.3273C66.0973 318.035 66.7226 318.665 66.7226 319.435C66.7226 320.205 66.0973 320.831 65.3273 320.831H49.7979L60.7796 331.808C61.2602 332.294 61.2602 333.307 60.7796 333.787C60.2318 334.33 59.3481 334.335 58.8003 333.787L47.8186 322.8V338.34C47.8186 339.11 47.1881 339.736 46.4181 339.736C45.6481 339.736 45.0228 339.11 45.0228 338.34V322.8L34.0411 333.787C33.4933 334.33 32.6044 334.33 32.0618 333.782C31.5864 333.301 31.5812 332.288 32.067 331.803L43.0435 320.831H27.5193C26.7492 320.831 26.1188 320.205 26.1188 319.435C26.1291 318.665 26.7544 318.035 27.5244 318.035ZM32.3719 332.102C32.0411 332.428 32.0411 333.172 32.3667 333.493C32.7491 333.88 33.3744 333.88 33.7569 333.498L45.4466 321.802V338.346C45.4466 338.888 45.8858 339.328 46.4284 339.328C46.9711 339.328 47.4103 338.888 47.4103 338.346V321.802L59.1 333.498C59.4825 333.88 60.1078 333.88 60.4902 333.498C60.8158 333.177 60.8209 332.433 60.4902 332.108L52.6764 324.304L48.8005 320.422H65.3273C65.8699 320.422 66.3092 319.983 66.3092 319.44C66.3092 318.898 65.8699 318.458 65.3273 318.458H48.7902L60.485 306.763C60.8106 306.437 60.8106 305.693 60.4902 305.372C60.1026 304.985 59.4773 304.985 59.0949 305.367L47.4052 317.063V300.53C47.4052 299.987 46.9607 299.548 46.4233 299.548C45.8807 299.548 45.4414 299.992 45.4414 300.53V317.063L33.7517 305.367C33.3641 304.985 32.744 304.98 32.3616 305.362C32.0308 305.688 32.036 306.432 32.3564 306.757L44.0564 318.453H27.5193C26.9766 318.453 26.5322 318.898 26.5322 319.435C26.5322 319.978 26.9766 320.417 27.5193 320.417H44.0461L32.3719 332.102Z" fill="white"/>
<path d="M27.5244 313.911H33.0954L29.1523 309.967C28.1446 308.959 27.5606 307.533 27.5606 306.06C27.5606 304.587 28.1394 303.161 29.1472 302.148C31.3021 300.003 34.8059 300.003 36.9558 302.142L40.8989 306.091V300.525C40.8989 297.476 43.3794 295 46.4233 295C49.4723 295 51.9477 297.481 51.9477 300.525V306.091L55.8856 302.153C58.0354 300.008 61.5393 300.008 63.6943 302.148C64.7072 303.161 65.2911 304.587 65.2911 306.06C65.2911 307.533 64.7123 308.959 63.7046 309.972L59.7615 313.916H65.3325C68.3815 313.916 70.8569 316.396 70.8569 319.44C70.8569 322.49 68.3763 324.965 65.3325 324.965H59.7719L63.7046 328.893C64.7175 329.901 65.2963 331.327 65.2963 332.8C65.2963 334.278 64.7175 335.705 63.7046 336.713C61.5496 338.863 58.0458 338.863 55.896 336.708L51.9581 332.769V338.341C51.9581 341.385 49.4775 343.865 46.4336 343.865C43.3898 343.865 40.9092 341.385 40.9092 338.341V332.769L36.9713 336.708C34.8163 338.852 31.3125 338.852 29.1575 336.713C28.1498 335.705 27.5709 334.278 27.5709 332.8C27.5709 331.327 28.1497 329.906 29.1523 328.893L33.0851 324.96H27.5244C24.4754 324.96 22 322.479 22 319.435C22 316.386 24.4806 313.911 27.5244 313.911ZM29.4469 329.183C28.5167 330.118 27.9844 331.436 27.9844 332.795C27.9844 334.165 28.5167 335.483 29.4521 336.413C31.4417 338.392 34.6871 338.392 36.6767 336.413L41.3226 331.767V338.341C41.3226 341.157 43.6171 343.452 46.4336 343.452C49.2501 343.452 51.5446 341.157 51.5446 338.341V331.767L56.1905 336.413C58.1802 338.403 61.4204 338.403 63.4152 336.413C64.3506 335.483 64.8829 334.165 64.8829 332.795C64.8829 331.426 64.3454 330.108 63.4152 329.183L58.7745 324.547H65.3376C68.1541 324.547 70.4487 322.252 70.4487 319.435C70.4487 316.619 68.1541 314.324 65.3376 314.324H58.7693L63.4204 309.673C64.3557 308.742 64.888 307.424 64.888 306.055C64.888 304.685 64.3506 303.367 63.4152 302.437C61.4204 300.458 58.1802 300.458 56.1905 302.442L51.5446 307.088V300.525C51.5446 297.708 49.2501 295.413 46.4336 295.413C43.6171 295.413 41.3226 297.708 41.3226 300.525V307.094L36.6715 302.442C34.6819 300.458 31.4417 300.463 29.4469 302.442C28.5167 303.378 27.9792 304.696 27.9792 306.06C27.9792 307.424 28.5115 308.742 29.4469 309.673L34.098 314.324H27.5244C24.708 314.324 22.4134 316.619 22.4134 319.435C22.4134 322.252 24.708 324.547 27.5244 324.547H34.0824L29.4469 329.183Z" fill="white"/>
<path d="M5.52448 52.9725H16.0772L8.60969 45.5044C7.98438 44.8791 7.6278 43.985 7.6278 43.0547C7.6278 42.1244 7.98954 41.2303 8.60969 40.605C9.95849 39.2612 12.1548 39.2612 13.5036 40.605L20.966 48.073V37.5247C20.966 35.6176 22.5164 34.062 24.4285 34.062C26.3406 34.062 27.8909 35.6176 27.8909 37.5247V48.073L35.3533 40.6101C36.7021 39.2664 38.8984 39.2664 40.2473 40.6101C40.8726 41.2355 41.2292 42.1296 41.2292 43.0599C41.2292 43.9901 40.8726 44.8843 40.2473 45.5096L32.7797 52.9777H43.3325C45.2394 52.9777 46.7949 54.5333 46.7949 56.4404C46.7949 58.3474 45.2446 59.9031 43.3325 59.9031H32.79L40.2473 67.3556C40.8726 67.981 41.2343 68.8699 41.2343 69.8054C41.2343 70.7357 40.8726 71.6298 40.2473 72.2551C38.8984 73.604 36.7021 73.604 35.3533 72.2551L27.8961 64.7922V75.3509C27.8961 77.2579 26.3457 78.8084 24.4336 78.8084C22.5215 78.8084 20.9712 77.2579 20.9712 75.3509V64.7922L13.514 72.2551C12.1652 73.5988 9.96884 73.5988 8.61486 72.2551C7.31773 70.9527 7.31256 68.6684 8.61486 67.3556L16.0669 59.9031H5.52448C3.61754 59.9031 2.06201 58.3526 2.06201 56.4404C2.06201 54.5281 3.61754 52.9725 5.52448 52.9725ZM8.90941 67.6399C7.76215 68.7924 7.76732 70.808 8.90941 71.9502C10.098 73.1337 12.0308 73.1337 13.2194 71.9502L21.3846 63.7792V75.3405C21.3846 77.0202 22.7489 78.3846 24.4336 78.3846C26.1132 78.3846 27.4827 77.0202 27.4827 75.3405V63.7844L35.6531 71.9553C36.8365 73.144 38.7744 73.144 39.963 71.9553C40.5108 71.4075 40.8261 70.622 40.8261 69.8002C40.8261 68.9785 40.5108 68.1929 39.963 67.645L31.7978 59.4844H43.3428C45.0224 59.4844 46.3918 58.1201 46.3918 56.4352C46.3918 54.7504 45.0275 53.386 43.3428 53.386H31.7875L39.963 45.2098C40.5108 44.662 40.8261 43.8765 40.8261 43.0547C40.8261 42.233 40.5108 41.4474 39.963 40.8996C38.7744 39.716 36.8417 39.716 35.6531 40.8996L27.4827 49.0705V37.5247C27.4827 35.8451 26.1184 34.4755 24.4336 34.4755C22.7541 34.4755 21.3846 35.8451 21.3846 37.5247V49.0757L13.2142 40.8996C12.0256 39.716 10.0929 39.716 8.90426 40.8996C8.35646 41.4474 8.04122 42.233 8.04122 43.0599C8.04122 43.8816 8.35646 44.6672 8.90426 45.215L16.7284 53.0345L17.0798 53.3911H5.52448C3.84493 53.3911 2.47545 54.7607 2.47545 56.4404C2.47545 58.12 3.84493 59.4896 5.52448 59.4896H17.0695L8.90941 67.6399Z" fill="white"/>
<path d="M5.52443 55.0345H21.059L10.067 44.0469C9.58637 43.5662 9.58636 42.5481 10.0721 42.0623C10.6148 41.5196 11.5036 41.5248 12.0514 42.0675L23.0331 53.0551V37.5246C23.0331 36.7545 23.6584 36.124 24.4284 36.124C25.1985 36.124 25.8289 36.7545 25.8289 37.5246V53.0551L36.8106 42.0623C37.3533 41.5196 38.2421 41.5248 38.7899 42.0675C39.2654 42.5481 39.2705 43.5611 38.7848 44.0469L27.7927 55.0345H43.3273C44.0973 55.0345 44.7226 55.6651 44.7226 56.4351C44.7226 57.2052 44.0973 57.8305 43.3273 57.8305H27.7979L38.7796 68.8078C39.2602 69.2936 39.2602 70.3066 38.7796 70.7872C38.2318 71.3299 37.3481 71.3351 36.8003 70.7872L25.8186 59.7996V75.3404C25.8186 76.1105 25.1881 76.7358 24.4181 76.7358C23.6481 76.7358 23.0228 76.1105 23.0228 75.3404V59.7996L12.0411 70.7872C11.4933 71.3299 10.6044 71.3299 10.0618 70.7821C9.58637 70.3014 9.5812 69.2885 10.067 68.8027L21.0435 57.8305H5.51926C4.74925 57.8305 4.11877 57.2052 4.11877 56.4351C4.12911 55.6651 4.75442 55.0345 5.52443 55.0345ZM10.3719 69.1024C10.0411 69.428 10.0411 70.1722 10.3667 70.4926C10.7491 70.8802 11.3744 70.8803 11.7569 70.4978L23.4466 58.8021V75.3456C23.4466 75.8883 23.8858 76.3276 24.4284 76.3276C24.9711 76.3276 25.4103 75.8883 25.4103 75.3456V58.8021L37.1 70.4978C37.4825 70.8803 38.1078 70.8803 38.4902 70.4978C38.8158 70.1774 38.8209 69.4332 38.4902 69.1076L30.6764 61.3036L26.8005 57.4222H43.3273C43.8699 57.4222 44.3092 56.9829 44.3092 56.4403C44.3092 55.8976 43.8699 55.4583 43.3273 55.4583H26.7902L38.485 43.7626C38.8106 43.437 38.8106 42.6928 38.4902 42.3724C38.1026 41.9848 37.4773 41.9848 37.0949 42.3672L25.4052 54.0629V37.5298C25.4052 36.9871 24.9607 36.5478 24.4233 36.5478C23.8807 36.5478 23.4414 36.9923 23.4414 37.5298V54.0629L11.7517 42.3672C11.3641 41.9848 10.744 41.9796 10.3616 42.362C10.0308 42.6876 10.036 43.4319 10.3564 43.7575L22.0564 55.4531H5.51926C4.97663 55.4531 4.5322 55.8976 4.5322 56.4351C4.5322 56.9778 4.97663 57.4171 5.51926 57.4171H22.0461L10.3719 69.1024Z" fill="white"/>
<path d="M5.52444 50.9105H11.0954L7.15231 46.9671C6.14458 45.9593 5.56062 44.5329 5.56062 43.06C5.56062 41.587 6.13942 40.1606 7.14715 39.1476C9.30215 37.0028 12.8059 37.0028 14.9558 39.1425L18.8989 43.091V37.5248C18.8989 34.4756 21.3794 32 24.4233 32C27.4723 32 29.9477 34.4807 29.9477 37.5248V43.091L33.8856 39.1528C36.0354 37.008 39.5393 37.008 41.6943 39.1476C42.7072 40.1606 43.2911 41.587 43.2911 43.06C43.2911 44.5329 42.7123 45.9594 41.7046 46.9723L37.7615 50.9157H43.3325C46.3815 50.9157 48.8569 53.3964 48.8569 56.4405C48.8569 59.4897 46.3763 61.9653 43.3325 61.9653H37.7719L41.7046 65.8932C42.7175 66.901 43.2963 68.3274 43.2963 69.8003C43.2963 71.2785 42.7175 72.7049 41.7046 73.7127C39.5496 75.8627 36.0458 75.8627 33.896 73.7075L29.9581 69.7693V75.3407C29.9581 78.3847 27.4775 80.8655 24.4336 80.8655C21.3898 80.8655 18.9092 78.3847 18.9092 75.3407V69.7693L14.9713 73.7075C12.8163 75.8523 9.31248 75.8523 7.15748 73.7127C6.14975 72.7049 5.57095 71.2785 5.57095 69.8003C5.57095 68.3274 6.14975 66.9061 7.15231 65.8932L11.0851 61.9601H5.52444C2.4754 61.9601 0 59.4794 0 56.4353C0 53.3861 2.48057 50.9105 5.52444 50.9105ZM7.44688 66.1826C6.51667 67.118 5.98439 68.4359 5.98439 69.7952C5.98439 71.1647 6.51667 72.4826 7.45205 73.4129C9.44168 75.3923 12.6871 75.3923 14.6767 73.4129L19.3226 68.7667V75.3407C19.3226 78.1573 21.6171 80.452 24.4336 80.452C27.2501 80.452 29.5446 78.1573 29.5446 75.3407V68.7667L34.1905 73.4129C36.1802 75.4027 39.4204 75.4027 41.4152 73.4129C42.3506 72.4826 42.8829 71.1647 42.8829 69.7952C42.8829 68.4256 42.3454 67.1077 41.4152 66.1826L36.7745 61.5467H43.3376C46.1541 61.5467 48.4487 59.252 48.4487 56.4353C48.4487 53.6187 46.1541 51.324 43.3376 51.324H36.7693L41.4204 46.6726C42.3557 45.7423 42.888 44.4244 42.888 43.0548C42.888 41.6852 42.3506 40.3673 41.4152 39.4371C39.4204 37.4576 36.1802 37.4576 34.1905 39.4422L29.5446 44.0885V37.5248C29.5446 34.7081 27.2501 32.4135 24.4336 32.4135C21.6171 32.4135 19.3226 34.7081 19.3226 37.5248V44.0936L14.6715 39.4422C12.6819 37.4576 9.44167 37.4628 7.44688 39.4422C6.51667 40.3777 5.97921 41.6956 5.97921 43.06C5.97921 44.4244 6.5115 45.7423 7.44688 46.6726L12.098 51.324H5.52444C2.70796 51.324 0.413438 53.6187 0.413438 56.4353C0.413438 59.252 2.70796 61.5467 5.52444 61.5467H12.0824L7.44688 66.1826Z" fill="white"/>
<g filter="url(#filter0_d)">
<path fill-rule="evenodd" clip-rule="evenodd" d="M1381.43 511.725C1282.73 541.294 1180.97 508.18 1093.37 453.929C993.357 391.989 879.795 316.164 875.829 198.592C871.871 81.2626 986.361 6.22251 1075.7 -69.9424C1164.23 -145.427 1256.49 -247.786 1370.13 -222.832C1482.19 -198.224 1525.33 -68.6318 1567.53 38.0581C1602.41 126.218 1614.82 219.86 1580.15 308.1C1543.66 400.969 1477.02 483.091 1381.43 511.725Z" fill="white"/>
</g>
<path d="M1202.07 456.134C1204.41 456.134 1206.62 454.728 1207.53 452.417L1221.85 415.997C1223.04 412.986 1221.56 409.589 1218.54 408.411C1215.53 407.226 1212.13 408.708 1210.95 411.719L1196.62 448.139C1195.44 451.151 1196.92 454.547 1199.93 455.726C1200.64 456.006 1201.36 456.134 1202.07 456.134Z" fill="#494949"/>
<path d="M1730.09 305.831C1730.09 305.831 1750.11 322.171 1786 296.074C1786 296.074 1745.47 262.175 1730.09 284.123C1714.71 306.071 1730.09 305.831 1730.09 305.831Z" fill="#FFA436"/>
<path d="M1728.4 303.404C1728.4 303.404 1740.63 313.383 1762.55 297.446C1762.55 297.446 1737.79 276.735 1728.4 290.146C1719.01 303.556 1728.4 303.404 1728.4 303.404Z" fill="#FF645A"/>
<path d="M1600.2 293.881C1600.2 293.881 1582.14 220.72 1493.26 220.72C1404.39 220.72 1375.58 275.831 1375.58 275.831L1446.38 348.508L1545.02 357.285H1595.8L1600.2 293.881Z" fill="#494949"/>
<path d="M1505.38 229.823C1505.38 229.823 1541.85 213.892 1555.85 229.175C1569.84 244.459 1562.68 265.916 1562.68 265.916" stroke="#FF645A" stroke-width="40.118" stroke-miterlimit="10"/>
<path d="M1431.41 224.787C1431.41 224.787 1394.13 264.458 1365.82 235.682" stroke="#FF645A" stroke-width="40.118" stroke-miterlimit="10"/>
<path d="M1432 216.716C1432 216.716 1376.58 264.469 1367.69 346.454C1367.69 346.454 1420.16 403.929 1543.7 360.401C1543.7 360.401 1546.66 307.997 1500.12 222.208L1432 216.716Z" fill="#FF645A"/>
<path d="M1480.66 199.39C1506.05 199.39 1517.47 215.87 1512.82 233.622C1508.16 251.374 1453.58 263.629 1443.43 285.18C1433.27 306.731 1418.04 349.418 1420.58 359.561C1423.12 369.703 1509 368.437 1544.97 351.111C1544.97 351.111 1552.16 365.904 1546.23 373.934C1540.31 381.964 1424.38 428.87 1363.88 357.028C1363.88 357.028 1357.96 342.661 1368.54 335.897C1368.54 335.897 1400.65 365.046 1405.35 356.608C1407.46 352.803 1422.27 291.103 1432 271.239C1432 271.239 1395.19 208.692 1445.96 197.284L1480.66 199.39Z" fill="#EEF0F1"/>
<path d="M1512.28 220.089C1515.16 230.295 1511.09 241.552 1503.92 249.372C1496.75 257.192 1486.89 262.029 1476.87 265.537C1468.49 268.472 1459.17 271.057 1453.99 278.27" stroke="#EEF0F1" stroke-width="2.1725" stroke-miterlimit="10" stroke-linecap="round" stroke-linejoin="round"/>
<path d="M1472.47 330.978C1508.86 330.978 1537.41 324.564 1539.69 323.951L1536.93 312.543C1535.93 312.811 1436.93 338.616 1380.42 294.266L1376.77 303.935C1405.13 326.192 1440.39 330.978 1472.47 330.978Z" fill="#494949"/>
<path d="M1408.92 325.282L1431.56 331.491L1436.26 314.376L1413.62 308.167L1408.92 325.282ZM1428.01 325.265L1415.16 321.74L1417.17 314.405L1430.02 317.93L1428.01 325.265Z" fill="#FFA436"/>
<path d="M1450.3 290.245C1449.08 290.245 1448.08 289.252 1448.08 288.028C1448.08 286.803 1449.08 285.81 1450.3 285.81C1451.53 285.81 1452.52 286.803 1452.52 288.028C1452.52 289.252 1451.53 290.245 1450.3 290.245Z" fill="#494949"/>
<path d="M1444.59 306.095C1443.37 306.095 1442.37 305.102 1442.37 303.877C1442.37 302.652 1443.37 301.66 1444.59 301.66C1445.82 301.66 1446.82 302.652 1446.82 303.877C1446.82 305.102 1445.82 306.095 1444.59 306.095Z" fill="#494949"/>
<path d="M1429.36 341.593C1429.36 340.367 1430.36 339.375 1431.58 339.375C1432.81 339.375 1433.8 340.367 1433.8 341.593C1433.8 342.818 1432.81 343.81 1431.58 343.81C1430.36 343.816 1429.36 342.818 1429.36 341.593Z" fill="#494949"/>
<path d="M1467.8 162.24C1474.84 155.156 1485.3 151.625 1495.21 152.997C1499.38 153.575 1503.6 154.963 1507.7 154.047C1511.53 153.195 1514.73 150.435 1518.58 149.741C1526.65 148.282 1534.47 156.236 1542.39 154.088C1543.14 154.829 1542.93 156.16 1542.22 156.936C1541.5 157.706 1540.44 158.045 1539.42 158.301C1536.54 159.025 1533.55 159.34 1530.58 159.229C1527.78 159.124 1524.79 158.681 1522.32 160C1518.45 162.06 1517.8 167.166 1516.21 171.245C1513.45 178.283 1506.38 183.424 1498.84 183.908C1495.88 179.928 1492.93 175.948 1489.97 171.968C1487.42 168.531 1484.83 165.024 1483.48 160.968C1482.7 158.652 1481.35 155.535 1478.98 156.131" fill="#FF645A"/>
<path d="M1453.22 191.728C1454.81 188.495 1455.06 185.373 1451.83 183.792C1448.6 182.204 1444.69 183.541 1443.11 186.774C1441.52 190.006 1442.85 193.911 1446.09 195.492C1449.33 197.073 1451.63 194.961 1453.22 191.728Z" fill="#FF645A"/>
<path d="M1450.64 179.771C1450.64 179.771 1446.17 197.366 1443.37 201.392C1414.16 243.455 1407.44 269.517 1417.32 282.157C1427.21 294.797 1479.4 289.265 1496.8 192.901C1496.8 192.907 1477.62 161.115 1450.64 179.771Z" fill="white"/>
<path d="M1453.5 177.104C1453.5 177.104 1440.84 208.109 1459.63 212.054C1478.41 216.004 1483.75 207.117 1491.66 183.617C1491.66 183.623 1479.2 159.335 1453.5 177.104Z" fill="#FCA19F"/>
<path d="M1475.29 208.575C1471.83 208.575 1469.02 205.774 1469.02 202.319C1469.02 198.864 1471.83 196.063 1475.29 196.063C1478.74 196.063 1481.55 198.864 1481.55 202.319C1481.55 205.774 1478.74 208.575 1475.29 208.575Z" fill="#FF645A"/>
<path d="M1458.42 196.198C1458.42 199.652 1455.61 202.453 1452.16 202.453C1451.34 202.453 1450.57 202.284 1449.85 202.004C1449.06 198.357 1449.27 194.225 1449.88 190.38C1450.58 190.105 1451.35 189.936 1452.16 189.936C1455.61 189.942 1458.42 192.743 1458.42 196.198Z" fill="#FF645A"/>
<path d="M1488 210.874C1488 210.874 1479.6 217.194 1471.89 213.839C1464.17 210.483 1462.79 203.376 1464.07 201.497C1465.36 199.623 1470.3 199.326 1472.97 201.298C1475.64 203.271 1479 211.073 1488 210.874Z" fill="#EEF0F1"/>
<path d="M1437.51 195.498C1437.51 195.498 1440.2 205.652 1448.33 207.782C1456.47 209.906 1461.96 205.179 1462.11 202.909C1462.26 200.639 1458.56 197.353 1455.24 197.26C1451.93 197.155 1444.46 201.211 1437.51 195.498Z" fill="#EEF0F1"/>
<path d="M1490.94 200.219C1491.82 196.729 1493.64 194.179 1497.13 195.054C1500.62 195.935 1502.74 199.478 1501.86 202.967C1500.98 206.457 1497.43 208.575 1493.94 207.694C1490.45 206.813 1490.05 203.708 1490.94 200.219Z" fill="#FF645A"/>
<path d="M1458.34 171.625C1458.34 171.625 1468.43 152.221 1488.89 154.888C1509.35 157.555 1501.19 181.989 1501.19 181.989L1499.12 185.397C1499.12 185.402 1473.02 168.222 1458.34 171.625Z" fill="#FF645A"/>
<path d="M1496.8 192.907C1496.8 192.907 1501.79 188.658 1499.12 185.402C1496.45 182.146 1480.53 167.428 1458.65 170.294C1449.6 171.478 1449.01 177.553 1450.05 179.771C1450.05 179.771 1459.53 176.514 1471.25 178.732C1482.96 180.955 1493.44 192.556 1496.8 192.907Z" fill="#EEF0F1"/>
<path d="M1546.41 163.396C1541.91 163.396 1538.25 159.749 1538.25 155.25C1538.25 150.75 1541.91 147.103 1546.41 147.103C1550.91 147.103 1554.57 150.75 1554.57 155.25C1554.57 159.749 1550.91 163.396 1546.41 163.396Z" fill="#EEF0F1"/>
<path d="M1466.8 190.14C1464.88 189.142 1454.49 202.325 1461.46 204.729C1469.39 207.466 1468.5 191.027 1466.8 190.14Z" fill="#FF645A"/>
<path d="M1482.65 190.193C1481.24 191.734 1477.96 189.534 1476.43 189.137C1475.24 188.828 1473.66 188.087 1473.64 186.628C1473.64 185.752 1474.38 185.017 1475.21 184.743C1477.44 184.008 1480.51 184.924 1482.09 186.593C1482.54 187.065 1482.91 187.62 1483.07 188.25C1483.22 188.88 1483.13 189.586 1482.73 190.094C1482.7 190.129 1482.68 190.164 1482.65 190.193Z" fill="white"/>
<path d="M1453.25 183.313C1454.01 185.256 1457.87 184.375 1459.43 184.55C1460.66 184.684 1462.4 184.561 1462.94 183.207C1463.26 182.396 1462.83 181.439 1462.15 180.885C1460.33 179.397 1457.14 179.158 1455.06 180.15C1454.48 180.43 1453.93 180.815 1453.56 181.346C1453.2 181.877 1453.03 182.571 1453.21 183.19C1453.22 183.237 1453.24 183.277 1453.25 183.313Z" fill="white"/>
<path d="M1499.1 177.431C1500.8 181.282 1500.14 183.949 1500.14 183.949C1500.14 183.949 1502.95 182.123 1503.3 180.343" stroke="#494949" stroke-width="1.0151" stroke-miterlimit="10" stroke-linecap="round" stroke-linejoin="round"/>
<path d="M1453.79 211.715C1450.82 218.094 1442.14 220.066 1438.82 226.275C1436.63 230.401 1437.29 235.525 1435.42 239.808C1433.55 244.068 1429.38 247.05 1427.79 251.421C1426.43 255.167 1427.18 259.334 1426.57 263.273C1426.05 266.64 1424.53 269.762 1423.6 273.036C1422.68 276.316 1422.42 280.056 1424.25 282.927" stroke="#EEF0F1" stroke-width="2.0303" stroke-miterlimit="10" stroke-linecap="round" stroke-linejoin="round"/>
<path d="M1457.04 216.477C1455.4 223.007 1447.7 226.561 1445.85 233.032C1444.95 236.148 1445.55 239.556 1444.55 242.643C1443.18 246.915 1439 249.78 1437.39 253.97C1436.4 256.556 1436.47 259.409 1436.08 262.146C1435.39 266.961 1433.21 271.553 1429.91 275.125" stroke="#EEF0F1" stroke-width="2.0303" stroke-miterlimit="10" stroke-linecap="round" stroke-linejoin="round"/>
<path d="M1466.3 217.633C1468.22 220.195 1467.28 223.883 1465.73 226.69C1464.18 229.497 1462.06 232.164 1461.77 235.35C1461.37 239.551 1464.25 243.794 1462.95 247.809C1461.8 251.374 1457.72 253.405 1456.65 257C1456.14 258.745 1456.42 260.612 1456.28 262.427C1455.96 266.506 1453.5 270.171 1450.38 272.826C1447.26 275.475 1443.51 277.255 1439.81 279.006" stroke="#EEF0F1" stroke-width="2.0303" stroke-miterlimit="10" stroke-linecap="round" stroke-linejoin="round"/>
<path opacity="0.5" d="M1448.1 190.276C1447.71 186.349 1450.59 182.858 1454.52 182.477C1458.45 182.096 1461.95 184.971 1462.33 188.897C1462.71 192.823 1459.83 196.315 1455.9 196.696C1451.97 197.076 1448.48 194.202 1448.1 190.276Z" fill="white"/>
<path d="M1454.71 197.12C1458.87 197.394 1462.49 194.232 1462.77 190.071C1463.04 185.91 1459.87 182.298 1455.71 182.023C1451.54 181.749 1447.93 184.912 1447.65 189.073C1447.38 193.239 1450.54 196.846 1454.71 197.12ZM1455.66 182.87C1459.36 183.115 1462.17 186.324 1461.92 190.018C1461.68 193.712 1458.47 196.525 1454.77 196.28C1451.06 196.035 1448.25 192.825 1448.5 189.131C1448.74 185.431 1451.96 182.624 1455.66 182.87Z" fill="#494949"/>
<path opacity="0.5" d="M1473.54 201.404C1469.88 199.921 1468.12 195.755 1469.6 192.1C1471.09 188.445 1475.26 186.684 1478.92 188.167C1482.58 189.651 1484.34 193.816 1482.85 197.472C1481.37 201.127 1477.2 202.888 1473.54 201.404Z" fill="white"/>
<path d="M1475.72 202.319C1479.89 202.594 1483.51 199.431 1483.78 195.27C1484.05 191.109 1480.89 187.497 1476.72 187.223C1472.56 186.948 1468.94 190.111 1468.67 194.272C1468.39 198.433 1471.56 202.045 1475.72 202.319ZM1476.67 188.069C1480.37 188.314 1483.18 191.523 1482.94 195.217C1482.69 198.911 1479.48 201.724 1475.78 201.479C1472.08 201.234 1469.27 198.024 1469.51 194.33C1469.76 190.631 1472.97 187.824 1476.67 188.069Z" fill="#494949"/>
<path d="M1462.16 190.829C1462.16 190.829 1467.32 187.433 1469.34 193.21" stroke="#494949" stroke-width="1.447" stroke-miterlimit="10"/>
<path d="M1365.17 253.813C1368.11 251.677 1378.11 238.407 1378.21 228.165C1378.21 228.165 1367.41 216.412 1363.16 218.356C1358.92 220.299 1345.12 239.714 1347.21 243.104C1349.29 246.489 1362.95 255.429 1365.17 253.813Z" fill="#EEF0F1"/>
<path d="M1562.87 328.607L1501.79 338.026L1492.36 277.025L1553.44 267.606L1562.87 328.607Z" fill="#EEF0F1"/>
<path d="M1553.29 267.679L1554.82 277.535L1543.87 269.132L1553.29 267.679Z" fill="#494949"/>
<path d="M1492.22 277.092L1502.5 275.511L1561.5 320.807L1562.72 328.679L1559.61 329.158L1492.27 277.466L1492.22 277.092Z" fill="#494949"/>
<path d="M1517.41 273.211L1528.05 271.571L1557.37 294.085L1559.09 305.202L1517.41 273.211Z" fill="#494949"/>
<path d="M1500.34 329.659L1498.62 318.537L1520.35 335.215L1509.71 336.855L1500.34 329.659Z" fill="#494949"/>
<path d="M1496.31 303.562L1494.59 292.439L1545.29 331.369L1534.67 333.009L1496.31 303.562Z" fill="#494949"/>
<path d="M1523.41 271.53C1523.91 265.432 1525.22 259.398 1527.29 253.638C1528.98 248.94 1532.24 243.718 1537.24 243.799C1538.04 243.811 1538.88 243.992 1539.49 244.523C1540.59 245.474 1540.58 247.166 1540.37 248.602C1538.92 258.523 1531.92 267.445 1522.62 271.221C1520.15 264.411 1515.35 258.47 1509.19 254.642C1506.57 253.008 1503.55 251.724 1500.47 252.004C1497.39 252.29 1494.34 254.56 1494.03 257.636C1493.68 261.166 1496.8 264.031 1499.82 265.881C1505.44 269.313 1511.81 271.501 1518.35 272.23C1519.99 272.411 1521.71 272.499 1523.25 271.892C1525.68 270.941 1527.22 268.466 1529.58 267.346C1534.25 265.134 1539.66 269.231 1541.86 273.899C1544.06 278.568 1544.54 283.978 1547.26 288.366C1547.72 289.101 1548.28 289.831 1549.08 290.157C1550.74 290.829 1552.47 289.504 1553.86 288.372C1558.42 284.672 1564.42 282.069 1570.11 283.482" stroke="#FFA436" stroke-width="3.3432" stroke-miterlimit="10" stroke-linecap="round" stroke-linejoin="round"/>
<path d="M1530.81 332.209L1522.63 271.215" stroke="#FFA436" stroke-width="3.3432" stroke-miterlimit="10" stroke-linecap="round" stroke-linejoin="round"/>
<path d="M1496.04 305.762L1558.5 297.866" stroke="#FFA436" stroke-width="3.3432" stroke-miterlimit="10" stroke-linecap="round" stroke-linejoin="round"/>
<path d="M1524.35 355.648L1482.69 352.779L1485.57 311.172L1527.22 314.041L1524.35 355.648Z" fill="#FFA436"/>
<path d="M1506.85 312.146C1508.08 308.202 1509.84 304.42 1512.07 300.93C1513.88 298.088 1516.81 295.124 1520.09 295.923C1520.62 296.052 1521.15 296.297 1521.47 296.735C1522.05 297.522 1521.8 298.637 1521.44 299.553C1519.01 305.873 1513.06 310.717 1506.37 311.82C1505.76 306.964 1503.47 302.337 1499.99 298.894C1498.51 297.429 1496.71 296.134 1494.63 295.859C1492.56 295.591 1490.21 296.635 1489.55 298.614C1488.79 300.89 1490.42 303.241 1492.14 304.91C1495.33 308.009 1499.2 310.396 1503.4 311.849C1504.46 312.217 1505.58 312.526 1506.68 312.357C1508.42 312.088 1509.81 310.688 1511.53 310.302C1514.94 309.538 1517.89 313.039 1518.65 316.447C1519.41 319.85 1518.92 323.491 1520.06 326.788C1520.25 327.342 1520.51 327.909 1520.99 328.241C1521.98 328.93 1523.33 328.317 1524.41 327.774C1527.96 326.012 1532.3 325.189 1535.85 326.963" stroke="#494949" stroke-width="2.647" stroke-miterlimit="10" stroke-linecap="round" stroke-linejoin="round"/>
<path d="M1502.69 353.235L1506.38 311.819" stroke="#494949" stroke-width="2.647" stroke-miterlimit="10" stroke-linecap="round" stroke-linejoin="round"/>
<path d="M1483.7 330.639L1526.05 334.718" stroke="#494949" stroke-width="2.647" stroke-miterlimit="10" stroke-linecap="round" stroke-linejoin="round"/>
<path d="M1762.45 176.957L1720.8 174.087L1723.67 132.48L1765.32 135.35L1762.45 176.957Z" fill="#FFA436"/>
<path d="M1744.95 133.455C1746.19 129.51 1747.95 125.729 1750.17 122.239C1751.98 119.397 1754.92 116.433 1758.19 117.232C1758.72 117.36 1759.25 117.606 1759.57 118.043C1760.16 118.831 1759.9 119.946 1759.54 120.862C1757.11 127.182 1751.16 132.025 1744.48 133.128C1743.87 128.273 1741.58 123.645 1738.1 120.202C1736.61 118.738 1734.81 117.442 1732.74 117.168C1730.66 116.899 1728.32 117.944 1727.65 119.922C1726.9 122.198 1728.53 124.55 1730.24 126.219C1733.43 129.318 1737.31 131.704 1741.51 133.157C1742.56 133.525 1743.68 133.834 1744.78 133.665C1746.53 133.397 1747.91 131.996 1749.63 131.611C1753.04 130.847 1756 134.348 1756.76 137.756C1757.52 141.158 1757.02 144.8 1758.16 148.097C1758.36 148.651 1758.61 149.217 1759.09 149.55C1760.09 150.238 1761.43 149.626 1762.51 149.083C1766.06 147.321 1770.4 146.498 1773.95 148.272" stroke="#494949" stroke-width="2.647" stroke-miterlimit="10" stroke-linecap="round" stroke-linejoin="round"/>
<path d="M1740.79 174.543L1744.48 133.128" stroke="#494949" stroke-width="2.647" stroke-miterlimit="10" stroke-linecap="round" stroke-linejoin="round"/>
<path d="M1721.81 151.948L1764.15 156.027" stroke="#494949" stroke-width="2.647" stroke-miterlimit="10" stroke-linecap="round" stroke-linejoin="round"/>
<path d="M100.409 124.483L78.1357 137.002L65.6341 114.753L87.9075 102.233L100.409 124.483Z" fill="#FFA436"/>
<path d="M76.8479 108.106C76.1568 105.672 75.7867 103.146 75.7536 100.614C75.7259 98.5517 76.2308 96.0503 78.176 95.3588C78.4911 95.2459 78.8424 95.1947 79.1537 95.3107C79.7172 95.5176 79.9599 96.1741 80.0852 96.7625C80.9641 100.812 79.5479 105.287 76.496 108.097C74.5548 105.817 71.8293 104.219 68.8918 103.627C67.6408 103.376 66.2853 103.317 65.1321 103.874C63.981 104.433 63.1302 105.756 63.4567 106.989C63.8324 108.409 65.456 109.065 66.8951 109.342C69.5676 109.856 72.3506 109.776 74.9875 109.109C75.6519 108.942 76.3266 108.725 76.8347 108.268C77.6352 107.546 77.8733 106.365 78.6257 105.589C80.1115 104.054 82.7995 104.852 84.3324 106.341C85.8634 107.826 86.8351 109.854 88.5251 111.158C88.8099 111.377 89.1314 111.58 89.4882 111.59C90.2275 111.608 90.7092 110.844 91.0799 110.203C92.3053 108.109 94.2497 106.23 96.6597 105.947" stroke="#494949" stroke-width="2.647" stroke-miterlimit="10" stroke-linecap="round" stroke-linejoin="round"/>
<path d="M88.5165 130.522L76.4985 108.095" stroke="#494949" stroke-width="2.647" stroke-miterlimit="10" stroke-linecap="round" stroke-linejoin="round"/>
<path d="M71.2188 125.337L94.2515 113.204" stroke="#494949" stroke-width="2.647" stroke-miterlimit="10" stroke-linecap="round" stroke-linejoin="round"/>
<path d="M1580.49 354.762L1531.4 355.738L1530.43 306.711L1579.51 305.736L1580.49 354.762Z" fill="white"/>
<path d="M1555.45 305.651C1556.49 300.901 1558.15 296.291 1560.4 291.972C1562.23 288.454 1565.34 284.684 1569.27 285.273C1569.9 285.367 1570.55 285.6 1570.97 286.078C1571.74 286.942 1571.55 288.273 1571.23 289.381C1569.04 297.038 1562.59 303.329 1554.87 305.319C1553.65 299.693 1550.49 294.511 1546.05 290.846C1544.15 289.282 1541.91 287.952 1539.46 287.853C1537 287.753 1534.36 289.218 1533.8 291.605C1533.15 294.348 1535.3 296.933 1537.48 298.713C1541.54 302.01 1546.33 304.397 1551.4 305.663C1552.67 305.978 1554.02 306.229 1555.29 305.914C1557.31 305.418 1558.78 303.632 1560.76 303.002C1569.22 300.3 1569.16 316.418 1574.2 320.112C1576.56 321.833 1579.66 322.277 1582.56 321.892C1585.45 321.507 1588.18 320.369 1590.85 319.178" stroke="#FF645A" stroke-width="3.9309" stroke-miterlimit="10" stroke-linecap="round" stroke-linejoin="round"/>
<path d="M1554.86 354.209L1554.87 305.318" stroke="#FF645A" stroke-width="3.9309" stroke-miterlimit="10" stroke-linecap="round" stroke-linejoin="round"/>
<path d="M1530.28 329.716L1580.3 330.084" stroke="#FF645A" stroke-width="3.9309" stroke-miterlimit="10" stroke-linecap="round" stroke-linejoin="round"/>
<path d="M1634.39 284.072L1608.22 270.925L1621.38 244.792L1647.55 257.939L1634.39 284.072Z" fill="#FF645A"/>
<path d="M1634.88 251.193C1636.76 248.975 1638.92 247.009 1641.31 245.352C1643.25 244.003 1645.95 242.883 1647.86 244.289C1648.17 244.517 1648.44 244.815 1648.53 245.188C1648.69 245.859 1648.22 246.507 1647.75 247.003C1644.46 250.434 1639.3 251.952 1634.67 250.854C1635.59 247.552 1635.38 243.933 1634.06 240.765C1633.5 239.411 1632.68 238.086 1631.42 237.351C1630.15 236.616 1628.35 236.651 1627.38 237.754C1626.27 239.02 1626.68 240.981 1627.34 242.527C1628.57 245.392 1630.42 247.989 1632.75 250.067C1633.33 250.592 1633.97 251.094 1634.73 251.281C1635.93 251.578 1637.21 251.047 1638.43 251.269C1643.64 252.203 1639.12 260.682 1640.75 264.037C1641.51 265.601 1643.03 266.698 1644.66 267.299C1646.29 267.9 1648.05 268.064 1649.79 268.175" stroke="#494949" stroke-width="1.6716" stroke-miterlimit="10" stroke-linecap="round" stroke-linejoin="round"/>
<path d="M1621.03 276.643L1634.67 250.861" stroke="#494949" stroke-width="1.6716" stroke-miterlimit="10" stroke-linecap="round" stroke-linejoin="round"/>
<path d="M1614.89 256.883L1641.17 270.999" stroke="#494949" stroke-width="1.6716" stroke-miterlimit="10" stroke-linecap="round" stroke-linejoin="round"/>
<path d="M1691.95 226.407L1676.82 235.104L1668.11 219.984L1683.25 211.287L1691.95 226.407Z" fill="#FF645A"/>
<path d="M1675.73 215.374C1675.24 213.717 1674.97 211.989 1674.93 210.262C1674.9 208.85 1675.22 207.14 1676.55 206.655C1676.76 206.58 1677 206.539 1677.21 206.615C1677.6 206.755 1677.77 207.198 1677.86 207.601C1678.49 210.361 1677.56 213.431 1675.49 215.368C1674.15 213.822 1672.27 212.748 1670.26 212.363C1669.4 212.199 1668.47 212.164 1667.69 212.555C1666.91 212.946 1666.34 213.851 1666.57 214.697C1666.84 215.666 1667.95 216.103 1668.94 216.284C1670.76 216.617 1672.67 216.547 1674.47 216.074C1674.92 215.957 1675.38 215.8 1675.72 215.485C1676.27 214.989 1676.42 214.178 1676.93 213.641C1679.11 211.353 1681.85 216.389 1684.05 216.675C1685.08 216.809 1686.12 216.418 1686.96 215.8C1687.8 215.187 1688.46 214.364 1689.08 213.536" stroke="#EEF0F1" stroke-width="1.6716" stroke-miterlimit="10" stroke-linecap="round" stroke-linejoin="round"/>
<path d="M1683.87 230.617L1675.49 215.368" stroke="#EEF0F1" stroke-width="1.6716" stroke-miterlimit="10" stroke-linecap="round" stroke-linejoin="round"/>
<path d="M1672.01 227.179L1687.67 218.741" stroke="#EEF0F1" stroke-width="1.6716" stroke-miterlimit="10" stroke-linecap="round" stroke-linejoin="round"/>
<path d="M176.52 378.448L133.654 403.077L108.996 360.26L151.863 335.631L176.52 378.448Z" fill="#FF645A"/>
<path d="M130.582 347.204C129.192 342.51 128.431 337.619 128.315 332.727C128.216 328.728 129.142 323.885 132.898 322.514C133.51 322.299 134.188 322.183 134.784 322.398C135.876 322.795 136.356 324.051 136.62 325.191C138.407 333.008 135.76 341.701 129.903 347.187C126.098 342.808 120.787 339.767 115.095 338.676C112.663 338.214 110.032 338.114 107.815 339.222C105.598 340.329 103.977 342.891 104.639 345.287C105.4 348.03 108.543 349.27 111.339 349.782C116.518 350.724 121.912 350.526 127.008 349.187C128.282 348.856 129.589 348.41 130.565 347.518C132.104 346.113 132.534 343.816 133.973 342.296C140.145 335.817 147.904 350.079 154.142 350.889C157.054 351.269 160.015 350.162 162.381 348.41C164.747 346.675 166.617 344.345 168.387 341.998" stroke="#EEF0F1" stroke-width="1.6716" stroke-miterlimit="10" stroke-linecap="round" stroke-linejoin="round"/>
<path d="M153.628 390.37L129.903 347.188" stroke="#EEF0F1" stroke-width="1.6716" stroke-miterlimit="10" stroke-linecap="round" stroke-linejoin="round"/>
<path d="M120.042 380.636L164.383 356.739" stroke="#EEF0F1" stroke-width="1.6716" stroke-miterlimit="10" stroke-linecap="round" stroke-linejoin="round"/>
<path d="M247.158 274.106L216.47 265.814L224.726 235.136L255.414 243.428L247.158 274.106Z" fill="#FF645A"/>
<path d="M240.476 239.014C241.978 236.248 243.856 233.678 246.028 231.401C247.801 229.538 250.424 227.757 252.755 228.841C253.131 229.022 253.492 229.278 253.665 229.646C253.981 230.323 253.628 231.112 253.23 231.751C250.489 236.118 245.333 238.866 240.175 238.698C240.436 234.977 239.404 231.179 237.312 228.096C236.417 226.78 235.266 225.538 233.754 225.034C232.243 224.529 230.341 224.957 229.553 226.347C228.651 227.94 229.517 229.933 230.555 231.437C232.482 234.22 235.024 236.582 237.95 238.291C238.679 238.72 239.476 239.111 240.326 239.149C241.664 239.21 242.904 238.361 244.25 238.324C250.001 238.185 247.045 248.197 249.513 251.402C250.664 252.898 252.514 253.741 254.386 254.021C256.251 254.307 258.16 254.098 260.032 253.836" stroke="#EEF0F1" stroke-width="1.6716" stroke-miterlimit="10" stroke-linecap="round" stroke-linejoin="round"/>
<path d="M231.329 269.118L240.175 238.698" stroke="#EEF0F1" stroke-width="1.6716" stroke-miterlimit="10" stroke-linecap="round" stroke-linejoin="round"/>
<path d="M220.484 249.422L251.509 258.717" stroke="#EEF0F1" stroke-width="1.6716" stroke-miterlimit="10" stroke-linecap="round" stroke-linejoin="round"/>
<path d="M1369.36 298.881C1389.28 298.881 1405.49 282.693 1405.49 262.788C1405.49 242.889 1389.29 226.695 1369.36 226.695C1349.43 226.695 1333.22 242.883 1333.22 262.788C1333.22 282.688 1349.43 298.881 1369.36 298.881ZM1369.36 236.446C1383.9 236.446 1395.72 248.263 1395.72 262.782C1395.72 277.307 1383.89 289.118 1369.36 289.118C1354.82 289.118 1342.99 277.301 1342.99 262.782C1342.98 248.263 1354.82 236.446 1369.36 236.446Z" fill="#494949"/>
<path d="M1702.74 410.937H1160.73C1160.73 410.937 1178.31 363.138 1254.48 303.638C1330.65 244.132 1358.98 223.649 1452.73 345.584H1582.62L1600.2 293.886C1600.2 293.886 1682.23 331.929 1703.72 365.098C1703.72 365.087 1710.55 387.525 1702.74 410.937Z" fill="#FF645A"/>
<path d="M1454.36 345.579C1454.36 345.579 1474.86 369.475 1470.47 410.447" stroke="#494949" stroke-width="3.3432" stroke-miterlimit="10" stroke-linecap="round" stroke-linejoin="round"/>
<path d="M1563.09 345.579C1563.09 345.579 1583.6 369.475 1579.2 410.447" stroke="#494949" stroke-width="3.3432" stroke-miterlimit="10" stroke-linecap="round" stroke-linejoin="round"/>
<path d="M1470.96 361.836H1485.94C1487.37 361.836 1488.54 360.663 1488.54 359.234C1488.54 357.804 1487.37 356.631 1485.94 356.631H1470.96C1469.53 356.631 1468.36 357.804 1468.36 359.234C1468.36 360.669 1469.53 361.836 1470.96 361.836Z" fill="#494949"/>
<path d="M1325.12 257.787C1325.12 257.787 1194.34 329.431 1161.71 344.93C1158.86 346.284 1140.87 357.611 1151.29 386.877L1161.38 411.591L1397.39 404.763L1425.39 358.592L1325.12 257.787Z" fill="#FF645A"/>
<path d="M1632.43 358.259H1682.23C1688.71 358.259 1693.95 353.018 1693.95 346.553V307.536H1730.09V284.123H1682.23C1675.76 284.123 1670.51 289.363 1670.51 295.829V334.846H1632.43V358.259Z" fill="#EEF0F1"/>
<path d="M1168.22 460.686H1663.03C1666.8 460.686 1669.87 457.628 1669.87 453.858C1669.87 450.088 1666.8 447.03 1663.03 447.03H1168.22C1147.42 447.03 1131.4 441.206 1120.59 429.716C1108.82 417.199 1106.34 401.343 1106.34 390.25C1106.34 355.487 1130.42 318.273 1166.26 318.273C1170.03 318.273 1173.09 315.215 1173.09 311.445C1173.09 307.676 1170.03 304.618 1166.26 304.618C1122.24 304.618 1092.66 348.898 1092.66 390.255C1092.66 409.431 1099.04 426.769 1110.62 439.076C1123.93 453.21 1143.85 460.686 1168.22 460.686Z" fill="#494949"/>
<path d="M1204.19 409.963L1196.53 365.023C1195 356.001 1201.88 347.738 1211.04 347.597L1289.68 346.425C1297.13 346.314 1303.52 351.7 1304.66 359.053L1312.6 409.963H1204.19Z" fill="#EEF0F1"/>
<path d="M1327.24 253.883C1327.24 253.883 1392.83 253.883 1452.73 345.578H1582.62L1600.2 293.881" stroke="#EEF0F1" stroke-width="16.7158" stroke-miterlimit="10" stroke-linecap="round" stroke-linejoin="round"/>
<path d="M1550.59 282.618C1550.23 283.481 1549.98 284.713 1550.81 285.15C1551.43 285.477 1552.18 285.045 1552.73 284.614C1554.54 283.184 1556.15 281.515 1557.52 279.659C1558.63 282.997 1558.64 286.703 1557.53 290.041C1557.27 290.846 1556.93 291.651 1556.89 292.503C1556.85 293.355 1557.17 294.289 1557.93 294.692C1558.67 295.094 1559.82 294.668 1559.9 293.822C1559.72 294.89 1560.74 295.905 1561.82 295.97C1562.9 296.034 1563.92 295.345 1564.52 294.441C1564.38 295.164 1565.22 295.777 1565.95 295.695C1566.69 295.614 1567.28 295.089 1567.8 294.557C1571.05 291.208 1573.1 286.831 1574.31 282.326C1575.52 277.815 1575.95 273.141 1576.35 268.49C1570.79 270.538 1564.65 270.964 1558.87 269.698C1558.39 270.853 1557.36 271.664 1556.47 272.546C1553.69 275.3 1552.11 279.006 1550.59 282.618Z" fill="#FCA19F"/>
<path d="M1577.64 246.32C1574.09 245.526 1557.52 246.81 1549.76 253.504C1549.76 253.504 1548.07 269.371 1552.33 271.262C1556.6 273.152 1580.31 270.655 1581.47 266.856C1582.64 263.063 1580.33 246.921 1577.64 246.32Z" fill="#EEF0F1"/>
<path d="M1349.82 242.136C1349.84 241.43 1349.87 240.718 1349.89 240.012C1350.99 240.928 1352.22 241.885 1353.65 241.915C1355.08 241.944 1356.58 240.479 1355.99 239.172C1356.83 240.222 1358.71 239.563 1359.21 238.314C1359.71 237.071 1359.25 235.659 1358.68 234.445C1358.1 233.231 1357.4 232.012 1357.39 230.675C1357.39 230.389 1357.43 230.086 1357.6 229.852C1357.84 229.526 1358.28 229.421 1358.68 229.339C1361.43 228.784 1364.18 228.23 1366.93 227.676C1367.97 227.466 1369.33 226.684 1368.87 225.727C1368.7 225.394 1368.35 225.196 1368.02 225.032C1364.44 223.264 1360.48 222.284 1356.49 222.19C1354.77 222.149 1353.01 222.284 1351.46 223.019C1349.91 223.754 1348.62 225.201 1348.46 226.905C1346.53 226.754 1344.79 228.405 1344.26 230.278C1343.74 232.152 1344.16 234.159 1344.8 235.997C1345.27 237.363 1345.86 238.693 1346.55 239.965C1347.21 241.226 1348.46 242.609 1349.82 242.136Z" fill="#FCA19F"/>
<path d="M1153.93 383.776C1149.96 368.922 1155.24 354.616 1165.72 351.822C1176.2 349.029 1187.91 358.805 1191.88 373.659C1195.85 388.513 1190.57 402.819 1180.09 405.613C1169.61 408.406 1157.9 398.63 1153.93 383.776Z" fill="white"/>
<path d="M1179.42 365.969C1182.61 365.117 1185.91 365.449 1189.07 366.716C1190.23 369.009 1191.19 371.495 1191.91 374.156C1195.87 389.013 1190.6 403.317 1180.12 406.112C1176.93 406.964 1173.63 406.631 1170.47 405.365C1169.31 403.071 1168.35 400.585 1167.64 397.924C1163.66 383.067 1168.95 368.758 1179.42 365.969Z" fill="#EEF0F1"/>
<path d="M1314.1 383.781C1310.13 368.927 1315.41 354.621 1325.89 351.827C1336.36 349.034 1348.08 358.81 1352.04 373.664C1356.01 388.518 1350.74 402.824 1340.26 405.617C1329.78 408.411 1318.07 398.634 1314.1 383.781Z" fill="white"/>
<path d="M1339.58 365.969C1342.77 365.117 1346.07 365.449 1349.24 366.716C1350.39 369.009 1351.36 371.495 1352.07 374.156C1356.04 389.013 1350.76 403.317 1340.29 406.112C1337.1 406.964 1333.79 406.631 1330.63 405.365C1329.48 403.071 1328.51 400.585 1327.8 397.924C1323.83 383.067 1329.11 368.758 1339.58 365.969Z" fill="#EEF0F1"/>
<path d="M1354.96 372.619C1352.92 364.974 1355.63 357.612 1361.02 356.175C1366.41 354.739 1372.44 359.772 1374.48 367.417C1376.52 375.061 1373.81 382.423 1368.42 383.86C1363.02 385.297 1357 380.264 1354.96 372.619Z" fill="#FFA436"/>
<path d="M1682.72 380.869C1680.68 373.225 1683.39 365.862 1688.78 364.425C1694.17 362.988 1700.2 368.02 1702.24 375.665C1704.28 383.31 1701.57 390.672 1696.18 392.109C1690.79 393.547 1684.76 388.514 1682.72 380.869Z" fill="#FFA436"/>
<path d="M1290.54 354.577C1292.14 354.344 1293.63 355.458 1293.87 357.052L1299.03 392.445C1299.27 394.038 1298.15 395.532 1296.56 395.765C1294.96 395.999 1293.46 394.884 1293.23 393.291L1288.07 357.898C1287.83 356.305 1288.95 354.811 1290.54 354.577Z" fill="#494949"/>
<path d="M1277.19 354.577C1278.79 354.344 1280.28 355.458 1280.52 357.052L1285.68 392.445C1285.92 394.038 1284.8 395.532 1283.21 395.765C1281.61 395.999 1280.11 394.884 1279.88 393.291L1274.72 357.898C1274.49 356.305 1275.6 354.811 1277.19 354.577Z" fill="#494949"/>
<path d="M1263.2 354.577C1264.79 354.344 1266.29 355.458 1266.52 357.052L1271.68 392.445C1271.92 394.038 1270.8 395.532 1269.21 395.765C1267.61 395.999 1266.12 394.884 1265.88 393.291L1260.72 357.898C1260.49 356.305 1261.6 354.811 1263.2 354.577Z" fill="#494949"/>
<path d="M1249.85 354.577C1251.45 354.344 1252.94 355.458 1253.18 357.052L1258.34 392.445C1258.57 394.038 1257.46 395.532 1255.86 395.765C1254.27 395.999 1252.77 394.884 1252.54 393.291L1247.37 357.898C1247.14 356.305 1248.26 354.811 1249.85 354.577Z" fill="#494949"/>
<path d="M1236.18 354.577C1237.78 354.344 1239.27 355.458 1239.5 357.052L1244.67 392.445C1244.9 394.038 1243.79 395.532 1242.19 395.765C1240.6 395.999 1239.1 394.884 1238.87 393.291L1233.7 357.898C1233.47 356.305 1234.59 354.811 1236.18 354.577Z" fill="#494949"/>
<path d="M1222.83 354.577C1224.43 354.344 1225.92 355.458 1226.15 357.052L1231.32 392.445C1231.55 394.038 1230.44 395.532 1228.84 395.765C1227.25 395.999 1225.75 394.884 1225.52 393.291L1220.35 357.898C1220.12 356.305 1221.24 354.811 1222.83 354.577Z" fill="#494949"/>
<path d="M1208.51 354.577C1210.1 354.344 1211.6 355.458 1211.83 357.052L1216.99 392.445C1217.23 394.038 1216.11 395.532 1214.52 395.765C1212.92 395.999 1211.43 394.884 1211.19 393.291L1206.03 357.898C1205.8 356.305 1206.92 354.811 1208.51 354.577Z" fill="#494949"/>
<path d="M1155.19 415.816H1701.44C1703.94 415.816 1705.99 413.768 1705.99 411.264C1705.99 408.761 1703.94 406.712 1701.44 406.712H1155.19C1152.69 406.712 1150.64 408.761 1150.64 411.264C1150.64 413.768 1152.69 415.816 1155.19 415.816Z" fill="#EEF0F1"/>
<path d="M1326.91 460.686H1753.52C1757.3 460.686 1760.36 457.628 1760.36 453.858C1760.36 450.088 1757.3 447.03 1753.52 447.03H1326.91C1306.12 447.03 1290.09 441.206 1279.29 429.716C1267.51 417.199 1265.04 401.343 1265.04 390.25C1265.04 355.487 1289.12 318.273 1324.96 318.273C1328.73 318.273 1331.8 315.215 1331.8 311.445C1331.8 307.676 1328.73 304.618 1324.96 304.618C1280.94 304.618 1251.36 348.898 1251.36 390.255C1251.36 409.431 1257.74 426.769 1269.32 439.076C1282.63 453.21 1302.54 460.686 1326.91 460.686Z" fill="#494949"/>
<path d="M1317.31 450.281L1331.63 413.861" stroke="#494949" stroke-width="20.059" stroke-miterlimit="10" stroke-linecap="round" stroke-linejoin="round"/>
<path d="M1670.19 450.281L1684.51 413.861" stroke="#494949" stroke-width="20.059" stroke-miterlimit="10" stroke-linecap="round" stroke-linejoin="round"/>
<defs>
<filter id="filter0_d" x="774.216" y="-279.459" width="922.768" height="931.949" filterUnits="userSpaceOnUse" color-interpolation-filters="sRGB">
<feFlood flood-opacity="0" result="BackgroundImageFix"/>
<feColorMatrix in="SourceAlpha" type="matrix" values="0 0 0 0 0 0 0 0 0 0 0 0 0 0 0 0 0 0 127 0"/>
<feOffset dy="14"/>
<feGaussianBlur stdDeviation="10"/>
<feColorMatrix type="matrix" values="0 0 0 0 0 0 0 0 0 0 0 0 0 0 0 0 0 0 0.1 0"/>
<feBlend mode="normal" in2="BackgroundImageFix" result="effect1_dropShadow"/>
<feBlend mode="normal" in="SourceGraphic" in2="effect1_dropShadow" result="shape"/>
</filter>
</defs>
</svg>
